<svg xmlns="http://www.w3.org/2000/svg" xmlns:xlink="http://www.w3.org/1999/xlink" width="1080" zoomAndPan="magnify" viewBox="0 0 810 809.999993" height="1080" preserveAspectRatio="xMidYMid meet" version="1.2"><g id="9f8a7f2c25"><path style=" stroke:none;fill-rule:nonzero;fill:#e4e4e6;fill-opacity:1;" d="M 210.367188 705.757812 C 203.519531 713.359375 182.3125 732.632812 165.054688 731.742188 C 158.730469 731.308594 153.507812 727.90625 148.8125 720.996094 L 139.53125 708.933594 C 134.234375 702.871094 132.195312 696.625 133.242188 689.875 C 135.996094 672.34375 159.195312 654.910156 168.144531 649.5 C 168.144531 649.5 294.035156 566.441406 358.113281 524.429688 C 367.636719 532.609375 376.675781 541.5 384.875 549.917969 C 329.363281 599.738281 210.972656 705.167969 210.367188 705.757812 Z M 641.933594 687.726562 C 643.195312 694.414062 641.011719 700.828125 635.023438 707.628906 L 625.246094 720.117188 C 619.808594 727.976562 613.707031 731.777344 606.585938 731.777344 C 591.378906 731.777344 574.085938 714.558594 568.046875 707.210938 C 566.609375 705.855469 423.765625 569.015625 416.875 561.925781 C 413.738281 558.757812 410.410156 555.222656 406.875 551.492188 C 378.0625 521.1875 338.601562 479.691406 298.171875 479.691406 C 294.292969 479.691406 290.4375 480.074219 286.707031 480.867188 C 282.515625 481.746094 277.992188 482.1875 273.296875 482.1875 C 228.601562 482.1875 177.746094 442.726562 177.230469 442.328125 L 106.640625 386.933594 C 105.816406 386.277344 23.777344 321.183594 26.476562 268.089844 C 27.25 253.054688 34.78125 240.582031 49.488281 230.085938 L 605.617188 650.28125 C 614.660156 654.960938 638.773438 670.796875 641.933594 687.726562 Z M 435.171875 503.058594 L 415.523438 488.203125 C 452.710938 465.296875 493.523438 435.097656 504.164062 397.769531 C 515.753906 357.019531 567.914062 310.027344 568.011719 309.902344 L 699.023438 209.179688 L 772.902344 305.277344 L 642.359375 405.683594 C 641.78125 406.082031 582.960938 444.390625 540.585938 445.125 C 502.121094 445.800781 462.847656 477.332031 435.171875 503.058594 Z M 435.171875 503.058594 "/><path style=" stroke:none;fill-rule:nonzero;fill:#333333;fill-opacity:1;" d="M 611.015625 759.125 C 582.3125 759.125 558.214844 732.65625 552.746094 726.191406 C 534.503906 708.722656 408.703125 588.199219 401.75 581.066406 C 398.535156 577.78125 395.113281 574.175781 391.5 570.375 C 367.519531 545.148438 331.308594 507.039062 302.605469 507.039062 C 300.5625 507.039062 298.632812 507.226562 296.726562 507.644531 C 290.703125 508.894531 284.300781 509.535156 277.726562 509.535156 C 223.585938 509.535156 167.152344 465.695312 164.78125 463.832031 L 94.171875 408.453125 C 84.550781 400.886719 0.257812 332.757812 3.589844 266.710938 C 4.484375 249.144531 12.113281 224.019531 43.503906 204.152344 C 50.519531 199.710938 59.578125 200.074219 66.210938 205.09375 L 624.242188 626.851562 C 633.070312 631.664062 667.539062 652.269531 673.25 682.628906 C 675.214844 693.082031 674.582031 708.835938 660.648438 724.914062 L 651.792969 736.21875 C 638.445312 755.128906 622.289062 759.117188 611.042969 759.117188 L 611.015625 759.117188 Z M 302.605469 467.132812 C 348.449219 467.132812 390.0625 510.894531 420.425781 542.859375 C 423.917969 546.527344 427.222656 550 430.292969 553.152344 C 435.296875 558.277344 523.285156 642.679688 581.183594 698.152344 C 581.789062 698.730469 582.375 699.371094 582.90625 700.027344 C 589.453125 708.03125 602.90625 719.203125 611.007812 719.203125 C 612.109375 719.203125 615.003906 719.203125 619.339844 712.96875 C 619.542969 712.640625 619.785156 712.355469 620.003906 712.042969 L 629.527344 699.894531 C 629.765625 699.566406 630.03125 699.273438 630.28125 698.96875 C 634.722656 693.953125 634.199219 691.199219 633.976562 690.007812 C 632.03125 679.644531 613.679688 666.304688 604.292969 661.464844 C 603.28125 660.941406 602.3125 660.34375 601.40625 659.652344 L 54.257812 246.089844 C 45.359375 254.765625 43.757812 262.886719 43.449219 268.730469 C 41.503906 307.335938 98.65625 361.222656 118.816406 377.046875 L 189.425781 432.453125 C 202.640625 442.78125 244.332031 469.628906 277.726562 469.628906 C 281.5625 469.628906 285.207031 469.273438 288.554688 468.5625 C 293.128906 467.613281 297.863281 467.132812 302.605469 467.132812 Z M 302.605469 467.132812 "/><path style=" stroke:none;fill-rule:nonzero;fill:#f17897;fill-opacity:1;" d="M 379.402344 126.890625 C 384.421875 116.675781 390.210938 108.015625 397.65625 100.519531 C 427.300781 70.570312 476.789062 67.808594 509.351562 94.746094 C 534.992188 115.902344 547.957031 143.5 548.730469 176.636719 C 549.03125 190.136719 544.058594 202.417969 537.816406 214.144531 C 525.398438 237.484375 508.273438 257.199219 489.890625 275.949219 C 457.082031 309.363281 420.710938 338.636719 382.636719 365.796875 C 380.957031 367.011719 379.667969 368.390625 377.03125 366.496094 C 335.5 336.816406 295.917969 304.839844 260.871094 267.554688 C 245.914062 251.675781 232.421875 234.625 221.59375 215.527344 C 202.882812 182.433594 208.289062 150.726562 226.976562 120.042969 C 240.914062 97.179688 261.054688 82.269531 287.789062 77.402344 C 324.230469 70.820312 359.332031 88.46875 376.792969 121.917969 C 377.511719 123.347656 378.203125 124.667969 379.402344 126.890625 Z M 379.402344 126.890625 "/><path style=" stroke:none;fill-rule:nonzero;fill:#333333;fill-opacity:1;" d="M 379.402344 387.394531 C 375.984375 387.394531 370.789062 386.585938 365.398438 382.722656 C 316.203125 347.554688 278.359375 315.296875 246.332031 281.226562 C 228.675781 262.492188 214.90625 244.214844 204.230469 225.378906 C 183.539062 188.757812 185.449219 149.847656 209.941406 109.660156 C 227.144531 81.417969 252.832031 63.476562 284.210938 57.753906 C 319.921875 51.324219 355.867188 64.355469 379.402344 90.804688 C 380.726562 89.3125 382.085938 87.863281 383.472656 86.460938 C 402.503906 67.242188 429.300781 56.226562 456.929688 56.226562 C 480.894531 56.226562 504.03125 64.445312 522.058594 79.363281 C 552.070312 104.117188 567.753906 136.703125 568.679688 176.164062 C 569.121094 195.226562 561.820312 211.46875 555.425781 223.503906 C 540.96875 250.679688 521.375 272.335938 504.136719 289.921875 C 473.902344 320.703125 437.960938 350.832031 394.226562 382.03125 C 392.289062 383.496094 387.15625 387.394531 379.402344 387.394531 Z M 302.878906 96 C 299.070312 96 295.179688 96.347656 291.351562 97.03125 C 270.949219 100.742188 255.460938 111.675781 244.03125 130.425781 C 226.949219 158.464844 225.398438 181.679688 238.976562 205.714844 C 248.054688 221.71875 259.964844 237.484375 275.398438 253.878906 C 303.589844 283.855469 336.796875 312.53125 379.359375 343.554688 C 417.515625 315.800781 449.042969 289.085938 475.644531 261.960938 C 490.894531 246.417969 508.113281 227.464844 520.203125 204.765625 C 526.394531 193.121094 528.953125 184.859375 528.78125 177.125 C 528.132812 149.371094 517.628906 127.449219 496.65625 110.140625 C 485.742188 101.117188 471.65625 96.152344 456.949219 96.152344 C 439.878906 96.152344 423.4375 102.875 411.855469 114.582031 C 406.253906 120.238281 401.625 126.945312 397.34375 135.683594 C 394.039062 142.386719 387.289062 146.703125 379.828125 146.855469 C 372.582031 147.015625 365.441406 142.976562 361.878906 136.429688 C 360.539062 133.96875 359.785156 132.53125 358.992188 130.941406 C 347.605469 109.136719 326.585938 96 302.878906 96 Z M 302.878906 96 "/><path style=" stroke:none;fill-rule:nonzero;fill:#333333;fill-opacity:1;" d="M 407.65625 507.03125 C 400.859375 507.03125 394.253906 503.558594 390.496094 497.304688 C 384.839844 487.855469 387.9375 475.597656 397.40625 469.941406 C 417.894531 457.703125 472.3125 425.179688 482.277344 390.273438 C 496.035156 341.941406 552.238281 291.296875 554.628906 289.164062 C 554.984375 288.835938 555.363281 288.535156 555.757812 288.242188 L 692.628906 182.996094 C 701.378906 176.253906 713.910156 177.90625 720.625 186.636719 C 727.347656 195.386719 725.695312 207.917969 716.964844 214.640625 L 580.714844 319.398438 C 566.429688 332.328125 529.351562 370.742188 520.671875 401.214844 C 508 445.632812 459.078125 479.59375 417.886719 504.207031 C 414.664062 506.117188 411.144531 507.03125 407.65625 507.03125 Z M 407.65625 507.03125 "/><path style=" stroke:none;fill-rule:nonzero;fill:#333333;fill-opacity:1;" d="M 170.945312 759.144531 C 169.84375 759.144531 168.722656 759.109375 167.59375 759.019531 C 157.347656 758.316406 142.769531 753.949219 131.226562 737.222656 L 122.902344 726.398438 C 112.566406 714.289062 108.335938 700.179688 110.664062 685.566406 C 115.886719 652.457031 153.910156 628.804688 158.242188 626.195312 C 158.207031 626.195312 289.867188 539.332031 352.199219 498.503906 C 361.390625 492.472656 373.773438 495.03125 379.820312 504.257812 C 385.867188 513.476562 383.277344 525.851562 374.066406 531.898438 C 311.609375 572.824219 179.496094 659.996094 179.496094 659.996094 C 168.191406 666.855469 151.722656 681.304688 150.070312 691.828125 C 149.742188 694.03125 149.894531 696.625 153.4375 700.683594 C 153.695312 700.996094 153.972656 701.296875 154.210938 701.625 L 163.199219 713.324219 C 163.4375 713.652344 163.679688 713.980469 163.902344 714.300781 C 167.042969 718.953125 169.265625 719.113281 170.3125 719.183594 C 179.425781 720.011719 196.753906 706.910156 205.476562 697.300781 C 205.9375 696.769531 206.46875 696.242188 207.003906 695.773438 C 207.003906 695.773438 326.292969 589.53125 381.535156 539.964844 C 389.769531 532.59375 402.363281 533.300781 409.726562 541.5 C 417.078125 549.699219 416.402344 562.320312 408.199219 569.699219 C 355.511719 616.949219 244.644531 715.710938 234.332031 724.894531 C 227.402344 732.425781 200.652344 759.144531 170.945312 759.144531 Z M 170.945312 759.144531 "/><path style=" stroke:none;fill-rule:nonzero;fill:#333333;fill-opacity:1;" d="M 440.074219 532.636719 C 434.78125 532.636719 429.503906 530.558594 425.585938 526.417969 C 418.003906 518.425781 418.332031 505.796875 426.34375 498.210938 C 455.652344 470.394531 499.820312 433.359375 544.789062 432.558594 C 576.601562 432.007812 623.167969 406.046875 639.296875 395.566406 L 775.53125 290.808594 C 784.277344 284.085938 796.8125 285.738281 803.507812 294.46875 C 810.230469 303.199219 808.597656 315.730469 799.867188 322.453125 L 663.011719 427.691406 C 662.609375 427.976562 662.210938 428.269531 661.800781 428.554688 C 659.136719 430.300781 595.730469 471.628906 545.480469 472.480469 C 510.832031 473.09375 467.898438 513.796875 453.804688 527.175781 C 449.941406 530.832031 445.003906 532.636719 440.074219 532.636719 Z M 440.074219 532.636719 "/><path style=" stroke:none;fill-rule:nonzero;fill:#333333;fill-opacity:1;" d="M 602.773438 383 C 596.78125 383 590.863281 380.316406 586.929688 375.203125 C 580.207031 366.46875 581.867188 353.9375 590.589844 347.214844 L 734.097656 236.898438 C 742.828125 230.164062 755.378906 231.824219 762.074219 240.566406 C 768.796875 249.296875 767.164062 261.828125 758.414062 268.542969 L 614.917969 378.851562 C 611.300781 381.65625 607.027344 383 602.773438 383 Z M 602.773438 383 "/></g></svg>