<svg width="20" height="20" viewBox="0 0 20 20" fill="none" xmlns="http://www.w3.org/2000/svg">
<path fill-rule="evenodd" clip-rule="evenodd" d="M14 0.131348V19.8684L7.60555 15.6054C7.01328 15.2106 6.31738 14.9999 5.60555 14.9999H5C2.23858 14.9999 0 12.7613 0 9.99986C0 7.23844 2.23858 4.99986 5 4.99986H5.60555C6.31738 4.99986 7.01328 4.78916 7.60555 4.39431L14 0.131348ZM12 3.86838L8.71495 6.05841C7.79414 6.67229 6.71223 6.99986 5.60555 6.99986H5C3.34315 6.99986 2 8.34301 2 9.99986C2 11.6567 3.34315 12.9999 5 12.9999H5.60555C6.71223 12.9999 7.79414 13.3274 8.71495 13.9413L12 16.1313V3.86838Z" fill="black"/>
<path d="M15 6.99986H17V12.9999H15V6.99986Z" fill="black"/>
<path d="M20 3.99986H18V15.9999H20V3.99986Z" fill="black"/>
</svg>
