<svg xmlns="http://www.w3.org/2000/svg" xmlns:xlink="http://www.w3.org/1999/xlink" width="1080" zoomAndPan="magnify" viewBox="0 0 810 809.999993" height="1080" preserveAspectRatio="xMidYMid meet" version="1.2"><defs><clipPath id="56fb0ef642"><path d="M 36.253906 381 L 773.503906 381 L 773.503906 780 L 36.253906 780 Z M 36.253906 381 "/></clipPath><clipPath id="10f43b44a8"><path d="M 36.253906 381 L 261 381 L 261 592 L 36.253906 592 Z M 36.253906 381 "/></clipPath><clipPath id="3b4e0b38b1"><path d="M 483 381 L 773.503906 381 L 773.503906 662 L 483 662 Z M 483 381 "/></clipPath></defs><g id="58540d9272"><path style=" stroke:none;fill-rule:nonzero;fill:#87dcff;fill-opacity:1;" d="M 404.796875 768.296875 C 601.910156 768.296875 761.714844 608.390625 761.714844 411.148438 C 761.714844 401.121094 753.539062 392.917969 743.5 392.917969 L 66.078125 392.917969 C 56.054688 392.917969 47.859375 401.101562 47.859375 411.148438 C 47.878906 608.390625 207.683594 768.296875 404.796875 768.296875 Z M 404.796875 768.296875 "/><path style=" stroke:none;fill-rule:evenodd;fill:#bee86e;fill-opacity:1;" d="M 249.210938 392.917969 L 66.078125 392.917969 C 56.054688 392.917969 47.859375 401.101562 47.859375 411.148438 C 47.859375 472.316406 63.234375 529.886719 90.320312 580.234375 C 122.128906 521.179688 151.75 454.023438 190.417969 440.199219 C 214.785156 431.488281 234.585938 415.289062 249.210938 392.917969 Z M 249.210938 392.917969 "/><path style=" stroke:none;fill-rule:evenodd;fill:#bee86e;fill-opacity:1;" d="M 404.796875 768.296875 C 424.253906 768.296875 443.363281 766.714844 461.988281 763.710938 C 468.054688 740.34375 476.390625 715.820312 486.757812 703.964844 C 509.746094 677.695312 501.203125 639.917969 486.757812 611.984375 C 472.3125 584.070312 403.722656 552.847656 376.636719 584.070312 C 349.554688 615.273438 335.109375 616.917969 223.183594 600.492188 C 179.300781 594.058594 154.855469 619.167969 141.34375 652.078125 C 206.609375 723.496094 300.480469 768.296875 404.796875 768.296875 Z M 404.796875 768.296875 "/><path style=" stroke:none;fill-rule:evenodd;fill:#bee86e;fill-opacity:1;" d="M 761.714844 411.148438 C 761.714844 401.121094 753.539062 392.917969 743.5 392.917969 L 511.0625 392.917969 C 433.585938 572.398438 664.234375 485.691406 670.058594 650.085938 C 727.023438 586.789062 761.714844 503.03125 761.714844 411.148438 Z M 761.714844 411.148438 "/><path style=" stroke:none;fill-rule:evenodd;fill:#304556;fill-opacity:1;" d="M 169.929688 266.871094 L 72.769531 392.917969 L 183.09375 392.917969 L 239.128906 320.222656 L 198.007812 266.871094 C 194.539062 262.363281 189.648438 259.96875 183.96875 259.96875 C 178.285156 259.96875 173.398438 262.363281 169.929688 266.871094 Z M 169.929688 266.871094 "/><path style=" stroke:none;fill-rule:evenodd;fill:#3b566a;fill-opacity:1;" d="M 239.128906 320.222656 L 183.09375 392.917969 L 466.492188 392.917969 L 342.675781 232.300781 C 338.253906 226.554688 332.027344 223.488281 324.785156 223.488281 C 317.539062 223.488281 311.3125 226.554688 306.890625 232.300781 Z M 239.128906 320.222656 "/><path style=" stroke:none;fill-rule:nonzero;fill:#e8e8e8;fill-opacity:1;" d="M 305.914062 107.835938 C 305.914062 145.289062 336.265625 175.660156 373.695312 175.660156 C 402.421875 175.660156 427.984375 157.550781 437.582031 130.53125 C 438.859375 126.898438 438.007812 123.101562 435.289062 120.382812 C 432.570312 117.660156 428.777344 116.808594 425.144531 118.089844 C 419.953125 119.933594 414.496094 120.871094 408.976562 120.871094 C 382.296875 120.871094 360.671875 99.230469 360.671875 72.535156 C 360.671875 67.011719 361.605469 61.550781 363.453125 56.355469 C 364.730469 52.71875 363.878906 48.921875 361.160156 46.203125 C 358.441406 43.484375 354.648438 42.628906 351.015625 43.910156 C 324.011719 53.492188 305.914062 79.089844 305.914062 107.835938 Z M 305.914062 107.835938 "/><path style=" stroke:none;fill-rule:evenodd;fill:#58a339;fill-opacity:1;" d="M 467.082031 224.339844 C 447.949219 227.164062 433.140625 243.769531 433.140625 263.664062 C 433.140625 285.527344 451.011719 303.394531 472.84375 303.394531 L 586.453125 303.394531 C 587.75 303.394531 589.050781 303.332031 590.328125 303.210938 C 610.371094 301.242188 626.175781 284.207031 626.175781 263.664062 C 626.175781 250.550781 619.722656 238.855469 609.863281 231.609375 C 604.773438 227.875 598.746094 225.316406 592.234375 224.339844 C 598.339844 217.359375 602.054688 208.222656 602.054688 198.253906 C 602.054688 178.300781 587.140625 161.652344 567.910156 158.914062 C 569.1875 154.996094 569.878906 150.792969 569.878906 146.449219 C 569.878906 124.21875 551.882812 106.210938 529.667969 106.210938 C 507.453125 106.210938 489.457031 124.21875 489.457031 146.449219 C 489.457031 150.792969 490.148438 154.996094 491.425781 158.914062 C 472.191406 161.652344 457.28125 178.28125 457.28125 198.253906 C 457.28125 208.222656 460.972656 217.359375 467.082031 224.339844 Z M 467.082031 224.339844 "/><path style=" stroke:none;fill-rule:evenodd;fill:#8bc34a;fill-opacity:1;" d="M 662.835938 324.28125 L 706.390625 324.28125 C 723.128906 324.28125 736.84375 310.578125 736.84375 293.8125 C 736.84375 278.566406 725.484375 265.835938 710.816406 263.664062 C 715.5 258.304688 718.339844 251.300781 718.339844 243.667969 C 718.339844 228.359375 706.898438 215.59375 692.171875 213.5 C 693.144531 210.496094 693.671875 207.289062 693.671875 203.941406 C 693.671875 186.90625 679.875 173.082031 662.835938 173.082031 C 645.8125 173.082031 631.996094 186.886719 631.996094 203.941406 C 631.996094 207.269531 632.523438 210.496094 633.5 213.5 C 622.886719 215.003906 613.984375 222.046875 609.84375 231.570312 C 619.722656 238.816406 626.15625 250.507812 626.15625 263.625 C 626.15625 284.167969 610.351562 301.199219 590.308594 303.167969 C 594.28125 315.371094 605.785156 324.242188 619.257812 324.242188 L 662.835938 324.242188 Z M 662.835938 324.28125 "/><g clip-rule="nonzero" clip-path="url(#56fb0ef642)"><path style=" stroke:none;fill-rule:nonzero;fill:#373435;fill-opacity:1;" d="M 404.796875 779.992188 C 201.535156 779.992188 36.191406 614.519531 36.191406 411.148438 C 36.191406 394.644531 49.601562 381.226562 66.097656 381.226562 L 743.519531 381.226562 C 760.011719 381.226562 773.421875 394.644531 773.421875 411.148438 C 773.402344 614.519531 608.058594 779.992188 404.796875 779.992188 Z M 66.078125 404.613281 C 62.484375 404.613281 59.542969 407.535156 59.542969 411.148438 C 59.542969 601.628906 214.417969 756.605469 404.777344 756.605469 C 595.136719 756.605469 750.011719 601.628906 750.011719 411.148438 C 750.011719 407.554688 747.089844 404.613281 743.476562 404.613281 Z M 66.078125 404.613281 "/></g><path style=" stroke:none;fill-rule:nonzero;fill:#373435;fill-opacity:1;" d="M 466.492188 404.613281 L 183.09375 404.613281 C 178.632812 404.613281 174.574219 402.074219 172.605469 398.074219 C 170.636719 394.074219 171.125 389.304688 173.84375 385.773438 L 297.660156 225.152344 C 304.292969 216.546875 313.929688 211.796875 324.804688 211.796875 C 335.675781 211.796875 345.3125 216.546875 351.949219 225.152344 L 475.761719 385.773438 C 478.480469 389.304688 478.96875 394.074219 477 398.074219 C 475.011719 402.074219 470.933594 404.613281 466.492188 404.613281 Z M 206.851562 381.226562 L 442.714844 381.226562 L 333.425781 239.425781 C 331.214844 236.5625 328.394531 235.183594 324.785156 235.183594 C 321.171875 235.183594 318.351562 236.582031 316.140625 239.425781 Z M 206.851562 381.226562 "/><path style=" stroke:none;fill-rule:nonzero;fill:#373435;fill-opacity:1;" d="M 183.09375 404.613281 L 72.769531 404.613281 C 68.308594 404.613281 64.25 402.074219 62.28125 398.074219 C 60.316406 394.074219 60.800781 389.304688 63.519531 385.773438 L 160.675781 259.726562 C 166.378906 252.335938 174.636719 248.277344 183.96875 248.277344 C 193.300781 248.277344 201.558594 252.335938 207.257812 259.726562 L 248.378906 313.074219 C 251.625 317.277344 251.625 323.144531 248.378906 327.367188 L 192.347656 400.0625 C 190.132812 402.925781 186.707031 404.613281 183.09375 404.613281 Z M 96.546875 381.226562 L 177.355469 381.226562 L 224.378906 320.222656 L 188.777344 274.015625 C 187.519531 272.394531 186.035156 271.664062 183.988281 271.664062 C 181.9375 271.664062 180.457031 272.394531 179.199219 274.015625 Z M 96.546875 381.226562 "/><path style=" stroke:none;fill-rule:nonzero;fill:#373435;fill-opacity:1;" d="M 706.371094 335.976562 L 619.277344 335.976562 C 601 335.976562 584.890625 324.261719 579.210938 306.824219 C 578.113281 303.453125 578.601562 299.757812 580.527344 296.792969 C 582.476562 293.832031 585.640625 291.902344 589.171875 291.558594 C 603.351562 290.175781 614.46875 277.914062 614.46875 263.644531 C 614.46875 254.773438 610.148438 246.328125 602.925781 241.027344 C 598.523438 237.800781 596.941406 231.933594 599.132812 226.921875 C 603.332031 217.296875 611 209.644531 620.332031 205.339844 C 620.3125 204.875 620.3125 204.425781 620.3125 203.960938 C 620.3125 180.492188 639.382812 161.410156 662.835938 161.410156 C 686.289062 161.410156 705.359375 180.492188 705.359375 203.960938 C 705.359375 204.425781 705.359375 204.875 705.335938 205.320312 C 719.984375 212.039062 730.027344 226.921875 730.027344 243.667969 C 730.027344 248.398438 729.214844 253.066406 727.695312 257.472656 C 740.210938 264.902344 748.53125 278.585938 748.53125 293.789062 C 748.507812 317.054688 729.601562 335.976562 706.371094 335.976562 Z M 609.234375 309.664062 C 612.175781 311.53125 615.625 312.589844 619.277344 312.589844 L 706.371094 312.589844 C 716.71875 312.589844 725.136719 304.164062 725.136719 293.8125 C 725.136719 284.574219 718.242188 276.597656 709.089844 275.234375 C 704.871094 274.605469 701.320312 271.722656 699.839844 267.703125 C 698.359375 263.683594 699.191406 259.199219 702.011719 255.96875 C 704.992188 252.539062 706.65625 248.175781 706.65625 243.667969 C 706.65625 234.371094 699.71875 226.390625 690.527344 225.09375 C 687.121094 224.605469 684.074219 222.636719 682.25 219.714844 C 680.425781 216.789062 679.976562 213.195312 681.054688 209.90625 C 681.683594 208 681.988281 205.988281 681.988281 203.960938 C 681.988281 193.402344 673.40625 184.796875 662.835938 184.796875 C 652.285156 184.796875 643.683594 193.382812 643.683594 203.960938 C 643.683594 205.988281 644.007812 207.980469 644.617188 209.90625 C 645.691406 213.195312 645.246094 216.789062 643.417969 219.714844 C 641.59375 222.636719 638.570312 224.625 635.140625 225.09375 C 631.367188 225.621094 627.878906 227.324219 625.121094 229.863281 C 633.214844 239.160156 637.839844 251.179688 637.839844 263.644531 C 637.859375 283.4375 626.195312 301.117188 609.234375 309.664062 Z M 609.234375 309.664062 "/><path style=" stroke:none;fill-rule:nonzero;fill:#373435;fill-opacity:1;" d="M 662.835938 404.613281 C 656.382812 404.613281 651.148438 399.375 651.148438 392.917969 L 651.148438 239.445312 C 651.148438 232.988281 656.382812 227.753906 662.835938 227.753906 C 669.285156 227.753906 674.519531 232.988281 674.519531 239.445312 L 674.519531 392.917969 C 674.519531 399.375 669.285156 404.613281 662.835938 404.613281 Z M 662.835938 404.613281 "/><path style=" stroke:none;fill-rule:nonzero;fill:#373435;fill-opacity:1;" d="M 586.453125 315.085938 L 472.84375 315.085938 C 444.5 315.085938 421.453125 292.023438 421.453125 263.664062 C 421.453125 244.074219 432.773438 226.535156 449.492188 217.90625 C 446.933594 211.734375 445.574219 205.054688 445.574219 198.277344 C 445.574219 177 458.84375 158.222656 477.914062 150.527344 C 477.8125 149.167969 477.75 147.828125 477.75 146.449219 C 477.75 117.804688 501.042969 94.519531 529.648438 94.519531 C 558.273438 94.519531 581.542969 117.824219 581.542969 146.449219 C 581.542969 147.808594 581.480469 149.167969 581.378906 150.527344 C 600.449219 158.222656 613.699219 177 613.699219 198.277344 C 613.699219 205.054688 612.339844 211.714844 609.78125 217.90625 C 626.519531 226.535156 637.820312 244.074219 637.820312 263.664062 C 637.859375 292.003906 614.792969 315.085938 586.453125 315.085938 Z M 529.648438 117.90625 C 513.925781 117.90625 501.121094 130.714844 501.121094 146.449219 C 501.121094 149.472656 501.589844 152.457031 502.523438 155.300781 C 503.597656 158.585938 503.152344 162.179688 501.324219 165.105469 C 499.5 168.027344 496.476562 170.015625 493.046875 170.484375 C 479.3125 172.433594 468.945312 184.371094 468.945312 198.253906 C 468.945312 204.996094 471.402344 211.53125 475.886719 216.648438 C 478.703125 219.875 479.515625 224.363281 478.054688 228.382812 C 476.574219 232.402344 473.023438 235.285156 468.785156 235.914062 C 455.132812 237.921875 444.824219 249.859375 444.824219 263.664062 C 444.824219 279.132812 457.402344 291.699219 472.84375 291.699219 L 586.453125 291.699219 C 601.910156 291.699219 614.46875 279.113281 614.46875 263.664062 C 614.46875 249.859375 604.164062 237.921875 590.511719 235.914062 C 586.289062 235.285156 582.71875 232.402344 581.238281 228.382812 C 579.757812 224.363281 580.589844 219.875 583.410156 216.648438 C 587.871094 211.53125 590.328125 204.996094 590.328125 198.253906 C 590.328125 184.371094 579.960938 172.433594 566.226562 170.484375 C 562.816406 169.996094 559.773438 168.027344 557.949219 165.085938 C 556.121094 162.140625 555.675781 158.566406 556.75 155.277344 C 557.683594 152.4375 558.152344 149.453125 558.152344 146.429688 C 558.191406 130.714844 545.390625 117.90625 529.648438 117.90625 Z M 529.648438 117.90625 "/><path style=" stroke:none;fill-rule:nonzero;fill:#373435;fill-opacity:1;" d="M 529.648438 404.613281 C 523.195312 404.613281 517.960938 399.375 517.960938 392.917969 L 517.960938 192.734375 C 517.960938 186.277344 523.195312 181.039062 529.648438 181.039062 C 536.097656 181.039062 541.332031 186.277344 541.332031 192.734375 L 541.332031 392.917969 C 541.332031 399.375 536.117188 404.613281 529.648438 404.613281 Z M 529.648438 404.613281 "/><path style=" stroke:none;fill-rule:nonzero;fill:#373435;fill-opacity:1;" d="M 178.023438 226.269531 L 112.007812 226.269531 C 105.554688 226.269531 100.320312 221.03125 100.320312 214.578125 C 100.320312 208.121094 105.554688 202.882812 112.007812 202.882812 L 178.023438 202.882812 C 184.472656 202.882812 189.707031 208.121094 189.707031 214.578125 C 189.707031 221.03125 184.472656 226.269531 178.023438 226.269531 Z M 178.023438 226.269531 "/><path style=" stroke:none;fill-rule:nonzero;fill:#373435;fill-opacity:1;" d="M 270.210938 192.105469 L 204.195312 192.105469 C 197.742188 192.105469 192.507812 186.867188 192.507812 180.410156 C 192.507812 173.957031 197.742188 168.71875 204.195312 168.71875 L 270.210938 168.71875 C 276.660156 168.71875 281.894531 173.957031 281.894531 180.410156 C 281.894531 186.867188 276.660156 192.105469 270.210938 192.105469 Z M 270.210938 192.105469 "/><path style=" stroke:none;fill-rule:nonzero;fill:#373435;fill-opacity:1;" d="M 373.695312 187.355469 C 329.875 187.355469 294.230469 151.6875 294.230469 107.835938 C 294.230469 74.238281 315.472656 44.132812 347.097656 32.886719 C 354.972656 30.085938 363.511719 32.035156 369.414062 37.921875 C 375.320312 43.828125 377.246094 52.375 374.445312 60.25 C 373.046875 64.167969 372.335938 68.3125 372.335938 72.511719 C 372.335938 92.734375 388.769531 109.15625 408.957031 109.15625 C 413.15625 109.15625 417.292969 108.445312 421.210938 107.042969 C 429.0625 104.242188 437.621094 106.171875 443.527344 112.078125 C 449.429688 117.988281 451.355469 126.53125 448.558594 134.410156 C 437.359375 166.078125 407.253906 187.355469 373.695312 187.355469 Z M 351.15625 56.414062 C 330.929688 65.285156 317.582031 85.464844 317.582031 107.835938 C 317.582031 138.792969 342.738281 163.96875 373.675781 163.96875 C 396.011719 163.96875 416.179688 150.628906 425.066406 130.371094 C 419.832031 131.832031 414.433594 132.5625 408.957031 132.5625 C 375.867188 132.5625 348.964844 105.625 348.964844 72.535156 C 348.988281 67.050781 349.714844 61.632812 351.15625 56.414062 Z M 437.582031 130.53125 Z M 426.566406 126.613281 Z M 426.566406 126.613281 "/><path style=" stroke:none;fill-rule:nonzero;fill:#373435;fill-opacity:1;" d="M 404.796875 779.992188 C 301.59375 779.992188 202.429688 736.242188 132.722656 659.972656 C 129.65625 656.625 128.804688 651.832031 130.53125 647.632812 C 148.910156 602.867188 181.554688 582.566406 224.867188 588.921875 C 338.78125 605.628906 345.679688 601.875 367.792969 576.394531 C 379.398438 563.019531 397.128906 557.355469 419.101562 559.972656 C 450.769531 563.75 485.765625 584.679688 497.105469 606.601562 C 518.429688 647.835938 517.859375 686.121094 495.523438 711.660156 C 491.285156 716.511719 482.742188 730.113281 473.269531 766.632812 C 472.113281 771.121094 468.398438 774.511719 463.8125 775.242188 C 444.359375 778.40625 424.476562 779.992188 404.796875 779.992188 Z M 461.988281 763.710938 Z M 155.160156 649.742188 C 220.121094 717.75 310.664062 756.605469 404.796875 756.605469 C 420.742188 756.605469 436.8125 755.488281 452.675781 753.277344 C 460.363281 725.585938 468.664062 706.890625 477.953125 696.273438 C 500.210938 670.835938 484.265625 632.609375 476.371094 617.363281 C 469.351562 603.78125 442.1875 586.28125 416.363281 583.195312 C 406.644531 582.039062 393.394531 582.566406 385.464844 591.742188 C 353.613281 628.445312 333.34375 628.488281 221.5 612.0625 C 191.269531 607.617188 169.503906 619.980469 155.160156 649.742188 Z M 155.160156 649.742188 "/><g clip-rule="nonzero" clip-path="url(#10f43b44a8)"><path style=" stroke:none;fill-rule:nonzero;fill:#373435;fill-opacity:1;" d="M 90.339844 591.90625 C 86.039062 591.90625 82.082031 589.550781 80.054688 585.753906 C 51.347656 532.425781 36.191406 472.050781 36.191406 411.128906 C 36.191406 394.625 49.601562 381.207031 66.097656 381.207031 L 249.230469 381.207031 C 253.535156 381.207031 257.46875 383.558594 259.519531 387.335938 C 261.566406 391.113281 261.363281 395.699219 259.011719 399.292969 C 242.699219 424.222656 220.972656 441.679688 194.375 451.179688 C 165.769531 461.414062 139.820312 511.027344 114.746094 559.019531 C 110.140625 567.808594 105.394531 576.925781 100.644531 585.734375 C 98.597656 589.550781 94.640625 591.90625 90.339844 591.90625 Z M 66.078125 404.613281 C 62.484375 404.613281 59.542969 407.535156 59.542969 411.148438 C 59.542969 460.683594 70.253906 509.851562 90.664062 554.613281 C 91.78125 552.460938 92.894531 550.328125 94.011719 548.21875 C 122.433594 493.851562 149.253906 442.492188 186.484375 429.195312 C 201.089844 423.980469 213.953125 415.738281 224.90625 404.632812 L 66.078125 404.632812 Z M 66.078125 404.613281 "/></g><g clip-rule="nonzero" clip-path="url(#3b4e0b38b1)"><path style=" stroke:none;fill-rule:nonzero;fill:#373435;fill-opacity:1;" d="M 670.058594 661.78125 C 668.71875 661.78125 667.359375 661.558594 666.0625 661.070312 C 661.578125 659.445312 658.554688 655.265625 658.371094 650.492188 C 655.917969 581.308594 611.667969 562.347656 564.804688 542.269531 C 532 528.203125 501 514.925781 488.644531 483.867188 C 479.089844 459.890625 482.925781 428.628906 500.332031 388.289062 C 502.179688 384.007812 506.398438 381.226562 511.0625 381.226562 L 743.5 381.226562 C 759.992188 381.226562 773.402344 394.644531 773.402344 411.148438 C 773.402344 502.460938 739.785156 590.097656 678.742188 657.921875 C 676.488281 660.421875 673.304688 661.78125 670.058594 661.78125 Z M 518.855469 404.613281 C 506.5 435.40625 503.71875 458.550781 510.355469 475.21875 C 519.136719 497.242188 544.558594 508.144531 574.015625 520.773438 C 615.078125 538.371094 664.964844 559.75 678.394531 621.847656 C 724.773438 561.636719 750.03125 487.785156 750.03125 411.148438 C 750.03125 407.554688 747.109375 404.613281 743.5 404.613281 Z M 518.855469 404.613281 "/></g></g></svg>