<svg xmlns="http://www.w3.org/2000/svg" xmlns:xlink="http://www.w3.org/1999/xlink" width="1080" zoomAndPan="magnify" viewBox="0 0 810 809.999993" height="1080" preserveAspectRatio="xMidYMid meet" version="1.2"><defs><clipPath id="2247300965"><path d="M 1.597656 0.503906 L 654 0.503906 L 654 777.804688 L 1.597656 777.804688 Z M 1.597656 0.503906 "/></clipPath><clipPath id="7525093ef9"><path d="M 251.917969 156.546875 L 403.679688 156.546875 L 403.679688 308.308594 L 251.917969 308.308594 Z M 251.917969 156.546875 "/></clipPath><clipPath id="a13d06749e"><path d="M 327.796875 156.546875 C 285.890625 156.546875 251.917969 190.519531 251.917969 232.429688 C 251.917969 274.335938 285.890625 308.308594 327.796875 308.308594 C 369.707031 308.308594 403.679688 274.335938 403.679688 232.429688 C 403.679688 190.519531 369.707031 156.546875 327.796875 156.546875 Z M 327.796875 156.546875 "/></clipPath><clipPath id="2973e947bb"><path d="M 0.917969 0.546875 L 152.679688 0.546875 L 152.679688 152.308594 L 0.917969 152.308594 Z M 0.917969 0.546875 "/></clipPath><clipPath id="d405d25ca1"><path d="M 76.796875 0.546875 C 34.890625 0.546875 0.917969 34.519531 0.917969 76.429688 C 0.917969 118.335938 34.890625 152.308594 76.796875 152.308594 C 118.707031 152.308594 152.679688 118.335938 152.679688 76.429688 C 152.679688 34.519531 118.707031 0.546875 76.796875 0.546875 Z M 76.796875 0.546875 "/></clipPath><clipPath id="521ed61f8d"><rect x="0" width="153" y="0" height="153"/></clipPath><clipPath id="935401b8fd"><rect x="0" width="656" y="0" height="780"/></clipPath></defs><g id="46b59715c5"><g transform="matrix(1,0,0,1,75,15)"><g clip-path="url(#935401b8fd)"><g clip-rule="nonzero" clip-path="url(#2247300965)"><path style=" stroke:none;fill-rule:nonzero;fill:#333333;fill-opacity:1;" d="M 572.691406 581.039062 C 537.828125 567.519531 493.621094 557.398438 443.34375 551.199219 C 448.992188 542.023438 454.699219 532.640625 460.386719 523.125 C 536.421875 395.902344 574.964844 303.257812 574.964844 247.769531 C 574.964844 111.40625 464.0625 0.503906 327.703125 0.503906 C 191.34375 0.503906 80.441406 111.40625 80.441406 247.769531 C 80.441406 303.257812 118.980469 395.902344 195.019531 523.125 C 200.707031 532.640625 206.414062 542.023438 212.0625 551.179688 C 161.503906 557.398438 117.125 567.636719 82.1875 581.226562 C 28.707031 602.023438 1.578125 629.171875 1.578125 661.890625 C 1.578125 687.84375 19.96875 724.433594 107.570312 751.3125 C 166.71875 769.472656 244.898438 779.464844 327.703125 779.464844 C 410.511719 779.464844 488.691406 769.472656 547.839844 751.3125 C 635.441406 724.429688 653.828125 687.84375 653.828125 661.890625 C 653.828125 629.074219 626.53125 601.851562 572.691406 581.039062 Z M 130.945312 247.769531 C 130.945312 246.308594 130.964844 244.847656 131.003906 243.40625 C 131.003906 242.855469 131.023438 242.289062 131.039062 241.71875 C 131.078125 240.355469 131.136719 239.007812 131.210938 237.664062 C 131.269531 236.410156 131.34375 235.179688 131.4375 233.949219 C 131.570312 231.804688 131.761719 229.683594 131.988281 227.578125 C 132.140625 225.964844 132.332031 224.355469 132.539062 222.742188 C 132.730469 221.246094 132.917969 219.765625 133.164062 218.289062 C 133.183594 218.042969 133.222656 217.8125 133.261719 217.585938 C 133.410156 216.601562 133.5625 215.59375 133.753906 214.609375 C 133.847656 213.945312 133.960938 213.28125 134.09375 212.636719 C 134.320312 211.351562 134.566406 210.058594 134.832031 208.789062 C 135.003906 207.917969 135.175781 207.046875 135.382812 206.191406 C 135.480469 205.660156 135.59375 205.152344 135.707031 204.65625 C 135.933594 203.613281 136.179688 202.570312 136.445312 201.546875 C 136.484375 201.355469 136.523438 201.1875 136.578125 201.015625 C 136.804688 199.992188 137.070312 198.988281 137.335938 197.984375 C 137.453125 197.527344 137.566406 197.074219 137.699219 196.636719 C 138.152344 194.929688 138.625 193.226562 139.136719 191.539062 C 139.6875 189.71875 140.257812 187.898438 140.84375 186.097656 C 141.109375 185.28125 141.394531 184.46875 141.679688 183.652344 C 141.867188 183.0625 142.078125 182.496094 142.285156 181.945312 C 142.546875 181.132812 142.851562 180.335938 143.15625 179.539062 C 143.59375 178.363281 144.046875 177.1875 144.503906 176.011719 C 144.730469 175.40625 144.976562 174.800781 145.222656 174.210938 C 145.5625 173.320312 145.941406 172.429688 146.320312 171.558594 C 146.738281 170.535156 147.175781 169.527344 147.628906 168.523438 C 148.046875 167.558594 148.484375 166.589844 148.9375 165.625 C 150.492188 162.210938 152.164062 158.855469 153.941406 155.539062 C 154.457031 154.550781 154.984375 153.585938 155.515625 152.617188 C 155.6875 152.296875 155.875 151.992188 156.066406 151.671875 C 156.539062 150.78125 157.054688 149.886719 157.582031 149.015625 C 158.832031 146.855469 160.125 144.730469 161.449219 142.644531 C 162.019531 141.71875 162.625 140.808594 163.230469 139.898438 C 163.363281 139.671875 163.515625 139.441406 163.6875 139.214844 C 164.21875 138.363281 164.785156 137.527344 165.375 136.695312 C 165.5625 136.429688 165.734375 136.164062 165.941406 135.898438 C 166.511719 135.042969 167.097656 134.210938 167.707031 133.378906 C 169.792969 130.4375 171.992188 127.558594 174.265625 124.75 C 174.4375 124.523438 174.625 124.277344 174.816406 124.050781 C 175.421875 123.292969 176.027344 122.554688 176.671875 121.8125 C 176.824219 121.625 176.996094 121.414062 177.164062 121.207031 C 177.828125 120.390625 178.527344 119.597656 179.230469 118.800781 C 180.839844 116.941406 182.492188 115.101562 184.195312 113.300781 C 184.972656 112.449219 185.769531 111.613281 186.566406 110.800781 C 186.757812 110.628906 186.925781 110.460938 187.097656 110.269531 C 187.835938 109.492188 188.613281 108.734375 189.371094 107.976562 C 191.136719 106.230469 192.917969 104.507812 194.757812 102.859375 C 195.628906 102.042969 196.5 101.246094 197.410156 100.449219 C 197.46875 100.414062 197.523438 100.355469 197.582031 100.320312 C 198.472656 99.503906 199.382812 98.707031 200.3125 97.949219 C 202.1875 96.339844 204.105469 94.765625 206.054688 93.226562 C 207.023438 92.449219 208.007812 91.691406 208.992188 90.953125 C 209.789062 90.328125 210.605469 89.722656 211.421875 89.132812 C 211.820312 88.847656 212.199219 88.566406 212.597656 88.300781 C 213.355469 87.730469 214.113281 87.183594 214.871094 86.671875 C 215.023438 86.558594 215.191406 86.445312 215.34375 86.347656 C 216.253906 85.683594 217.164062 85.078125 218.074219 84.472656 C 219.855469 83.257812 221.675781 82.082031 223.496094 80.945312 C 224.441406 80.339844 225.390625 79.769531 226.355469 79.183594 C 227.152344 78.691406 227.929688 78.214844 228.746094 77.761719 C 229.390625 77.359375 230.054688 76.984375 230.71875 76.621094 C 232.898438 75.390625 235.097656 74.195312 237.316406 73.039062 C 238.242188 72.546875 239.191406 72.054688 240.160156 71.597656 C 240.445312 71.445312 240.746094 71.292969 241.050781 71.144531 C 242.015625 70.652344 243 70.175781 243.988281 69.742188 C 244.042969 69.703125 244.101562 69.683594 244.160156 69.644531 C 245.257812 69.113281 246.359375 68.621094 247.457031 68.128906 C 248.59375 67.617188 249.75 67.125 250.910156 66.632812 C 251.949219 66.179688 253.011719 65.722656 254.09375 65.304688 C 254.226562 65.25 254.339844 65.210938 254.453125 65.15625 C 255.382812 64.777344 256.3125 64.414062 257.257812 64.054688 C 257.714844 63.882812 258.1875 63.695312 258.660156 63.523438 C 259.492188 63.199219 260.328125 62.898438 261.179688 62.59375 C 261.277344 62.558594 261.351562 62.539062 261.445312 62.5 C 261.578125 62.441406 261.730469 62.40625 261.863281 62.347656 C 268.140625 60.09375 274.582031 58.179688 281.144531 56.585938 C 281.257812 56.566406 281.371094 56.527344 281.464844 56.511719 C 282.566406 56.226562 283.683594 55.980469 284.800781 55.734375 C 285.238281 55.636719 285.675781 55.542969 286.109375 55.449219 C 287.230469 55.203125 288.347656 54.953125 289.484375 54.746094 C 290.851562 54.460938 292.234375 54.214844 293.617188 53.96875 C 297.960938 53.210938 302.359375 52.585938 306.792969 52.128906 C 307.761719 52.015625 308.746094 51.921875 309.714844 51.84375 C 310.09375 51.789062 310.492188 51.769531 310.871094 51.730469 C 311.796875 51.636719 312.707031 51.582031 313.636719 51.523438 C 314.945312 51.410156 316.253906 51.332031 317.5625 51.277344 L 317.636719 51.277344 C 318.585938 51.21875 319.554688 51.183594 320.519531 51.164062 C 321.46875 51.105469 322.417969 51.085938 323.363281 51.066406 C 324.804688 51.03125 326.246094 51.011719 327.707031 51.011719 C 436.199219 51.011719 524.464844 139.277344 524.464844 247.769531 C 524.464844 313.796875 446.890625 451.960938 379.820312 557.550781 C 379.25 558.347656 378.699219 559.179688 378.226562 560.054688 C 372.519531 569.019531 366.890625 577.757812 361.394531 586.160156 C 360.367188 587.730469 359.34375 589.285156 358.320312 590.839844 C 355.855469 594.613281 353.410156 598.332031 351.003906 601.96875 C 342.738281 614.425781 334.929688 626.046875 327.707031 636.527344 C 258.28125 535.390625 130.945312 332.375 130.945312 247.769531 Z M 533.03125 703.027344 C 478.546875 719.75 405.636719 728.960938 327.703125 728.960938 C 249.769531 728.960938 176.859375 719.75 122.375 703.027344 C 69.277344 686.742188 52.101562 668.28125 52.101562 661.890625 C 52.101562 658.0625 60.992188 643.691406 100.5 628.320312 C 136.328125 614.367188 186.207031 603.976562 242.074219 598.746094 C 278.359375 654.933594 306.777344 694.746094 307.15625 695.296875 C 311.914062 701.910156 319.554688 705.855469 327.707031 705.855469 C 335.859375 705.855469 343.496094 701.910156 348.257812 695.296875 C 348.636719 694.746094 377.054688 654.933594 413.316406 598.746094 C 468.957031 603.957031 518.644531 614.269531 554.476562 628.148438 C 594.34375 643.558594 603.308594 658.042969 603.308594 661.890625 C 603.304688 668.28125 586.132812 686.742188 533.03125 703.027344 Z M 533.03125 703.027344 "/></g><path style=" stroke:none;fill-rule:nonzero;fill:#bee86e;fill-opacity:1;" d="M 603.304688 661.890625 C 603.304688 668.28125 586.128906 686.746094 533.03125 703.027344 C 478.546875 719.75 405.636719 728.960938 327.703125 728.960938 C 249.769531 728.960938 176.859375 719.75 122.375 703.027344 C 69.277344 686.742188 52.101562 668.28125 52.101562 661.890625 C 52.101562 658.0625 60.992188 643.691406 100.5 628.320312 C 136.328125 614.367188 186.207031 603.976562 242.074219 598.746094 C 278.359375 654.933594 306.777344 694.746094 307.15625 695.296875 C 311.914062 701.910156 319.554688 705.855469 327.707031 705.855469 C 335.859375 705.855469 343.496094 701.910156 348.257812 695.296875 C 348.636719 694.746094 377.054688 654.933594 413.316406 598.746094 C 468.957031 603.957031 518.644531 614.269531 554.476562 628.148438 C 594.339844 643.558594 603.304688 658.042969 603.304688 661.890625 Z M 603.304688 661.890625 "/><path style=" stroke:none;fill-rule:nonzero;fill:#ff5b56;fill-opacity:1;" d="M 327.703125 51.019531 C 304.46875 51.019531 282.15625 55.078125 261.445312 62.503906 C 185.457031 89.761719 130.953125 162.519531 130.953125 247.773438 C 130.953125 332.367188 258.28125 535.386719 327.703125 636.53125 C 334.925781 626.039062 342.742188 614.421875 351.007812 601.960938 C 359.699219 588.847656 368.839844 574.785156 378.222656 560.050781 C 378.707031 559.175781 379.25 558.351562 379.820312 557.542969 C 446.886719 451.96875 524.460938 313.796875 524.460938 247.773438 C 524.457031 139.285156 436.191406 51.019531 327.703125 51.019531 Z M 327.703125 357.523438 C 259.023438 357.523438 203.132812 301.652344 203.132812 232.953125 C 203.132812 176.441406 240.96875 128.589844 292.644531 113.417969 C 303.757812 110.132812 315.527344 108.382812 327.703125 108.382812 C 396.386719 108.382812 452.273438 164.269531 452.273438 232.953125 C 452.273438 275.535156 430.804688 313.183594 398.121094 335.648438 C 378.085938 349.4375 353.820312 357.523438 327.703125 357.523438 Z M 327.703125 357.523438 "/><path style=" stroke:none;fill-rule:nonzero;fill:#bee86e;fill-opacity:1;" d="M 401.757812 232.953125 C 401.757812 273.785156 368.535156 307.007812 327.703125 307.007812 C 286.871094 307.007812 253.648438 273.785156 253.648438 232.953125 C 253.648438 192.121094 286.871094 158.902344 327.699219 158.902344 C 368.53125 158.902344 401.757812 192.121094 401.757812 232.953125 Z M 401.757812 232.953125 "/><path style=" stroke:none;fill-rule:nonzero;fill:#333333;fill-opacity:1;" d="M 327.703125 108.386719 C 259.023438 108.386719 203.132812 164.269531 203.132812 232.953125 C 203.132812 301.65625 259.019531 357.523438 327.703125 357.523438 C 396.386719 357.523438 452.273438 301.65625 452.273438 232.953125 C 452.269531 164.269531 396.386719 108.386719 327.703125 108.386719 Z M 327.703125 307.007812 C 286.871094 307.007812 253.652344 273.785156 253.652344 232.953125 C 253.652344 192.125 286.871094 158.902344 327.703125 158.902344 C 368.539062 158.902344 401.757812 192.121094 401.757812 232.953125 C 401.757812 273.785156 368.539062 307.007812 327.703125 307.007812 Z M 327.703125 307.007812 "/><g clip-rule="nonzero" clip-path="url(#7525093ef9)"><g clip-rule="nonzero" clip-path="url(#a13d06749e)"><g transform="matrix(1,0,0,1,251,156)"><g id="c98d819691" clip-path="url(#521ed61f8d)"><g clip-rule="nonzero" clip-path="url(#2973e947bb)"><g clip-rule="nonzero" clip-path="url(#d405d25ca1)"><path style=" stroke:none;fill-rule:nonzero;fill:#e4e4e6;fill-opacity:1;" d="M 0.917969 0.546875 L 152.679688 0.546875 L 152.679688 152.308594 L 0.917969 152.308594 Z M 0.917969 0.546875 "/></g></g></g></g></g></g></g></g></g></svg>