<svg xmlns="http://www.w3.org/2000/svg" xmlns:xlink="http://www.w3.org/1999/xlink" width="1080" zoomAndPan="magnify" viewBox="0 0 810 809.999993" height="1080" preserveAspectRatio="xMidYMid meet" version="1.2"><defs><clipPath id="188b38e302"><path d="M 1 345 L 809 345 L 809 736.40625 L 1 736.40625 Z M 1 345 "/></clipPath><clipPath id="c840716d5c"><path d="M 273 73.40625 L 546 73.40625 L 546 370 L 273 370 Z M 273 73.40625 "/></clipPath></defs><g id="3dd2dd0c9f"><path style=" stroke:none;fill-rule:evenodd;fill:#e2b784;fill-opacity:1;" d="M 630.386719 170.679688 C 685.21875 190.640625 701.113281 289.914062 689.882812 358.171875 C 676.152344 358.246094 661.878906 359.824219 647.5625 363.609375 C 591.121094 337.878906 546.796875 333.609375 512.066406 341.65625 C 524.957031 322.175781 532.464844 298.816406 532.464844 273.703125 C 532.464844 254.835938 528.226562 232.003906 520.648438 208.863281 C 555.761719 178.1875 596.984375 158.527344 630.386719 170.679688 Z M 630.386719 170.679688 "/><path style=" stroke:none;fill-rule:evenodd;fill:#e5b940;fill-opacity:1;" d="M 318.199219 356.941406 L 318.199219 356.945312 C 262.113281 359.816406 216.480469 382.15625 189.363281 399.1875 C 169.601562 391.304688 150.089844 386.152344 131.664062 382.921875 C 123.828125 315.480469 140.855469 225.589844 192.746094 206.703125 C 222.398438 195.902344 258.25 210.21875 290.496094 235.046875 L 290.507812 235.046875 C 287.476562 248.871094 285.859375 262.039062 285.859375 273.703125 C 285.859375 305.785156 298.105469 335.011719 318.199219 356.941406 Z M 318.199219 356.941406 "/><path style=" stroke:none;fill-rule:evenodd;fill:#fcf5ed;fill-opacity:1;" d="M 520.648438 208.859375 C 528.230469 232.003906 532.464844 254.835938 532.464844 273.703125 C 532.464844 298.8125 524.957031 322.175781 512.066406 341.652344 C 481.953125 348.621094 459.054688 364.847656 441.703125 384.375 C 397.5 361.730469 355.53125 355.023438 318.195312 356.941406 L 318.195312 356.9375 C 298.105469 335.011719 285.859375 305.785156 285.859375 273.703125 C 285.859375 262.039062 287.476562 248.867188 290.507812 235.046875 C 305.140625 168.148438 352.722656 85.988281 409.160156 85.988281 C 458.390625 85.988281 500.882812 148.496094 520.648438 208.859375 Z M 520.648438 208.859375 "/><path style=" stroke:none;fill-rule:evenodd;fill:#8c7969;fill-opacity:1;" d="M 647.566406 363.609375 C 661.878906 359.824219 676.152344 358.242188 689.886719 358.171875 C 747.722656 357.84375 795.820312 384.167969 795.820312 384.167969 L 795.820312 462.285156 C 795.820312 606.8125 678.664062 723.96875 534.136719 723.96875 L 276.125 723.96875 C 186.011719 723.96875 106.535156 678.417969 59.46875 609.089844 C 31.046875 567.230469 14.441406 516.699219 14.441406 462.285156 L 14.441406 384.167969 C 14.441406 384.167969 37.246094 378.554688 71.742188 378.144531 C 89.203125 377.941406 109.65625 379.066406 131.664062 382.921875 C 150.089844 386.152344 169.601562 391.304688 189.363281 399.1875 C 216.480469 382.15625 262.113281 359.816406 318.199219 356.945312 C 355.535156 355.023438 397.5 361.734375 441.707031 384.378906 C 459.058594 364.847656 481.957031 348.625 512.066406 341.65625 C 546.796875 333.609375 591.125 337.878906 647.566406 363.609375 Z M 647.566406 363.609375 "/><g clip-rule="nonzero" clip-path="url(#188b38e302)"><path style=" stroke:none;fill-rule:evenodd;fill:#333333;fill-opacity:1;" d="M 534.136719 736.566406 L 276.125 736.566406 C 239.101562 736.566406 203.179688 729.316406 169.355469 715.007812 C 136.695312 701.191406 107.359375 681.417969 82.175781 656.230469 C 56.988281 631.046875 37.214844 601.714844 23.398438 569.050781 C 9.09375 535.226562 1.839844 499.304688 1.839844 462.28125 L 1.839844 384.164062 C 1.839844 378.363281 5.796875 373.3125 11.429688 371.925781 C 12.867188 371.570312 47.203125 363.296875 95.613281 366.09375 C 124.039062 367.734375 151.503906 372.875 177.253906 381.371094 C 209.554688 392.03125 239.203125 408.023438 265.367188 428.894531 C 270.808594 433.234375 271.703125 441.164062 267.359375 446.605469 C 263.019531 452.046875 255.089844 452.9375 249.648438 448.597656 C 206.5 414.179688 154.472656 394.90625 95.003906 391.308594 C 64.59375 389.46875 39.882812 392.4375 27.039062 394.558594 L 27.039062 462.28125 C 27.039062 599.625 138.773438 711.359375 276.117188 711.359375 L 534.132812 711.359375 C 671.472656 711.359375 783.210938 599.625 783.210938 462.28125 L 783.210938 392.011719 C 772.632812 387.136719 750.167969 377.949219 722.675781 373.4375 C 672.800781 365.253906 630.460938 375.550781 596.832031 404.039062 C 591.523438 408.539062 583.570312 407.882812 579.070312 402.570312 C 574.574219 397.261719 575.230469 389.308594 580.539062 384.808594 C 602.4375 366.253906 627.855469 354.125 656.089844 348.757812 C 678.417969 344.511719 702.464844 344.496094 727.574219 348.703125 C 769.886719 355.796875 800.574219 372.40625 801.863281 373.109375 C 805.902344 375.320312 808.414062 379.558594 808.414062 384.164062 L 808.414062 462.285156 C 808.414062 499.308594 801.164062 535.226562 786.855469 569.050781 C 773.039062 601.714844 753.261719 631.046875 728.078125 656.234375 C 702.890625 681.417969 673.5625 701.195312 640.898438 715.011719 C 607.082031 729.316406 571.160156 736.566406 534.136719 736.566406 Z M 534.136719 736.566406 "/></g><path style=" stroke:none;fill-rule:evenodd;fill:#333333;fill-opacity:1;" d="M 471.976562 525.761719 C 455.15625 525.761719 438.183594 524.117188 421.171875 520.832031 C 365.878906 510.15625 329.539062 485.917969 328.019531 484.894531 C 322.25 481 320.734375 473.164062 324.628906 467.394531 C 328.523438 461.632812 336.34375 460.113281 342.113281 463.992188 C 342.449219 464.21875 376.414062 486.722656 426.925781 496.269531 C 493.863281 508.925781 556.972656 494.015625 614.496094 451.964844 C 620.117188 447.855469 628 449.082031 632.109375 454.699219 C 636.214844 460.316406 634.992188 468.203125 629.375 472.308594 C 594.410156 497.871094 556.792969 514.46875 517.574219 521.644531 C 502.574219 524.390625 487.339844 525.761719 471.976562 525.761719 Z M 471.976562 525.761719 "/><path style=" stroke:none;fill-rule:evenodd;fill:#333333;fill-opacity:1;" d="M 390.070312 661.878906 C 386.957031 661.878906 383.835938 660.738281 381.398438 658.421875 C 376.347656 653.632812 376.136719 645.65625 380.925781 640.605469 C 395.875 624.835938 415.617188 612.074219 439.601562 602.671875 C 458.339844 595.324219 479.734375 589.992188 503.183594 586.820312 C 541.214844 581.671875 571.960938 583.875 575.515625 584.160156 C 577.265625 584.226562 579.023438 584.261719 580.765625 584.261719 C 662.871094 584.261719 737.285156 507.332031 785.695312 441.957031 C 789.835938 436.363281 797.730469 435.1875 803.324219 439.328125 C 808.917969 443.472656 810.097656 451.363281 805.953125 456.957031 C 773.71875 500.484375 740.460938 535.402344 707.09375 560.738281 C 664.488281 593.097656 622.011719 609.46875 580.746094 609.46875 C 578.5625 609.46875 576.390625 609.421875 574.210938 609.332031 C 574.03125 609.324219 573.851562 609.3125 573.667969 609.296875 C 572.488281 609.195312 454.191406 599.957031 399.21875 657.945312 C 396.738281 660.5625 393.40625 661.878906 390.070312 661.878906 Z M 390.070312 661.878906 "/><path style=" stroke:none;fill-rule:evenodd;fill:#333333;fill-opacity:1;" d="M 165.167969 513.96875 C 162.75 513.96875 160.304688 513.273438 158.148438 511.824219 C 112.609375 481.210938 66.511719 476.839844 21.144531 498.824219 C 14.878906 501.859375 7.339844 499.242188 4.304688 492.980469 C 1.269531 486.714844 3.886719 479.179688 10.152344 476.144531 C 47.292969 458.148438 105.554688 446.097656 172.210938 490.902344 C 177.988281 494.785156 179.523438 502.617188 175.640625 508.394531 C 173.203125 512.011719 169.222656 513.964844 165.167969 513.96875 Z M 165.167969 513.96875 "/><path style=" stroke:none;fill-rule:evenodd;fill:#333333;fill-opacity:1;" d="M 264.894531 639.71875 C 263.304688 639.71875 261.691406 639.417969 260.128906 638.777344 C 183.199219 607.332031 117.144531 601.324219 63.816406 620.914062 C 57.285156 623.316406 50.042969 619.960938 47.640625 613.429688 C 45.242188 606.894531 48.589844 599.652344 55.125 597.253906 C 81.914062 587.414062 111.859375 583.253906 144.128906 584.898438 C 182.632812 586.855469 224.871094 597.132812 269.667969 615.441406 C 276.109375 618.078125 279.199219 625.433594 276.566406 631.875 C 274.570312 636.761719 269.859375 639.71875 264.894531 639.71875 Z M 264.894531 639.71875 "/><path style=" stroke:none;fill-rule:evenodd;fill:#333333;fill-opacity:1;" d="M 375.085938 583.699219 C 375.0625 583.699219 375.039062 583.699219 375.011719 583.699219 C 273.179688 583.105469 218.78125 541.554688 216.515625 539.785156 C 211.027344 535.503906 210.050781 527.582031 214.332031 522.09375 C 218.609375 516.617188 226.507812 515.636719 231.992188 519.890625 C 232.269531 520.101562 244.789062 529.585938 268.449219 539 C 290.40625 547.738281 326.738281 558.210938 375.160156 558.492188 C 382.121094 558.53125 387.730469 564.207031 387.6875 571.167969 C 387.648438 578.105469 382.015625 583.699219 375.085938 583.699219 Z M 375.085938 583.699219 "/><path style=" stroke:none;fill-rule:evenodd;fill:#333333;fill-opacity:1;" d="M 441.703125 396.984375 C 438.722656 396.984375 435.738281 395.933594 433.335938 393.800781 C 428.132812 389.179688 427.664062 381.214844 432.285156 376.007812 C 455.535156 349.835938 484.019531 333.617188 516.945312 327.800781 C 556.382812 320.832031 602.085938 329.027344 652.796875 352.144531 C 659.128906 355.03125 661.921875 362.507812 659.035156 368.839844 C 656.148438 375.171875 648.675781 377.964844 642.339844 375.078125 C 559.449219 337.289062 495.117188 343.230469 451.128906 392.746094 C 448.636719 395.550781 445.179688 396.984375 441.703125 396.984375 Z M 441.703125 396.984375 "/><path style=" stroke:none;fill-rule:evenodd;fill:#333333;fill-opacity:1;" d="M 478.496094 419.339844 C 475.984375 419.339844 473.449219 418.59375 471.238281 417.03125 C 459.699219 408.886719 447.832031 401.675781 435.960938 395.59375 C 331.875 342.277344 240.980469 381.648438 196.0625 409.863281 C 190.167969 413.566406 182.390625 411.789062 178.6875 405.894531 C 174.984375 400 176.761719 392.21875 182.65625 388.519531 C 205.769531 374 242.96875 355.09375 288.929688 347.464844 C 343.234375 338.453125 396.570312 347.097656 447.453125 373.164062 C 460.371094 379.78125 473.265625 387.613281 485.773438 396.441406 C 491.460938 400.453125 492.816406 408.316406 488.804688 414.003906 C 486.347656 417.484375 482.449219 419.339844 478.496094 419.339844 Z M 478.496094 419.339844 "/><path style=" stroke:none;fill-rule:evenodd;fill:#333333;fill-opacity:1;" d="M 750.824219 379.402344 C 749.984375 379.402344 749.136719 379.320312 748.289062 379.144531 C 741.46875 377.75 737.070312 371.09375 738.464844 364.273438 C 749.328125 311.105469 786.554688 281.933594 788.132812 280.71875 C 793.648438 276.472656 801.5625 277.5 805.808594 283.015625 C 810.046875 288.523438 809.027344 296.414062 803.539062 300.667969 C 803.109375 301.007812 772.066406 325.738281 763.160156 369.320312 C 761.9375 375.289062 756.6875 379.402344 750.824219 379.402344 Z M 750.824219 379.402344 "/><path style=" stroke:none;fill-rule:evenodd;fill:#333333;fill-opacity:1;" d="M 71.730469 390.746094 C 69.644531 390.746094 67.53125 390.230469 65.585938 389.140625 C 39.144531 374.332031 7.429688 326.699219 3.902344 321.3125 C 0.0859375 315.492188 1.710938 307.679688 7.53125 303.863281 C 13.351562 300.046875 21.164062 301.671875 24.976562 307.492188 C 33.640625 320.691406 60.035156 357.144531 77.898438 367.148438 C 83.972656 370.546875 86.136719 378.226562 82.738281 384.300781 C 80.429688 388.421875 76.144531 390.746094 71.730469 390.746094 Z M 71.730469 390.746094 "/><g clip-rule="nonzero" clip-path="url(#c840716d5c)"><path style=" stroke:none;fill-rule:evenodd;fill:#333333;fill-opacity:1;" d="M 318.203125 369.546875 C 314.789062 369.546875 311.390625 368.167969 308.90625 365.457031 C 285.914062 340.363281 273.253906 307.777344 273.253906 273.707031 C 273.253906 236.886719 288.101562 187.539062 311.074219 147.984375 C 339.015625 99.878906 373.851562 73.390625 409.164062 73.390625 C 444.476562 73.390625 479.3125 99.882812 507.25 147.984375 C 530.222656 187.539062 545.070312 236.886719 545.070312 273.707031 C 545.070312 300.476562 537.292969 326.378906 522.578125 348.613281 C 518.738281 354.417969 510.917969 356.011719 505.113281 352.167969 C 499.308594 348.328125 497.71875 340.507812 501.558594 334.703125 C 513.535156 316.605469 519.863281 295.515625 519.863281 273.707031 C 519.863281 207.839844 466.246094 98.597656 409.164062 98.597656 C 352.082031 98.597656 298.460938 207.835938 298.460938 273.707031 C 298.460938 301.460938 308.773438 327.996094 327.492188 348.429688 C 332.195312 353.5625 331.84375 361.535156 326.714844 366.238281 C 324.292969 368.453125 321.242188 369.546875 318.203125 369.546875 Z M 318.203125 369.546875 "/></g><path style=" stroke:none;fill-rule:evenodd;fill:#333333;fill-opacity:1;" d="M 131.648438 395.527344 C 125.339844 395.527344 119.890625 390.796875 119.148438 384.378906 C 114.804688 346.984375 117.925781 306.410156 127.71875 273.054688 C 139.777344 231.96875 160.773438 204.929688 188.433594 194.859375 C 205.179688 188.761719 224.039062 188.976562 244.484375 195.503906 C 261.859375 201.050781 279.925781 210.996094 298.1875 225.0625 C 303.703125 229.308594 304.730469 237.222656 300.484375 242.734375 C 296.238281 248.25 288.324219 249.277344 282.808594 245.03125 C 263.804688 230.394531 227.398438 207.492188 197.0625 218.542969 C 172.007812 227.660156 158.675781 257.078125 151.90625 280.152344 C 143.03125 310.382812 140.21875 347.3125 144.183594 381.46875 C 144.988281 388.382812 140.035156 394.636719 133.121094 395.441406 C 132.625 395.5 132.132812 395.527344 131.648438 395.527344 Z M 131.648438 395.527344 "/><path style=" stroke:none;fill-rule:evenodd;fill:#333333;fill-opacity:1;" d="M 450.550781 402.492188 C 447.257812 402.492188 443.96875 401.210938 441.5 398.65625 L 441.488281 398.644531 C 436.648438 393.644531 436.777344 385.664062 441.78125 380.824219 C 446.78125 375.984375 454.761719 376.117188 459.601562 381.117188 C 464.441406 386.121094 464.316406 394.101562 459.3125 398.941406 C 456.867188 401.3125 453.707031 402.492188 450.550781 402.492188 Z M 450.550781 402.492188 "/><path style=" stroke:none;fill-rule:evenodd;fill:#333333;fill-opacity:1;" d="M 689.898438 370.777344 C 689.21875 370.777344 688.527344 370.722656 687.835938 370.609375 C 680.964844 369.476562 676.316406 362.996094 677.445312 356.125 C 688.824219 287 670.527344 198.703125 626.078125 182.527344 C 600.894531 173.367188 565.484375 186.425781 528.9375 218.359375 C 523.695312 222.9375 515.734375 222.402344 511.15625 217.160156 C 506.574219 211.917969 507.113281 203.953125 512.355469 199.378906 C 531.972656 182.234375 552.480469 169.292969 571.648438 161.949219 C 594.785156 153.082031 615.996094 152.039062 634.695312 158.84375 C 650.261719 164.507812 663.753906 175.554688 674.796875 191.679688 C 684.253906 205.492188 691.761719 222.796875 697.101562 243.113281 C 706.535156 278.992188 708.484375 322.769531 702.320312 360.222656 C 701.300781 366.394531 695.957031 370.773438 689.898438 370.777344 Z M 689.898438 370.777344 "/></g></svg>