<svg width="35" height="35" viewBox="0 0 35 35" fill="none" xmlns="http://www.w3.org/2000/svg">
<path d="M16.905 5.83729C17.0727 5.9741 17.2825 6.04882 17.4989 6.04882C17.7153 6.04882 17.9251 5.9741 18.0928 5.83729C21.5523 2.97167 26.5245 2.37011 29.8364 5.91714C32.5981 8.87573 33.4753 13.5537 32.3072 17.2003C30.4981 22.8517 25.3378 27.3612 19.9489 30.8153C19.2171 31.283 18.3668 31.5316 17.4983 31.5316C16.6299 31.5316 15.7795 31.283 15.0478 30.8153C9.65888 27.3612 4.49856 22.8517 2.6895 17.2003C1.52247 13.5537 2.39966 8.87573 5.16138 5.91714C8.47216 2.37011 13.4454 2.97167 16.905 5.83729Z" fill="#FE4F60"/>
<path d="M32.3083 17.2047C30.5036 22.8485 25.3411 27.3657 19.9489 30.811C18.5927 31.686 16.8755 31.7626 15.4536 31.0297C15.5849 30.9641 15.7161 30.8985 15.8474 30.811C21.2396 27.3657 26.4021 22.8485 28.2067 17.2047C29.3771 13.5516 28.5021 8.87037 25.7349 5.91724C24.6849 4.80162 23.4817 4.09068 22.2021 3.74068C24.8708 3.07349 27.6927 3.63131 29.8364 5.91724C32.6036 8.87037 33.4786 13.5516 32.3083 17.2047Z" fill="#E54756"/>
<path d="M11.0381 5.28719C9.29798 5.28719 7.79626 5.95 6.57564 7.25703C6.21813 7.6418 5.89702 8.05884 5.61642 8.50281C5.5301 8.65553 5.50569 8.83556 5.54822 9.00575C5.59076 9.17594 5.697 9.32332 5.84503 9.41746C5.99305 9.51161 6.17157 9.54535 6.34374 9.51172C6.51591 9.47808 6.66861 9.37965 6.77032 9.23672C7.00586 8.86378 7.27534 8.51338 7.57532 8.19C8.52798 7.17063 9.69282 6.65328 11.0392 6.65328C11.1312 6.65689 11.223 6.64188 11.3091 6.60914C11.3951 6.5764 11.4737 6.52662 11.54 6.46278C11.6064 6.39894 11.6591 6.32235 11.6951 6.23761C11.7312 6.15288 11.7497 6.06174 11.7496 5.96967C11.7495 5.8776 11.7309 5.78649 11.6947 5.70181C11.6586 5.61713 11.6057 5.54063 11.5392 5.47689C11.4728 5.41316 11.3942 5.3635 11.308 5.3309C11.2219 5.2983 11.1301 5.28343 11.0381 5.28719ZM5.62517 9.85469C5.54138 9.82207 5.45197 9.80632 5.36208 9.80836C5.27219 9.8104 5.18359 9.83018 5.10136 9.86657C5.01914 9.90295 4.94492 9.95523 4.88296 10.0204C4.821 10.0855 4.77253 10.1623 4.74032 10.2463C4.57079 10.6859 4.42642 11.1453 4.31376 11.6102C4.28131 11.7825 4.31626 11.9608 4.4114 12.1082C4.50654 12.2556 4.65462 12.3608 4.82508 12.4022C4.99555 12.4436 5.17539 12.418 5.32752 12.3306C5.47965 12.2433 5.59246 12.1009 5.64267 11.9328C5.74111 11.5248 5.86689 11.1245 6.01564 10.7406C6.08101 10.5713 6.07663 10.383 6.00344 10.217C5.93025 10.0509 5.79423 9.92065 5.62517 9.85469Z" fill="#FF6D7A"/>
</svg>
