<svg width="31" height="29" viewBox="0 0 31 29" fill="none" xmlns="http://www.w3.org/2000/svg">
<path d="M14.905 2.83729C15.0727 2.9741 15.2825 3.04882 15.4989 3.04882C15.7153 3.04882 15.9251 2.9741 16.0928 2.83729C19.5523 -0.0283312 24.5245 -0.629894 27.8364 2.91714C30.5981 5.87573 31.4753 10.5537 30.3072 14.2003C28.4981 19.8517 23.3378 24.3612 17.9489 27.8153C17.2171 28.283 16.3668 28.5316 15.4983 28.5316C14.6299 28.5316 13.7795 28.283 13.0478 27.8153C7.65888 24.3612 2.49856 19.8517 0.689501 14.2003C-0.477531 10.5537 0.399657 5.87573 3.16138 2.91714C6.47216 -0.629894 11.4454 -0.0283312 14.905 2.83729Z" fill="#FE4F60"/>
</svg>
