<svg width="215" height="123" viewBox="0 0 215 123" fill="none" xmlns="http://www.w3.org/2000/svg">
<g clip-path="url(#clip0_2544_2262)" filter="url(#filter0_f_2544_2262)">
<mask id="mask0_2544_2262" style="mask-type:luminance" maskUnits="userSpaceOnUse" x="0" y="1" width="215" height="121">
<path d="M215 1H0V122H215V1Z" fill="white"/>
</mask>
<g mask="url(#mask0_2544_2262)">
<mask id="mask1_2544_2262" style="mask-type:luminance" maskUnits="userSpaceOnUse" x="9" y="74" width="22" height="23">
<path d="M9.10046 74.5851H30.7124V96.2082H9.10046V74.5851Z" fill="white"/>
</mask>
<g mask="url(#mask1_2544_2262)">
<path d="M24.7292 85.3966C24.7292 88.0615 22.5699 90.2216 19.9065 90.2216C17.2428 90.2216 15.0837 88.0615 15.0837 85.3966C15.0837 82.7318 17.2428 80.5717 19.9065 80.5717C22.5699 80.5717 24.7292 82.7318 24.7292 85.3966Z" fill="#FFD20B"/>
</g>
<mask id="mask2_2544_2262" style="mask-type:luminance" maskUnits="userSpaceOnUse" x="85" y="-8" width="23" height="22">
<path d="M85.6934 -7.89624H107.193V13.6149H85.6934V-7.89624Z" fill="white"/>
</mask>
<g mask="url(#mask2_2544_2262)">
<path d="M101.241 2.85932C101.241 5.51035 99.0931 7.6593 96.4434 7.6593C93.7935 7.6593 91.6457 5.51035 91.6457 2.85932C91.6457 0.208286 93.7935 -1.94067 96.4434 -1.94067C99.0931 -1.94067 101.241 0.208286 101.241 2.85932Z" fill="#FFD20B"/>
</g>
<mask id="mask3_2544_2262" style="mask-type:luminance" maskUnits="userSpaceOnUse" x="22" y="-4" width="22" height="22">
<path d="M22.7426 -3.96912H43.9066V17.2059H22.7426V-3.96912Z" fill="white"/>
</mask>
<g mask="url(#mask3_2544_2262)">
<path d="M38.0473 6.61842C38.0473 9.22803 35.9328 11.3434 33.3246 11.3434C30.7161 11.3434 28.6018 9.22803 28.6018 6.61842C28.6018 4.00881 30.7161 1.89343 33.3246 1.89343C35.9328 1.89343 38.0473 4.00881 38.0473 6.61842Z" fill="#FFD20B"/>
</g>
<mask id="mask4_2544_2262" style="mask-type:luminance" maskUnits="userSpaceOnUse" x="43" y="111" width="16" height="16">
<path d="M49.0125 111.487L58.6116 117.259L52.8457 126.862L43.2466 121.09L49.0125 111.487Z" fill="white"/>
</mask>
<g mask="url(#mask4_2544_2262)">
<path d="M51.851 117.149L49.9034 116.174C49.5299 115.987 49.0756 116.138 48.8886 116.512C48.7017 116.885 48.8529 117.34 49.2263 117.527L49.8945 117.862C50.2533 118.042 50.4094 118.471 50.2498 118.839L49.6523 120.22C49.4927 120.589 49.6487 121.018 50.0077 121.198L51.9554 122.174C52.3289 122.361 52.7832 122.209 52.9702 121.836C53.1572 121.462 53.006 121.007 52.6326 120.82L51.9642 120.485C51.6054 120.305 51.4494 119.876 51.6088 119.508L52.2064 118.127C52.366 117.758 52.2099 117.329 51.851 117.149Z" fill="#FFF8EE"/>
</g>
<mask id="mask5_2544_2262" style="mask-type:luminance" maskUnits="userSpaceOnUse" x="38" y="14" width="12" height="11">
<path d="M43.4418 14.0153L49.0108 19.2112L43.8178 24.783L38.2488 19.587L43.4418 14.0153Z" fill="white"/>
</mask>
<g mask="url(#mask5_2544_2262)">
<path d="M44.5288 18.1831L43.3711 17.2586C43.149 17.0814 42.8254 17.1177 42.6483 17.3398C42.4711 17.5619 42.5075 17.8857 42.7295 18.063L43.1267 18.3801C43.34 18.5505 43.3832 18.8579 43.225 19.0805L42.6324 19.9144C42.4742 20.1369 42.5173 20.4444 42.7307 20.6147L43.8885 21.5394C44.1105 21.7167 44.4341 21.6803 44.6113 21.4582C44.7885 21.2361 44.7521 20.9123 44.5302 20.735L44.1329 20.4177C43.9196 20.2474 43.8764 19.9399 44.0346 19.7174L44.6271 18.8835C44.7853 18.6609 44.7421 18.3535 44.5288 18.1831Z" fill="#FFF8EE"/>
</g>
<mask id="mask6_2544_2262" style="mask-type:luminance" maskUnits="userSpaceOnUse" x="185" y="87" width="11" height="10">
<path d="M193.13 87.012L195.733 94.17L188.577 96.7767L185.973 89.6187L193.13 87.012Z" fill="white"/>
</mask>
<g mask="url(#mask6_2544_2262)">
<path d="M192.207 91.2193L191.595 89.8699C191.477 89.6111 191.173 89.4966 190.914 89.614C190.655 89.7315 190.541 90.0365 190.658 90.2952L190.868 90.7581C190.981 91.0068 190.88 91.3003 190.638 91.4268L189.731 91.9007C189.489 92.0272 189.388 92.3207 189.501 92.5694L190.113 93.919C190.23 94.1777 190.535 94.2923 190.794 94.1748C191.052 94.0574 191.167 93.7524 191.05 93.4936L190.84 93.0305C190.727 92.7819 190.828 92.4883 191.07 92.3619L191.976 91.8879C192.218 91.7615 192.319 91.4679 192.207 91.2193Z" fill="#FFF8EE"/>
</g>
<mask id="mask7_2544_2262" style="mask-type:luminance" maskUnits="userSpaceOnUse" x="129" y="109" width="11" height="11">
<path d="M139.176 111.981L136.698 119.183L129.497 116.702L131.975 109.499L139.176 111.981Z" fill="white"/>
</mask>
<g mask="url(#mask7_2544_2262)">
<path d="M135.813 114.669L136.186 113.235C136.257 112.96 136.092 112.679 135.817 112.607C135.542 112.535 135.262 112.7 135.19 112.975L135.062 113.467C134.993 113.731 134.73 113.896 134.463 113.842L133.46 113.639C133.192 113.585 132.929 113.749 132.861 114.014L132.487 115.448C132.416 115.723 132.581 116.004 132.856 116.076C133.131 116.147 133.411 115.982 133.483 115.707L133.611 115.215C133.68 114.951 133.943 114.787 134.211 114.841L135.213 115.043C135.481 115.097 135.744 114.933 135.813 114.669Z" fill="#FFF8EE"/>
</g>
<mask id="mask8_2544_2262" style="mask-type:luminance" maskUnits="userSpaceOnUse" x="194" y="62" width="17" height="17">
<path d="M205.979 62.8328L210.024 74.5896L198.27 78.6401L194.225 66.8833L205.979 62.8328Z" fill="white"/>
</mask>
<g mask="url(#mask8_2544_2262)">
<path d="M204.352 69.6733L203.392 67.4534C203.208 67.0278 202.714 66.8321 202.288 67.0164C201.863 67.2007 201.667 67.6953 201.851 68.1209L202.181 68.8824C202.358 69.2915 202.184 69.7677 201.786 69.9672L200.293 70.7148C199.894 70.9143 199.721 71.3905 199.898 71.7996L200.858 74.0198C201.042 74.4454 201.537 74.6411 201.962 74.4567C202.388 74.2725 202.583 73.778 202.399 73.3523L202.07 72.5904C201.893 72.1814 202.066 71.7052 202.465 71.5057L203.958 70.758C204.356 70.5585 204.529 70.0823 204.352 69.6733Z" fill="#FFF8EE"/>
</g>
<mask id="mask9_2544_2262" style="mask-type:luminance" maskUnits="userSpaceOnUse" x="177" y="5" width="27" height="26">
<path d="M177.89 18.2227L190.258 5.40851L203.066 17.7832L190.697 30.5974L177.89 18.2227Z" fill="white"/>
</mask>
<g mask="url(#mask9_2544_2262)">
<path d="M188.958 20.9139L189.202 20.721C189.784 20.2615 190.628 20.3611 191.087 20.9431L191.28 21.1875C191.739 21.7697 192.583 21.8693 193.165 21.4098C193.747 20.9504 193.846 20.1058 193.387 19.5236L193.194 19.2791C192.735 18.6972 192.834 17.8527 193.416 17.3933L193.661 17.2005C194.242 16.741 194.342 15.8964 193.883 15.3143C193.424 14.7321 192.579 14.6326 191.997 15.0921L191.753 15.2849C191.171 15.7444 190.328 15.6449 189.868 15.0627L189.676 14.8184C189.216 14.2361 188.372 14.1366 187.79 14.5961C187.208 15.0556 187.109 15.9001 187.568 16.4823L187.761 16.7266C188.22 17.3088 188.121 18.1531 187.539 18.6126L187.295 18.8055C186.713 19.265 186.613 20.1094 187.073 20.6917C187.532 21.2738 188.376 21.3734 188.958 20.9139Z" fill="#FF37C5"/>
</g>
<mask id="mask10_2544_2262" style="mask-type:luminance" maskUnits="userSpaceOnUse" x="31" y="112" width="16" height="15">
<path d="M31.9977 125.623L32.9421 112.101L46.4594 113.047L45.5151 126.57L31.9977 125.623Z" fill="white"/>
</mask>
<g mask="url(#mask10_2544_2262)">
<path d="M38.907 123.108L35.6915 120.683C35.1661 120.287 35.0613 119.539 35.4575 119.014L37.882 115.797C38.278 115.271 39.0248 115.166 39.5502 115.563L42.7657 117.987C43.2909 118.383 43.3957 119.131 42.9997 119.656L40.5752 122.873C40.179 123.399 39.4322 123.504 38.907 123.108Z" fill="#55AEFF"/>
</g>
<mask id="mask11_2544_2262" style="mask-type:luminance" maskUnits="userSpaceOnUse" x="103" y="113" width="15" height="15">
<path d="M115.07 127.955L103.769 125.134L106.585 113.83L117.886 116.651L115.07 127.955Z" fill="white"/>
</mask>
<g mask="url(#mask11_2544_2262)">
<path d="M113.972 121.728L111.44 124.088C111.027 124.474 110.379 124.451 109.993 124.037L107.633 121.504C107.247 121.09 107.27 120.442 107.683 120.057L110.215 117.696C110.628 117.311 111.276 117.334 111.662 117.748L114.023 120.281C114.408 120.695 114.386 121.342 113.972 121.728Z" fill="#55AEFF"/>
</g>
<mask id="mask12_2544_2262" style="mask-type:luminance" maskUnits="userSpaceOnUse" x="148" y="110" width="11" height="12">
<path d="M153.924 121.069L148.598 116.271L153.393 110.942L158.719 115.741L153.924 121.069Z" fill="white"/>
</mask>
<g mask="url(#mask12_2544_2262)">
<path d="M155.125 117.368L153.068 117.919C152.732 118.009 152.386 117.81 152.296 117.473L151.746 115.415C151.656 115.079 151.855 114.733 152.191 114.643L154.249 114.092C154.585 114.002 154.93 114.202 155.02 114.538L155.571 116.596C155.661 116.933 155.462 117.278 155.125 117.368Z" fill="#55AEFF"/>
</g>
<mask id="mask13_2544_2262" style="mask-type:luminance" maskUnits="userSpaceOnUse" x="188" y="105" width="14" height="14">
<path d="M201.919 110.733L196.877 118.808L188.804 113.761L193.847 105.685L201.919 110.733Z" fill="white"/>
</mask>
<g mask="url(#mask13_2544_2262)">
<path d="M196.804 110.013L198 112.578C198.195 112.997 198.014 113.495 197.595 113.691L195.031 114.886C194.612 115.081 194.114 114.9 193.919 114.48L192.724 111.915C192.528 111.496 192.71 110.998 193.128 110.803L195.692 109.608C196.111 109.412 196.609 109.594 196.804 110.013Z" fill="#55AEFF"/>
</g>
<mask id="mask14_2544_2262" style="mask-type:luminance" maskUnits="userSpaceOnUse" x="149" y="-6" width="19" height="19">
<path d="M149.252 8.9198L153.018 -5.14673L167.081 -1.37508L163.316 12.6915L149.252 8.9198Z" fill="white"/>
</mask>
<g mask="url(#mask14_2544_2262)">
<path d="M157.056 7.68457L154.16 4.46737C153.687 3.94164 153.73 3.13208 154.255 2.65928L157.471 -0.235274C157.996 -0.708298 158.805 -0.665576 159.278 -0.139843L162.174 3.07736C162.647 3.60286 162.604 4.41242 162.079 4.88544L158.863 7.78C158.338 8.25301 157.528 8.21029 157.056 7.68457Z" fill="#55AEFF"/>
</g>
<mask id="mask15_2544_2262" style="mask-type:luminance" maskUnits="userSpaceOnUse" x="69" y="-3" width="8" height="8">
<path d="M69.5391 3.52295L70.7135 -2.52511L76.76 -1.34857L75.5856 4.69949L69.5391 3.52295Z" fill="white"/>
</mask>
<g mask="url(#mask15_2544_2262)">
<path d="M72.7964 2.77209L71.4799 1.49912C71.2648 1.2911 71.2588 0.948045 71.4665 0.732936L72.7377 -0.583962C72.9453 -0.79916 73.2879 -0.804976 73.5031 -0.596954L74.8196 0.676022C75.0346 0.883955 75.0406 1.22701 74.833 1.4422L73.5618 2.7591C73.3541 2.9743 73.0114 2.98012 72.7964 2.77209Z" fill="#55AEFF"/>
</g>
<mask id="mask16_2544_2262" style="mask-type:luminance" maskUnits="userSpaceOnUse" x="25" y="29" width="15" height="15">
<path d="M25.93 43.7633L25.4498 29.9916L39.2153 29.5102L39.6955 43.2819L25.93 43.7633Z" fill="white"/>
</mask>
<g mask="url(#mask16_2544_2262)">
<path d="M32.6478 40.4847L29.1395 38.3757C28.5663 38.031 28.3811 37.2867 28.7259 36.7134L30.8358 33.2034C31.1804 32.6299 31.9243 32.4444 32.4976 32.7891L36.0058 34.8981C36.5789 35.2426 36.7641 35.9869 36.4195 36.5604L34.3096 40.0703C33.9648 40.6439 33.2209 40.8294 32.6478 40.4847Z" fill="#55AEFF"/>
</g>
<mask id="mask17_2544_2262" style="mask-type:luminance" maskUnits="userSpaceOnUse" x="39" y="91" width="14" height="14">
<path d="M41.7402 91.4589L52.6526 93.9806L50.1351 104.896L39.2227 102.374L41.7402 91.4589Z" fill="white"/>
</mask>
<g mask="url(#mask17_2544_2262)">
<path d="M43.4609 99.1781L43.9602 98.3096C44.0372 98.1758 44.0434 98.0128 43.9768 97.8736L43.5448 96.9694C43.3771 96.6187 43.6842 96.2281 44.0645 96.3085L45.0446 96.5155C45.1956 96.5476 45.3526 96.5031 45.4645 96.3968L46.1905 95.7066C46.4721 95.4389 46.9384 95.6105 46.9797 95.9971L47.0859 96.9933C47.1023 97.1468 47.193 97.2825 47.3288 97.356L48.2097 97.8335C48.5513 98.0187 48.5323 98.5154 48.1775 98.6741L47.2632 99.0827C47.1224 99.1456 47.0214 99.2738 46.9934 99.4255L46.8119 100.411C46.7414 100.793 46.2633 100.928 46.0029 100.64L45.3315 99.8961C45.2281 99.7816 45.0747 99.7252 44.9218 99.7455L43.9288 99.8768C43.5436 99.9279 43.2671 99.5149 43.4609 99.1781Z" fill="#FF8648"/>
</g>
<mask id="mask18_2544_2262" style="mask-type:luminance" maskUnits="userSpaceOnUse" x="149" y="112" width="24" height="24">
<path d="M162.995 112.256L172.757 126.205L158.813 135.974L149.052 122.025L162.995 112.256Z" fill="white"/>
</mask>
<g mask="url(#mask18_2544_2262)">
<path d="M157.089 122.726L158.536 122.253C158.759 122.18 158.932 122.002 158.998 121.777L159.43 120.316C159.597 119.749 160.341 119.62 160.689 120.098L161.585 121.329C161.723 121.519 161.946 121.628 162.18 121.622L163.702 121.581C164.293 121.565 164.645 122.233 164.298 122.712L163.405 123.945C163.268 124.135 163.232 124.381 163.311 124.602L163.82 126.037C164.018 126.594 163.491 127.136 162.929 126.954L161.481 126.486C161.257 126.414 161.013 126.456 160.827 126.598L159.62 127.527C159.152 127.887 158.474 127.554 158.473 126.963L158.472 125.44C158.471 125.205 158.355 124.985 158.162 124.853L156.907 123.991C156.42 123.657 156.527 122.909 157.089 122.726Z" fill="#FF8648"/>
</g>
<mask id="mask19_2544_2262" style="mask-type:luminance" maskUnits="userSpaceOnUse" x="80" y="112" width="11" height="10">
<path d="M80.3375 114.112L88.1944 112.296L90.007 120.155L82.1501 121.971L80.3375 114.112Z" fill="white"/>
</mask>
<g mask="url(#mask19_2544_2262)">
<path d="M83.885 118.564L83.9343 117.844C83.9419 117.733 83.8945 117.626 83.8076 117.557L83.243 117.108C83.0239 116.934 83.0995 116.584 83.371 116.516L84.0705 116.341C84.1783 116.314 84.2658 116.235 84.3047 116.131L84.5569 115.455C84.6547 115.193 85.0106 115.156 85.1592 115.394L85.542 116.005C85.6009 116.099 85.7024 116.158 85.8135 116.163L86.534 116.193C86.8135 116.205 86.9577 116.533 86.7782 116.747L86.3154 117.301C86.2441 117.386 86.2191 117.501 86.2488 117.608L86.442 118.303C86.5169 118.573 86.2502 118.811 85.9907 118.707L85.3218 118.438C85.2187 118.396 85.1018 118.408 85.0092 118.47L84.408 118.868C84.1749 119.023 83.8658 118.843 83.885 118.564Z" fill="#FF8648"/>
</g>
<mask id="mask20_2544_2262" style="mask-type:luminance" maskUnits="userSpaceOnUse" x="47" y="-17" width="27" height="27">
<path d="M51.9525 -16.3364L73.0134 -11.4694L68.1546 9.59667L47.0937 4.72965L51.9525 -16.3364Z" fill="white"/>
</mask>
<g mask="url(#mask20_2544_2262)">
<path d="M55.2733 -1.43818L56.2371 -3.11433C56.3856 -3.37258 56.3976 -3.68727 56.2691 -3.95598L55.4353 -5.70089C55.1116 -6.37775 55.7044 -7.13164 56.4383 -6.97647L58.33 -6.57696C58.6214 -6.51512 58.9243 -6.60092 59.1403 -6.80613L60.5415 -8.13821C61.085 -8.65488 61.9851 -8.32369 62.0646 -7.5775L62.2698 -5.6549C62.3013 -5.35863 62.4764 -5.09677 62.7384 -4.95481L64.4385 -4.03331C65.0979 -3.67593 65.0613 -2.71724 64.3765 -2.41094L62.6119 -1.62226C62.3401 -1.50085 62.1452 -1.25351 62.0911 -0.96069L61.7408 0.940967C61.6048 1.67852 60.6821 1.93977 60.1795 1.38309L58.8836 -0.0525191C58.684 -0.273534 58.3881 -0.382257 58.093 -0.343115L56.1765 -0.0897406C55.433 0.00885367 54.8993 -0.788159 55.2733 -1.43818Z" fill="#FF8648"/>
</g>
<mask id="mask21_2544_2262" style="mask-type:luminance" maskUnits="userSpaceOnUse" x="19" y="5" width="18" height="18">
<path d="M22.7504 5.43335L36.3339 8.82327L32.9495 22.41L19.366 19.0201L22.7504 5.43335Z" fill="white"/>
</mask>
<g mask="url(#mask21_2544_2262)">
<path d="M24.7327 15.1185L25.3757 14.044C25.4748 13.8784 25.4861 13.6748 25.406 13.4993L24.8857 12.3599C24.6838 11.918 25.0761 11.4365 25.5497 11.5452L26.7702 11.8254C26.9582 11.8687 27.1553 11.8166 27.2975 11.6861L28.2199 10.8393C28.5777 10.5109 29.1568 10.7356 29.1999 11.2197L29.311 12.467C29.3281 12.6592 29.4386 12.8308 29.6066 12.9257L30.6972 13.5416C31.1201 13.7805 31.0855 14.4009 30.6387 14.5915L29.4871 15.0823C29.3096 15.1578 29.1807 15.3158 29.1423 15.5048L28.894 16.7323C28.7976 17.2084 28.1971 17.3671 27.878 17.0009L27.055 16.0566C26.9282 15.9112 26.7378 15.8375 26.5463 15.8595L25.3023 16.0019C24.8197 16.0573 24.4832 15.5352 24.7327 15.1185Z" fill="#FF8648"/>
</g>
<mask id="mask22_2544_2262" style="mask-type:luminance" maskUnits="userSpaceOnUse" x="192" y="56" width="15" height="15">
<path d="M192.073 63.4713L199.242 56.5446L206.165 63.7173L198.996 70.644L192.073 63.4713Z" fill="white"/>
</mask>
<g mask="url(#mask22_2544_2262)">
<path d="M198.666 65.9292L198.26 65.1352C198.197 65.0128 198.078 64.9291 197.942 64.9113L197.058 64.7956C196.716 64.7507 196.573 64.332 196.817 64.0869L197.447 63.4554C197.544 63.3582 197.586 63.2194 197.561 63.0843L197.398 62.2074C197.335 61.8673 197.689 61.6023 197.997 61.759L198.792 62.1627C198.914 62.2249 199.06 62.2229 199.18 62.1572L199.963 61.7309C200.267 61.5656 200.628 61.8207 200.575 62.1626L200.437 63.0435C200.415 63.1792 200.462 63.3167 200.562 63.4112L201.209 64.0245C201.46 64.2625 201.329 64.6851 200.988 64.7397L200.108 64.8805C199.972 64.9022 199.856 64.9893 199.797 65.1134L199.414 65.9186C199.265 66.231 198.823 66.2372 198.666 65.9292Z" fill="#FF8648"/>
</g>
<mask id="mask23_2544_2262" style="mask-type:luminance" maskUnits="userSpaceOnUse" x="135" y="-3" width="17" height="18">
<path d="M135.073 0.1427L148.97 -2.31031L151.418 11.5902L137.522 14.0432L135.073 0.1427Z" fill="white"/>
</mask>
<g mask="url(#mask23_2544_2262)">
<path d="M140.865 8.2494L141.018 6.9958C141.041 6.80265 140.968 6.61046 140.822 6.48179L139.877 5.64613C139.51 5.32202 139.674 4.7175 140.155 4.62323L141.393 4.38005C141.584 4.34275 141.744 4.21379 141.822 4.03529L142.325 2.87671C142.519 2.42735 143.145 2.39643 143.383 2.82456L143.995 3.92764C144.09 4.09764 144.262 4.21027 144.455 4.22866L145.712 4.34811C146.199 4.39442 146.421 4.97998 146.088 5.339L145.228 6.26384C145.096 6.40625 145.042 6.60469 145.084 6.7945L145.358 8.02689C145.464 8.5049 144.976 8.89765 144.532 8.69149L143.388 8.15978C143.211 8.07796 143.006 8.08821 142.839 8.18714L141.751 8.82906C141.33 9.07827 140.806 8.73561 140.865 8.2494Z" fill="#FF8648"/>
</g>
<mask id="mask24_2544_2262" style="mask-type:luminance" maskUnits="userSpaceOnUse" x="100" y="-9" width="17" height="17">
<path d="M100.025 -6.4624L113.922 -8.91542L116.37 4.9851L102.474 7.43812L100.025 -6.4624Z" fill="white"/>
</mask>
<g mask="url(#mask24_2544_2262)">
<path d="M105.817 1.6443L105.969 0.390698C105.993 0.197548 105.92 0.00535676 105.774 -0.123313L104.829 -0.958972C104.462 -1.28308 104.626 -1.8876 105.107 -1.98187L106.345 -2.22506C106.536 -2.26235 106.696 -2.39131 106.774 -2.56981L107.276 -3.72839C107.471 -4.17776 108.097 -4.20867 108.334 -3.78054L108.947 -2.67746C109.042 -2.50746 109.214 -2.39484 109.407 -2.37645L110.664 -2.25699C111.151 -2.21068 111.373 -1.62513 111.04 -1.2661L110.18 -0.341266C110.048 -0.198848 109.994 -0.000407547 110.036 0.189393L110.309 1.42178C110.416 1.8998 109.928 2.29255 109.484 2.08639L108.34 1.55468C108.163 1.47285 107.958 1.48311 107.79 1.58204L106.703 2.22396C106.282 2.47316 105.758 2.1305 105.817 1.6443Z" fill="#FF8648"/>
</g>
<mask id="mask25_2544_2262" style="mask-type:luminance" maskUnits="userSpaceOnUse" x="175" y="5" width="13" height="13">
<path d="M182.209 5.04395L187.865 11.5547L181.357 17.2149L175.701 10.7042L182.209 5.04395Z" fill="white"/>
</mask>
<g mask="url(#mask25_2544_2262)">
<path d="M179.787 10.6316L180.491 10.3166C180.6 10.2681 180.677 10.1693 180.699 10.0525L180.839 9.29367C180.893 8.99929 181.261 8.89495 181.462 9.11718L181.979 9.68978C182.058 9.77809 182.176 9.82143 182.294 9.80584L183.058 9.70449C183.355 9.66516 183.568 9.98316 183.419 10.2427L183.034 10.9114C182.975 11.0144 182.97 11.14 183.021 11.2473L183.354 11.9435C183.483 12.2135 183.246 12.5143 182.953 12.4526L182.199 12.2933C182.083 12.2688 181.962 12.3029 181.876 12.3847L181.317 12.9164C181.1 13.1226 180.741 12.9905 180.709 12.693L180.627 11.9256C180.615 11.8075 180.545 11.703 180.44 11.6464L179.762 11.2787C179.499 11.1362 179.514 10.7538 179.787 10.6316Z" fill="#FF8648"/>
</g>
<mask id="mask26_2544_2262" style="mask-type:luminance" maskUnits="userSpaceOnUse" x="108" y="106" width="8" height="8">
<path d="M108.36 106.132H115.75V113.527H108.36V106.132Z" fill="white"/>
</mask>
<g mask="url(#mask26_2544_2262)">
<path d="M113.704 109.829C113.704 110.741 112.966 111.479 112.055 111.479C111.144 111.479 110.406 110.741 110.406 109.829C110.406 108.918 111.144 108.179 112.055 108.179C112.966 108.179 113.704 108.918 113.704 109.829Z" fill="#FFD20B"/>
</g>
<mask id="mask27_2544_2262" style="mask-type:luminance" maskUnits="userSpaceOnUse" x="161" y="86" width="23" height="22">
<path d="M161.847 86.0936H183.235V107.493H161.847V86.0936Z" fill="white"/>
</mask>
<g mask="url(#mask27_2544_2262)">
<path d="M177.314 96.7932C177.314 99.4304 175.177 101.568 172.541 101.568C169.905 101.568 167.769 99.4304 167.769 96.7932C167.769 94.156 169.905 92.0182 172.541 92.0182C175.177 92.0182 177.314 94.156 177.314 96.7932Z" fill="#FFD20B"/>
</g>
<mask id="mask28_2544_2262" style="mask-type:luminance" maskUnits="userSpaceOnUse" x="39" y="54" width="8" height="8">
<path d="M39.199 54.9532H46.1417V61.8995H39.199V54.9532Z" fill="white"/>
</mask>
<g mask="url(#mask28_2544_2262)">
<path d="M44.2196 58.4263C44.2196 59.2824 43.526 59.9763 42.6704 59.9763C41.8147 59.9763 41.1211 59.2824 41.1211 58.4263C41.1211 57.5703 41.8147 56.8763 42.6704 56.8763C43.526 56.8763 44.2196 57.5703 44.2196 58.4263Z" fill="#FFD20B"/>
</g>
<mask id="mask29_2544_2262" style="mask-type:luminance" maskUnits="userSpaceOnUse" x="143" y="7" width="8" height="8">
<path d="M143.753 7.78979H150.695V14.7361H143.753V7.78979Z" fill="white"/>
</mask>
<g mask="url(#mask29_2544_2262)">
<path d="M148.773 11.2629C148.773 12.1189 148.08 12.8129 147.224 12.8129C146.368 12.8129 145.675 12.1189 145.675 11.2629C145.675 10.4068 146.368 9.71289 147.224 9.71289C148.08 9.71289 148.773 10.4068 148.773 11.2629Z" fill="#FFD20B"/>
</g>
<mask id="mask30_2544_2262" style="mask-type:luminance" maskUnits="userSpaceOnUse" x="62" y="88" width="9" height="9">
<path d="M64.3505 88.4562L70.6532 90.0291L69.0829 96.3333L62.7801 94.7604L64.3505 88.4562Z" fill="white"/>
</mask>
<g mask="url(#mask30_2544_2262)">
<path d="M66.6151 91.1087L65.3529 91.1615C65.1109 91.1717 64.9229 91.3762 64.9331 91.6183C64.9433 91.8605 65.1479 92.0486 65.3899 92.0385L65.8229 92.0203C66.0555 92.0106 66.2553 92.1843 66.2779 92.4162L66.363 93.2847C66.3857 93.5166 66.5854 93.6904 66.818 93.6806L68.0804 93.6279C68.3224 93.6177 68.5104 93.4132 68.5002 93.171C68.49 92.9288 68.2855 92.7407 68.0434 92.7508L67.6102 92.7689C67.3777 92.7787 67.1779 92.6049 67.1552 92.3731L67.0701 91.5045C67.0475 91.2727 66.8477 91.099 66.6151 91.1087Z" fill="#FFF8EE"/>
</g>
<mask id="mask31_2544_2262" style="mask-type:luminance" maskUnits="userSpaceOnUse" x="32" y="59" width="17" height="17">
<path d="M33.326 59.2046L48.4073 60.2606L47.3538 75.3478L32.2725 74.2918L33.326 59.2046Z" fill="white"/>
</mask>
<g mask="url(#mask31_2544_2262)">
<path d="M39.5877 64.369L36.7159 65.0006C36.1652 65.1218 35.817 65.6666 35.9383 66.2175C36.0595 66.7686 36.6043 67.117 37.155 66.996L38.1402 66.7792C38.6693 66.6629 39.1974 66.9803 39.3431 67.5026L39.8889 69.4592C40.0346 69.9815 40.5626 70.2991 41.0918 70.1826L43.9641 69.5513C44.5147 69.4301 44.8629 68.8853 44.7416 68.3342C44.6205 67.7832 44.0757 67.4348 43.525 67.5558L42.5394 67.7725C42.0102 67.8888 41.4822 67.5712 41.3365 67.049L40.7906 65.0925C40.645 64.5702 40.1169 64.2527 39.5877 64.369Z" fill="#FFF8EE"/>
</g>
<mask id="mask32_2544_2262" style="mask-type:luminance" maskUnits="userSpaceOnUse" x="71" y="14" width="11" height="12">
<path d="M71.2502 20.9551L75.7255 14.792L81.8863 19.2705L77.4109 25.4336L71.2502 20.9551Z" fill="white"/>
</mask>
<g mask="url(#mask32_2544_2262)">
<path d="M75.1263 19.6579L74.6297 21.0542C74.5345 21.3219 74.6742 21.6163 74.9417 21.7115C75.2094 21.8069 75.5035 21.6671 75.5988 21.3994L75.7691 20.9204C75.8606 20.6631 76.1371 20.5221 76.3989 20.5994L77.3799 20.8886C77.6418 20.9658 77.9183 20.8249 78.0098 20.5676L78.5066 19.1713C78.6018 18.9036 78.4621 18.6092 78.1944 18.5139C77.9268 18.4185 77.6327 18.5583 77.5374 18.826L77.367 19.3052C77.2754 19.5624 76.999 19.7033 76.7371 19.6262L75.7561 19.337C75.4943 19.2597 75.2178 19.4007 75.1263 19.6579Z" fill="#FFF8EE"/>
</g>
<mask id="mask33_2544_2262" style="mask-type:luminance" maskUnits="userSpaceOnUse" x="181" y="24" width="10" height="10">
<path d="M188.324 24.0271L190.928 31.1851L183.771 33.7919L181.168 26.6338L188.324 24.0271Z" fill="white"/>
</mask>
<g mask="url(#mask33_2544_2262)">
<path d="M187.231 27.9677L186.352 26.775C186.183 26.5463 185.861 26.4976 185.633 26.6663C185.404 26.835 185.355 27.1572 185.524 27.3859L185.825 27.795C185.987 28.0148 185.95 28.323 185.739 28.497L184.951 29.1491C184.741 29.3231 184.703 29.6312 184.865 29.851L185.744 31.044C185.912 31.2727 186.234 31.3214 186.463 31.1527C186.692 30.984 186.74 30.6618 186.572 30.4331L186.27 30.0238C186.108 29.804 186.146 29.4958 186.356 29.3218L187.144 28.6697C187.355 28.4957 187.393 28.1875 187.231 27.9677Z" fill="#FFF8EE"/>
</g>
<mask id="mask34_2544_2262" style="mask-type:luminance" maskUnits="userSpaceOnUse" x="155" y="85" width="11" height="11">
<path d="M165.464 88.2325L162.986 95.435L155.785 92.9536L158.263 85.7512L165.464 88.2325Z" fill="white"/>
</mask>
<g mask="url(#mask34_2544_2262)">
<path d="M162.136 90.6064L162.203 89.1258C162.216 88.8419 161.996 88.6012 161.712 88.5883C161.428 88.5754 161.188 88.7952 161.175 89.079L161.152 89.587C161.14 89.8598 160.917 90.0754 160.644 90.0781L159.621 90.0884C159.348 90.0911 159.125 90.3068 159.113 90.5796L159.046 92.0603C159.033 92.3442 159.253 92.5849 159.537 92.5978C159.82 92.6108 160.061 92.391 160.074 92.1071L160.096 91.599C160.109 91.3262 160.332 91.1106 160.605 91.1078L161.628 91.0975C161.901 91.0948 162.124 90.8792 162.136 90.6064Z" fill="#FFF8EE"/>
</g>
<mask id="mask35_2544_2262" style="mask-type:luminance" maskUnits="userSpaceOnUse" x="145" y="42" width="11" height="11">
<path d="M155.294 45.4144L152.816 52.6168L145.616 50.1354L148.094 42.933L155.294 45.4144Z" fill="white"/>
</mask>
<g mask="url(#mask35_2544_2262)">
<path d="M151.967 47.7882L152.034 46.3077C152.046 46.0238 151.827 45.7831 151.543 45.7702C151.259 45.7573 151.019 45.977 151.006 46.2609L150.983 46.7688C150.971 47.0417 150.748 47.2573 150.475 47.26L149.452 47.2703C149.179 47.273 148.956 47.4886 148.943 47.7615L148.876 49.2422C148.864 49.5261 149.083 49.7668 149.367 49.7797C149.651 49.7926 149.891 49.5729 149.904 49.289L149.927 48.7809C149.939 48.5081 150.163 48.2925 150.436 48.2897L151.458 48.2794C151.731 48.2767 151.954 48.061 151.967 47.7882Z" fill="#FFF8EE"/>
</g>
<mask id="mask36_2544_2262" style="mask-type:luminance" maskUnits="userSpaceOnUse" x="71" y="34" width="11" height="10">
<path d="M81.5665 36.7236L79.0884 43.926L71.8877 41.4447L74.3657 34.2422L81.5665 36.7236Z" fill="white"/>
</mask>
<g mask="url(#mask36_2544_2262)">
<path d="M78.2388 39.0974L78.3056 37.6169C78.3183 37.333 78.0987 37.0923 77.815 37.0794C77.5312 37.0665 77.2908 37.2862 77.278 37.5701L77.2551 38.0781C77.2428 38.3509 77.0196 38.5665 76.7467 38.5692L75.724 38.5795C75.451 38.5822 75.2278 38.7978 75.2155 39.0707L75.1486 40.5514C75.1358 40.8353 75.3555 41.076 75.6393 41.0889C75.923 41.1018 76.1634 40.8821 76.1763 40.5982L76.1992 40.0901C76.2116 39.8173 76.4348 39.6017 76.7077 39.5989L77.7304 39.5886C78.0033 39.5859 78.2265 39.3702 78.2388 39.0974Z" fill="#FFF8EE"/>
</g>
<mask id="mask37_2544_2262" style="mask-type:luminance" maskUnits="userSpaceOnUse" x="121" y="5" width="19" height="20">
<path d="M139.381 10.0492L135.094 24.0827L121.064 19.7896L125.35 5.75607L139.381 10.0492Z" fill="white"/>
</mask>
<g mask="url(#mask37_2544_2262)">
<path d="M133.134 14.8434L133.163 11.9884C133.168 11.4409 132.729 10.9924 132.182 10.9866C131.635 10.9808 131.187 11.4201 131.181 11.9675L131.171 12.9469C131.166 13.473 130.751 13.9032 130.225 13.9268L128.257 14.0154C127.732 14.039 127.316 14.4691 127.311 14.9953L127.282 17.8506C127.276 18.3981 127.715 18.8467 128.263 18.8524C128.81 18.8583 129.258 18.4191 129.263 17.8716L129.273 16.8918C129.279 16.3657 129.694 15.9356 130.219 15.9119L132.188 15.8233C132.713 15.7997 133.128 15.3695 133.134 14.8434Z" fill="#FFF8EE"/>
</g>
<mask id="mask38_2544_2262" style="mask-type:luminance" maskUnits="userSpaceOnUse" x="46" y="89" width="22" height="21">
<path d="M46.9918 96.1472L60.4801 89.5643L67.0562 103.056L53.5679 109.639L46.9918 96.1472Z" fill="white"/>
</mask>
<g mask="url(#mask38_2544_2262)">
<path d="M55.3468 101.804L55.5772 101.678C56.126 101.379 56.813 101.582 57.1115 102.131L57.2369 102.361C57.5355 102.91 58.2223 103.113 58.7711 102.814C59.3199 102.515 59.5228 101.827 59.2241 101.278L59.0988 101.048C58.8003 100.499 59.0028 99.812 59.5516 99.5129L59.7818 99.3875C60.3306 99.0885 60.5335 98.4011 60.235 97.8523C59.9363 97.3034 59.2492 97.1007 58.7004 97.3998L58.4702 97.5252C57.9214 97.8242 57.2347 97.6217 56.936 97.0728L56.8107 96.8425C56.5121 96.2936 55.8249 96.0909 55.2762 96.3899C54.7274 96.6889 54.5248 97.3763 54.8235 97.9252L54.9488 98.1555C55.2474 98.7045 55.0446 99.3916 54.4958 99.6906L54.2654 99.8162C53.7166 100.115 53.5141 100.803 53.8127 101.351C54.1113 101.9 54.7981 102.103 55.3468 101.804Z" fill="#FF37C5"/>
</g>
<mask id="mask39_2544_2262" style="mask-type:luminance" maskUnits="userSpaceOnUse" x="69" y="95" width="22" height="22">
<path d="M69.4561 104.383L81.7484 95.7711L90.354 108.068L78.0616 116.68L69.4561 104.383Z" fill="white"/>
</mask>
<g mask="url(#mask39_2544_2262)">
<path d="M78.5933 108.663L78.8012 108.503C79.2965 108.122 80.0067 108.215 80.3874 108.71L80.5473 108.918C80.9282 109.413 81.6382 109.506 82.1335 109.125C82.6288 108.744 82.7216 108.033 82.3407 107.538L82.1808 107.33C81.8002 106.835 81.8927 106.124 82.3879 105.743L82.5957 105.583C83.091 105.202 83.1838 104.491 82.8031 103.996C82.4222 103.5 81.7118 103.408 81.2165 103.789L81.0087 103.949C80.5135 104.33 79.8035 104.237 79.4227 103.742L79.2629 103.534C78.882 103.039 78.1716 102.946 77.6763 103.327C77.1811 103.708 77.0886 104.419 77.4694 104.914L77.6292 105.122C78.0101 105.617 77.9173 106.328 77.422 106.709L77.2141 106.869C76.7188 107.25 76.6263 107.961 77.0072 108.456C77.388 108.952 78.098 109.044 78.5933 108.663Z" fill="#FF37C5"/>
</g>
<mask id="mask40_2544_2262" style="mask-type:luminance" maskUnits="userSpaceOnUse" x="81" y="9" width="22" height="22">
<path d="M89.7286 30.3992L81.2764 17.8609L93.8101 9.40194L102.262 21.9402L89.7286 30.3992Z" fill="white"/>
</mask>
<g mask="url(#mask40_2544_2262)">
<path d="M94.1997 21.2651L94.0423 21.0528C93.6674 20.547 93.7734 19.8328 94.2787 19.4578L94.491 19.3003C94.9966 18.9251 95.1026 18.2111 94.7276 17.7053C94.3527 17.1996 93.6388 17.0936 93.1333 17.4689L92.921 17.6264C92.4157 18.0014 91.7019 17.8958 91.327 17.3901L91.1697 17.1779C90.7947 16.6721 90.0809 16.5662 89.5754 16.9413C89.0698 17.3165 88.9639 18.0309 89.3389 18.5366L89.4962 18.7488C89.8711 19.2546 89.7652 19.9685 89.2597 20.3437L89.0475 20.5011C88.542 20.8763 88.436 21.5907 88.811 22.0964C89.1859 22.6022 89.8997 22.7078 90.4053 22.3325L90.6174 22.1751C91.123 21.7999 91.8366 21.9058 92.2115 22.4116L92.3689 22.6239C92.7439 23.1296 93.4576 23.2352 93.9632 22.86C94.4687 22.4849 94.5747 21.7709 94.1997 21.2651Z" fill="#FF37C5"/>
</g>
<mask id="mask41_2544_2262" style="mask-type:luminance" maskUnits="userSpaceOnUse" x="136" y="61" width="22" height="22">
<path d="M145.236 82.332L136.784 69.7938L149.318 61.3348L157.77 73.873L145.236 82.332Z" fill="white"/>
</mask>
<g mask="url(#mask41_2544_2262)">
<path d="M149.707 73.198L149.55 72.9857C149.175 72.4799 149.281 71.7657 149.786 71.3907L149.999 71.2331C150.504 70.8579 150.61 70.1439 150.235 69.6382C149.86 69.1324 149.147 69.0265 148.641 69.4017L148.429 69.5592C147.923 69.9343 147.21 69.8287 146.835 69.3229L146.677 69.1107C146.302 68.605 145.589 68.499 145.083 68.8742C144.578 69.2494 144.472 69.9637 144.847 70.4695L145.004 70.6817C145.379 71.1874 145.273 71.9013 144.767 72.2765L144.555 72.434C144.05 72.8092 143.944 73.5235 144.319 74.0293C144.694 74.535 145.407 74.6406 145.913 74.2654L146.125 74.108C146.631 73.7328 147.344 73.8387 147.719 74.3444L147.877 74.5567C148.252 75.0625 148.965 75.1681 149.471 74.7929C149.976 74.4177 150.082 73.7037 149.707 73.198Z" fill="#FF37C5"/>
</g>
<mask id="mask42_2544_2262" style="mask-type:luminance" maskUnits="userSpaceOnUse" x="38" y="24" width="22" height="22">
<path d="M47.3034 45.873L38.8512 33.3348L51.3848 24.8758L59.8371 37.4141L47.3034 45.873Z" fill="white"/>
</mask>
<g mask="url(#mask42_2544_2262)">
<path d="M51.7745 36.739L51.6171 36.5267C51.2422 36.0209 51.3482 35.3067 51.8535 34.9317L52.0658 34.7742C52.5713 34.3989 52.6773 33.685 52.3024 33.1792C51.9275 32.6734 51.2136 32.5675 50.708 32.9427L50.4958 33.1002C49.9905 33.4753 49.2767 33.3697 48.9017 32.8639L48.7444 32.6517C48.3695 32.146 47.6557 32.0401 47.1502 32.4152C46.6446 32.7904 46.5387 33.5047 46.9136 34.0105L47.0709 34.2227C47.4459 34.7284 47.34 35.4423 46.8344 35.8176L46.6223 35.975C46.1167 36.3502 46.0108 37.0645 46.3857 37.5703C46.7607 38.0761 47.4745 38.1816 47.98 37.8064L48.1922 37.649C48.6977 37.2738 49.4114 37.3797 49.7863 37.8854L49.9437 38.0978C50.3186 38.6035 51.0324 38.7091 51.538 38.3339C52.0435 37.9587 52.1494 37.2448 51.7745 36.739Z" fill="#FF37C5"/>
</g>
<mask id="mask43_2544_2262" style="mask-type:luminance" maskUnits="userSpaceOnUse" x="170" y="49" width="22" height="21">
<path d="M184.551 69.8107L170.962 63.1786L177.587 49.586L191.176 56.2181L184.551 69.8107Z" fill="white"/>
</mask>
<g mask="url(#mask43_2544_2262)">
<path d="M183.856 59.6646L183.613 59.5595C183.036 59.309 182.771 58.6374 183.021 58.06L183.126 57.8174C183.376 57.2397 183.111 56.5684 182.533 56.3179C181.956 56.0673 181.284 56.3325 181.034 56.9103L180.929 57.1528C180.679 57.7303 180.008 57.9957 179.431 57.7452L179.188 57.6401C178.611 57.3896 177.939 57.6547 177.689 58.2323C177.439 58.8101 177.704 59.4817 178.282 59.7322L178.524 59.8373C179.102 60.0878 179.367 60.759 179.117 61.3367L179.012 61.5791C178.762 62.1569 179.027 62.8284 179.605 63.079C180.182 63.3295 180.853 63.064 181.104 62.4863L181.209 62.2439C181.459 61.6662 182.13 61.4011 182.707 61.6516L182.95 61.7567C183.527 62.0073 184.198 61.7418 184.449 61.1641C184.699 60.5865 184.434 59.9152 183.856 59.6646Z" fill="#FF37C5"/>
</g>
<mask id="mask44_2544_2262" style="mask-type:luminance" maskUnits="userSpaceOnUse" x="49" y="79" width="14" height="13">
<path d="M55.3727 91.4496L49.7591 84.7552L56.45 79.1372L62.0636 85.8316L55.3727 91.4496Z" fill="white"/>
</mask>
<g mask="url(#mask44_2544_2262)">
<path d="M58.0878 86.3965L55.8625 87.734C55.4988 87.9525 55.0271 87.8348 54.8089 87.471L53.4728 85.2446C53.2544 84.8809 53.3721 84.409 53.7358 84.1905L55.9611 82.853C56.3246 82.6345 56.7963 82.7523 57.0147 83.1159L58.3508 85.3424C58.5691 85.7062 58.4514 86.1781 58.0878 86.3965Z" fill="#55AEFF"/>
</g>
<mask id="mask45_2544_2262" style="mask-type:luminance" maskUnits="userSpaceOnUse" x="89" y="108" width="7" height="6">
<path d="M95.3602 112.483L91.0759 113.793L89.7661 109.508L94.0504 108.198L95.3602 112.483Z" fill="white"/>
</mask>
<g mask="url(#mask45_2544_2262)">
<path d="M93.5201 110.188L93.705 111.507C93.7352 111.723 93.5851 111.922 93.3697 111.952L92.0516 112.137C91.8362 112.168 91.6372 112.017 91.607 111.802L91.4221 110.483C91.3919 110.268 91.542 110.068 91.7574 110.038L93.0755 109.853C93.2909 109.823 93.49 109.973 93.5201 110.188Z" fill="#55AEFF"/>
</g>
<mask id="mask46_2544_2262" style="mask-type:luminance" maskUnits="userSpaceOnUse" x="181" y="43" width="14" height="14">
<path d="M193.118 56.3789L181.473 54.7405L183.108 43.0923L194.753 44.7307L193.118 56.3789Z" fill="white"/>
</mask>
<g mask="url(#mask46_2544_2262)">
<path d="M191.283 48.8771L190.261 52.2206C190.094 52.767 189.516 53.0744 188.97 52.9072L185.629 51.8844C185.083 51.7174 184.776 51.1393 184.943 50.5929L185.965 47.2494C186.132 46.7033 186.71 46.3959 187.256 46.5629L190.597 47.5857C191.143 47.7528 191.45 48.3309 191.283 48.8771Z" fill="#55AEFF"/>
</g>
<mask id="mask47_2544_2262" style="mask-type:luminance" maskUnits="userSpaceOnUse" x="105" y="6" width="10" height="10">
<path d="M110.399 6.43933L114.44 11.0897L109.791 15.1325L105.751 10.4822L110.399 6.43933Z" fill="white"/>
</mask>
<g mask="url(#mask47_2544_2262)">
<path d="M108.547 10.035L110.1 9.06482C110.354 8.90629 110.688 8.98351 110.846 9.2373L111.815 10.7905C111.974 11.0443 111.897 11.3784 111.643 11.5369L110.091 12.5072C109.837 12.6656 109.503 12.5884 109.345 12.3347L108.375 10.7814C108.217 10.5276 108.294 10.1935 108.547 10.035Z" fill="#55AEFF"/>
</g>
<mask id="mask48_2544_2262" style="mask-type:luminance" maskUnits="userSpaceOnUse" x="47" y="14" width="16" height="16">
<path d="M47.1806 19.8975L56.9765 14.2388L62.6306 24.0373L52.8348 29.696L47.1806 19.8975Z" fill="white"/>
</mask>
<g mask="url(#mask48_2544_2262)">
<path d="M53.0103 24.4964L51.8065 21.3565C51.6098 20.8434 51.866 20.2679 52.3787 20.0712L55.5167 18.8667C56.0294 18.6697 56.6043 18.926 56.801 19.4391L58.0048 22.579C58.2014 23.0919 57.9452 23.6674 57.4326 23.8643L54.2945 25.0689C53.7817 25.2657 53.2068 25.0095 53.0103 24.4964Z" fill="#55AEFF"/>
</g>
<mask id="mask49_2544_2262" style="mask-type:luminance" maskUnits="userSpaceOnUse" x="21" y="69" width="15" height="15">
<path d="M27.1927 69.2338L35.0466 75.3731L28.9112 83.2302L21.0574 77.0908L27.1927 69.2338Z" fill="white"/>
</mask>
<g mask="url(#mask49_2544_2262)">
<path d="M25.8326 77.0844L26.2905 76.3192C26.361 76.2013 26.3691 76.0563 26.312 75.9314L25.9417 75.1201C25.798 74.8054 26.0774 74.4625 26.4145 74.54L27.2834 74.7393C27.4172 74.7702 27.5576 74.733 27.6588 74.6401L28.3156 74.0371C28.5703 73.8032 28.9826 73.9631 29.0132 74.3079L29.0922 75.196C29.1044 75.3329 29.183 75.455 29.3026 75.5226L30.079 75.9611C30.3801 76.1312 30.3554 76.573 30.0373 76.7087L29.2173 77.0583C29.091 77.1121 28.9992 77.2246 28.9719 77.3592L28.795 78.2332C28.7263 78.5722 28.2988 78.6853 28.0716 78.4246L27.4858 77.7523C27.3956 77.6487 27.26 77.5962 27.1237 77.6119L26.238 77.7134C25.8945 77.7529 25.6549 77.3811 25.8326 77.0844Z" fill="#FF8648"/>
</g>
<mask id="mask50_2544_2262" style="mask-type:luminance" maskUnits="userSpaceOnUse" x="130" y="93" width="17" height="17">
<path d="M138.099 93.5129L146.371 101.23L138.658 109.506L130.386 101.789L138.099 93.5129Z" fill="white"/>
</mask>
<g mask="url(#mask50_2544_2262)">
<path d="M135.786 102.254L136.379 101.434C136.47 101.308 136.494 101.144 136.442 100.998L136.103 100.044C135.972 99.6737 136.322 99.3137 136.695 99.4346L137.658 99.7459C137.806 99.794 137.968 99.7659 138.092 99.6709L138.894 99.0541C139.205 98.8149 139.655 99.0365 139.656 99.4292L139.657 100.441C139.657 100.597 139.734 100.743 139.863 100.831L140.697 101.404C141.021 101.626 140.949 102.123 140.576 102.245L139.614 102.559C139.466 102.607 139.351 102.725 139.307 102.875L139.021 103.845C138.91 104.222 138.415 104.308 138.184 103.99L137.588 103.172C137.497 103.046 137.349 102.974 137.193 102.978L136.182 103.005C135.789 103.016 135.555 102.572 135.786 102.254Z" fill="#FF8648"/>
</g>
<mask id="mask51_2544_2262" style="mask-type:luminance" maskUnits="userSpaceOnUse" x="60" y="12" width="14" height="13">
<path d="M60.7617 15.9252L69.4213 12.2468L73.0955 20.9086L64.4358 24.587L60.7617 15.9252Z" fill="white"/>
</mask>
<g mask="url(#mask51_2544_2262)">
<path d="M66.6166 20.641L66.1948 19.9125C66.1298 19.8002 66.0139 19.7272 65.8847 19.7171L65.0461 19.6516C64.7207 19.6262 64.5656 19.2385 64.7837 18.9955L65.3455 18.369C65.4322 18.2726 65.4657 18.1397 65.4354 18.0135L65.2383 17.195C65.1618 16.8775 65.4823 16.6101 65.7807 16.7426L66.5495 17.084C66.668 17.1366 66.8047 17.1276 66.9152 17.0597L67.632 16.6192C67.91 16.4483 68.2632 16.671 68.2296 16.9959L68.143 17.8332C68.1297 17.9622 68.1805 18.0895 68.279 18.1737L68.9192 18.7199C69.1674 18.9319 69.0652 19.3368 68.7462 19.4051L67.9237 19.5812C67.797 19.6083 67.6917 19.6962 67.6423 19.8161L67.321 20.594C67.1965 20.8959 66.7802 20.9236 66.6166 20.641Z" fill="#FF8648"/>
</g>
<mask id="mask52_2544_2262" style="mask-type:luminance" maskUnits="userSpaceOnUse" x="64" y="36" width="8" height="9">
<path d="M64.0294 36.9902H71.532V44.4967H64.0294V36.9902Z" fill="white"/>
</mask>
<g mask="url(#mask52_2544_2262)">
<path d="M69.4549 40.7435C69.4549 41.6686 68.7053 42.4185 67.7807 42.4185C66.856 42.4185 66.1064 41.6686 66.1064 40.7435C66.1064 39.8184 66.856 39.0685 67.7807 39.0685C68.7053 39.0685 69.4549 39.8184 69.4549 40.7435Z" fill="#FFD20B"/>
</g>
<mask id="mask53_2544_2262" style="mask-type:luminance" maskUnits="userSpaceOnUse" x="133" y="74" width="9" height="8">
<path d="M133.668 74.3312H141.171V81.8377H133.668V74.3312Z" fill="white"/>
</mask>
<g mask="url(#mask53_2544_2262)">
<path d="M139.094 78.0844C139.094 79.0095 138.344 79.7594 137.42 79.7594C136.495 79.7594 135.746 79.0095 135.746 78.0844C135.746 77.1593 136.495 76.4094 137.42 76.4094C138.344 76.4094 139.094 77.1593 139.094 78.0844Z" fill="#FFD20B"/>
</g>
<mask id="mask54_2544_2262" style="mask-type:luminance" maskUnits="userSpaceOnUse" x="133" y="36" width="8" height="8">
<path d="M133.251 36.1559H140.754V43.6624H133.251V36.1559Z" fill="white"/>
</mask>
<g mask="url(#mask54_2544_2262)">
<path d="M138.677 39.9091C138.677 40.8342 137.927 41.5841 137.003 41.5841C136.078 41.5841 135.329 40.8342 135.329 39.9091C135.329 38.984 136.078 38.2341 137.003 38.2341C137.927 38.2341 138.677 38.984 138.677 39.9091Z" fill="#FFD20B"/>
</g>
<mask id="mask55_2544_2262" style="mask-type:luminance" maskUnits="userSpaceOnUse" x="91" y="76" width="10" height="10">
<path d="M91.6288 80.2069L97.1963 76.8593L100.541 82.4289L94.973 85.7765L91.6288 80.2069Z" fill="white"/>
</mask>
<g mask="url(#mask55_2544_2262)">
<path d="M94.9512 80.7018L94.3082 81.7899C94.1849 81.9985 94.254 82.2677 94.4625 82.391C94.6711 82.5144 94.9402 82.4453 95.0635 82.2366L95.284 81.8633C95.4025 81.6629 95.6569 81.5899 95.8636 81.6972L96.6379 82.099C96.8446 82.2063 97.099 82.1334 97.2175 81.9328L97.8607 80.8447C97.9839 80.636 97.9148 80.3669 97.7062 80.2435C97.4977 80.1201 97.2287 80.1892 97.1054 80.3979L96.8847 80.7713C96.7662 80.9717 96.5118 81.0447 96.3051 80.9374L95.5307 80.5356C95.324 80.4283 95.0696 80.5013 94.9512 80.7018Z" fill="#FFF8EE"/>
</g>
<mask id="mask56_2544_2262" style="mask-type:luminance" maskUnits="userSpaceOnUse" x="62" y="68" width="8" height="7">
<path d="M63.3141 68.1669L69.5616 68.7142L69.0155 74.9639L62.7681 74.4166L63.3141 68.1669Z" fill="white"/>
</mask>
<g mask="url(#mask56_2544_2262)">
<path d="M65.6283 70.4406L64.5091 70.925C64.2945 71.018 64.1959 71.2674 64.2889 71.4821C64.3819 71.6969 64.6313 71.7957 64.8459 71.7029L65.2298 71.5367C65.436 71.4474 65.6762 71.5349 65.7768 71.7361L66.154 72.4897C66.2546 72.6909 66.4947 72.7784 66.701 72.6891L67.8204 72.2048C68.035 72.1119 68.1336 71.8624 68.0406 71.6476C67.9476 71.4328 67.6982 71.334 67.4836 71.4269L67.0995 71.5931C66.8933 71.6823 66.6532 71.5948 66.5525 71.3937L66.1753 70.6401C66.0747 70.4389 65.8346 70.3514 65.6283 70.4406Z" fill="#FFF8EE"/>
</g>
<mask id="mask57_2544_2262" style="mask-type:luminance" maskUnits="userSpaceOnUse" x="149" y="20" width="12" height="13">
<path d="M160.933 20.8414L160.542 32.0392L149.351 31.6491L149.743 20.4513L160.933 20.8414Z" fill="white"/>
</mask>
<g mask="url(#mask57_2544_2262)">
<path d="M157.097 25.1841L156.128 23.2322C155.942 22.858 155.488 22.7051 155.114 22.8909C154.74 23.0768 154.587 23.5309 154.773 23.9052L155.105 24.5747C155.284 24.9344 155.15 25.3709 154.801 25.5691L153.493 26.3119C153.144 26.5101 153.01 26.9466 153.189 27.3063L154.158 29.2585C154.344 29.6327 154.798 29.7856 155.172 29.5997C155.547 29.414 155.699 28.9599 155.513 28.5856L155.181 27.9157C155.002 27.556 155.136 27.1195 155.485 26.9213L156.793 26.1785C157.142 25.9803 157.276 25.5437 157.097 25.1841Z" fill="#FFF8EE"/>
</g>
<mask id="mask58_2544_2262" style="mask-type:luminance" maskUnits="userSpaceOnUse" x="163" y="46" width="17" height="17">
<path d="M171.75 62.2059L163.299 54.855L170.645 46.3995L179.096 53.7504L171.75 62.2059Z" fill="white"/>
</mask>
<g mask="url(#mask58_2544_2262)">
<path d="M170.792 56.4902L172.918 56.9655C173.325 57.0565 173.73 56.7998 173.821 56.392C173.912 55.9841 173.655 55.5796 173.248 55.4884L172.518 55.3255C172.127 55.2379 171.871 54.8594 171.937 54.4632L172.183 52.9787C172.249 52.5825 171.993 52.204 171.602 52.1164L169.476 51.6409C169.068 51.5499 168.664 51.8066 168.573 52.2145C168.481 52.6223 168.738 53.0268 169.146 53.118L169.875 53.2812C170.267 53.3688 170.522 53.7473 170.457 54.1435L170.211 55.6279C170.145 56.0241 170.4 56.4026 170.792 56.4902Z" fill="#FFF8EE"/>
</g>
<mask id="mask59_2544_2262" style="mask-type:luminance" maskUnits="userSpaceOnUse" x="120" y="87" width="21" height="21">
<path d="M120.597 101.72L126.458 87.9028L140.273 93.7708L134.412 107.588L120.597 101.72Z" fill="white"/>
</mask>
<g mask="url(#mask59_2544_2262)">
<path d="M131.104 100.431L131.15 100.173C131.26 99.5579 131.848 99.1485 132.463 99.2586L132.721 99.3049C133.336 99.415 133.924 99.0058 134.034 98.3905C134.144 97.7752 133.735 97.187 133.12 97.0768L132.861 97.0306C132.247 96.9205 131.837 96.3326 131.947 95.7173L131.993 95.4591C132.103 94.8439 131.694 94.2557 131.079 94.1455C130.464 94.0354 129.876 94.4449 129.766 95.0602L129.72 95.3183C129.61 95.9336 129.022 96.3429 128.407 96.2327L128.149 96.1865C127.534 96.0763 126.946 96.4859 126.836 97.1012C126.726 97.7164 127.136 98.3044 127.751 98.4145L128.009 98.4608C128.624 98.5709 129.033 99.1589 128.923 99.7742L128.877 100.033C128.767 100.648 129.176 101.236 129.791 101.346C130.406 101.456 130.994 101.047 131.104 100.431Z" fill="#FF37C5"/>
</g>
<mask id="mask60_2544_2262" style="mask-type:luminance" maskUnits="userSpaceOnUse" x="143" y="81" width="12" height="12">
<path d="M149.99 92.8982L143.724 88.0005L148.619 81.7325L154.884 86.6302L149.99 92.8982Z" fill="white"/>
</mask>
<g mask="url(#mask60_2544_2262)">
<path d="M151.497 86.9622L150.573 89.1383C150.422 89.4939 150.012 89.6597 149.657 89.5087L147.482 88.5846C147.127 88.4338 146.961 88.0233 147.112 87.6677L148.036 85.4916C148.187 85.1362 148.597 84.9703 148.952 85.1212L151.127 86.0453C151.482 86.1963 151.648 86.6067 151.497 86.9622Z" fill="#55AEFF"/>
</g>
<mask id="mask61_2544_2262" style="mask-type:luminance" maskUnits="userSpaceOnUse" x="156" y="64" width="10" height="10">
<path d="M165.896 69.2747L160.663 73.6677L156.273 68.4327L161.506 64.0396L165.896 69.2747Z" fill="white"/>
</mask>
<g mask="url(#mask61_2544_2262)">
<path d="M161.18 66.9466L162.843 68.112C163.114 68.3024 163.18 68.6771 162.99 68.9489L161.825 70.6123C161.635 70.8841 161.261 70.95 160.989 70.7596L159.326 69.5942C159.055 69.4038 158.989 69.0291 159.179 68.7573L160.344 67.0939C160.534 66.8221 160.908 66.7561 161.18 66.9466Z" fill="#55AEFF"/>
</g>
<mask id="mask62_2544_2262" style="mask-type:luminance" maskUnits="userSpaceOnUse" x="114" y="25" width="12" height="12">
<path d="M120.554 25.1461L125.696 31.065L119.78 36.2106L114.638 30.2918L120.554 25.1461Z" fill="white"/>
</mask>
<g mask="url(#mask62_2544_2262)">
<path d="M117.978 30.6068L119.281 28.6747C119.494 28.359 119.923 28.2758 120.238 28.4888L122.169 29.7925C122.484 30.0054 122.568 30.4339 122.355 30.7496L121.052 32.6816C120.839 32.9972 120.41 33.0804 120.095 32.8675L118.164 31.5638C117.848 31.3508 117.765 30.9224 117.978 30.6068Z" fill="#55AEFF"/>
</g>
<mask id="mask63_2544_2262" style="mask-type:luminance" maskUnits="userSpaceOnUse" x="59" y="55" width="8" height="7">
<path d="M63.127 61.984L59.8432 58.4607L63.3647 55.175L66.6485 58.6983L63.127 61.984Z" fill="white"/>
</mask>
<g mask="url(#mask63_2544_2262)">
<path d="M64.5907 58.5764L63.8322 59.7904C63.7082 59.9888 63.447 60.0491 63.2488 59.9251L62.0354 59.1661C61.8372 59.0421 61.7769 58.7809 61.9009 58.5825L62.6594 57.3685C62.7834 57.1702 63.0445 57.1099 63.2428 57.2338L64.4562 57.9928C64.6545 58.1168 64.7147 58.3781 64.5907 58.5764Z" fill="#55AEFF"/>
</g>
<mask id="mask64_2544_2262" style="mask-type:luminance" maskUnits="userSpaceOnUse" x="81" y="27" width="8" height="8">
<path d="M84.811 34.6564L81.5272 31.133L85.0488 27.8474L88.3326 31.3707L84.811 34.6564Z" fill="white"/>
</mask>
<g mask="url(#mask64_2544_2262)">
<path d="M86.2747 31.2488L85.5162 32.4628C85.3922 32.6612 85.131 32.7215 84.9328 32.5974L83.7194 31.8385C83.5212 31.7145 83.461 31.4533 83.5849 31.2549L84.3435 30.0408C84.4674 29.8425 84.7286 29.7823 84.9268 29.9062L86.1402 30.6652C86.3385 30.7892 86.3987 31.0504 86.2747 31.2488Z" fill="#55AEFF"/>
</g>
<mask id="mask65_2544_2262" style="mask-type:luminance" maskUnits="userSpaceOnUse" x="51" y="58" width="17" height="16">
<path d="M54.4355 58.0051L67.3121 60.9808L64.3415 73.8606L51.4648 70.8849L54.4355 58.0051Z" fill="white"/>
</mask>
<g mask="url(#mask65_2544_2262)">
<path d="M58.3114 68.8962L57.9442 67.772C57.8876 67.5988 57.7495 67.4646 57.575 67.413L56.4415 67.0778C56.0017 66.9478 55.9017 66.3698 56.2723 66.0997L57.2272 65.4035C57.3745 65.2963 57.4593 65.1235 57.4544 64.9414L57.4224 63.7593C57.4099 63.3008 57.9284 63.0272 58.2998 63.2965L59.2569 63.9902C59.4044 64.0972 59.5949 64.1247 59.7665 64.0638L60.8802 63.6682C61.3122 63.5148 61.7326 63.9239 61.5918 64.3605L61.2284 65.4853C61.1724 65.6586 61.2051 65.8484 61.316 65.9928L62.0365 66.9304C62.3158 67.2941 62.0572 67.8204 61.5989 67.821L60.417 67.8224C60.2349 67.8227 60.0646 67.9127 59.9617 68.0628L59.2931 69.0376C59.0339 69.4159 58.4537 69.3322 58.3114 68.8962Z" fill="#FF8648"/>
</g>
<mask id="mask66_2544_2262" style="mask-type:luminance" maskUnits="userSpaceOnUse" x="61" y="70" width="28" height="28">
<path d="M61.7281 76.0693L83.353 70.6726L88.741 92.3027L67.116 97.6994L61.7281 76.0693Z" fill="white"/>
</mask>
<g mask="url(#mask66_2544_2262)">
<path d="M75.883 89.4646L74.4713 88.0567C74.2538 87.8398 73.9437 87.7438 73.6419 87.8L71.6824 88.1648C70.9223 88.3065 70.3298 87.5146 70.68 86.8247L71.5821 85.0467C71.7214 84.7728 71.7168 84.4481 71.5701 84.1781L70.6175 82.4263C70.2481 81.7468 70.8178 80.9385 71.5819 81.0585L73.5507 81.3676C73.854 81.4153 74.1614 81.3107 74.3726 81.0876L75.7434 79.6398C76.275 79.0782 77.2196 79.3708 77.342 80.1348L77.6566 82.1037C77.705 82.4069 77.8993 82.6671 78.1764 82.7992L79.9762 83.6561C80.6742 83.9886 80.6882 84.9777 80 85.3298L78.2252 86.2375C77.9519 86.3774 77.7648 86.6432 77.7251 86.9477L77.4663 88.9249C77.3662 89.692 76.4304 90.0108 75.883 89.4646Z" fill="#FF8648"/>
</g>
<mask id="mask67_2544_2262" style="mask-type:luminance" maskUnits="userSpaceOnUse" x="91" y="88" width="18" height="18">
<path d="M94.6985 88.326L108.94 91.3561L105.915 105.601L91.6738 102.571L94.6985 88.326Z" fill="white"/>
</mask>
<g mask="url(#mask67_2544_2262)">
<path d="M99.1772 100.248L98.7511 99.0171C98.6855 98.8274 98.5308 98.6822 98.3375 98.6287L97.0826 98.2813C96.5957 98.1466 96.4743 97.5118 96.8774 97.2072L97.9159 96.4219C98.076 96.301 98.1662 96.109 98.1573 95.9085L98.0992 94.607C98.0767 94.1022 98.6425 93.7909 99.0569 94.0803L100.124 94.8261C100.289 94.941 100.499 94.9677 100.687 94.8973L101.906 94.4402C102.379 94.2628 102.85 94.7054 102.703 95.189L102.325 96.4351C102.267 96.627 102.306 96.8354 102.431 96.9924L103.243 98.0113C103.557 98.4066 103.283 98.9913 102.778 99.0008L101.476 99.025C101.275 99.0288 101.09 99.1312 100.979 99.2986L100.261 100.385C99.9831 100.807 99.3424 100.726 99.1772 100.248Z" fill="#FF8648"/>
</g>
<mask id="mask68_2544_2262" style="mask-type:luminance" maskUnits="userSpaceOnUse" x="115" y="87" width="12" height="13">
<path d="M121.886 87.8519L126.51 94.4594L119.905 99.0869L115.282 92.4795L121.886 87.8519Z" fill="white"/>
</mask>
<g mask="url(#mask68_2544_2262)">
<path d="M119.198 94.373L119.49 93.7134C119.535 93.6118 119.527 93.4945 119.469 93.3998L119.092 92.785C118.946 92.5465 119.136 92.2436 119.415 92.2725L120.132 92.3467C120.243 92.3583 120.352 92.3146 120.424 92.23L120.892 91.681C121.073 91.468 121.42 91.5557 121.479 91.8294L121.629 92.5348C121.653 92.6435 121.728 92.7338 121.831 92.7762L122.497 93.0516C122.756 93.1584 122.779 93.5156 122.537 93.656L121.913 94.0177C121.817 94.0734 121.754 94.1728 121.746 94.2835L121.69 95.0028C121.668 95.2818 121.336 95.4148 121.128 95.2279L120.591 94.7459C120.508 94.6717 120.394 94.643 120.286 94.669L119.585 94.838C119.313 94.9037 119.084 94.6288 119.198 94.373Z" fill="#FF8648"/>
</g>
<mask id="mask69_2544_2262" style="mask-type:luminance" maskUnits="userSpaceOnUse" x="155" y="63" width="27" height="26">
<path d="M173.053 63.0328L181.445 80.2501L164.232 88.6507L155.84 71.4335L173.053 63.0328Z" fill="white"/>
</mask>
<g mask="url(#mask69_2544_2262)">
<path d="M164.325 77.3316L165.255 75.8923C165.399 75.6706 165.424 75.3926 165.323 75.1488L164.667 73.566C164.412 72.952 164.972 72.312 165.614 72.4831L167.268 72.9238C167.523 72.9919 167.795 72.9299 167.996 72.7582L169.297 71.6436C169.802 71.2113 170.582 71.5459 170.618 72.21L170.71 73.9212C170.724 74.1849 170.866 74.4247 171.091 74.5624L172.552 75.4563C173.118 75.803 173.041 76.6499 172.421 76.8895L170.824 77.5064C170.578 77.6013 170.394 77.8113 170.332 78.068L169.934 79.7351C169.779 80.3816 168.951 80.5704 168.532 80.0546L167.453 78.7242C167.287 78.5194 167.03 78.4096 166.767 78.4306L165.06 78.5667C164.398 78.6197 163.964 77.8897 164.325 77.3316Z" fill="#FF8648"/>
</g>
<mask id="mask70_2544_2262" style="mask-type:luminance" maskUnits="userSpaceOnUse" x="158" y="47" width="9" height="9">
<path d="M159.471 47.9625L166.014 48.8832L165.096 55.4283L158.552 54.5077L159.471 47.9625Z" fill="white"/>
</mask>
<g mask="url(#mask70_2544_2262)">
<path d="M161.876 53.2186L161.644 52.6746C161.608 52.5908 161.534 52.53 161.445 52.5119L160.866 52.3943C160.641 52.3487 160.566 52.0652 160.739 51.9145L161.184 51.526C161.253 51.4662 161.287 51.3765 161.277 51.2859L161.21 50.6985C161.183 50.4706 161.43 50.3118 161.626 50.4297L162.133 50.7336C162.211 50.7804 162.308 50.7858 162.39 50.748L162.928 50.5024C163.136 50.4072 163.363 50.5926 163.312 50.8162L163.18 51.3924C163.16 51.4811 163.185 51.5743 163.246 51.6414L163.646 52.077C163.801 52.246 163.695 52.5195 163.467 52.5397L162.878 52.5919C162.787 52.6 162.706 52.6523 162.662 52.7315L162.371 53.2463C162.259 53.446 161.966 53.4296 161.876 53.2186Z" fill="#FF8648"/>
</g>
<mask id="mask71_2544_2262" style="mask-type:luminance" maskUnits="userSpaceOnUse" x="141" y="58" width="8" height="8">
<path d="M142.166 58.3929L148.709 59.3136L147.79 65.8588L141.247 64.9381L142.166 58.3929Z" fill="white"/>
</mask>
<g mask="url(#mask71_2544_2262)">
<path d="M144.571 63.649L144.339 63.1051C144.303 63.0212 144.228 62.9604 144.139 62.9423L143.56 62.8247C143.335 62.7791 143.26 62.4956 143.433 62.3449L143.879 61.9565C143.947 61.8967 143.982 61.8069 143.972 61.7164L143.904 61.1289C143.878 60.9011 144.124 60.7422 144.321 60.8601L144.828 61.164C144.906 61.2108 145.002 61.2163 145.085 61.1784L145.622 60.9328C145.831 60.8376 146.058 61.023 146.007 61.2466L145.875 61.8228C145.855 61.9116 145.879 62.0047 145.941 62.0718L146.34 62.5074C146.495 62.6764 146.389 62.9499 146.161 62.9701L145.573 63.0224C145.482 63.0304 145.401 63.0827 145.356 63.162L145.066 63.6767C144.953 63.8764 144.661 63.86 144.571 63.649Z" fill="#FF8648"/>
</g>
<mask id="mask72_2544_2262" style="mask-type:luminance" maskUnits="userSpaceOnUse" x="153" y="23" width="20" height="20">
<path d="M153.95 29.0492L167.043 23.4878L172.598 36.5836L159.505 42.145L153.95 29.0492Z" fill="white"/>
</mask>
<g mask="url(#mask72_2544_2262)">
<path d="M164.209 36.0796L163.178 35.3332C163.02 35.2182 162.815 35.1887 162.63 35.2543L161.431 35.6801C160.966 35.8454 160.514 35.4054 160.666 34.9355L161.057 33.7245C161.118 33.538 161.082 33.3338 160.963 33.1782L160.188 32.1691C159.887 31.7777 160.166 31.2112 160.659 31.2105L161.931 31.2086C162.127 31.2084 162.31 31.1117 162.421 30.95L163.141 29.9003C163.42 29.4932 164.045 29.5832 164.198 30.0526L164.592 31.2622C164.653 31.4486 164.802 31.5932 164.989 31.6488L166.209 32.009C166.682 32.1489 166.79 32.7709 166.391 33.0617L165.363 33.8113C165.205 33.9268 165.113 34.113 165.119 34.3089L165.153 35.5811C165.166 36.0747 164.608 36.3692 164.209 36.0796Z" fill="#FF8648"/>
</g>
<mask id="mask73_2544_2262" style="mask-type:luminance" maskUnits="userSpaceOnUse" x="123" y="19" width="20" height="20">
<path d="M123.509 25.0857L136.602 19.5243L142.157 32.6201L129.064 38.1815L123.509 25.0857Z" fill="white"/>
</mask>
<g mask="url(#mask73_2544_2262)">
<path d="M133.768 32.1161L132.738 31.3697C132.579 31.2547 132.374 31.2252 132.189 31.2908L130.99 31.7166C130.525 31.8819 130.073 31.4419 130.225 30.972L130.616 29.761C130.677 29.5745 130.641 29.3703 130.522 29.2147L129.747 28.2056C129.446 27.8142 129.725 27.2477 130.218 27.247L131.49 27.2451C131.686 27.2449 131.869 27.1482 131.98 26.9865L132.7 25.9368C132.979 25.5297 133.604 25.6197 133.757 26.0891L134.152 27.2987C134.212 27.4851 134.361 27.6297 134.549 27.6853L135.768 28.0455C136.242 28.1854 136.349 28.8074 135.95 29.0982L134.922 29.8478C134.764 29.9633 134.672 30.1495 134.678 30.3454L134.712 31.6176C134.725 32.1112 134.167 32.4057 133.768 32.1161Z" fill="#FF8648"/>
</g>
<mask id="mask74_2544_2262" style="mask-type:luminance" maskUnits="userSpaceOnUse" x="92" y="28" width="12" height="12">
<path d="M94.1124 28.1267L103.17 30.2198L101.08 39.2793L92.0228 37.1862L94.1124 28.1267Z" fill="white"/>
</mask>
<g mask="url(#mask74_2544_2262)">
<path d="M96.8386 35.7874L96.5803 34.9967C96.5405 34.8749 96.4434 34.7804 96.3206 34.7441L95.5233 34.5083C95.214 34.4169 95.1436 34.0104 95.4043 33.8204L96.076 33.3307C96.1795 33.2553 96.2392 33.1338 96.2358 33.0056L96.2132 32.1742C96.2045 31.8517 96.5692 31.6593 96.8304 31.8487L97.5037 32.3366C97.6074 32.4118 97.7414 32.4312 97.8621 32.3884L98.6455 32.1101C98.9493 32.0022 99.245 32.2899 99.146 32.597L98.8904 33.3882C98.851 33.5101 98.874 33.6436 98.952 33.7452L99.4588 34.4047C99.6553 34.6605 99.4734 35.0307 99.151 35.0311L98.3196 35.0321C98.1916 35.0323 98.0717 35.0956 97.9994 35.2012L97.5291 35.8869C97.3468 36.1529 96.9387 36.0941 96.8386 35.7874Z" fill="#FF8648"/>
</g>
</g>
</g>
<defs>
<filter id="filter0_f_2544_2262" x="-0.1" y="0.9" width="215.2" height="121.2" filterUnits="userSpaceOnUse" color-interpolation-filters="sRGB">
<feFlood flood-opacity="0" result="BackgroundImageFix"/>
<feBlend mode="normal" in="SourceGraphic" in2="BackgroundImageFix" result="shape"/>
<feGaussianBlur stdDeviation="0.05" result="effect1_foregroundBlur_2544_2262"/>
</filter>
<clipPath id="clip0_2544_2262">
<rect width="215" height="121" fill="white" transform="translate(0 1)"/>
</clipPath>
</defs>
</svg>
