<svg width="270" height="43" viewBox="0 0 270 43" fill="none" xmlns="http://www.w3.org/2000/svg">
<g clip-path="url(#clip0_2532_108)">
<g filter="url(#filter0_d_2532_108)">
<rect x="0.963623" y="0.27887" width="268.073" height="41.9814" rx="5" fill="url(#paint0_linear_2532_108)"/>
</g>
<g clip-path="url(#clip1_2532_108)">
<g filter="url(#filter1_d_2532_108)">
<mask id="mask0_2532_108" style="mask-type:luminance" maskUnits="userSpaceOnUse" x="208" y="-14" width="90" height="90">
<path d="M262.94 -14L208 20.7354L242.735 75.6758L297.676 40.9405L262.94 -14Z" fill="white"/>
</mask>
<g mask="url(#mask0_2532_108)">
<path d="M265.036 20.9389C263.698 21.7831 262.631 22.4589 261.373 23.2545L239.03 37.3802C238.431 37.7593 237.869 37.9766 237.794 37.8576C236.868 36.393 240.265 31.2244 240.265 31.2244L258.579 19.6459C259.764 18.8968 264.804 18.951 265.631 20.2584C265.768 20.4757 265.445 20.6384 265.036 20.9389Z" fill="#750718"/>
<path d="M264.341 19.84C263.007 20.6912 261.937 21.36 260.678 22.1557L238.336 36.2814C237.736 36.6605 237.551 37.4733 237.932 38.0749L247.426 53.092C248.553 54.875 251.029 55.428 252.807 54.3043L274.05 40.8733C275.827 39.7496 276.39 37.2758 275.262 35.4928L265.768 20.4757C265.483 20.0247 264.864 19.7197 264.341 19.84Z" fill="url(#paint1_linear_2532_108)"/>
<path d="M247.859 30.2606L260.132 49.6729L266.725 45.5047L254.452 26.0924L247.859 30.2606Z" fill="url(#paint2_linear_2532_108)"/>
<path d="M235.062 14.3071L243.933 17.3278C244.034 17.362 244.12 17.4297 244.176 17.5195C244.321 17.7489 244.24 18.0531 244 18.1796L235.628 22.5911C235.073 22.8836 234.4 22.5075 234.359 21.8813L233.918 15.1845C233.877 14.5677 234.477 14.1079 235.062 14.3071Z" fill="url(#paint3_linear_2532_108)"/>
<path d="M245.387 7.71862L244.111 17.214C244.097 17.3217 244.121 17.4311 244.179 17.5229C244.323 17.7506 244.63 17.8077 244.846 17.6469L252.766 11.7539C253.275 11.3751 253.217 10.5957 252.658 10.2953L246.656 7.07056C246.123 6.78408 245.467 7.11866 245.387 7.71862Z" fill="url(#paint4_linear_2532_108)"/>
<path d="M242.323 16.2105L243.789 15.2842C243.991 15.1564 244.259 15.2168 244.386 15.4189L245.313 16.884C245.44 17.0862 245.38 17.3541 245.178 17.4819L243.713 18.4081C243.511 18.5359 243.243 18.4756 243.115 18.2734L242.189 16.8083C242.061 16.6062 242.121 16.3383 242.323 16.2105Z" fill="#FBB828"/>
<path d="M231.449 30.2542C230.426 28.6359 230.908 26.4946 232.527 25.4715L256.701 10.1879C258.319 9.1648 260.46 9.64726 261.483 11.2656L264.262 15.6608C264.518 16.0654 264.397 16.6007 263.993 16.8565L235.424 34.9188C235.019 35.1746 234.484 35.054 234.228 34.6494L231.449 30.2542Z" fill="#FB1A3F"/>
<path d="M241.317 19.9138L246.412 27.9718L253.005 23.8035L247.91 15.7456L241.317 19.9138Z" fill="#FBBF28"/>
</g>
</g>
</g>
<g clip-path="url(#clip2_2532_108)" filter="url(#filter2_f_2532_108)">
<mask id="mask1_2532_108" style="mask-type:luminance" maskUnits="userSpaceOnUse" x="1" y="0" width="215" height="121">
<path d="M216 0H1V121H216V0Z" fill="white"/>
</mask>
<g mask="url(#mask1_2532_108)">
<mask id="mask2_2532_108" style="mask-type:luminance" maskUnits="userSpaceOnUse" x="86" y="-9" width="23" height="22">
<path d="M86.6935 -8.89618H108.193V12.6149H86.6935V-8.89618Z" fill="white"/>
</mask>
<g mask="url(#mask2_2532_108)">
<path d="M102.241 1.85938C102.241 4.51041 100.093 6.65937 97.4435 6.65937C94.7936 6.65937 92.6458 4.51041 92.6458 1.85938C92.6458 -0.791653 94.7936 -2.94061 97.4435 -2.94061C100.093 -2.94061 102.241 -0.791653 102.241 1.85938Z" fill="#FFD20B"/>
</g>
<mask id="mask3_2532_108" style="mask-type:luminance" maskUnits="userSpaceOnUse" x="23" y="-5" width="22" height="22">
<path d="M23.7426 -4.96912H44.9066V16.2059H23.7426V-4.96912Z" fill="white"/>
</mask>
<g mask="url(#mask3_2532_108)">
<path d="M39.0474 5.61836C39.0474 8.22797 36.9329 10.3434 34.3246 10.3434C31.7162 10.3434 29.6019 8.22797 29.6019 5.61836C29.6019 3.00875 31.7162 0.893372 34.3246 0.893372C36.9329 0.893372 39.0474 3.00875 39.0474 5.61836Z" fill="#FFD20B"/>
</g>
<mask id="mask4_2532_108" style="mask-type:luminance" maskUnits="userSpaceOnUse" x="39" y="13" width="12" height="11">
<path d="M44.4419 13.0152L50.0109 18.2111L44.8179 23.7829L39.2489 18.587L44.4419 13.0152Z" fill="white"/>
</mask>
<g mask="url(#mask4_2532_108)">
<path d="M45.5289 17.1831L44.3711 16.2586C44.1491 16.0814 43.8255 16.1177 43.6484 16.3398C43.4712 16.5619 43.5076 16.8857 43.7295 17.063L44.1267 17.3801C44.34 17.5505 44.3833 17.8579 44.225 18.0805L43.6325 18.9144C43.4742 19.1369 43.5174 19.4444 43.7308 19.6147L44.8885 20.5394C45.1106 20.7167 45.4342 20.6803 45.6114 20.4582C45.7886 20.2361 45.7522 19.9123 45.5302 19.735L45.1329 19.4177C44.9196 19.2474 44.8765 18.9399 45.0346 18.7174L45.6272 17.8835C45.7854 17.6609 45.7422 17.3535 45.5289 17.1831Z" fill="#FFF8EE"/>
</g>
<mask id="mask5_2532_108" style="mask-type:luminance" maskUnits="userSpaceOnUse" x="178" y="4" width="27" height="26">
<path d="M178.89 17.2227L191.258 4.40851L204.066 16.7832L191.698 29.5974L178.89 17.2227Z" fill="white"/>
</mask>
<g mask="url(#mask5_2532_108)">
<path d="M189.958 19.9138L190.202 19.7209C190.784 19.2614 191.628 19.3611 192.087 19.943L192.28 20.1874C192.739 20.7697 193.583 20.8693 194.165 20.4098C194.747 19.9503 194.846 19.1058 194.387 18.5235L194.194 18.2791C193.735 17.6971 193.834 16.8527 194.416 16.3932L194.66 16.2004C195.242 15.7409 195.342 14.8964 194.883 14.3143C194.424 13.732 193.579 13.6325 192.997 14.092L192.753 14.2848C192.171 14.7443 191.328 14.6448 190.868 14.0626L190.676 13.8183C190.216 13.2361 189.372 13.1365 188.79 13.596C188.208 14.0555 188.109 14.9 188.568 15.4822L188.761 15.7265C189.22 16.3087 189.121 17.153 188.539 17.6125L188.295 17.8054C187.713 18.2649 187.613 19.1094 188.073 19.6916C188.532 20.2737 189.376 20.3733 189.958 19.9138Z" fill="#FF37C5"/>
</g>
<mask id="mask6_2532_108" style="mask-type:luminance" maskUnits="userSpaceOnUse" x="150" y="-7" width="19" height="19">
<path d="M150.252 7.91968L154.018 -6.14685L168.081 -2.3752L164.316 11.6913L150.252 7.91968Z" fill="white"/>
</mask>
<g mask="url(#mask6_2532_108)">
<path d="M158.056 6.68445L155.16 3.46725C154.687 2.94152 154.73 2.13196 155.255 1.65916L158.471 -1.2354C158.996 -1.70842 159.805 -1.6657 160.278 -1.13996L163.174 2.07723C163.647 2.60274 163.604 3.4123 163.079 3.88532L159.863 6.77988C159.338 7.25289 158.528 7.21017 158.056 6.68445Z" fill="#55AEFF"/>
</g>
<mask id="mask7_2532_108" style="mask-type:luminance" maskUnits="userSpaceOnUse" x="70" y="-4" width="8" height="8">
<path d="M70.5392 2.52307L71.7136 -3.52498L77.76 -2.34844L76.5856 3.69961L70.5392 2.52307Z" fill="white"/>
</mask>
<g mask="url(#mask7_2532_108)">
<path d="M73.7965 1.77216L72.48 0.49918C72.2648 0.291158 72.2588 -0.0518943 72.4665 -0.267003L73.7377 -1.5839C73.9453 -1.7991 74.288 -1.80491 74.5031 -1.59689L75.8196 -0.323917C76.0347 -0.115984 76.0407 0.227068 75.833 0.442265L74.5619 1.75916C74.3542 1.97436 74.0115 1.98018 73.7965 1.77216Z" fill="#55AEFF"/>
</g>
<mask id="mask8_2532_108" style="mask-type:luminance" maskUnits="userSpaceOnUse" x="26" y="28" width="15" height="15">
<path d="M26.9303 42.7634L26.4501 28.9917L40.2156 28.5103L40.6958 42.282L26.9303 42.7634Z" fill="white"/>
</mask>
<g mask="url(#mask8_2532_108)">
<path d="M33.6482 39.4846L30.1399 37.3756C29.5666 37.031 29.3814 36.2867 29.7262 35.7133L31.8361 32.2034C32.1807 31.6298 32.9246 31.4443 33.4979 31.789L37.0062 33.898C37.5792 34.2425 37.7644 34.9868 37.4199 35.5603L35.3099 39.0703C34.9652 39.6438 34.2212 39.8293 33.6482 39.4846Z" fill="#55AEFF"/>
</g>
<mask id="mask9_2532_108" style="mask-type:luminance" maskUnits="userSpaceOnUse" x="48" y="-18" width="27" height="27">
<path d="M52.9525 -17.3364L74.0134 -12.4694L69.1546 8.59667L48.0937 3.72965L52.9525 -17.3364Z" fill="white"/>
</mask>
<g mask="url(#mask9_2532_108)">
<path d="M56.2734 -2.43824L57.2372 -4.11439C57.3857 -4.37264 57.3976 -4.68733 57.2692 -4.95604L56.4353 -6.70095C56.1117 -7.37781 56.7044 -8.1317 57.4384 -7.97653L59.3301 -7.57702C59.6215 -7.51518 59.9244 -7.60098 60.1404 -7.80619L61.5416 -9.13827C62.085 -9.65494 62.9851 -9.32375 63.0647 -8.57756L63.2698 -6.65496C63.3013 -6.35869 63.4765 -6.09683 63.7385 -5.95487L65.4386 -5.03338C66.098 -4.67599 66.0613 -3.7173 65.3766 -3.411L63.612 -2.62232C63.3401 -2.50091 63.1453 -2.25357 63.0912 -1.96075L62.7409 -0.0590937C62.6049 0.678457 61.6822 0.939708 61.1796 0.383027L59.8837 -1.05258C59.6841 -1.2736 59.3882 -1.38232 59.093 -1.34318L57.1765 -1.0898C56.4331 -0.991207 55.8994 -1.78822 56.2734 -2.43824Z" fill="#FF8648"/>
</g>
<mask id="mask10_2532_108" style="mask-type:luminance" maskUnits="userSpaceOnUse" x="20" y="4" width="18" height="18">
<path d="M23.7505 4.43329L37.334 7.82321L33.9496 21.4099L20.3661 18.02L23.7505 4.43329Z" fill="white"/>
</mask>
<g mask="url(#mask10_2532_108)">
<path d="M25.7327 14.1184L26.3757 13.0439C26.4748 12.8783 26.4861 12.6747 26.4059 12.4992L25.8857 11.3599C25.6838 10.9179 26.0761 10.4364 26.5497 10.5452L27.7701 10.8253C27.9582 10.8686 28.1553 10.8165 28.2975 10.686L29.2199 9.83928C29.5777 9.51085 30.1568 9.7355 30.1999 10.2196L30.311 11.4669C30.3281 11.6591 30.4385 11.8307 30.6066 11.9256L31.6971 12.5415C32.1201 12.7804 32.0855 13.4008 31.6387 13.5914L30.487 14.0822C30.3096 14.1578 30.1806 14.3157 30.1423 14.5047L29.894 15.7322C29.7976 16.2083 29.1971 16.367 28.8779 16.0009L28.055 15.0566C27.9282 14.9112 27.7378 14.8374 27.5462 14.8594L26.3023 15.0018C25.8197 15.0573 25.4831 14.5351 25.7327 14.1184Z" fill="#FF8648"/>
</g>
<mask id="mask11_2532_108" style="mask-type:luminance" maskUnits="userSpaceOnUse" x="136" y="-4" width="17" height="18">
<path d="M136.073 -0.857117L149.97 -3.31013L152.418 10.5904L138.522 13.0434L136.073 -0.857117Z" fill="white"/>
</mask>
<g mask="url(#mask11_2532_108)">
<path d="M141.865 7.24952L142.018 5.99592C142.041 5.80277 141.968 5.61058 141.822 5.48191L140.877 4.64625C140.51 4.32214 140.674 3.71762 141.155 3.62336L142.393 3.38017C142.584 3.34287 142.744 3.21392 142.822 3.03541L143.325 1.87683C143.52 1.42747 144.145 1.39655 144.383 1.82468L144.996 2.92776C145.09 3.09776 145.262 3.21039 145.455 3.22878L146.712 3.34823C147.199 3.39455 147.421 3.9801 147.088 4.33912L146.228 5.26396C146.096 5.40638 146.042 5.60482 146.084 5.79462L146.358 7.02701C146.464 7.50502 145.976 7.89778 145.532 7.69162L144.388 7.15991C144.211 7.07808 144.006 7.08833 143.839 7.18726L142.751 7.82919C142.33 8.07839 141.806 7.73573 141.865 7.24952Z" fill="#FF8648"/>
</g>
<mask id="mask12_2532_108" style="mask-type:luminance" maskUnits="userSpaceOnUse" x="101" y="-10" width="17" height="17">
<path d="M101.025 -7.46228L114.922 -9.91529L117.37 3.98523L103.474 6.43824L101.025 -7.46228Z" fill="white"/>
</mask>
<g mask="url(#mask12_2532_108)">
<path d="M106.817 0.644357L106.969 -0.609241C106.993 -0.802391 106.92 -0.994582 106.774 -1.12325L105.829 -1.95891C105.462 -2.28302 105.626 -2.88754 106.107 -2.98181L107.345 -3.225C107.536 -3.26229 107.696 -3.39125 107.774 -3.56975L108.276 -4.72833C108.471 -5.1777 109.097 -5.20861 109.335 -4.78048L109.947 -3.6774C110.042 -3.5074 110.214 -3.39477 110.407 -3.37638L111.664 -3.25693C112.151 -3.21062 112.373 -2.62507 112.04 -2.26604L111.18 -1.3412C111.048 -1.19879 110.994 -1.00035 111.036 -0.810546L111.31 0.421844C111.416 0.899861 110.928 1.29261 110.484 1.08645L109.34 0.554742C109.163 0.472914 108.958 0.483171 108.79 0.582097L107.703 1.22402C107.282 1.47323 106.758 1.13057 106.817 0.644357Z" fill="#FF8648"/>
</g>
<mask id="mask13_2532_108" style="mask-type:luminance" maskUnits="userSpaceOnUse" x="176" y="4" width="13" height="13">
<path d="M183.209 4.04395L188.865 10.5547L182.357 16.2149L176.701 9.70418L183.209 4.04395Z" fill="white"/>
</mask>
<g mask="url(#mask13_2532_108)">
<path d="M180.787 9.63164L181.491 9.31663C181.6 9.2681 181.677 9.16933 181.699 9.05246L181.839 8.29367C181.893 7.99929 182.261 7.89495 182.462 8.11718L182.978 8.68978C183.058 8.77809 183.176 8.82143 183.294 8.80584L184.058 8.70449C184.355 8.66516 184.568 8.98316 184.418 9.24269L184.034 9.91139C183.974 10.0144 183.97 10.14 184.021 10.2473L184.354 10.9435C184.483 11.2135 184.246 11.5143 183.953 11.4526L183.199 11.2933C183.082 11.2688 182.962 11.3029 182.875 11.3847L182.316 11.9164C182.1 12.1226 181.741 11.9905 181.709 11.693L181.627 10.9256C181.615 10.8075 181.545 10.703 181.44 10.6464L180.762 10.2787C180.499 10.1362 180.514 9.75375 180.787 9.63164Z" fill="#FF8648"/>
</g>
<mask id="mask14_2532_108" style="mask-type:luminance" maskUnits="userSpaceOnUse" x="144" y="6" width="8" height="8">
<path d="M144.753 6.78979H151.695V13.7361H144.753V6.78979Z" fill="white"/>
</mask>
<g mask="url(#mask14_2532_108)">
<path d="M149.773 10.2629C149.773 11.119 149.08 11.8129 148.224 11.8129C147.368 11.8129 146.675 11.119 146.675 10.2629C146.675 9.40689 147.368 8.71295 148.224 8.71295C149.08 8.71295 149.773 9.40689 149.773 10.2629Z" fill="#FFD20B"/>
</g>
<mask id="mask15_2532_108" style="mask-type:luminance" maskUnits="userSpaceOnUse" x="72" y="13" width="11" height="12">
<path d="M72.2502 19.955L76.7255 13.7919L82.8863 18.2704L78.4109 24.4335L72.2502 19.955Z" fill="white"/>
</mask>
<g mask="url(#mask15_2532_108)">
<path d="M76.1263 18.6579L75.6297 20.0541C75.5345 20.3218 75.6742 20.6162 75.9418 20.7115C76.2094 20.8068 76.5035 20.667 76.5988 20.3993L76.7691 19.9203C76.8606 19.6631 77.1371 19.5221 77.3989 19.5993L78.38 19.8885C78.6418 19.9658 78.9183 19.8249 79.0098 19.5676L79.5066 18.1712C79.6018 17.9035 79.4621 17.6091 79.1944 17.5138C78.9269 17.4185 78.6327 17.5583 78.5375 17.826L78.367 18.3051C78.2755 18.5624 77.999 18.7033 77.7372 18.6261L76.7561 18.3369C76.4943 18.2597 76.2178 18.4006 76.1263 18.6579Z" fill="#FFF8EE"/>
</g>
<mask id="mask16_2532_108" style="mask-type:luminance" maskUnits="userSpaceOnUse" x="182" y="23" width="10" height="10">
<path d="M189.324 23.0271L191.928 30.1851L184.771 32.7919L182.168 25.6338L189.324 23.0271Z" fill="white"/>
</mask>
<g mask="url(#mask16_2532_108)">
<path d="M188.231 26.9677L187.352 25.775C187.183 25.5463 186.861 25.4976 186.633 25.6663C186.404 25.835 186.355 26.1572 186.524 26.3859L186.825 26.795C186.987 27.0148 186.95 27.323 186.739 27.497L185.951 28.1491C185.741 28.3231 185.703 28.6312 185.865 28.851L186.744 30.044C186.912 30.2727 187.234 30.3214 187.463 30.1527C187.692 29.984 187.74 29.6618 187.572 29.4331L187.27 29.0238C187.108 28.804 187.146 28.4958 187.356 28.3218L188.144 27.6697C188.355 27.4957 188.393 27.1875 188.231 26.9677Z" fill="#FFF8EE"/>
</g>
<mask id="mask17_2532_108" style="mask-type:luminance" maskUnits="userSpaceOnUse" x="72" y="33" width="11" height="10">
<path d="M82.5665 35.7236L80.0885 42.926L72.8877 40.4446L75.3658 33.2422L82.5665 35.7236Z" fill="white"/>
</mask>
<g mask="url(#mask17_2532_108)">
<path d="M79.2389 38.0974L79.3057 36.6169C79.3185 36.333 79.0988 36.0923 78.8151 36.0794C78.5313 36.0665 78.2909 36.2862 78.2781 36.5701L78.2552 37.0781C78.2429 37.3509 78.0198 37.5665 77.7468 37.5692L76.7241 37.5795C76.4511 37.5822 76.2279 37.7978 76.2156 38.0707L76.1487 39.5514C76.136 39.8353 76.3556 40.076 76.6394 40.0889C76.9232 40.1018 77.1636 39.8821 77.1764 39.5982L77.1994 39.0901C77.2117 38.8173 77.4349 38.6017 77.7078 38.5989L78.7305 38.5886C79.0035 38.5859 79.2266 38.3702 79.2389 38.0974Z" fill="#FFF8EE"/>
</g>
<mask id="mask18_2532_108" style="mask-type:luminance" maskUnits="userSpaceOnUse" x="122" y="4" width="19" height="20">
<path d="M140.381 9.04926L136.094 23.0828L122.064 18.7896L126.35 4.75613L140.381 9.04926Z" fill="white"/>
</mask>
<g mask="url(#mask18_2532_108)">
<path d="M134.134 13.8434L134.163 10.9884C134.168 10.4409 133.729 9.99235 133.182 9.9866C132.635 9.98085 132.187 10.4201 132.181 10.9675L132.171 11.9469C132.166 12.473 131.751 12.9032 131.225 12.9268L129.257 13.0154C128.732 13.039 128.316 13.4691 128.311 13.9953L128.282 16.8506C128.276 17.3981 128.715 17.8467 129.263 17.8524C129.81 17.8583 130.258 17.4191 130.264 16.8716L130.274 15.8918C130.279 15.3657 130.694 14.9356 131.219 14.9119L133.188 14.8233C133.713 14.7997 134.128 14.3695 134.134 13.8434Z" fill="#FFF8EE"/>
</g>
<mask id="mask19_2532_108" style="mask-type:luminance" maskUnits="userSpaceOnUse" x="82" y="8" width="22" height="22">
<path d="M90.7287 29.3992L82.2765 16.861L94.8101 8.402L103.262 20.9402L90.7287 29.3992Z" fill="white"/>
</mask>
<g mask="url(#mask19_2532_108)">
<path d="M95.1998 20.2651L95.0424 20.0528C94.6675 19.547 94.7735 18.8328 95.2788 18.4578L95.4911 18.3003C95.9967 17.9251 96.1027 17.2111 95.7277 16.7053C95.3528 16.1996 94.6389 16.0936 94.1334 16.4689L93.9211 16.6264C93.4158 17.0014 92.702 16.8958 92.3271 16.3901L92.1698 16.1779C91.7948 15.6721 91.081 15.5662 90.5755 15.9413C90.0699 16.3165 89.964 17.0309 90.3389 17.5366L90.4963 17.7488C90.8712 18.2546 90.7653 18.9685 90.2597 19.3437L90.0476 19.5011C89.542 19.8763 89.4361 20.5907 89.8111 21.0964C90.186 21.6022 90.8998 21.7078 91.4054 21.3325L91.6175 21.1751C92.1231 20.7999 92.8367 20.9058 93.2116 21.4116L93.369 21.6239C93.744 22.1296 94.4577 22.2352 94.9633 21.86C95.4688 21.4849 95.5748 20.7709 95.1998 20.2651Z" fill="#FF37C5"/>
</g>
<mask id="mask20_2532_108" style="mask-type:luminance" maskUnits="userSpaceOnUse" x="39" y="23" width="22" height="22">
<path d="M48.3034 44.8731L39.8512 32.3349L52.3849 23.8759L60.8371 36.4141L48.3034 44.8731Z" fill="white"/>
</mask>
<g mask="url(#mask20_2532_108)">
<path d="M52.7745 35.739L52.6171 35.5267C52.2422 35.0209 52.3482 34.3067 52.8535 33.9317L53.0658 33.7742C53.5714 33.3989 53.6774 32.685 53.3024 32.1792C52.9275 31.6734 52.2136 31.5675 51.7081 31.9427L51.4958 32.1002C50.9905 32.4753 50.2767 32.3697 49.9018 31.8639L49.7445 31.6517C49.3695 31.146 48.6557 31.0401 48.1502 31.4152C47.6446 31.7904 47.5387 32.5047 47.9137 33.0105L48.071 33.2227C48.4459 33.7284 48.34 34.4423 47.8345 34.8176L47.6223 34.975C47.1168 35.3502 47.0108 36.0645 47.3858 36.5703C47.7607 37.0761 48.4745 37.1816 48.9801 36.8064L49.1922 36.649C49.6978 36.2738 50.4114 36.3797 50.7863 36.8854L50.9437 37.0978C51.3187 37.6035 52.0324 37.7091 52.538 37.3339C53.0435 36.9587 53.1495 36.2448 52.7745 35.739Z" fill="#FF37C5"/>
</g>
<mask id="mask21_2532_108" style="mask-type:luminance" maskUnits="userSpaceOnUse" x="106" y="5" width="10" height="10">
<path d="M111.399 5.43939L115.44 10.0898L110.791 14.1326L106.751 9.48223L111.399 5.43939Z" fill="white"/>
</mask>
<g mask="url(#mask21_2532_108)">
<path d="M109.548 9.03505L111.1 8.06482C111.354 7.90629 111.688 7.98351 111.846 8.2373L112.815 9.79055C112.974 10.0443 112.897 10.3784 112.643 10.5369L111.091 11.5072C110.837 11.6656 110.503 11.5884 110.345 11.3347L109.375 9.78144C109.217 9.52764 109.294 9.19349 109.548 9.03505Z" fill="#55AEFF"/>
</g>
<mask id="mask22_2532_108" style="mask-type:luminance" maskUnits="userSpaceOnUse" x="48" y="13" width="16" height="16">
<path d="M48.1806 18.8974L57.9765 13.2388L63.6306 23.0373L53.8348 28.6959L48.1806 18.8974Z" fill="white"/>
</mask>
<g mask="url(#mask22_2532_108)">
<path d="M54.0103 23.4963L52.8065 20.3564C52.6098 19.8433 52.866 19.2678 53.3787 19.0711L56.5168 17.8665C57.0294 17.6696 57.6043 17.9259 57.801 18.439L59.0048 21.5789C59.2014 22.0918 58.9452 22.6673 58.4326 22.8642L55.2945 24.0688C54.7818 24.2656 54.2068 24.0093 54.0103 23.4963Z" fill="#55AEFF"/>
</g>
<mask id="mask23_2532_108" style="mask-type:luminance" maskUnits="userSpaceOnUse" x="61" y="11" width="14" height="13">
<path d="M61.7616 14.9252L70.4213 11.2468L74.0954 19.9086L65.4358 23.587L61.7616 14.9252Z" fill="white"/>
</mask>
<g mask="url(#mask23_2532_108)">
<path d="M67.6166 19.641L67.1948 18.9125C67.1298 18.8002 67.0138 18.7272 66.8847 18.7171L66.0461 18.6516C65.7207 18.6262 65.5656 18.2385 65.7837 17.9955L66.3455 17.369C66.4322 17.2726 66.4657 17.1397 66.4354 17.0135L66.2382 16.195C66.1618 15.8775 66.4823 15.6101 66.7807 15.7426L67.5495 16.084C67.668 16.1366 67.8047 16.1276 67.9151 16.0597L68.6319 15.6192C68.91 15.4483 69.2631 15.671 69.2296 15.9959L69.143 16.8332C69.1296 16.9622 69.1804 17.0895 69.279 17.1737L69.9192 17.7199C70.1674 17.9319 70.0652 18.3368 69.7462 18.4051L68.9236 18.5812C68.797 18.6083 68.6917 18.6962 68.6422 18.8161L68.3209 19.594C68.1964 19.8959 67.7801 19.9236 67.6166 19.641Z" fill="#FF8648"/>
</g>
<mask id="mask24_2532_108" style="mask-type:luminance" maskUnits="userSpaceOnUse" x="65" y="35" width="8" height="9">
<path d="M65.0294 35.9903H72.532V43.4968H65.0294V35.9903Z" fill="white"/>
</mask>
<g mask="url(#mask24_2532_108)">
<path d="M70.4549 39.7435C70.4549 40.6686 69.7053 41.4185 68.7807 41.4185C67.856 41.4185 67.1065 40.6686 67.1065 39.7435C67.1065 38.8184 67.856 38.0685 68.7807 38.0685C69.7053 38.0685 70.4549 38.8184 70.4549 39.7435Z" fill="#FFD20B"/>
</g>
<mask id="mask25_2532_108" style="mask-type:luminance" maskUnits="userSpaceOnUse" x="134" y="35" width="8" height="8">
<path d="M134.251 35.1558H141.754V42.6623H134.251V35.1558Z" fill="white"/>
</mask>
<g mask="url(#mask25_2532_108)">
<path d="M139.677 38.9091C139.677 39.8342 138.927 40.5841 138.003 40.5841C137.078 40.5841 136.329 39.8342 136.329 38.9091C136.329 37.984 137.078 37.2341 138.003 37.2341C138.927 37.2341 139.677 37.984 139.677 38.9091Z" fill="#FFD20B"/>
</g>
<mask id="mask26_2532_108" style="mask-type:luminance" maskUnits="userSpaceOnUse" x="150" y="19" width="12" height="13">
<path d="M161.933 19.8414L161.542 31.0392L150.351 30.6491L150.743 19.4513L161.933 19.8414Z" fill="white"/>
</mask>
<g mask="url(#mask26_2532_108)">
<path d="M158.097 24.1841L157.128 22.2322C156.942 21.858 156.488 21.7051 156.114 21.8909C155.74 22.0768 155.587 22.5309 155.773 22.9052L156.105 23.5747C156.284 23.9344 156.151 24.3709 155.801 24.5691L154.493 25.3119C154.144 25.5101 154.01 25.9466 154.189 26.3063L155.158 28.2585C155.344 28.6327 155.798 28.7856 156.172 28.5997C156.547 28.414 156.699 27.9599 156.513 27.5856L156.181 26.9157C156.002 26.556 156.136 26.1195 156.485 25.9213L157.793 25.1785C158.142 24.9803 158.276 24.5437 158.097 24.1841Z" fill="#FFF8EE"/>
</g>
<mask id="mask27_2532_108" style="mask-type:luminance" maskUnits="userSpaceOnUse" x="115" y="24" width="12" height="12">
<path d="M121.554 24.1461L126.696 30.065L120.78 35.2106L115.638 29.2918L121.554 24.1461Z" fill="white"/>
</mask>
<g mask="url(#mask27_2532_108)">
<path d="M118.978 29.6068L120.281 27.6748C120.494 27.3591 120.923 27.2758 121.238 27.4889L123.169 28.7926C123.484 29.0055 123.568 29.4339 123.355 29.7496L122.052 31.6817C121.839 31.9973 121.41 32.0805 121.095 31.8676L119.164 30.5639C118.848 30.3509 118.765 29.9224 118.978 29.6068Z" fill="#55AEFF"/>
</g>
<mask id="mask28_2532_108" style="mask-type:luminance" maskUnits="userSpaceOnUse" x="82" y="26" width="8" height="8">
<path d="M85.811 33.6563L82.5272 30.133L86.0488 26.8473L89.3326 30.3706L85.811 33.6563Z" fill="white"/>
</mask>
<g mask="url(#mask28_2532_108)">
<path d="M87.2747 30.2488L86.5162 31.4628C86.3922 31.6612 86.131 31.7215 85.9328 31.5974L84.7195 30.8385C84.5212 30.7145 84.461 30.4533 84.5849 30.2549L85.3435 29.0408C85.4674 28.8425 85.7286 28.7823 85.9269 28.9062L87.1402 29.6652C87.3385 29.7892 87.3987 30.0504 87.2747 30.2488Z" fill="#55AEFF"/>
</g>
<mask id="mask29_2532_108" style="mask-type:luminance" maskUnits="userSpaceOnUse" x="154" y="22" width="20" height="20">
<path d="M154.95 28.0493L168.043 22.4879L173.598 35.5837L160.505 41.1451L154.95 28.0493Z" fill="white"/>
</mask>
<g mask="url(#mask29_2532_108)">
<path d="M165.209 35.0796L164.179 34.3332C164.02 34.2182 163.815 34.1887 163.63 34.2543L162.432 34.6801C161.967 34.8454 161.514 34.4054 161.666 33.9355L162.057 32.7245C162.118 32.538 162.083 32.3338 161.963 32.1782L161.188 31.1691C160.887 30.7777 161.166 30.2112 161.66 30.2105L162.931 30.2086C163.127 30.2084 163.311 30.1117 163.421 29.95L164.141 28.9003C164.42 28.4932 165.045 28.5832 165.198 29.0526L165.593 30.2622C165.653 30.4486 165.802 30.5932 165.99 30.6488L167.21 31.009C167.683 31.1489 167.79 31.7709 167.391 32.0617L166.363 32.8113C166.205 32.9268 166.114 33.113 166.119 33.3089L166.153 34.5811C166.166 35.0747 165.608 35.3692 165.209 35.0796Z" fill="#FF8648"/>
</g>
<mask id="mask30_2532_108" style="mask-type:luminance" maskUnits="userSpaceOnUse" x="124" y="18" width="20" height="20">
<path d="M124.509 24.0857L137.602 18.5243L143.157 31.6201L130.064 37.1815L124.509 24.0857Z" fill="white"/>
</mask>
<g mask="url(#mask30_2532_108)">
<path d="M134.768 31.1161L133.738 30.3697C133.579 30.2546 133.374 30.2251 133.189 30.2907L131.99 30.7165C131.526 30.8818 131.073 30.4418 131.225 29.972L131.616 28.761C131.677 28.5744 131.642 28.3702 131.522 28.2147L130.747 27.2056C130.446 26.8142 130.725 26.2477 131.218 26.247L132.49 26.245C132.686 26.2448 132.869 26.1482 132.98 25.9864L133.7 24.9368C133.979 24.5296 134.604 24.6197 134.757 25.089L135.152 26.2987C135.212 26.485 135.361 26.6296 135.549 26.6852L136.768 27.0455C137.242 27.1853 137.349 27.8074 136.95 28.0981L135.922 28.8477C135.764 28.9632 135.672 29.1494 135.678 29.3454L135.712 30.6176C135.725 31.1111 135.167 31.4057 134.768 31.1161Z" fill="#FF8648"/>
</g>
<mask id="mask31_2532_108" style="mask-type:luminance" maskUnits="userSpaceOnUse" x="93" y="27" width="12" height="12">
<path d="M95.1123 27.1268L104.17 29.2198L102.08 38.2793L93.0228 36.1863L95.1123 27.1268Z" fill="white"/>
</mask>
<g mask="url(#mask31_2532_108)">
<path d="M97.8386 34.7873L97.5803 33.9966C97.5405 33.8748 97.4434 33.7804 97.3206 33.7441L96.5233 33.5083C96.214 33.4169 96.1436 33.0103 96.4043 32.8204L97.076 32.3306C97.1795 32.2553 97.2392 32.1337 97.2358 32.0056L97.2132 31.1741C97.2045 30.8516 97.5692 30.6592 97.8304 30.8486L98.5037 31.3366C98.6074 31.4118 98.7414 31.4312 98.8621 31.3883L99.6455 31.1101C99.9493 31.0021 100.245 31.2899 100.146 31.597L99.8904 32.3882C99.851 32.5101 99.874 32.6436 99.952 32.7452L100.459 33.4046C100.655 33.6605 100.473 34.0307 100.151 34.0311L99.3196 34.0321C99.1916 34.0322 99.0717 34.0955 98.9994 34.2012L98.5291 34.8868C98.3468 35.1529 97.9387 35.094 97.8386 34.7873Z" fill="#FF8648"/>
</g>
</g>
</g>
</g>
<defs>
<filter id="filter0_d_2532_108" x="-18.0364" y="-6.72113" width="306.073" height="79.9814" filterUnits="userSpaceOnUse" color-interpolation-filters="sRGB">
<feFlood flood-opacity="0" result="BackgroundImageFix"/>
<feColorMatrix in="SourceAlpha" type="matrix" values="0 0 0 0 0 0 0 0 0 0 0 0 0 0 0 0 0 0 127 0" result="hardAlpha"/>
<feOffset dy="12"/>
<feGaussianBlur stdDeviation="9.5"/>
<feColorMatrix type="matrix" values="0 0 0 0 0.236882 0 0 0 0 0.50135 0 0 0 0 0.817921 0 0 0 0.0851449 0"/>
<feBlend mode="normal" in2="BackgroundImageFix" result="effect1_dropShadow_2532_108"/>
<feBlend mode="normal" in="SourceGraphic" in2="effect1_dropShadow_2532_108" result="shape"/>
</filter>
<filter id="filter1_d_2532_108" x="226.912" y="6.96661" width="52.9334" height="55.9205" filterUnits="userSpaceOnUse" color-interpolation-filters="sRGB">
<feFlood flood-opacity="0" result="BackgroundImageFix"/>
<feColorMatrix in="SourceAlpha" type="matrix" values="0 0 0 0 0 0 0 0 0 0 0 0 0 0 0 0 0 0 127 0" result="hardAlpha"/>
<feOffset dy="4"/>
<feGaussianBlur stdDeviation="2"/>
<feComposite in2="hardAlpha" operator="out"/>
<feColorMatrix type="matrix" values="0 0 0 0 0 0 0 0 0 0 0 0 0 0 0 0 0 0 0.25 0"/>
<feBlend mode="normal" in2="BackgroundImageFix" result="effect1_dropShadow_2532_108"/>
<feBlend mode="normal" in="SourceGraphic" in2="effect1_dropShadow_2532_108" result="shape"/>
</filter>
<filter id="filter2_f_2532_108" x="0.9" y="-0.1" width="215.2" height="121.2" filterUnits="userSpaceOnUse" color-interpolation-filters="sRGB">
<feFlood flood-opacity="0" result="BackgroundImageFix"/>
<feBlend mode="normal" in="SourceGraphic" in2="BackgroundImageFix" result="shape"/>
<feGaussianBlur stdDeviation="0.05" result="effect1_foregroundBlur_2532_108"/>
</filter>
<linearGradient id="paint0_linear_2532_108" x1="6.5" y1="100.5" x2="231" y2="-31.5" gradientUnits="userSpaceOnUse">
<stop offset="0.682771" stop-color="#FEC868" stop-opacity="0.86"/>
<stop offset="1" stop-color="#FFA327"/>
</linearGradient>
<linearGradient id="paint1_linear_2532_108" x1="251.155" y1="28.1765" x2="263.428" y2="47.5888" gradientUnits="userSpaceOnUse">
<stop stop-color="#960F26"/>
<stop offset="1" stop-color="#FC1A40"/>
</linearGradient>
<linearGradient id="paint2_linear_2532_108" x1="255.146" y1="34.489" x2="250.636" y2="27.3552" gradientUnits="userSpaceOnUse">
<stop stop-color="#FCBF29"/>
<stop offset="1" stop-color="#FC7D29"/>
</linearGradient>
<linearGradient id="paint3_linear_2532_108" x1="244.274" y1="15.5377" x2="237.265" y2="13.2261" gradientUnits="userSpaceOnUse">
<stop stop-color="#FE9923"/>
<stop offset="1" stop-color="#FCBF29"/>
</linearGradient>
<linearGradient id="paint4_linear_2532_108" x1="247.758" y1="13.1767" x2="250.15" y2="8.41941" gradientUnits="userSpaceOnUse">
<stop stop-color="#FE9923"/>
<stop offset="1" stop-color="#FCBF29"/>
</linearGradient>
<clipPath id="clip0_2532_108">
<rect width="268.073" height="41.9814" fill="white" transform="translate(0.963623 0.27887)"/>
</clipPath>
<clipPath id="clip1_2532_108">
<rect width="65" height="65" fill="white" transform="translate(208 20.7354) rotate(-32.3025)"/>
</clipPath>
<clipPath id="clip2_2532_108">
<rect width="215" height="121" fill="white" transform="translate(1)"/>
</clipPath>
</defs>
</svg>
