<svg width="27" height="35" viewBox="0 0 27 35" fill="none" xmlns="http://www.w3.org/2000/svg">
<path d="M8.97532 18.6367L7.0648 20.0389C4.82895 21.6824 3.5105 24.2902 3.5105 27.0662V29.3878H23.5472V27.0662C23.5472 24.2902 22.2289 21.6824 19.9928 20.0389L18.0824 18.6367C17.3313 18.0856 17.3318 16.9635 18.0836 16.4131L19.9928 15.0152C22.2289 13.3717 23.5472 10.7582 23.5472 7.98791V5.03857H3.5105V7.98791C3.5105 10.7582 4.82895 13.3717 7.0648 15.0152L8.97412 16.4131C9.72587 16.9635 9.7264 18.0856 8.97532 18.6367Z" fill="#E8EDF2"/>
<path d="M18.0836 16.4131L19.9928 15.0152C22.2289 13.3717 23.5472 10.7582 23.5472 7.98791V5.03857H13.3275V29.3878H23.5472V27.0662C23.5472 24.2902 22.2289 21.6824 19.9928 20.0389L18.0824 18.6367C17.3313 18.0856 17.3318 16.9635 18.0836 16.4131Z" fill="#C4D3E4"/>
<path d="M26.7237 3.10971C26.7237 3.93678 26.3863 4.68215 25.8476 5.22627C25.3089 5.77039 24.5581 6.10236 23.731 6.10236H3.32663C1.67249 6.10236 0.333984 4.76385 0.333984 3.10971C0.333984 2.28264 0.671268 1.53714 1.20994 0.993021C1.74861 0.448903 2.49956 0.117065 3.32663 0.117065H23.731C25.3852 0.117065 26.7237 1.45557 26.7237 3.10971Z" fill="#108BE1"/>
<path d="M0.334106 3.11145C0.335302 4.76439 1.67554 6.1041 3.32875 6.1041H23.7289C25.3821 6.1041 26.7224 4.76439 26.7237 3.11145H0.334106Z" fill="#0C6BC3"/>
<path d="M26.7237 31.9425C26.7237 32.7695 26.3863 33.5204 25.8476 34.0645C25.3089 34.6032 24.5581 34.9406 23.731 34.9406H3.32663C1.67249 34.9406 0.333984 33.5965 0.333984 31.9425C0.333984 31.1154 0.671268 30.3645 1.20994 29.8258C1.74861 29.2871 2.49956 28.9498 3.32663 28.9498H23.731C25.3852 28.9498 26.7237 30.2883 26.7237 31.9425Z" fill="#108BE1"/>
<path d="M0.334106 31.9447C0.335302 33.5976 1.67554 34.9373 3.32875 34.9373H23.7289C25.3821 34.9373 26.7224 33.5976 26.7237 31.9447H0.334106Z" fill="#0C6BC3"/>
<path d="M12.261 19.8086V17.5233C12.261 16.2228 11.6298 14.9877 10.5796 14.2205L8.66979 12.8221C7.73392 12.131 7.03199 11.1788 6.62934 10.1069C6.40086 9.50304 6.96131 8.92079 7.57066 9.12763C9.15412 9.67175 11.1673 9.19285 13.3275 8.68141C15.5637 8.15895 17.9525 7.60952 20.1671 8.14274C20.5479 8.22975 20.7982 8.60516 20.7328 8.9916C20.4717 10.515 19.6393 11.9025 18.3823 12.8221L16.4779 14.2205C15.4277 14.9877 14.802 16.2228 14.7966 17.5233V19.8086C14.7966 21.109 15.4224 22.3441 16.4725 23.1114L18.3823 24.5152C19.808 25.56 20.6948 27.1978 20.8145 28.9498H6.24304C6.36273 27.1978 7.25516 25.56 8.67523 24.5152L10.5851 23.1114C11.6353 22.3441 12.261 21.109 12.261 19.8086Z" fill="#FABB53"/>
<path d="M8.36982 28.134C8.24176 28.134 8.11184 28.1037 7.99069 28.04C7.59163 27.8301 7.43834 27.3364 7.64822 26.9377C8.0154 26.2397 8.53773 25.6294 9.15889 25.1725L11.0686 23.7689C11.431 23.5018 11.9425 23.5794 12.2095 23.9431C12.4765 24.3063 12.3986 24.817 12.0352 25.084L10.1257 26.4876C9.70275 26.7987 9.34567 27.2172 9.09301 27.6975C8.94688 27.9751 8.6634 28.134 8.36982 28.134Z" fill="#FFD77F"/>
<path d="M20.8145 28.9498H13.3275V8.68141C15.5637 8.15895 17.9525 7.60952 20.1671 8.14274C20.5479 8.22975 20.7982 8.60516 20.7328 8.9916C20.4717 10.515 19.6393 11.9025 18.3823 12.8221L16.4779 14.2205C15.4277 14.9877 14.802 16.2228 14.7965 17.5233V19.8086C14.7965 21.109 15.4224 22.3441 16.4725 23.1114L18.3823 24.5152C19.808 25.56 20.6948 27.1978 20.8145 28.9498Z" fill="#F99944"/>
<path d="M9.23628 1.92586H4.80522C4.36942 1.92586 4.0177 1.57402 4.0177 1.13835C4.0177 0.702547 4.36942 0.35083 4.80522 0.35083H9.23115C9.6667 0.35083 10.0187 0.702547 10.0187 1.13835C10.0238 1.57402 9.6667 1.92586 9.23628 1.92586Z" fill="#4DB6FF"/>
</svg>
