<svg width="310" height="43" viewBox="0 0 310 43" fill="none" xmlns="http://www.w3.org/2000/svg">
<g clip-path="url(#clip0_2538_1929)">
<g filter="url(#filter0_d_2538_1929)">
<rect x="0.292511" y="0.97998" width="309.137" height="41.8001" rx="5" fill="url(#paint0_linear_2538_1929)"/>
</g>
<g clip-path="url(#clip1_2538_1929)" filter="url(#filter1_d_2538_1929)">
<g filter="url(#filter2_d_2538_1929)">
<path d="M9.86321 33.0883L7.59944 33.7893C4.94934 34.6122 2.85126 36.6462 1.94434 39.2698L1.18584 41.4641L20.1231 48.0101L20.8816 45.8159C21.7885 43.1922 21.3945 40.2968 19.818 38.0129L18.4705 36.0636C17.9407 35.2973 18.3078 34.2369 19.1981 33.9624L21.4593 33.2649C24.1096 32.4421 26.2094 30.4027 27.1145 27.7845L28.078 24.997L9.14081 18.4509L8.17725 21.2384C7.2722 23.8567 7.66446 26.7575 9.24068 29.0413L10.5885 30.9863C11.1192 31.752 10.7531 32.8128 9.86321 33.0883Z" fill="#E8EDF2"/>
<path d="M19.1981 33.9624L21.4593 33.2649C24.1096 32.4421 26.2094 30.4027 27.1145 27.7845L28.0781 24.997L18.4191 21.6581L10.4641 44.6713L20.1231 48.0101L20.8816 45.8158C21.7885 43.1922 21.3945 40.2968 19.818 38.0129L18.4705 36.0636C17.9407 35.2973 18.3078 34.2369 19.1981 33.9624Z" fill="#C4D3E4"/>
<path d="M31.7104 24.2117C31.4402 24.9934 30.8778 25.5877 30.1909 25.9259C29.504 26.2642 28.686 26.3327 27.9043 26.0625L8.61951 19.3963C7.05614 18.8559 6.22837 17.1535 6.76879 15.5902C7.03899 14.8085 7.60133 14.2141 8.2882 13.8758C8.97508 13.5375 9.79324 13.4692 10.5749 13.7394L29.8597 20.4056C31.4231 20.946 32.2508 22.6484 31.7104 24.2117Z" fill="#108BE1"/>
<path d="M6.76834 15.5918C6.22945 17.1544 7.05846 18.8585 8.62095 19.3986L27.9017 26.0634C29.4642 26.6035 31.1686 25.7751 31.7098 24.2133L6.76834 15.5918Z" fill="#0C6BC3"/>
<path d="M22.2907 51.4624C22.0205 52.2441 21.4563 52.8435 20.7694 53.1817C20.0843 53.5149 19.2644 53.5885 18.4828 53.3183L-0.802006 46.6521C-2.36538 46.1117 -3.19132 44.4041 -2.65095 42.8408C-2.38075 42.0591 -1.81663 41.4596 -1.13154 41.1265C-0.446438 40.7933 0.373498 40.7199 1.15518 40.9901L20.4399 47.6563C22.0033 48.1967 22.8311 49.899 22.2907 51.4624Z" fill="#108BE1"/>
<path d="M12.5858 35.2694L13.3324 33.1095C13.7572 31.8804 13.5641 30.5067 12.8223 29.4386L11.4741 27.493C10.8153 26.5341 10.463 25.4048 10.4327 24.2602C10.414 23.6148 11.1339 23.2476 11.6423 23.6422C12.9611 24.6737 15.0203 24.8788 17.229 25.1012C19.5132 25.338 21.9504 25.5991 23.8692 26.8266C24.2008 27.0333 24.3147 27.4698 24.1266 27.8137C23.3821 29.1682 22.1421 30.2077 20.6537 30.6661L18.3969 31.3656C17.1537 31.7475 16.1588 32.7105 15.7288 33.9379L14.9822 36.0977C14.5573 37.3268 14.7453 38.6986 15.4871 39.7669L16.8335 41.7175C17.8396 43.1708 18.1427 45.0084 17.6835 46.7034L3.91155 41.9429C4.59707 40.3261 5.9756 39.0697 7.65909 38.5462L9.92275 37.8434C11.166 37.4614 12.1609 36.4984 12.5858 35.2694Z" fill="#FABB53"/>
<path d="M6.18815 41.8667C6.06712 41.8248 5.95423 41.7538 5.86056 41.6539C5.55197 41.3252 5.56835 40.8085 5.89701 40.5002C6.47206 39.9605 7.16511 39.5544 7.90148 39.3254L10.165 38.6227C10.5947 38.4888 11.0527 38.7292 11.1863 39.1602C11.32 39.5907 11.0796 40.0479 10.6488 40.1815L8.38559 40.8842C7.88419 41.0401 7.41 41.3189 7.01427 41.6904C6.78546 41.905 6.46562 41.9626 6.18815 41.8667Z" fill="#FFD77F"/>
<path d="M17.6835 46.7034L10.6072 44.2573L17.229 25.1011C19.5132 25.3379 21.9504 25.5991 23.8692 26.8265C24.2008 27.0332 24.3147 27.4698 24.1266 27.8137C23.3821 29.1682 22.1421 30.2076 20.6537 30.666L18.3969 31.3655C17.1537 31.7475 16.1588 32.7105 15.7288 33.9378L14.9822 36.0977C14.5573 37.3267 14.7453 38.6986 15.4871 39.7668L16.8335 41.7175C17.8396 43.1707 18.1427 45.0084 17.6835 46.7034Z" fill="#F99944"/>
<path d="M15.5693 17.3797L11.3814 15.932C10.9695 15.7897 10.7521 15.3422 10.8944 14.9305C11.0368 14.5186 11.4841 14.3011 11.896 14.4434L16.079 15.8894C16.4907 16.0317 16.7084 16.4791 16.5661 16.891C16.4286 17.3044 15.9761 17.5203 15.5693 17.3797Z" fill="#4DB6FF"/>
</g>
</g>
<g clip-path="url(#clip2_2538_1929)">
<path d="M55.5702 9.79522C55.6362 9.90704 55.7388 9.99265 55.8606 10.0376C55.9825 10.0825 56.1161 10.084 56.2389 10.0418C58.7813 9.14671 61.7052 9.84018 62.8333 12.5245C63.7739 14.7633 63.2967 17.5788 61.8821 19.3892C59.6906 22.1951 55.8495 23.6625 52.0989 24.4884C51.5898 24.5998 51.0595 24.5632 50.5706 24.3829C50.0817 24.2027 49.6546 23.8862 49.3398 23.471C47.0231 20.4079 45.0542 16.7981 45.2089 13.2412C45.3089 10.9461 46.7737 8.4947 48.9426 7.40244C51.5427 6.0929 54.2175 7.46389 55.5702 9.79522Z" fill="#FE4F60"/>
<path d="M61.8818 19.3919C59.6944 22.1944 55.8505 23.6657 52.0998 24.4859C51.1546 24.697 50.172 24.3836 49.5237 23.6759C49.6112 23.6662 49.6987 23.6565 49.7908 23.6345C53.5415 22.8143 57.3854 21.343 59.5729 18.5405C60.99 16.7269 61.4691 13.9099 60.5244 11.6731C60.1648 10.8271 59.6351 10.1771 58.9874 9.71444C60.6282 9.89282 62.101 10.7926 62.8333 12.5245C63.7781 14.7613 63.299 17.5783 61.8818 19.3919Z" fill="#E54756"/>
<path d="M52.3816 8.26769C51.402 7.90647 50.419 7.96788 49.4606 8.45029C49.1795 8.59268 48.9121 8.7608 48.662 8.95249C48.5817 9.02054 48.5306 9.11682 48.5192 9.22146C48.5078 9.3261 48.537 9.43112 48.6008 9.51484C48.6646 9.59857 48.7581 9.65462 48.862 9.67142C48.9659 9.68823 49.0723 9.66451 49.1592 9.60517C49.3693 9.44411 49.5937 9.30279 49.8297 9.18302C50.5776 8.80691 51.3407 8.75747 52.0987 9.03696C52.1497 9.05809 52.2045 9.06869 52.2598 9.06812C52.315 9.06756 52.3696 9.05584 52.4202 9.03367C52.4708 9.0115 52.5164 8.97934 52.5542 8.93911C52.5921 8.89889 52.6214 8.85143 52.6405 8.79958C52.6596 8.74773 52.668 8.69257 52.6652 8.63739C52.6624 8.58222 52.6485 8.52818 52.6244 8.4785C52.6002 8.42883 52.5662 8.38455 52.5245 8.34833C52.4828 8.3121 52.4342 8.28467 52.3816 8.26769ZM48.3863 9.71534C48.3459 9.67958 48.2988 9.65216 48.2478 9.63465C48.1968 9.61714 48.1428 9.60988 48.089 9.6133C48.0351 9.61671 47.9825 9.63073 47.9341 9.65455C47.8857 9.67837 47.8425 9.71152 47.8069 9.7521C47.6202 9.96443 47.4436 10.1931 47.2837 10.4314C47.2296 10.5217 47.2123 10.6293 47.2352 10.732C47.2582 10.8347 47.3197 10.9247 47.4071 10.9834C47.4945 11.0421 47.601 11.065 47.7048 11.0474C47.8086 11.0298 47.9016 10.973 47.9648 10.8889C48.1049 10.6796 48.2588 10.4804 48.4222 10.2951C48.4942 10.2134 48.5308 10.1065 48.524 9.99782C48.5173 9.88914 48.4678 9.78757 48.3863 9.71534Z" fill="#FF6D7A"/>
</g>
<g clip-path="url(#clip3_2538_1929)">
<path d="M68.0674 32.5022C68.0889 32.5386 68.1222 32.5665 68.1619 32.5811C68.2016 32.5957 68.245 32.5962 68.285 32.5825C69.1124 32.2912 70.064 32.5169 70.4312 33.3905C70.7373 34.1191 70.582 35.0354 70.1216 35.6246C69.4084 36.5378 68.1583 37.0154 66.9376 37.2842C66.772 37.3204 66.5994 37.3085 66.4403 37.2498C66.2811 37.1912 66.1421 37.0882 66.0397 36.953C65.2857 35.9562 64.6449 34.7813 64.6953 33.6237C64.7278 32.8768 65.2045 32.079 65.9104 31.7235C66.7566 31.2973 67.6271 31.7435 68.0674 32.5022Z" fill="#FE4F60"/>
<path d="M70.1215 35.6255C69.4096 36.5376 68.1586 37.0165 66.9379 37.2834C66.6303 37.3521 66.3105 37.2501 66.0995 37.0198C66.128 37.0166 66.1565 37.0135 66.1864 37.0063C67.4071 36.7394 68.6581 36.2605 69.37 35.3484C69.8313 34.7582 69.9872 33.8414 69.6797 33.1134C69.5627 32.8381 69.3903 32.6266 69.1795 32.476C69.7135 32.534 70.1928 32.8269 70.4312 33.3905C70.7387 34.1185 70.5827 35.0353 70.1215 35.6255Z" fill="#E54756"/>
<path d="M67.0297 32.0051C66.7108 31.8875 66.3909 31.9075 66.079 32.0645C65.9875 32.1109 65.9005 32.1656 65.8191 32.228C65.793 32.2501 65.7763 32.2815 65.7726 32.3155C65.7689 32.3496 65.7784 32.3837 65.7992 32.411C65.8199 32.4382 65.8504 32.4565 65.8842 32.462C65.918 32.4674 65.9526 32.4597 65.9809 32.4404C66.0493 32.388 66.1223 32.342 66.1991 32.303C66.4425 32.1806 66.6909 32.1645 66.9376 32.2555C66.9542 32.2623 66.972 32.2658 66.99 32.2656C67.008 32.2654 67.0257 32.2616 67.0422 32.2544C67.0587 32.2472 67.0735 32.2367 67.0858 32.2236C67.0981 32.2105 67.1077 32.1951 67.1139 32.1782C67.1201 32.1613 67.1228 32.1434 67.1219 32.1254C67.121 32.1075 67.1165 32.0899 67.1086 32.0737C67.1008 32.0576 67.0897 32.0431 67.0762 32.0314C67.0626 32.0196 67.0468 32.0106 67.0297 32.0051ZM65.7294 32.4763C65.7162 32.4646 65.7009 32.4557 65.6843 32.45C65.6677 32.4443 65.6501 32.4419 65.6326 32.443C65.6151 32.4442 65.5979 32.4487 65.5822 32.4565C65.5664 32.4642 65.5524 32.475 65.5408 32.4882C65.48 32.5573 65.4225 32.6317 65.3705 32.7093C65.3529 32.7387 65.3473 32.7737 65.3547 32.8071C65.3622 32.8406 65.3822 32.8698 65.4107 32.8889C65.4391 32.908 65.4738 32.9155 65.5076 32.9098C65.5413 32.904 65.5716 32.8856 65.5922 32.8582C65.6378 32.7901 65.6879 32.7252 65.741 32.6649C65.7645 32.6383 65.7764 32.6036 65.7742 32.5682C65.772 32.5328 65.7559 32.4998 65.7294 32.4763Z" fill="#FF6D7A"/>
</g>
<g clip-path="url(#clip4_2538_1929)">
<path d="M88.6839 16.6728C88.7521 16.7613 88.8487 16.8237 88.9576 16.8492C89.0664 16.8747 89.1807 16.8619 89.2811 16.8129C91.3587 15.78 93.9299 16.0641 95.1768 18.2383C96.2165 20.0517 96.1058 22.5075 95.0883 24.2033C93.512 26.8316 90.3852 28.4905 87.2681 29.5916C86.845 29.7405 86.3881 29.7652 85.9514 29.6627C85.5147 29.5603 85.1164 29.335 84.8036 29.0135C82.5013 26.641 80.4385 23.7647 80.1955 20.7096C80.0388 18.7383 81.0317 16.4896 82.7694 15.3276C84.8526 13.9346 87.2823 14.8237 88.6839 16.6728Z" fill="#FE4F60"/>
<path d="M95.0883 24.2056C93.5151 26.8306 90.3864 28.4931 87.2686 29.5894C86.4834 29.8694 85.6109 29.7054 84.9824 29.1691C85.0561 29.1516 85.1299 29.1341 85.2062 29.1056C88.324 28.0092 91.4527 26.3468 93.0259 23.7218C94.0453 22.0229 94.1575 19.5658 93.1144 17.7545C92.718 17.0696 92.1969 16.5702 91.5947 16.2433C93.0154 16.2226 94.3685 16.836 95.1768 18.2383C96.2199 20.0496 96.1077 22.5068 95.0883 24.2056Z" fill="#E54756"/>
<path d="M85.7987 15.7041C84.9237 15.4989 84.0904 15.655 83.3224 16.1682C83.0973 16.3195 82.8866 16.4914 82.6931 16.6815C82.6317 16.7481 82.5982 16.8358 82.5995 16.9264C82.6008 17.017 82.6369 17.1036 82.7002 17.1684C82.7635 17.2332 82.8493 17.2712 82.9399 17.2746C83.0304 17.278 83.1188 17.2465 83.1868 17.1867C83.3492 17.0269 83.5261 16.8825 83.7151 16.7553C84.3143 16.3551 84.9611 16.2324 85.6381 16.3912C85.6839 16.4038 85.7319 16.4071 85.779 16.4008C85.8261 16.3945 85.8715 16.3787 85.9124 16.3545C85.9533 16.3302 85.9888 16.2979 86.0169 16.2595C86.045 16.2212 86.0651 16.1775 86.0759 16.1312C86.0868 16.0849 86.0881 16.0369 86.0799 15.9901C86.0717 15.9432 86.0542 15.8985 86.0283 15.8586C86.0024 15.8187 85.9687 15.7845 85.9293 15.7579C85.8898 15.7314 85.8454 15.7131 85.7987 15.7041ZM82.5381 17.3623C82.4998 17.336 82.4567 17.3176 82.4113 17.308C82.3658 17.2984 82.3189 17.2979 82.2733 17.3065C82.2277 17.3151 82.1842 17.3326 82.1453 17.3581C82.1065 17.3835 82.0731 17.4164 82.047 17.4548C81.9098 17.6559 81.7831 17.8699 81.6716 18.0903C81.6349 18.1732 81.6315 18.2669 81.6619 18.3523C81.6924 18.4376 81.7544 18.508 81.8353 18.5489C81.9161 18.5898 82.0096 18.5982 82.0964 18.5722C82.1832 18.5462 82.2567 18.4879 82.3017 18.4093C82.3994 18.2158 82.5098 18.0293 82.6299 17.8539C82.6828 17.7764 82.7028 17.6812 82.6856 17.5891C82.6683 17.497 82.6153 17.4154 82.5381 17.3623Z" fill="#FF6D7A"/>
</g>
<g clip-path="url(#clip5_2538_1929)">
<path d="M115.763 3.14254C115.808 3.26635 115.895 3.36864 116.008 3.43212C116.121 3.4956 116.253 3.51638 116.382 3.49095C119.066 2.94264 121.845 4.07295 122.485 6.97911C123.019 9.40294 122.042 12.2118 120.314 13.8582C117.637 16.4102 113.562 17.3563 109.691 17.6596C109.166 17.7001 108.646 17.5863 108.193 17.3315C107.74 17.0768 107.373 16.6918 107.134 16.222C105.382 12.7573 104.072 8.784 104.862 5.17081C105.371 2.83948 107.263 0.545173 109.611 -0.258528C112.426 -1.22214 114.836 0.564737 115.763 3.14254Z" fill="#FE4F60"/>
<path d="M120.313 13.8609C117.641 16.41 113.562 17.3596 109.693 17.6572C108.717 17.7367 107.797 17.2748 107.28 16.458C107.369 16.4607 107.457 16.4634 107.553 16.4542C111.422 16.1565 115.501 15.2069 118.173 12.6579C119.904 11.0085 120.883 8.1985 120.345 5.77605C120.139 4.85954 119.73 4.11886 119.169 3.5526C120.766 3.97148 122.067 5.10344 122.485 6.97911C123.023 9.40156 122.044 12.2116 120.313 13.8609Z" fill="#E54756"/>
<path d="M112.87 1.12161C111.963 0.611189 110.976 0.532238 109.938 0.887126C109.634 0.992133 109.338 1.12542 109.056 1.28528C108.964 1.34326 108.896 1.4343 108.866 1.53961C108.836 1.64491 108.846 1.75646 108.894 1.85123C108.943 1.946 109.026 2.01677 109.126 2.04892C109.226 2.08108 109.336 2.07218 109.433 2.02405C109.67 1.88972 109.918 1.77764 110.174 1.68924C110.983 1.41265 111.75 1.47214 112.452 1.86707C112.499 1.89602 112.551 1.91475 112.606 1.92214C112.661 1.92952 112.718 1.92541 112.772 1.91005C112.826 1.89468 112.877 1.86838 112.922 1.83273C112.967 1.79707 113.004 1.7528 113.032 1.70256C113.061 1.65231 113.079 1.59714 113.086 1.54035C113.093 1.48356 113.089 1.42632 113.074 1.37206C113.059 1.31781 113.033 1.26766 112.998 1.22462C112.963 1.18158 112.92 1.14655 112.87 1.12161ZM108.646 2.02523C108.612 1.98286 108.57 1.94805 108.523 1.92279C108.475 1.89753 108.423 1.88234 108.369 1.87806C108.315 1.87379 108.26 1.88053 108.208 1.8979C108.155 1.91527 108.106 1.94292 108.064 1.97926C107.841 2.16937 107.624 2.37758 107.423 2.59809C107.353 2.6826 107.317 2.79009 107.321 2.89838C107.326 3.00667 107.371 3.1075 107.447 3.18008C107.523 3.25265 107.625 3.29143 107.731 3.28842C107.837 3.2854 107.94 3.24082 108.018 3.16387C108.194 2.97022 108.382 2.78876 108.578 2.62299C108.664 2.54983 108.719 2.44584 108.732 2.3338C108.745 2.22175 108.714 2.11079 108.646 2.02523Z" fill="#FF6D7A"/>
</g>
<g clip-path="url(#clip6_2538_1929)">
<path d="M123.536 21.136C123.573 21.1866 123.626 21.222 123.686 21.2361C123.746 21.2502 123.81 21.2421 123.866 21.2133C125.021 20.6068 126.443 20.7559 127.121 22.0011C127.686 23.0397 127.611 24.4547 127.039 25.4371C126.152 26.9597 124.412 27.9327 122.681 28.5844C122.446 28.6725 122.193 28.6893 121.952 28.6327C121.71 28.5762 121.491 28.4487 121.32 28.2653C120.059 26.9118 118.933 25.2668 118.816 23.5087C118.74 22.3742 119.302 21.0735 120.27 20.3945C121.431 19.5805 122.77 20.079 123.536 21.136Z" fill="#FE4F60"/>
<path d="M127.039 25.4384C126.153 26.9591 124.413 27.9342 122.681 28.5831C122.245 28.7488 121.763 28.6592 121.418 28.3539C121.459 28.3434 121.5 28.3329 121.542 28.316C123.274 27.6671 125.015 26.6921 125.9 25.1714C126.473 24.1872 126.549 22.7714 125.982 21.7341C125.766 21.3419 125.481 21.0572 125.149 20.8723C125.936 20.8524 126.681 21.198 127.121 22.0011C127.688 23.0385 127.612 24.4543 127.039 25.4384Z" fill="#E54756"/>
<path d="M121.944 20.5943C121.461 20.481 120.999 20.5757 120.571 20.8756C120.446 20.964 120.328 21.0641 120.22 21.1747C120.186 21.2134 120.167 21.2641 120.167 21.3163C120.167 21.3684 120.187 21.4181 120.221 21.4551C120.256 21.492 120.303 21.5135 120.353 21.5149C120.404 21.5164 120.453 21.4977 120.491 21.4629C120.581 21.37 120.68 21.2858 120.785 21.2115C121.119 20.9776 121.478 20.9033 121.852 20.9909C121.877 20.998 121.903 20.9996 121.93 20.9957C121.956 20.9918 121.981 20.9825 122.004 20.9683C122.026 20.954 122.046 20.9352 122.062 20.913C122.078 20.8907 122.089 20.8655 122.095 20.8388C122.102 20.812 122.103 20.7844 122.098 20.7574C122.094 20.7305 122.085 20.7049 122.071 20.682C122.056 20.6592 122.038 20.6397 122.016 20.6246C121.995 20.6095 121.97 20.5992 121.944 20.5943ZM120.131 21.5677C120.11 21.5528 120.086 21.5424 120.061 21.5371C120.036 21.5318 120.01 21.5318 119.984 21.537C119.959 21.5422 119.935 21.5526 119.913 21.5674C119.892 21.5823 119.873 21.6015 119.858 21.6237C119.781 21.7403 119.71 21.8642 119.647 21.9918C119.626 22.0398 119.624 22.0938 119.64 22.1428C119.657 22.1917 119.691 22.2319 119.735 22.255C119.78 22.2781 119.831 22.2824 119.879 22.267C119.928 22.2515 119.969 22.2175 119.994 22.172C120.049 22.06 120.111 21.952 120.179 21.8503C120.208 21.8054 120.22 21.7504 120.211 21.6975C120.202 21.6445 120.173 21.5978 120.131 21.5677Z" fill="#FF6D7A"/>
</g>
</g>
<defs>
<filter id="filter0_d_2538_1929" x="-18.7075" y="-6.02002" width="347.137" height="79.8001" filterUnits="userSpaceOnUse" color-interpolation-filters="sRGB">
<feFlood flood-opacity="0" result="BackgroundImageFix"/>
<feColorMatrix in="SourceAlpha" type="matrix" values="0 0 0 0 0 0 0 0 0 0 0 0 0 0 0 0 0 0 127 0" result="hardAlpha"/>
<feOffset dy="12"/>
<feGaussianBlur stdDeviation="9.5"/>
<feColorMatrix type="matrix" values="0 0 0 0 0.236882 0 0 0 0 0.50135 0 0 0 0 0.817921 0 0 0 0.0851449 0"/>
<feBlend mode="normal" in2="BackgroundImageFix" result="effect1_dropShadow_2538_1929"/>
<feBlend mode="normal" in="SourceGraphic" in2="effect1_dropShadow_2538_1929" result="shape"/>
</filter>
<filter id="filter1_d_2538_1929" x="-13" y="10" width="55.0577" height="55.0577" filterUnits="userSpaceOnUse" color-interpolation-filters="sRGB">
<feFlood flood-opacity="0" result="BackgroundImageFix"/>
<feColorMatrix in="SourceAlpha" type="matrix" values="0 0 0 0 0 0 0 0 0 0 0 0 0 0 0 0 0 0 127 0" result="hardAlpha"/>
<feOffset dy="4"/>
<feGaussianBlur stdDeviation="2"/>
<feComposite in2="hardAlpha" operator="out"/>
<feColorMatrix type="matrix" values="0 0 0 0 0 0 0 0 0 0 0 0 0 0 0 0 0 0 0.25 0"/>
<feBlend mode="normal" in2="BackgroundImageFix" result="effect1_dropShadow_2538_1929"/>
<feBlend mode="normal" in="SourceGraphic" in2="effect1_dropShadow_2538_1929" result="shape"/>
</filter>
<filter id="filter2_d_2538_1929" x="-10.1165" y="11.273" width="49.2922" height="54.5101" filterUnits="userSpaceOnUse" color-interpolation-filters="sRGB">
<feFlood flood-opacity="0" result="BackgroundImageFix"/>
<feColorMatrix in="SourceAlpha" type="matrix" values="0 0 0 0 0 0 0 0 0 0 0 0 0 0 0 0 0 0 127 0" result="hardAlpha"/>
<feOffset dy="5"/>
<feGaussianBlur stdDeviation="3.65"/>
<feComposite in2="hardAlpha" operator="out"/>
<feColorMatrix type="matrix" values="0 0 0 0 0 0 0 0 0 0 0 0 0 0 0 0 0 0 0.16 0"/>
<feBlend mode="normal" in2="BackgroundImageFix" result="effect1_dropShadow_2538_1929"/>
<feBlend mode="normal" in="SourceGraphic" in2="effect1_dropShadow_2538_1929" result="shape"/>
</filter>
<linearGradient id="paint0_linear_2538_1929" x1="12.5" y1="55.5" x2="309.429" y2="21.88" gradientUnits="userSpaceOnUse">
<stop offset="0.105809" stop-color="#ABC270"/>
<stop offset="1" stop-color="#C3D497"/>
</linearGradient>
<clipPath id="clip0_2538_1929">
<rect width="309.137" height="41.8001" fill="white" transform="translate(0.292511 0.97998)"/>
</clipPath>
<clipPath id="clip1_2538_1929">
<rect width="37" height="37" fill="white" transform="translate(3.08798 10) rotate(19.0687)"/>
</clipPath>
<clipPath id="clip2_2538_1929">
<rect width="21" height="21" fill="white" transform="translate(47.2653 3) rotate(20.2407)"/>
</clipPath>
<clipPath id="clip3_2538_1929">
<rect width="6.83452" height="6.83452" fill="white" transform="translate(65.3645 30.2907) rotate(20.2407)"/>
</clipPath>
<clipPath id="clip4_2538_1929">
<rect width="18.077" height="18.077" fill="white" transform="translate(80.872 11.7435) rotate(13.2022)"/>
</clipPath>
<clipPath id="clip5_2538_1929">
<rect width="20.9487" height="21.9009" fill="white" transform="translate(108.733 -5) rotate(29.3446)"/>
</clipPath>
<clipPath id="clip6_2538_1929">
<rect width="9.98116" height="10.4348" fill="white" transform="translate(119.24 18.3409) rotate(13.1982)"/>
</clipPath>
</defs>
</svg>
