<svg width="18" height="14" viewBox="0 0 18 14" fill="none" xmlns="http://www.w3.org/2000/svg">
<path d="M2.00002 4C3.10459 4 4.00002 3.10457 4.00002 2C4.00002 0.895431 3.10459 0 2.00002 0C0.895453 0 2.21878e-05 0.895431 2.21878e-05 2C2.21878e-05 3.10457 0.895453 4 2.00002 4Z" fill="black"/>
<path d="M6.00002 2C6.00002 2.55228 6.44774 3 7.00002 3H17C17.5523 3 18 2.55228 18 2V2C18 1.44772 17.5523 1 17 1H7.00002C6.44774 1 6.00002 1.44772 6.00002 2V2Z" fill="black"/>
<path d="M18 7C18 7.55228 17.5523 8 17 8H12H7.00002C6.44774 8 6.00002 7.55228 6.00002 7V7C6.00002 6.44772 6.44774 6 7.00002 6H17C17.5523 6 18 6.44772 18 7V7Z" fill="black"/>
<path d="M2.00001 9C3.10458 9 4.00001 8.10457 4.00001 7C4.00001 5.89543 3.10458 5 2.00001 5C0.895438 5 7.6443e-06 5.89543 7.6443e-06 7C7.6443e-06 8.10457 0.895438 9 2.00001 9Z" fill="black"/>
<path d="M2 14C3.10457 14 4 13.1046 4 12C4 10.8954 3.10457 10 2 10C0.89543 10 -2.5332e-07 10.8954 -2.5332e-07 12C-2.5332e-07 13.1046 0.89543 14 2 14Z" fill="black"/>
<path d="M18 12C18 12.5523 17.5523 13 17 13H7.00002C6.44774 13 6.00002 12.5523 6.00002 12V12C6.00002 11.4477 6.44774 11 7.00002 11H17C17.5523 11 18 11.4477 18 12V12Z" fill="black"/>
</svg>
