<svg width="18" height="20" viewBox="0 0 18 20" fill="none" xmlns="http://www.w3.org/2000/svg">
<path d="M9 8C8.44772 8 8 8.44772 8 9C8 9.55228 8.44772 10 9 10C9.55228 10 10 9.55228 10 9C10 8.44772 9.55228 8 9 8Z" fill="black"/>
<path fill-rule="evenodd" clip-rule="evenodd" d="M0 0.5V11C0 15.9706 4.02944 20 9 20C13.9706 20 18 15.9706 18 11V0.5H0ZM6 9C6 7.34315 7.34315 6 9 6C10.6569 6 12 7.34315 12 9C12 10.3062 11.1652 11.4175 10 11.8293V14H8V11.8293C6.83481 11.4175 6 10.3062 6 9Z" fill="black"/>
</svg>
