<svg xmlns="http://www.w3.org/2000/svg" xmlns:xlink="http://www.w3.org/1999/xlink" width="1080" zoomAndPan="magnify" viewBox="0 0 810 809.999993" height="1080" preserveAspectRatio="xMidYMid meet" version="1.0"><defs><clipPath id="f80fb100ef"><path d="M 223 97.304688 L 588 97.304688 L 588 252 L 223 252 Z M 223 97.304688 " clip-rule="nonzero"/></clipPath><clipPath id="4da4b9cb29"><path d="M 223 559 L 588 559 L 588 713.054688 L 223 713.054688 Z M 223 559 " clip-rule="nonzero"/></clipPath><clipPath id="b88f8563ee"><path d="M 97.304688 223 L 406 223 L 406 546 L 97.304688 546 Z M 97.304688 223 " clip-rule="nonzero"/></clipPath><clipPath id="cf67f0cb83"><path d="M 377 265 L 713.054688 265 L 713.054688 588 L 377 588 Z M 377 265 " clip-rule="nonzero"/></clipPath></defs><path fill="#f8f6f7" d="M 265.238281 111.300781 L 545.125 111.300781 C 546.039062 111.300781 546.953125 111.34375 547.867188 111.433594 C 548.777344 111.523438 549.683594 111.660156 550.582031 111.835938 C 551.484375 112.015625 552.371094 112.238281 553.246094 112.503906 C 554.125 112.769531 554.988281 113.078125 555.835938 113.429688 C 556.679688 113.78125 557.507812 114.171875 558.316406 114.605469 C 559.125 115.035156 559.910156 115.507812 560.671875 116.015625 C 561.433594 116.527344 562.171875 117.070312 562.878906 117.652344 C 563.585938 118.234375 564.265625 118.847656 564.914062 119.496094 C 565.5625 120.144531 566.175781 120.824219 566.757812 121.53125 C 567.339844 122.242188 567.886719 122.976562 568.394531 123.738281 C 568.90625 124.5 569.375 125.285156 569.808594 126.09375 C 570.238281 126.902344 570.628906 127.730469 570.980469 128.578125 C 571.332031 129.425781 571.640625 130.285156 571.90625 131.164062 C 572.171875 132.039062 572.394531 132.929688 572.574219 133.828125 C 572.753906 134.726562 572.886719 135.632812 572.976562 136.542969 C 573.066406 137.457031 573.113281 138.371094 573.113281 139.289062 L 573.113281 671.070312 C 573.113281 671.988281 573.066406 672.902344 572.976562 673.816406 C 572.886719 674.726562 572.753906 675.632812 572.574219 676.53125 C 572.394531 677.429688 572.171875 678.320312 571.90625 679.195312 C 571.640625 680.074219 571.332031 680.9375 570.980469 681.78125 C 570.628906 682.628906 570.238281 683.457031 569.808594 684.265625 C 569.375 685.074219 568.90625 685.859375 568.394531 686.621094 C 567.886719 687.382812 567.339844 688.121094 566.757812 688.828125 C 566.175781 689.535156 565.5625 690.214844 564.914062 690.863281 C 564.265625 691.511719 563.585938 692.125 562.878906 692.707031 C 562.171875 693.289062 561.433594 693.835938 560.671875 694.34375 C 559.910156 694.851562 559.125 695.324219 558.316406 695.757812 C 557.507812 696.1875 556.679688 696.578125 555.835938 696.929688 C 554.988281 697.28125 554.125 697.589844 553.246094 697.855469 C 552.371094 698.121094 551.484375 698.34375 550.582031 698.523438 C 549.683594 698.703125 548.777344 698.835938 547.867188 698.925781 C 546.953125 699.015625 546.039062 699.0625 545.125 699.0625 L 265.238281 699.0625 C 264.320312 699.0625 263.40625 699.015625 262.492188 698.925781 C 261.582031 698.835938 260.675781 698.703125 259.777344 698.523438 C 258.878906 698.34375 257.988281 698.121094 257.113281 697.855469 C 256.234375 697.589844 255.375 697.28125 254.527344 696.929688 C 253.679688 696.578125 252.851562 696.1875 252.042969 695.757812 C 251.234375 695.324219 250.449219 694.851562 249.6875 694.34375 C 248.925781 693.835938 248.191406 693.289062 247.480469 692.707031 C 246.773438 692.125 246.09375 691.511719 245.445312 690.863281 C 244.796875 690.214844 244.183594 689.535156 243.601562 688.828125 C 243.019531 688.121094 242.472656 687.382812 241.964844 686.621094 C 241.457031 685.859375 240.984375 685.074219 240.554688 684.265625 C 240.121094 683.457031 239.730469 682.628906 239.378906 681.78125 C 239.027344 680.9375 238.71875 680.074219 238.453125 679.195312 C 238.1875 678.320312 237.964844 677.429688 237.785156 676.53125 C 237.605469 675.632812 237.472656 674.726562 237.382812 673.816406 C 237.292969 672.902344 237.25 671.988281 237.25 671.070312 L 237.25 139.289062 C 237.25 138.371094 237.292969 137.457031 237.382812 136.542969 C 237.472656 135.632812 237.605469 134.726562 237.785156 133.828125 C 237.964844 132.929688 238.1875 132.039062 238.453125 131.164062 C 238.71875 130.285156 239.027344 129.425781 239.378906 128.578125 C 239.730469 127.730469 240.121094 126.902344 240.554688 126.09375 C 240.984375 125.285156 241.457031 124.5 241.964844 123.738281 C 242.472656 122.976562 243.019531 122.242188 243.601562 121.53125 C 244.183594 120.824219 244.796875 120.144531 245.445312 119.496094 C 246.09375 118.847656 246.773438 118.234375 247.480469 117.652344 C 248.191406 117.070312 248.925781 116.527344 249.6875 116.015625 C 250.449219 115.507812 251.234375 115.035156 252.042969 114.605469 C 252.851562 114.171875 253.679688 113.78125 254.527344 113.429688 C 255.375 113.078125 256.234375 112.769531 257.113281 112.503906 C 257.988281 112.238281 258.878906 112.015625 259.777344 111.835938 C 260.675781 111.660156 261.582031 111.523438 262.492188 111.433594 C 263.40625 111.34375 264.320312 111.300781 265.238281 111.300781 Z M 265.238281 111.300781 " fill-opacity="1" fill-rule="nonzero"/><path fill="#98d6fc" d="M 573.113281 139.289062 L 573.113281 195.265625 L 237.25 195.265625 L 237.25 139.289062 C 237.25 138.371094 237.292969 137.457031 237.382812 136.542969 C 237.472656 135.632812 237.605469 134.726562 237.785156 133.828125 C 237.964844 132.929688 238.1875 132.039062 238.453125 131.164062 C 238.71875 130.285156 239.027344 129.425781 239.378906 128.578125 C 239.730469 127.730469 240.121094 126.902344 240.554688 126.09375 C 240.984375 125.285156 241.457031 124.5 241.964844 123.738281 C 242.472656 122.976562 243.019531 122.242188 243.601562 121.53125 C 244.183594 120.824219 244.796875 120.144531 245.445312 119.496094 C 246.09375 118.847656 246.773438 118.234375 247.480469 117.652344 C 248.191406 117.070312 248.925781 116.527344 249.6875 116.015625 C 250.449219 115.507812 251.234375 115.035156 252.042969 114.605469 C 252.851562 114.171875 253.679688 113.78125 254.527344 113.429688 C 255.375 113.078125 256.234375 112.769531 257.113281 112.503906 C 257.988281 112.238281 258.878906 112.015625 259.777344 111.835938 C 260.675781 111.660156 261.582031 111.523438 262.492188 111.433594 C 263.40625 111.34375 264.320312 111.300781 265.238281 111.300781 L 545.125 111.300781 C 546.039062 111.300781 546.953125 111.34375 547.867188 111.433594 C 548.777344 111.523438 549.683594 111.660156 550.582031 111.835938 C 551.484375 112.015625 552.371094 112.238281 553.246094 112.503906 C 554.125 112.769531 554.988281 113.078125 555.835938 113.429688 C 556.679688 113.78125 557.507812 114.171875 558.316406 114.605469 C 559.125 115.035156 559.910156 115.507812 560.671875 116.015625 C 561.433594 116.527344 562.171875 117.070312 562.878906 117.652344 C 563.585938 118.234375 564.265625 118.847656 564.914062 119.496094 C 565.5625 120.144531 566.175781 120.824219 566.757812 121.53125 C 567.339844 122.242188 567.886719 122.976562 568.394531 123.738281 C 568.90625 124.5 569.375 125.285156 569.808594 126.09375 C 570.238281 126.902344 570.628906 127.730469 570.980469 128.578125 C 571.332031 129.425781 571.640625 130.285156 571.90625 131.164062 C 572.171875 132.039062 572.394531 132.929688 572.574219 133.828125 C 572.753906 134.726562 572.886719 135.632812 572.976562 136.542969 C 573.066406 137.457031 573.113281 138.371094 573.113281 139.289062 Z M 573.113281 139.289062 " fill-opacity="1" fill-rule="nonzero"/><path fill="#98d6fc" d="M 237.25 615.09375 L 573.113281 615.09375 L 573.113281 671.070312 C 573.113281 671.988281 573.066406 672.902344 572.976562 673.816406 C 572.886719 674.726562 572.753906 675.632812 572.574219 676.53125 C 572.394531 677.429688 572.171875 678.320312 571.90625 679.195312 C 571.640625 680.074219 571.332031 680.9375 570.980469 681.78125 C 570.628906 682.628906 570.238281 683.457031 569.808594 684.265625 C 569.375 685.074219 568.90625 685.859375 568.394531 686.621094 C 567.886719 687.382812 567.339844 688.121094 566.757812 688.828125 C 566.175781 689.535156 565.5625 690.214844 564.914062 690.863281 C 564.265625 691.511719 563.585938 692.125 562.878906 692.707031 C 562.171875 693.289062 561.433594 693.835938 560.671875 694.34375 C 559.910156 694.851562 559.125 695.324219 558.316406 695.757812 C 557.507812 696.1875 556.679688 696.578125 555.835938 696.929688 C 554.988281 697.28125 554.125 697.589844 553.246094 697.855469 C 552.371094 698.121094 551.484375 698.34375 550.582031 698.523438 C 549.683594 698.703125 548.777344 698.835938 547.867188 698.925781 C 546.953125 699.015625 546.039062 699.0625 545.125 699.0625 L 265.238281 699.0625 C 264.320312 699.0625 263.40625 699.015625 262.492188 698.925781 C 261.582031 698.835938 260.675781 698.703125 259.777344 698.523438 C 258.878906 698.34375 257.988281 698.121094 257.113281 697.855469 C 256.234375 697.589844 255.375 697.28125 254.527344 696.929688 C 253.679688 696.578125 252.851562 696.1875 252.042969 695.757812 C 251.234375 695.324219 250.449219 694.851562 249.6875 694.34375 C 248.925781 693.835938 248.191406 693.289062 247.480469 692.707031 C 246.773438 692.125 246.09375 691.511719 245.445312 690.863281 C 244.796875 690.214844 244.183594 689.535156 243.601562 688.828125 C 243.019531 688.121094 242.472656 687.382812 241.964844 686.621094 C 241.457031 685.859375 240.984375 685.074219 240.554688 684.265625 C 240.121094 683.457031 239.730469 682.628906 239.378906 681.78125 C 239.027344 680.9375 238.71875 680.074219 238.453125 679.195312 C 238.1875 678.320312 237.964844 677.429688 237.785156 676.53125 C 237.605469 675.632812 237.472656 674.726562 237.382812 673.816406 C 237.292969 672.902344 237.25 671.988281 237.25 671.070312 Z M 237.25 615.09375 " fill-opacity="1" fill-rule="nonzero"/><path fill="#f47f8f" d="M 391.1875 237.25 L 139.289062 237.25 C 138.371094 237.25 137.457031 237.292969 136.542969 237.382812 C 135.632812 237.472656 134.726562 237.605469 133.828125 237.785156 C 132.929688 237.964844 132.039062 238.1875 131.164062 238.453125 C 130.285156 238.71875 129.425781 239.027344 128.578125 239.378906 C 127.730469 239.730469 126.902344 240.121094 126.09375 240.554688 C 125.285156 240.984375 124.5 241.457031 123.738281 241.964844 C 122.976562 242.472656 122.242188 243.019531 121.53125 243.601562 C 120.824219 244.183594 120.144531 244.796875 119.496094 245.445312 C 118.847656 246.09375 118.234375 246.773438 117.652344 247.480469 C 117.070312 248.191406 116.527344 248.925781 116.015625 249.6875 C 115.507812 250.449219 115.035156 251.234375 114.605469 252.042969 C 114.171875 252.851562 113.78125 253.679688 113.429688 254.527344 C 113.078125 255.375 112.769531 256.234375 112.503906 257.113281 C 112.238281 257.988281 112.015625 258.878906 111.835938 259.777344 C 111.660156 260.675781 111.523438 261.582031 111.433594 262.492188 C 111.34375 263.40625 111.300781 264.320312 111.300781 265.238281 L 111.300781 447.164062 C 111.300781 448.078125 111.34375 448.996094 111.433594 449.90625 C 111.523438 450.820312 111.660156 451.722656 111.835938 452.625 C 112.015625 453.523438 112.238281 454.410156 112.503906 455.289062 C 112.769531 456.164062 113.078125 457.027344 113.429688 457.875 C 113.78125 458.722656 114.171875 459.546875 114.605469 460.355469 C 115.035156 461.164062 115.507812 461.949219 116.015625 462.710938 C 116.527344 463.476562 117.070312 464.210938 117.652344 464.917969 C 118.234375 465.628906 118.847656 466.304688 119.496094 466.953125 C 120.144531 467.601562 120.824219 468.21875 121.53125 468.796875 C 122.242188 469.378906 122.976562 469.925781 123.738281 470.433594 C 124.5 470.945312 125.285156 471.414062 126.09375 471.847656 C 126.902344 472.277344 127.730469 472.671875 128.578125 473.019531 C 129.425781 473.371094 130.285156 473.679688 131.164062 473.945312 C 132.039062 474.210938 132.929688 474.433594 133.828125 474.613281 C 134.726562 474.792969 135.632812 474.925781 136.542969 475.015625 C 137.457031 475.105469 138.371094 475.152344 139.289062 475.152344 L 213.597656 475.152344 L 263.699219 531.128906 L 313.65625 475.152344 L 391.1875 475.152344 C 392.101562 475.152344 393.015625 475.105469 393.929688 475.015625 C 394.839844 474.925781 395.746094 474.792969 396.644531 474.613281 C 397.546875 474.433594 398.433594 474.210938 399.308594 473.945312 C 400.1875 473.679688 401.050781 473.371094 401.898438 473.019531 C 402.742188 472.671875 403.570312 472.277344 404.378906 471.847656 C 405.1875 471.414062 405.972656 470.945312 406.734375 470.433594 C 407.496094 469.925781 408.234375 469.378906 408.941406 468.796875 C 409.648438 468.21875 410.328125 467.601562 410.976562 466.953125 C 411.625 466.304688 412.238281 465.628906 412.820312 464.917969 C 413.402344 464.210938 413.949219 463.476562 414.457031 462.710938 C 414.96875 461.949219 415.4375 461.164062 415.871094 460.355469 C 416.300781 459.546875 416.691406 458.722656 417.042969 457.875 C 417.394531 457.027344 417.703125 456.164062 417.96875 455.289062 C 418.234375 454.410156 418.457031 453.523438 418.636719 452.625 C 418.816406 451.722656 418.949219 450.820312 419.039062 449.90625 C 419.128906 448.996094 419.175781 448.078125 419.175781 447.164062 L 419.175781 265.238281 C 419.175781 264.320312 419.128906 263.40625 419.039062 262.492188 C 418.949219 261.582031 418.816406 260.675781 418.636719 259.777344 C 418.457031 258.878906 418.234375 257.988281 417.96875 257.113281 C 417.703125 256.234375 417.394531 255.375 417.042969 254.527344 C 416.691406 253.679688 416.300781 252.851562 415.871094 252.042969 C 415.4375 251.234375 414.96875 250.449219 414.457031 249.6875 C 413.949219 248.925781 413.402344 248.191406 412.820312 247.480469 C 412.238281 246.773438 411.625 246.09375 410.976562 245.445312 C 410.328125 244.796875 409.648438 244.183594 408.941406 243.601562 C 408.234375 243.019531 407.496094 242.472656 406.734375 241.964844 C 405.972656 241.457031 405.1875 240.984375 404.378906 240.554688 C 403.570312 240.121094 402.742188 239.730469 401.898438 239.378906 C 401.050781 239.027344 400.1875 238.71875 399.308594 238.453125 C 398.433594 238.1875 397.546875 237.964844 396.644531 237.785156 C 395.746094 237.605469 394.839844 237.472656 393.929688 237.382812 C 393.015625 237.292969 392.101562 237.25 391.1875 237.25 Z M 391.1875 237.25 " fill-opacity="1" fill-rule="nonzero"/><path fill="#fbe639" d="M 671.070312 279.230469 L 419.175781 279.230469 C 418.257812 279.230469 417.34375 279.277344 416.429688 279.367188 C 415.519531 279.457031 414.613281 279.589844 413.714844 279.769531 C 412.816406 279.949219 411.925781 280.171875 411.050781 280.4375 C 410.171875 280.703125 409.3125 281.011719 408.464844 281.363281 C 407.617188 281.710938 406.789062 282.105469 405.980469 282.535156 C 405.171875 282.96875 404.386719 283.4375 403.625 283.949219 C 402.863281 284.457031 402.128906 285.003906 401.417969 285.585938 C 400.710938 286.164062 400.03125 286.78125 399.382812 287.429688 C 398.734375 288.078125 398.121094 288.753906 397.539062 289.464844 C 396.957031 290.171875 396.410156 290.90625 395.902344 291.671875 C 395.394531 292.433594 394.921875 293.21875 394.492188 294.027344 C 394.058594 294.835938 393.667969 295.664062 393.316406 296.507812 C 392.964844 297.355469 392.65625 298.21875 392.390625 299.09375 C 392.125 299.972656 391.902344 300.859375 391.722656 301.757812 C 391.542969 302.660156 391.410156 303.5625 391.320312 304.476562 C 391.230469 305.390625 391.1875 306.304688 391.1875 307.21875 L 391.1875 489.144531 C 391.1875 490.0625 391.230469 490.976562 391.320312 491.890625 C 391.410156 492.800781 391.542969 493.707031 391.722656 494.605469 C 391.902344 495.503906 392.125 496.394531 392.390625 497.269531 C 392.65625 498.148438 392.964844 499.011719 393.316406 499.855469 C 393.667969 500.703125 394.058594 501.53125 394.492188 502.339844 C 394.921875 503.148438 395.394531 503.933594 395.902344 504.695312 C 396.410156 505.457031 396.957031 506.191406 397.539062 506.902344 C 398.121094 507.609375 398.734375 508.289062 399.382812 508.9375 C 400.03125 509.585938 400.710938 510.199219 401.417969 510.78125 C 402.128906 511.363281 402.863281 511.910156 403.625 512.417969 C 404.386719 512.925781 405.171875 513.398438 405.980469 513.828125 C 406.789062 514.261719 407.617188 514.652344 408.464844 515.003906 C 409.3125 515.355469 410.171875 515.664062 411.050781 515.929688 C 411.925781 516.195312 412.816406 516.417969 413.714844 516.597656 C 414.613281 516.777344 415.519531 516.910156 416.429688 517 C 417.34375 517.089844 418.257812 517.132812 419.175781 517.132812 L 493.484375 517.132812 L 543.582031 573.113281 L 593.542969 517.132812 L 671.070312 517.132812 C 671.988281 517.132812 672.902344 517.089844 673.816406 517 C 674.726562 516.910156 675.632812 516.777344 676.53125 516.597656 C 677.429688 516.417969 678.320312 516.195312 679.195312 515.929688 C 680.074219 515.664062 680.9375 515.355469 681.78125 515.003906 C 682.628906 514.652344 683.457031 514.261719 684.265625 513.828125 C 685.074219 513.398438 685.859375 512.925781 686.621094 512.417969 C 687.382812 511.910156 688.121094 511.363281 688.828125 510.78125 C 689.535156 510.199219 690.214844 509.585938 690.863281 508.9375 C 691.511719 508.289062 692.125 507.609375 692.707031 506.902344 C 693.289062 506.191406 693.835938 505.457031 694.34375 504.695312 C 694.851562 503.933594 695.324219 503.148438 695.757812 502.339844 C 696.1875 501.53125 696.578125 500.703125 696.929688 499.855469 C 697.28125 499.011719 697.589844 498.148438 697.855469 497.269531 C 698.121094 496.394531 698.34375 495.503906 698.523438 494.605469 C 698.703125 493.707031 698.835938 492.800781 698.925781 491.890625 C 699.015625 490.976562 699.0625 490.0625 699.0625 489.144531 L 699.0625 307.21875 C 699.0625 306.304688 699.015625 305.390625 698.925781 304.476562 C 698.835938 303.5625 698.703125 302.660156 698.523438 301.757812 C 698.34375 300.859375 698.121094 299.972656 697.855469 299.09375 C 697.589844 298.21875 697.28125 297.355469 696.929688 296.507812 C 696.578125 295.664062 696.1875 294.835938 695.757812 294.027344 C 695.324219 293.21875 694.851562 292.433594 694.34375 291.671875 C 693.835938 290.90625 693.289062 290.171875 692.707031 289.464844 C 692.125 288.753906 691.511719 288.078125 690.863281 287.429688 C 690.214844 286.78125 689.535156 286.164062 688.828125 285.585938 C 688.121094 285.003906 687.382812 284.457031 686.621094 283.949219 C 685.859375 283.4375 685.074219 282.96875 684.265625 282.535156 C 683.457031 282.105469 682.628906 281.710938 681.78125 281.363281 C 680.9375 281.011719 680.074219 280.703125 679.195312 280.4375 C 678.320312 280.171875 677.429688 279.949219 676.53125 279.769531 C 675.632812 279.589844 674.726562 279.457031 673.816406 279.367188 C 672.902344 279.277344 671.988281 279.230469 671.070312 279.230469 Z M 671.070312 279.230469 " fill-opacity="1" fill-rule="nonzero"/><g clip-path="url(#f80fb100ef)"><path fill="#231f20" d="M 573.113281 251.242188 C 572.191406 251.242188 571.28125 251.152344 570.382812 250.972656 C 569.480469 250.792969 568.605469 250.527344 567.757812 250.175781 C 566.90625 249.824219 566.101562 249.394531 565.335938 248.882812 C 564.574219 248.375 563.867188 247.792969 563.214844 247.144531 C 562.566406 246.492188 561.988281 245.789062 561.476562 245.023438 C 560.964844 244.257812 560.535156 243.453125 560.183594 242.605469 C 559.832031 241.753906 559.566406 240.878906 559.386719 239.980469 C 559.207031 239.078125 559.117188 238.167969 559.117188 237.25 L 559.117188 139.289062 C 559.117188 138.371094 559.027344 137.460938 558.847656 136.558594 C 558.667969 135.65625 558.402344 134.78125 558.050781 133.933594 C 557.699219 133.082031 557.269531 132.277344 556.757812 131.511719 C 556.25 130.75 555.667969 130.042969 555.019531 129.394531 C 554.367188 128.742188 553.664062 128.164062 552.898438 127.652344 C 552.132812 127.140625 551.328125 126.710938 550.480469 126.359375 C 549.628906 126.007812 548.753906 125.742188 547.855469 125.5625 C 546.953125 125.382812 546.042969 125.292969 545.125 125.292969 L 265.238281 125.292969 C 264.316406 125.292969 263.40625 125.382812 262.507812 125.5625 C 261.605469 125.742188 260.730469 126.007812 259.882812 126.359375 C 259.03125 126.710938 258.226562 127.140625 257.460938 127.652344 C 256.699219 128.164062 255.992188 128.742188 255.339844 129.394531 C 254.691406 130.042969 254.113281 130.75 253.601562 131.511719 C 253.089844 132.277344 252.660156 133.082031 252.308594 133.933594 C 251.957031 134.78125 251.691406 135.65625 251.511719 136.558594 C 251.332031 137.460938 251.242188 138.371094 251.242188 139.289062 L 251.242188 195.265625 C 251.242188 196.183594 251.152344 197.09375 250.972656 197.996094 C 250.792969 198.898438 250.527344 199.773438 250.175781 200.621094 C 249.824219 201.46875 249.394531 202.277344 248.882812 203.039062 C 248.375 203.804688 247.792969 204.511719 247.144531 205.160156 C 246.492188 205.8125 245.789062 206.390625 245.023438 206.902344 C 244.257812 207.410156 243.453125 207.84375 242.605469 208.195312 C 241.753906 208.546875 240.878906 208.8125 239.980469 208.992188 C 239.078125 209.171875 238.167969 209.257812 237.25 209.257812 C 236.328125 209.257812 235.417969 209.171875 234.519531 208.992188 C 233.617188 208.8125 232.742188 208.546875 231.894531 208.195312 C 231.042969 207.84375 230.238281 207.410156 229.472656 206.902344 C 228.710938 206.390625 228.003906 205.8125 227.351562 205.160156 C 226.703125 204.511719 226.121094 203.804688 225.613281 203.039062 C 225.101562 202.277344 224.671875 201.46875 224.320312 200.621094 C 223.96875 199.773438 223.703125 198.898438 223.523438 197.996094 C 223.34375 197.09375 223.253906 196.183594 223.253906 195.265625 L 223.253906 139.289062 C 223.253906 137.914062 223.320312 136.542969 223.457031 135.171875 C 223.589844 133.804688 223.792969 132.445312 224.0625 131.097656 C 224.328125 129.75 224.664062 128.417969 225.0625 127.101562 C 225.460938 125.785156 225.921875 124.492188 226.449219 123.222656 C 226.976562 121.953125 227.5625 120.710938 228.210938 119.496094 C 228.859375 118.285156 229.566406 117.105469 230.328125 115.964844 C 231.09375 114.820312 231.910156 113.71875 232.785156 112.65625 C 233.65625 111.589844 234.578125 110.574219 235.550781 109.601562 C 236.523438 108.628906 237.539062 107.707031 238.601562 106.835938 C 239.667969 105.960938 240.769531 105.144531 241.914062 104.378906 C 243.054688 103.617188 244.234375 102.910156 245.445312 102.261719 C 246.660156 101.613281 247.902344 101.027344 249.171875 100.5 C 250.441406 99.976562 251.734375 99.511719 253.050781 99.113281 C 254.367188 98.714844 255.699219 98.378906 257.046875 98.113281 C 258.394531 97.84375 259.753906 97.640625 261.121094 97.507812 C 262.492188 97.371094 263.863281 97.304688 265.238281 97.304688 L 545.125 97.304688 C 546.5 97.304688 547.871094 97.371094 549.238281 97.507812 C 550.605469 97.640625 551.964844 97.84375 553.3125 98.113281 C 554.664062 98.378906 555.996094 98.714844 557.308594 99.113281 C 558.625 99.511719 559.917969 99.976562 561.1875 100.5 C 562.460938 101.027344 563.703125 101.613281 564.914062 102.261719 C 566.125 102.910156 567.304688 103.617188 568.449219 104.378906 C 569.589844 105.144531 570.695312 105.960938 571.757812 106.835938 C 572.820312 107.707031 573.835938 108.628906 574.808594 109.601562 C 575.78125 110.574219 576.703125 111.589844 577.578125 112.65625 C 578.449219 113.71875 579.265625 114.820312 580.03125 115.964844 C 580.792969 117.105469 581.5 118.285156 582.148438 119.496094 C 582.796875 120.710938 583.382812 121.953125 583.910156 123.222656 C 584.4375 124.492188 584.898438 125.785156 585.296875 127.101562 C 585.699219 128.417969 586.03125 129.75 586.300781 131.097656 C 586.566406 132.445312 586.769531 133.804688 586.902344 135.171875 C 587.039062 136.542969 587.105469 137.914062 587.105469 139.289062 L 587.105469 237.25 C 587.105469 238.167969 587.015625 239.078125 586.835938 239.980469 C 586.65625 240.878906 586.394531 241.753906 586.039062 242.605469 C 585.6875 243.453125 585.257812 244.257812 584.746094 245.023438 C 584.238281 245.789062 583.65625 246.492188 583.007812 247.144531 C 582.359375 247.792969 581.652344 248.375 580.886719 248.882812 C 580.121094 249.394531 579.316406 249.824219 578.46875 250.175781 C 577.617188 250.527344 576.742188 250.792969 575.84375 250.972656 C 574.941406 251.152344 574.03125 251.242188 573.113281 251.242188 Z M 573.113281 251.242188 " fill-opacity="1" fill-rule="nonzero"/></g><g clip-path="url(#4da4b9cb29)"><path fill="#231f20" d="M 545.125 713.054688 L 265.238281 713.054688 C 263.863281 713.054688 262.492188 712.988281 261.121094 712.851562 C 259.753906 712.71875 258.394531 712.515625 257.046875 712.25 C 255.699219 711.980469 254.367188 711.648438 253.050781 711.246094 C 251.734375 710.847656 250.441406 710.386719 249.171875 709.859375 C 247.902344 709.332031 246.660156 708.746094 245.445312 708.097656 C 244.234375 707.449219 243.054688 706.742188 241.914062 705.980469 C 240.769531 705.214844 239.667969 704.398438 238.601562 703.527344 C 237.539062 702.652344 236.523438 701.730469 235.550781 700.757812 C 234.578125 699.785156 233.65625 698.769531 232.785156 697.707031 C 231.910156 696.644531 231.09375 695.539062 230.328125 694.398438 C 229.566406 693.253906 228.859375 692.074219 228.210938 690.863281 C 227.5625 689.648438 226.976562 688.410156 226.449219 687.136719 C 225.921875 685.867188 225.460938 684.574219 225.0625 683.257812 C 224.664062 681.945312 224.328125 680.613281 224.0625 679.261719 C 223.792969 677.914062 223.589844 676.554688 223.457031 675.1875 C 223.320312 673.820312 223.253906 672.445312 223.253906 671.070312 L 223.253906 573.113281 C 223.253906 572.191406 223.34375 571.28125 223.523438 570.382812 C 223.703125 569.480469 223.96875 568.605469 224.320312 567.757812 C 224.671875 566.90625 225.101562 566.101562 225.613281 565.335938 C 226.121094 564.574219 226.703125 563.867188 227.351562 563.214844 C 228.003906 562.566406 228.710938 561.988281 229.472656 561.476562 C 230.238281 560.964844 231.042969 560.535156 231.894531 560.183594 C 232.742188 559.832031 233.617188 559.566406 234.519531 559.386719 C 235.417969 559.207031 236.328125 559.117188 237.25 559.117188 C 238.167969 559.117188 239.078125 559.207031 239.980469 559.386719 C 240.878906 559.566406 241.753906 559.832031 242.605469 560.183594 C 243.453125 560.535156 244.257812 560.964844 245.023438 561.476562 C 245.789062 561.988281 246.492188 562.566406 247.144531 563.214844 C 247.792969 563.867188 248.375 564.574219 248.882812 565.335938 C 249.394531 566.101562 249.824219 566.90625 250.175781 567.757812 C 250.527344 568.605469 250.792969 569.480469 250.972656 570.382812 C 251.152344 571.28125 251.242188 572.191406 251.242188 573.113281 L 251.242188 671.070312 C 251.242188 671.992188 251.332031 672.902344 251.511719 673.800781 C 251.691406 674.703125 251.957031 675.578125 252.308594 676.425781 C 252.660156 677.277344 253.089844 678.082031 253.601562 678.847656 C 254.113281 679.609375 254.691406 680.316406 255.339844 680.96875 C 255.992188 681.617188 256.699219 682.199219 257.460938 682.707031 C 258.226562 683.21875 259.03125 683.648438 259.882812 684 C 260.730469 684.351562 261.605469 684.617188 262.507812 684.796875 C 263.40625 684.976562 264.316406 685.066406 265.238281 685.066406 L 545.125 685.066406 C 546.042969 685.066406 546.953125 684.976562 547.855469 684.796875 C 548.753906 684.617188 549.628906 684.351562 550.480469 684 C 551.328125 683.648438 552.132812 683.21875 552.898438 682.707031 C 553.664062 682.199219 554.367188 681.617188 555.019531 680.96875 C 555.667969 680.316406 556.25 679.609375 556.757812 678.847656 C 557.269531 678.082031 557.699219 677.277344 558.050781 676.425781 C 558.402344 675.578125 558.667969 674.703125 558.847656 673.800781 C 559.027344 672.902344 559.117188 671.992188 559.117188 671.070312 L 559.117188 615.09375 C 559.117188 614.175781 559.207031 613.265625 559.386719 612.363281 C 559.566406 611.464844 559.832031 610.589844 560.183594 609.738281 C 560.535156 608.890625 560.964844 608.085938 561.476562 607.320312 C 561.988281 606.554688 562.566406 605.847656 563.214844 605.199219 C 563.867188 604.550781 564.574219 603.96875 565.335938 603.460938 C 566.101562 602.949219 566.90625 602.515625 567.757812 602.164062 C 568.605469 601.8125 569.480469 601.546875 570.382812 601.371094 C 571.28125 601.191406 572.191406 601.101562 573.113281 601.101562 C 574.03125 601.101562 574.941406 601.191406 575.84375 601.371094 C 576.742188 601.546875 577.617188 601.8125 578.46875 602.164062 C 579.316406 602.515625 580.121094 602.949219 580.886719 603.460938 C 581.652344 603.96875 582.359375 604.550781 583.007812 605.199219 C 583.65625 605.847656 584.238281 606.554688 584.746094 607.320312 C 585.257812 608.085938 585.6875 608.890625 586.039062 609.738281 C 586.394531 610.589844 586.65625 611.464844 586.835938 612.363281 C 587.015625 613.265625 587.105469 614.175781 587.105469 615.09375 L 587.105469 671.070312 C 587.105469 672.445312 587.039062 673.820312 586.902344 675.1875 C 586.769531 676.554688 586.566406 677.914062 586.300781 679.261719 C 586.03125 680.613281 585.699219 681.945312 585.296875 683.257812 C 584.898438 684.574219 584.4375 685.867188 583.910156 687.136719 C 583.382812 688.410156 582.796875 689.648438 582.148438 690.863281 C 581.5 692.074219 580.792969 693.253906 580.03125 694.398438 C 579.265625 695.539062 578.449219 696.644531 577.578125 697.707031 C 576.703125 698.769531 575.78125 699.785156 574.808594 700.757812 C 573.835938 701.730469 572.820312 702.652344 571.757812 703.527344 C 570.695312 704.398438 569.589844 705.214844 568.449219 705.980469 C 567.304688 706.742188 566.125 707.449219 564.914062 708.097656 C 563.703125 708.746094 562.460938 709.332031 561.1875 709.859375 C 559.917969 710.386719 558.625 710.847656 557.308594 711.246094 C 555.996094 711.648438 554.664062 711.980469 553.3125 712.25 C 551.964844 712.515625 550.605469 712.71875 549.238281 712.851562 C 547.871094 712.988281 546.5 713.054688 545.125 713.054688 Z M 545.125 713.054688 " fill-opacity="1" fill-rule="nonzero"/></g><path fill="#231f20" d="M 461.15625 167.277344 L 349.203125 167.277344 C 348.285156 167.277344 347.375 167.1875 346.472656 167.007812 C 345.570312 166.828125 344.695312 166.5625 343.847656 166.210938 C 343 165.859375 342.191406 165.429688 341.429688 164.917969 C 340.664062 164.40625 339.957031 163.828125 339.308594 163.179688 C 338.65625 162.527344 338.078125 161.820312 337.566406 161.058594 C 337.054688 160.292969 336.625 159.488281 336.273438 158.636719 C 335.921875 157.789062 335.65625 156.914062 335.476562 156.011719 C 335.296875 155.113281 335.207031 154.203125 335.207031 153.28125 C 335.207031 152.363281 335.296875 151.453125 335.476562 150.550781 C 335.65625 149.652344 335.921875 148.777344 336.273438 147.925781 C 336.625 147.078125 337.054688 146.273438 337.566406 145.507812 C 338.078125 144.742188 338.65625 144.035156 339.308594 143.386719 C 339.957031 142.738281 340.664062 142.15625 341.429688 141.648438 C 342.191406 141.136719 343 140.703125 343.847656 140.351562 C 344.695312 140 345.570312 139.738281 346.472656 139.558594 C 347.375 139.378906 348.285156 139.289062 349.203125 139.289062 L 461.15625 139.289062 C 462.078125 139.289062 462.988281 139.378906 463.886719 139.558594 C 464.789062 139.738281 465.664062 140 466.511719 140.351562 C 467.363281 140.703125 468.167969 141.136719 468.933594 141.648438 C 469.695312 142.15625 470.402344 142.738281 471.054688 143.386719 C 471.703125 144.035156 472.28125 144.742188 472.792969 145.507812 C 473.304688 146.273438 473.734375 147.078125 474.085938 147.925781 C 474.4375 148.777344 474.703125 149.652344 474.882812 150.550781 C 475.0625 151.453125 475.152344 152.363281 475.152344 153.28125 C 475.152344 154.203125 475.0625 155.113281 474.882812 156.011719 C 474.703125 156.914062 474.4375 157.789062 474.085938 158.636719 C 473.734375 159.488281 473.304688 160.292969 472.792969 161.058594 C 472.28125 161.820312 471.703125 162.527344 471.054688 163.179688 C 470.402344 163.828125 469.695312 164.40625 468.933594 164.917969 C 468.167969 165.429688 467.363281 165.859375 466.511719 166.210938 C 465.664062 166.5625 464.789062 166.828125 463.886719 167.007812 C 462.988281 167.1875 462.078125 167.277344 461.15625 167.277344 Z M 461.15625 167.277344 " fill-opacity="1" fill-rule="nonzero"/><path fill="#231f20" d="M 573.113281 209.257812 L 237.25 209.257812 C 236.328125 209.257812 235.417969 209.171875 234.519531 208.992188 C 233.617188 208.8125 232.742188 208.546875 231.894531 208.195312 C 231.042969 207.84375 230.238281 207.410156 229.472656 206.902344 C 228.710938 206.390625 228.003906 205.8125 227.351562 205.160156 C 226.703125 204.511719 226.121094 203.804688 225.613281 203.039062 C 225.101562 202.277344 224.671875 201.46875 224.320312 200.621094 C 223.96875 199.773438 223.703125 198.898438 223.523438 197.996094 C 223.34375 197.09375 223.253906 196.183594 223.253906 195.265625 C 223.253906 194.347656 223.34375 193.4375 223.523438 192.535156 C 223.703125 191.632812 223.96875 190.757812 224.320312 189.910156 C 224.671875 189.0625 225.101562 188.253906 225.613281 187.492188 C 226.121094 186.726562 226.703125 186.019531 227.351562 185.371094 C 228.003906 184.71875 228.710938 184.140625 229.472656 183.628906 C 230.238281 183.117188 231.042969 182.6875 231.894531 182.335938 C 232.742188 181.984375 233.617188 181.71875 234.519531 181.539062 C 235.417969 181.359375 236.328125 181.269531 237.25 181.269531 L 573.113281 181.269531 C 574.03125 181.269531 574.941406 181.359375 575.84375 181.539062 C 576.742188 181.71875 577.617188 181.984375 578.46875 182.335938 C 579.316406 182.6875 580.121094 183.117188 580.886719 183.628906 C 581.652344 184.140625 582.359375 184.71875 583.007812 185.371094 C 583.65625 186.019531 584.238281 186.726562 584.746094 187.492188 C 585.257812 188.253906 585.6875 189.0625 586.039062 189.910156 C 586.394531 190.757812 586.65625 191.632812 586.835938 192.535156 C 587.015625 193.4375 587.105469 194.347656 587.105469 195.265625 C 587.105469 196.183594 587.015625 197.09375 586.835938 197.996094 C 586.65625 198.898438 586.394531 199.773438 586.039062 200.621094 C 585.6875 201.46875 585.257812 202.277344 584.746094 203.039062 C 584.238281 203.804688 583.65625 204.511719 583.007812 205.160156 C 582.359375 205.8125 581.652344 206.390625 580.886719 206.902344 C 580.121094 207.410156 579.316406 207.84375 578.46875 208.195312 C 577.617188 208.546875 576.742188 208.8125 575.84375 208.992188 C 574.941406 209.171875 574.03125 209.257812 573.113281 209.257812 Z M 573.113281 209.257812 " fill-opacity="1" fill-rule="nonzero"/><path fill="#231f20" d="M 573.113281 629.089844 L 237.25 629.089844 C 236.328125 629.089844 235.417969 629 234.519531 628.820312 C 233.617188 628.640625 232.742188 628.375 231.894531 628.023438 C 231.042969 627.671875 230.238281 627.242188 229.472656 626.730469 C 228.710938 626.21875 228.003906 625.640625 227.351562 624.992188 C 226.703125 624.339844 226.121094 623.632812 225.613281 622.871094 C 225.101562 622.105469 224.671875 621.300781 224.320312 620.449219 C 223.96875 619.601562 223.703125 618.726562 223.523438 617.824219 C 223.34375 616.925781 223.253906 616.015625 223.253906 615.09375 C 223.253906 614.175781 223.34375 613.265625 223.523438 612.363281 C 223.703125 611.464844 223.96875 610.589844 224.320312 609.738281 C 224.671875 608.890625 225.101562 608.085938 225.613281 607.320312 C 226.121094 606.554688 226.703125 605.847656 227.351562 605.199219 C 228.003906 604.550781 228.710938 603.96875 229.472656 603.460938 C 230.238281 602.949219 231.042969 602.515625 231.894531 602.164062 C 232.742188 601.8125 233.617188 601.546875 234.519531 601.371094 C 235.417969 601.191406 236.328125 601.101562 237.25 601.101562 L 573.113281 601.101562 C 574.03125 601.101562 574.941406 601.191406 575.84375 601.371094 C 576.742188 601.546875 577.617188 601.8125 578.46875 602.164062 C 579.316406 602.515625 580.121094 602.949219 580.886719 603.460938 C 581.652344 603.96875 582.359375 604.550781 583.007812 605.199219 C 583.65625 605.847656 584.238281 606.554688 584.746094 607.320312 C 585.257812 608.085938 585.6875 608.890625 586.039062 609.738281 C 586.394531 610.589844 586.65625 611.464844 586.835938 612.363281 C 587.015625 613.265625 587.105469 614.175781 587.105469 615.09375 C 587.105469 616.015625 587.015625 616.925781 586.835938 617.824219 C 586.65625 618.726562 586.394531 619.601562 586.039062 620.449219 C 585.6875 621.300781 585.257812 622.105469 584.746094 622.871094 C 584.238281 623.632812 583.65625 624.339844 583.007812 624.992188 C 582.359375 625.640625 581.652344 626.21875 580.886719 626.730469 C 580.121094 627.242188 579.316406 627.671875 578.46875 628.023438 C 577.617188 628.375 576.742188 628.640625 575.84375 628.820312 C 574.941406 629 574.03125 629.089844 573.113281 629.089844 Z M 573.113281 629.089844 " fill-opacity="1" fill-rule="nonzero"/><g clip-path="url(#b88f8563ee)"><path fill="#231f20" d="M 263.699219 545.125 C 261.699219 545.136719 259.785156 544.742188 257.953125 543.9375 C 256.125 543.132812 254.542969 541.988281 253.203125 540.503906 L 207.300781 489.144531 L 139.289062 489.144531 C 137.914062 489.144531 136.542969 489.078125 135.171875 488.945312 C 133.804688 488.808594 132.445312 488.609375 131.097656 488.339844 C 129.75 488.070312 128.417969 487.738281 127.101562 487.339844 C 125.785156 486.9375 124.492188 486.476562 123.222656 485.949219 C 121.953125 485.425781 120.710938 484.835938 119.496094 484.1875 C 118.285156 483.539062 117.105469 482.835938 115.964844 482.070312 C 114.820312 481.308594 113.71875 480.488281 112.65625 479.617188 C 111.589844 478.742188 110.574219 477.820312 109.601562 476.847656 C 108.628906 475.878906 107.707031 474.859375 106.835938 473.796875 C 105.960938 472.734375 105.144531 471.632812 104.378906 470.488281 C 103.617188 469.34375 102.910156 468.167969 102.261719 466.953125 C 101.613281 465.742188 101.027344 464.5 100.5 463.230469 C 99.976562 461.957031 99.511719 460.664062 99.113281 459.351562 C 98.714844 458.035156 98.378906 456.703125 98.113281 455.355469 C 97.84375 454.003906 97.640625 452.648438 97.507812 451.277344 C 97.371094 449.910156 97.304688 448.539062 97.304688 447.164062 L 97.304688 265.238281 C 97.304688 263.863281 97.371094 262.492188 97.507812 261.121094 C 97.640625 259.753906 97.84375 258.394531 98.113281 257.046875 C 98.378906 255.699219 98.714844 254.367188 99.113281 253.050781 C 99.511719 251.734375 99.976562 250.441406 100.5 249.171875 C 101.027344 247.902344 101.613281 246.660156 102.261719 245.445312 C 102.910156 244.234375 103.617188 243.054688 104.378906 241.914062 C 105.144531 240.769531 105.960938 239.667969 106.835938 238.601562 C 107.707031 237.539062 108.628906 236.523438 109.601562 235.550781 C 110.574219 234.578125 111.589844 233.65625 112.65625 232.785156 C 113.71875 231.910156 114.820312 231.09375 115.964844 230.328125 C 117.105469 229.566406 118.285156 228.859375 119.496094 228.210938 C 120.710938 227.5625 121.953125 226.976562 123.222656 226.449219 C 124.492188 225.921875 125.785156 225.460938 127.101562 225.0625 C 128.417969 224.664062 129.75 224.328125 131.097656 224.0625 C 132.445312 223.792969 133.804688 223.589844 135.171875 223.457031 C 136.542969 223.320312 137.914062 223.253906 139.289062 223.253906 L 391.1875 223.253906 C 392.105469 223.253906 393.015625 223.34375 393.914062 223.523438 C 394.816406 223.703125 395.691406 223.96875 396.542969 224.320312 C 397.390625 224.671875 398.195312 225.101562 398.960938 225.613281 C 399.726562 226.121094 400.429688 226.703125 401.082031 227.351562 C 401.730469 228.003906 402.3125 228.710938 402.820312 229.472656 C 403.332031 230.238281 403.761719 231.042969 404.113281 231.894531 C 404.464844 232.742188 404.730469 233.617188 404.910156 234.519531 C 405.089844 235.417969 405.179688 236.328125 405.179688 237.25 C 405.179688 238.167969 405.089844 239.078125 404.910156 239.980469 C 404.730469 240.878906 404.464844 241.753906 404.113281 242.605469 C 403.761719 243.453125 403.332031 244.257812 402.820312 245.023438 C 402.3125 245.789062 401.730469 246.492188 401.082031 247.144531 C 400.429688 247.792969 399.726562 248.375 398.960938 248.882812 C 398.195312 249.394531 397.390625 249.824219 396.542969 250.175781 C 395.691406 250.527344 394.816406 250.792969 393.914062 250.972656 C 393.015625 251.152344 392.105469 251.242188 391.1875 251.242188 L 139.289062 251.242188 C 138.371094 251.242188 137.460938 251.332031 136.558594 251.511719 C 135.65625 251.691406 134.78125 251.957031 133.933594 252.308594 C 133.082031 252.660156 132.277344 253.089844 131.511719 253.601562 C 130.75 254.113281 130.042969 254.691406 129.394531 255.339844 C 128.742188 255.992188 128.164062 256.699219 127.652344 257.460938 C 127.140625 258.226562 126.710938 259.03125 126.359375 259.882812 C 126.007812 260.730469 125.742188 261.605469 125.5625 262.507812 C 125.382812 263.40625 125.292969 264.316406 125.292969 265.238281 L 125.292969 447.164062 C 125.292969 448.082031 125.382812 448.992188 125.5625 449.894531 C 125.742188 450.792969 126.007812 451.667969 126.359375 452.519531 C 126.710938 453.367188 127.140625 454.175781 127.652344 454.9375 C 128.164062 455.703125 128.742188 456.410156 129.394531 457.058594 C 130.042969 457.707031 130.75 458.289062 131.511719 458.800781 C 132.277344 459.308594 133.082031 459.742188 133.933594 460.09375 C 134.78125 460.445312 135.65625 460.710938 136.558594 460.886719 C 137.460938 461.066406 138.371094 461.15625 139.289062 461.15625 L 213.597656 461.15625 C 215.574219 461.164062 217.460938 461.566406 219.265625 462.371094 C 221.066406 463.175781 222.632812 464.308594 223.953125 465.777344 L 263.699219 510.136719 L 303.160156 465.777344 C 304.5 464.292969 306.085938 463.148438 307.914062 462.34375 C 309.746094 461.539062 311.660156 461.140625 313.65625 461.15625 L 349.203125 461.15625 C 350.121094 461.15625 351.03125 461.246094 351.933594 461.425781 C 352.835938 461.605469 353.710938 461.871094 354.558594 462.222656 C 355.40625 462.574219 356.214844 463.003906 356.976562 463.515625 C 357.742188 464.027344 358.449219 464.605469 359.097656 465.257812 C 359.75 465.90625 360.328125 466.613281 360.839844 467.375 C 361.347656 468.140625 361.78125 468.949219 362.132812 469.796875 C 362.484375 470.644531 362.75 471.519531 362.929688 472.421875 C 363.109375 473.324219 363.195312 474.234375 363.195312 475.152344 C 363.195312 476.070312 363.109375 476.980469 362.929688 477.882812 C 362.75 478.78125 362.484375 479.65625 362.132812 480.507812 C 361.78125 481.355469 361.347656 482.164062 360.839844 482.925781 C 360.328125 483.691406 359.75 484.398438 359.097656 485.046875 C 358.449219 485.695312 357.742188 486.277344 356.976562 486.789062 C 356.214844 487.296875 355.40625 487.730469 354.558594 488.082031 C 353.710938 488.433594 352.835938 488.699219 351.933594 488.878906 C 351.03125 489.054688 350.121094 489.144531 349.203125 489.144531 L 319.953125 489.144531 L 274.195312 540.503906 C 272.855469 541.988281 271.269531 543.132812 269.441406 543.9375 C 267.609375 544.742188 265.695312 545.136719 263.699219 545.125 Z M 263.699219 545.125 " fill-opacity="1" fill-rule="nonzero"/></g><path fill="#231f20" d="M 335.207031 335.207031 L 167.277344 335.207031 C 166.359375 335.207031 165.449219 335.117188 164.546875 334.941406 C 163.644531 334.761719 162.769531 334.496094 161.921875 334.144531 C 161.074219 333.792969 160.265625 333.359375 159.503906 332.851562 C 158.738281 332.339844 158.03125 331.757812 157.382812 331.109375 C 156.730469 330.460938 156.152344 329.753906 155.640625 328.988281 C 155.128906 328.226562 154.699219 327.417969 154.347656 326.570312 C 153.996094 325.722656 153.730469 324.84375 153.550781 323.945312 C 153.371094 323.042969 153.28125 322.132812 153.28125 321.214844 C 153.28125 320.296875 153.371094 319.386719 153.550781 318.484375 C 153.730469 317.582031 153.996094 316.707031 154.347656 315.859375 C 154.699219 315.011719 155.128906 314.203125 155.640625 313.4375 C 156.152344 312.675781 156.730469 311.96875 157.382812 311.320312 C 158.03125 310.667969 158.738281 310.089844 159.503906 309.578125 C 160.265625 309.066406 161.074219 308.636719 161.921875 308.285156 C 162.769531 307.933594 163.644531 307.667969 164.546875 307.488281 C 165.449219 307.308594 166.359375 307.21875 167.277344 307.21875 L 335.207031 307.21875 C 336.128906 307.21875 337.039062 307.308594 337.9375 307.488281 C 338.839844 307.667969 339.714844 307.933594 340.5625 308.285156 C 341.414062 308.636719 342.21875 309.066406 342.984375 309.578125 C 343.746094 310.089844 344.453125 310.667969 345.105469 311.320312 C 345.753906 311.96875 346.332031 312.675781 346.84375 313.4375 C 347.355469 314.203125 347.785156 315.011719 348.136719 315.859375 C 348.488281 316.707031 348.753906 317.582031 348.933594 318.484375 C 349.113281 319.386719 349.203125 320.296875 349.203125 321.214844 C 349.203125 322.132812 349.113281 323.042969 348.933594 323.945312 C 348.753906 324.84375 348.488281 325.722656 348.136719 326.570312 C 347.785156 327.417969 347.355469 328.226562 346.84375 328.988281 C 346.332031 329.753906 345.753906 330.460938 345.105469 331.109375 C 344.453125 331.757812 343.746094 332.339844 342.984375 332.851562 C 342.21875 333.359375 341.414062 333.792969 340.5625 334.144531 C 339.714844 334.496094 338.839844 334.761719 337.9375 334.941406 C 337.039062 335.117188 336.128906 335.207031 335.207031 335.207031 Z M 335.207031 335.207031 " fill-opacity="1" fill-rule="nonzero"/><path fill="#231f20" d="M 279.230469 405.179688 L 167.277344 405.179688 C 166.359375 405.179688 165.449219 405.089844 164.546875 404.910156 C 163.644531 404.730469 162.769531 404.464844 161.921875 404.113281 C 161.074219 403.761719 160.265625 403.332031 159.503906 402.820312 C 158.738281 402.3125 158.03125 401.730469 157.382812 401.082031 C 156.730469 400.429688 156.152344 399.726562 155.640625 398.960938 C 155.128906 398.195312 154.699219 397.390625 154.347656 396.542969 C 153.996094 395.691406 153.730469 394.816406 153.550781 393.914062 C 153.371094 393.015625 153.28125 392.105469 153.28125 391.1875 C 153.28125 390.265625 153.371094 389.355469 153.550781 388.457031 C 153.730469 387.554688 153.996094 386.679688 154.347656 385.832031 C 154.699219 384.980469 155.128906 384.175781 155.640625 383.410156 C 156.152344 382.648438 156.730469 381.941406 157.382812 381.289062 C 158.03125 380.640625 158.738281 380.058594 159.503906 379.550781 C 160.265625 379.039062 161.074219 378.609375 161.921875 378.257812 C 162.769531 377.90625 163.644531 377.640625 164.546875 377.460938 C 165.449219 377.28125 166.359375 377.191406 167.277344 377.191406 L 279.230469 377.191406 C 280.148438 377.191406 281.058594 377.28125 281.960938 377.460938 C 282.863281 377.640625 283.738281 377.90625 284.585938 378.257812 C 285.4375 378.609375 286.242188 379.039062 287.007812 379.550781 C 287.769531 380.058594 288.476562 380.640625 289.125 381.289062 C 289.777344 381.941406 290.355469 382.648438 290.867188 383.410156 C 291.378906 384.175781 291.808594 384.980469 292.160156 385.832031 C 292.511719 386.679688 292.777344 387.554688 292.957031 388.457031 C 293.136719 389.355469 293.226562 390.265625 293.226562 391.1875 C 293.226562 392.105469 293.136719 393.015625 292.957031 393.917969 C 292.777344 394.816406 292.511719 395.691406 292.160156 396.542969 C 291.808594 397.390625 291.378906 398.195312 290.867188 398.960938 C 290.355469 399.726562 289.777344 400.429688 289.125 401.082031 C 288.476562 401.730469 287.769531 402.3125 287.007812 402.820312 C 286.242188 403.332031 285.4375 403.761719 284.585938 404.113281 C 283.738281 404.464844 282.863281 404.730469 281.960938 404.910156 C 281.058594 405.089844 280.148438 405.179688 279.230469 405.179688 Z M 279.230469 405.179688 " fill-opacity="1" fill-rule="nonzero"/><g clip-path="url(#cf67f0cb83)"><path fill="#231f20" d="M 543.582031 587.105469 C 541.585938 587.121094 539.671875 586.726562 537.839844 585.921875 C 536.011719 585.117188 534.425781 583.972656 533.089844 582.488281 L 487.328125 531.128906 L 419.175781 531.128906 C 417.800781 531.128906 416.429688 531.0625 415.058594 530.925781 C 413.691406 530.792969 412.332031 530.589844 410.984375 530.324219 C 409.636719 530.054688 408.304688 529.71875 406.988281 529.320312 C 405.671875 528.921875 404.378906 528.460938 403.109375 527.933594 C 401.839844 527.40625 400.597656 526.820312 399.382812 526.171875 C 398.171875 525.523438 396.992188 524.816406 395.851562 524.054688 C 394.707031 523.289062 393.605469 522.472656 392.539062 521.597656 C 391.476562 520.726562 390.460938 519.804688 389.488281 518.832031 C 388.515625 517.859375 387.59375 516.84375 386.722656 515.78125 C 385.847656 514.71875 385.03125 513.613281 384.265625 512.46875 C 383.503906 511.328125 382.796875 510.148438 382.148438 508.9375 C 381.5 507.722656 380.914062 506.484375 380.386719 505.210938 C 379.859375 503.941406 379.398438 502.648438 379 501.332031 C 378.601562 500.015625 378.265625 498.683594 378 497.335938 C 377.730469 495.988281 377.527344 494.628906 377.394531 493.261719 C 377.257812 491.894531 377.191406 490.519531 377.191406 489.144531 L 377.191406 307.21875 C 377.191406 305.84375 377.257812 304.472656 377.394531 303.105469 C 377.527344 301.738281 377.730469 300.378906 378 299.03125 C 378.265625 297.679688 378.601562 296.347656 379 295.03125 C 379.398438 293.71875 379.859375 292.425781 380.386719 291.152344 C 380.914062 289.882812 381.5 288.640625 382.148438 287.429688 C 382.796875 286.214844 383.503906 285.039062 384.265625 283.894531 C 385.03125 282.753906 385.847656 281.648438 386.722656 280.585938 C 387.59375 279.523438 388.515625 278.503906 389.488281 277.535156 C 390.460938 276.5625 391.476562 275.640625 392.539062 274.765625 C 393.605469 273.894531 394.707031 273.078125 395.851562 272.3125 C 396.992188 271.546875 398.171875 270.84375 399.382812 270.195312 C 400.597656 269.546875 401.839844 268.960938 403.109375 268.433594 C 404.378906 267.90625 405.671875 267.445312 406.988281 267.042969 C 408.304688 266.644531 409.636719 266.3125 410.984375 266.042969 C 412.332031 265.777344 413.691406 265.574219 415.058594 265.4375 C 416.429688 265.304688 417.800781 265.238281 419.175781 265.238281 L 671.070312 265.238281 C 672.445312 265.238281 673.820312 265.304688 675.1875 265.4375 C 676.554688 265.574219 677.914062 265.777344 679.261719 266.042969 C 680.609375 266.3125 681.945312 266.644531 683.257812 267.042969 C 684.574219 267.445312 685.867188 267.90625 687.136719 268.433594 C 688.410156 268.957031 689.648438 269.546875 690.863281 270.195312 C 692.074219 270.84375 693.253906 271.546875 694.398438 272.3125 C 695.539062 273.078125 696.644531 273.894531 697.707031 274.765625 C 698.769531 275.640625 699.785156 276.5625 700.757812 277.535156 C 701.730469 278.503906 702.652344 279.523438 703.527344 280.585938 C 704.398438 281.648438 705.214844 282.753906 705.980469 283.894531 C 706.742188 285.039062 707.449219 286.214844 708.097656 287.429688 C 708.746094 288.640625 709.332031 289.882812 709.859375 291.152344 C 710.386719 292.425781 710.847656 293.71875 711.246094 295.03125 C 711.648438 296.347656 711.980469 297.679688 712.25 299.03125 C 712.515625 300.378906 712.71875 301.738281 712.851562 303.105469 C 712.988281 304.472656 713.054688 305.84375 713.054688 307.21875 L 713.054688 489.144531 C 713.054688 490.519531 712.988281 491.894531 712.851562 493.261719 C 712.71875 494.628906 712.515625 495.988281 712.25 497.335938 C 711.980469 498.683594 711.648438 500.015625 711.246094 501.332031 C 710.847656 502.648438 710.386719 503.941406 709.859375 505.210938 C 709.332031 506.484375 708.746094 507.722656 708.097656 508.9375 C 707.449219 510.148438 706.742188 511.328125 705.980469 512.46875 C 705.214844 513.613281 704.398438 514.71875 703.527344 515.78125 C 702.652344 516.84375 701.730469 517.859375 700.757812 518.832031 C 699.785156 519.804688 698.769531 520.726562 697.707031 521.597656 C 696.644531 522.472656 695.539062 523.289062 694.398438 524.054688 C 693.253906 524.816406 692.074219 525.523438 690.863281 526.171875 C 689.648438 526.820312 688.410156 527.40625 687.136719 527.933594 C 685.867188 528.460938 684.574219 528.921875 683.257812 529.320312 C 681.945312 529.71875 680.609375 530.054688 679.261719 530.324219 C 677.914062 530.589844 676.554688 530.792969 675.1875 530.925781 C 673.820312 531.0625 672.445312 531.128906 671.070312 531.128906 L 599.839844 531.128906 L 553.941406 582.488281 C 552.617188 583.953125 551.054688 585.089844 549.25 585.894531 C 547.449219 586.695312 545.558594 587.101562 543.582031 587.105469 Z M 419.175781 293.226562 C 418.253906 293.226562 417.34375 293.316406 416.445312 293.496094 C 415.542969 293.671875 414.667969 293.9375 413.820312 294.289062 C 412.96875 294.640625 412.164062 295.074219 411.398438 295.585938 C 410.636719 296.09375 409.929688 296.675781 409.277344 297.324219 C 408.628906 297.972656 408.050781 298.679688 407.539062 299.445312 C 407.027344 300.210938 406.597656 301.015625 406.246094 301.863281 C 405.894531 302.714844 405.628906 303.589844 405.449219 304.488281 C 405.269531 305.390625 405.179688 306.300781 405.179688 307.21875 L 405.179688 489.144531 C 405.179688 490.066406 405.269531 490.976562 405.449219 491.875 C 405.628906 492.777344 405.894531 493.652344 406.246094 494.5 C 406.597656 495.351562 407.027344 496.15625 407.539062 496.921875 C 408.050781 497.683594 408.628906 498.390625 409.277344 499.042969 C 409.929688 499.691406 410.636719 500.269531 411.398438 500.78125 C 412.164062 501.292969 412.96875 501.722656 413.820312 502.074219 C 414.667969 502.425781 415.542969 502.691406 416.445312 502.871094 C 417.34375 503.050781 418.253906 503.140625 419.175781 503.140625 L 493.484375 503.140625 C 495.484375 503.125 497.398438 503.519531 499.226562 504.324219 C 501.054688 505.128906 502.640625 506.273438 503.980469 507.757812 L 543.582031 552.121094 L 583.046875 507.757812 C 584.386719 506.273438 585.972656 505.128906 587.800781 504.324219 C 589.628906 503.519531 591.542969 503.125 593.542969 503.140625 L 671.070312 503.140625 C 671.992188 503.140625 672.902344 503.050781 673.800781 502.871094 C 674.703125 502.691406 675.578125 502.425781 676.425781 502.074219 C 677.277344 501.722656 678.082031 501.292969 678.847656 500.78125 C 679.609375 500.269531 680.316406 499.691406 680.96875 499.042969 C 681.617188 498.390625 682.199219 497.683594 682.707031 496.921875 C 683.21875 496.15625 683.648438 495.351562 684 494.5 C 684.351562 493.652344 684.617188 492.777344 684.796875 491.875 C 684.976562 490.976562 685.066406 490.066406 685.066406 489.144531 L 685.066406 307.21875 C 685.066406 306.300781 684.976562 305.390625 684.796875 304.488281 C 684.617188 303.589844 684.351562 302.714844 684 301.863281 C 683.648438 301.015625 683.21875 300.210938 682.707031 299.445312 C 682.199219 298.679688 681.617188 297.972656 680.96875 297.324219 C 680.316406 296.675781 679.609375 296.09375 678.847656 295.585938 C 678.082031 295.074219 677.277344 294.640625 676.425781 294.289062 C 675.578125 293.9375 674.703125 293.671875 673.800781 293.496094 C 672.902344 293.316406 671.992188 293.226562 671.070312 293.226562 Z M 419.175781 293.226562 " fill-opacity="1" fill-rule="nonzero"/></g><path fill="#231f20" d="M 615.09375 377.191406 L 447.164062 377.191406 C 446.246094 377.191406 445.335938 377.101562 444.433594 376.921875 C 443.53125 376.742188 442.65625 376.476562 441.808594 376.125 C 440.957031 375.773438 440.152344 375.34375 439.386719 374.832031 C 438.625 374.324219 437.917969 373.742188 437.269531 373.09375 C 436.617188 372.441406 436.039062 371.734375 435.527344 370.972656 C 435.015625 370.207031 434.585938 369.402344 434.234375 368.550781 C 433.882812 367.703125 433.617188 366.828125 433.4375 365.925781 C 433.257812 365.027344 433.167969 364.117188 433.167969 363.195312 C 433.167969 362.277344 433.257812 361.367188 433.4375 360.46875 C 433.617188 359.566406 433.882812 358.691406 434.234375 357.84375 C 434.585938 356.992188 435.015625 356.1875 435.527344 355.421875 C 436.039062 354.660156 436.617188 353.953125 437.269531 353.300781 C 437.917969 352.652344 438.625 352.070312 439.386719 351.5625 C 440.152344 351.050781 440.957031 350.621094 441.808594 350.269531 C 442.65625 349.917969 443.53125 349.652344 444.433594 349.472656 C 445.335938 349.292969 446.246094 349.203125 447.164062 349.203125 L 615.09375 349.203125 C 616.015625 349.203125 616.925781 349.292969 617.824219 349.472656 C 618.726562 349.652344 619.601562 349.917969 620.449219 350.269531 C 621.300781 350.621094 622.105469 351.050781 622.871094 351.5625 C 623.632812 352.070312 624.339844 352.652344 624.992188 353.300781 C 625.640625 353.953125 626.21875 354.660156 626.730469 355.421875 C 627.242188 356.1875 627.671875 356.992188 628.023438 357.84375 C 628.375 358.691406 628.640625 359.566406 628.820312 360.46875 C 629 361.367188 629.089844 362.277344 629.089844 363.195312 C 629.089844 364.117188 629 365.027344 628.820312 365.925781 C 628.640625 366.828125 628.375 367.703125 628.023438 368.550781 C 627.671875 369.402344 627.242188 370.207031 626.730469 370.972656 C 626.21875 371.734375 625.640625 372.441406 624.992188 373.09375 C 624.339844 373.742188 623.632812 374.324219 622.871094 374.832031 C 622.105469 375.34375 621.300781 375.773438 620.449219 376.125 C 619.601562 376.476562 618.726562 376.742188 617.824219 376.921875 C 616.925781 377.101562 616.015625 377.191406 615.09375 377.191406 Z M 615.09375 377.191406 " fill-opacity="1" fill-rule="nonzero"/><path fill="#231f20" d="M 559.117188 447.164062 L 447.164062 447.164062 C 446.246094 447.164062 445.335938 447.074219 444.433594 446.894531 C 443.53125 446.714844 442.65625 446.449219 441.808594 446.097656 C 440.957031 445.746094 440.152344 445.316406 439.386719 444.804688 C 438.625 444.292969 437.917969 443.714844 437.269531 443.0625 C 436.617188 442.414062 436.039062 441.707031 435.527344 440.945312 C 435.015625 440.179688 434.585938 439.375 434.234375 438.523438 C 433.882812 437.675781 433.617188 436.800781 433.4375 435.898438 C 433.257812 434.996094 433.167969 434.085938 433.167969 433.167969 C 433.167969 432.25 433.257812 431.339844 433.4375 430.4375 C 433.617188 429.539062 433.882812 428.664062 434.234375 427.8125 C 434.585938 426.964844 435.015625 426.15625 435.527344 425.394531 C 436.039062 424.628906 436.617188 423.921875 437.269531 423.273438 C 437.917969 422.625 438.625 422.042969 439.386719 421.53125 C 440.152344 421.023438 440.957031 420.589844 441.808594 420.238281 C 442.65625 419.886719 443.53125 419.621094 444.433594 419.445312 C 445.335938 419.265625 446.246094 419.175781 447.164062 419.175781 L 559.117188 419.175781 C 560.035156 419.175781 560.945312 419.265625 561.847656 419.445312 C 562.75 419.621094 563.625 419.886719 564.472656 420.238281 C 565.320312 420.589844 566.128906 421.023438 566.890625 421.53125 C 567.65625 422.042969 568.363281 422.625 569.011719 423.273438 C 569.664062 423.921875 570.242188 424.628906 570.753906 425.394531 C 571.265625 426.15625 571.695312 426.964844 572.046875 427.8125 C 572.398438 428.664062 572.664062 429.539062 572.84375 430.4375 C 573.023438 431.339844 573.113281 432.25 573.113281 433.167969 C 573.113281 434.085938 573.023438 434.996094 572.84375 435.898438 C 572.664062 436.800781 572.398438 437.675781 572.046875 438.523438 C 571.695312 439.375 571.265625 440.179688 570.753906 440.945312 C 570.242188 441.707031 569.664062 442.414062 569.011719 443.0625 C 568.363281 443.714844 567.65625 444.292969 566.890625 444.804688 C 566.128906 445.316406 565.320312 445.746094 564.472656 446.097656 C 563.625 446.449219 562.75 446.714844 561.847656 446.894531 C 560.945312 447.074219 560.035156 447.164062 559.117188 447.164062 Z M 559.117188 447.164062 " fill-opacity="1" fill-rule="nonzero"/></svg>