<svg xmlns="http://www.w3.org/2000/svg" xmlns:xlink="http://www.w3.org/1999/xlink" width="1080" zoomAndPan="magnify" viewBox="0 0 810 809.999993" height="1080" preserveAspectRatio="xMidYMid meet" version="1.0"><defs><clipPath id="683a25ffc7"><path d="M 70 81 L 740 81 L 740 727 L 70 727 Z M 70 81 " clip-rule="nonzero"/></clipPath></defs><path fill="#ffd6bd" d="M 393.691406 342.484375 C 524.160156 504.570312 589.398438 585.613281 589.398438 585.613281 C 602.671875 598.894531 602.671875 620.617188 589.394531 633.898438 C 576.121094 647.179688 554.402344 647.179688 541.128906 633.898438 C 554.402344 647.179688 554.402344 668.90625 541.128906 682.183594 C 527.855469 695.464844 506.132812 695.464844 492.859375 682.1875 L 466.53125 655.847656 C 479.808594 669.125 479.804688 690.851562 466.53125 704.132812 C 453.257812 717.410156 431.539062 717.410156 418.265625 704.132812 L 371.804688 657.65625 C 385.078125 670.933594 385.078125 692.660156 371.800781 705.941406 C 358.53125 719.21875 336.808594 719.214844 323.535156 705.941406 L 133.148438 515.492188 C 133.148438 515.492188 146.019531 457.824219 171.757812 342.484375 Z M 393.691406 342.484375 " fill-opacity="1" fill-rule="evenodd"/><path fill="#f9c6aa" d="M 393.691406 342.484375 L 420.585938 375.890625 L 164.300781 375.890625 L 171.757812 342.484375 Z M 393.691406 342.484375 " fill-opacity="1" fill-rule="evenodd"/><path fill="#f9c6aa" d="M 429.730469 542.015625 C 424.332031 536.617188 424.332031 527.859375 429.730469 522.460938 C 435.125 517.0625 443.878906 517.0625 449.273438 522.460938 L 543.296875 616.519531 C 548.695312 621.921875 548.695312 630.675781 543.296875 636.074219 C 537.902344 641.472656 529.148438 641.472656 523.753906 636.074219 Z M 321.679688 627.070312 C 316.28125 621.671875 316.28125 612.914062 321.679688 607.515625 C 327.078125 602.117188 335.828125 602.117188 341.226562 607.515625 L 374.203125 640.507812 C 379.601562 645.90625 379.601562 654.664062 374.203125 660.0625 C 368.804688 665.460938 360.054688 665.460938 354.65625 660.0625 Z M 375.703125 584.542969 L 449.15625 658.023438 C 454.554688 663.421875 463.304688 663.421875 468.703125 658.023438 C 474.101562 652.621094 474.101562 643.867188 468.703125 638.46875 L 395.25 564.988281 C 389.851562 559.589844 381.097656 559.589844 375.703125 564.988281 C 370.304688 570.386719 370.304688 579.144531 375.703125 584.542969 Z M 375.703125 584.542969 " fill-opacity="1" fill-rule="evenodd"/><path fill="#64b5f6" d="M 200.910156 323.917969 L 141.175781 312.011719 C 134.761719 310.734375 128.46875 314.9375 127.191406 321.351562 L 80.773438 554.449219 C 79.496094 560.863281 83.695312 567.160156 90.109375 568.4375 L 149.847656 580.339844 C 156.261719 581.621094 162.550781 577.417969 163.828125 571 L 210.25 337.902344 C 211.527344 331.488281 207.324219 325.195312 200.910156 323.917969 Z M 200.910156 323.917969 " fill-opacity="1" fill-rule="evenodd"/><path fill="#42a5f5" d="M 200.914062 323.917969 L 193.3125 322.402344 L 147.722656 551.316406 C 146.445312 557.734375 140.15625 561.9375 133.742188 560.65625 L 81.605469 550.269531 L 80.773438 554.453125 C 79.496094 560.867188 83.695312 567.160156 90.109375 568.4375 L 149.847656 580.34375 C 156.257812 581.621094 162.550781 577.417969 163.828125 571.003906 L 210.246094 337.90625 C 211.527344 331.488281 207.324219 325.195312 200.914062 323.917969 Z M 200.914062 323.917969 " fill-opacity="1" fill-rule="evenodd"/><path fill="#f9c6aa" d="M 687.425781 501.785156 C 685.777344 502.410156 622.195312 341.734375 620.570312 342.339844 C 559.503906 365.167969 512.683594 373.492188 449.761719 321.5625 C 429.851562 305.132812 403.015625 303.308594 383.207031 319.851562 L 303.113281 386.753906 C 293.539062 394.746094 288.292969 405.863281 290.953125 418.050781 L 315.25 529.429688 C 377.023438 514.203125 376.730469 470.226562 381.085938 423.992188 C 383.179688 406.285156 411.785156 411.132812 447.6875 443.855469 L 595.433594 593.804688 Z M 687.425781 501.785156 " fill-opacity="1" fill-rule="evenodd"/><path fill="#eaab92" d="M 625.964844 353.960938 L 625.808594 353.589844 L 625.496094 352.863281 L 625.195312 352.160156 L 625.046875 351.8125 L 624.757812 351.140625 L 624.75 351.125 L 624.472656 350.488281 L 624.335938 350.171875 L 624.199219 349.863281 L 624.066406 349.554688 L 623.933594 349.253906 L 623.679688 348.671875 L 623.554688 348.386719 L 623.3125 347.839844 L 623.285156 347.78125 L 623.089844 347.339844 L 622.636719 346.324219 L 622.503906 346.035156 L 622.082031 345.117188 L 622 344.933594 C 621.851562 344.625 621.71875 344.339844 621.59375 344.082031 L 621.574219 344.039062 L 621.5625 344.019531 C 621.433594 343.753906 621.316406 343.515625 621.210938 343.3125 L 621.183594 343.261719 C 620.96875 342.847656 620.804688 342.566406 620.695312 342.433594 L 620.691406 342.429688 C 620.636719 342.363281 620.597656 342.332031 620.570312 342.34375 L 619.320312 342.808594 L 619.09375 342.894531 L 618.980469 342.933594 L 618.753906 343.019531 L 618.644531 343.0625 L 618.546875 343.097656 L 618.527344 343.101562 L 618.300781 343.1875 L 618.191406 343.230469 L 618.078125 343.269531 L 617.851562 343.355469 L 617.738281 343.394531 L 617.398438 343.523438 L 617.171875 343.605469 L 617.058594 343.648438 C 615.820312 344.101562 614.582031 344.550781 613.355469 344.996094 C 573.128906 359.484375 538.765625 366.625 501.117188 352.625 C 542.1875 375.210938 577.921875 371.804688 618.996094 358.507812 C 637.933594 404.25 672.574219 490.847656 673.78125 490.386719 L 583.003906 581.195312 L 595.433594 593.8125 L 687.429688 501.789062 C 686.054688 502.308594 641.644531 390.746094 625.964844 353.960938 Z M 330.652344 524.5625 C 377.003906 506.15625 377.128906 466.011719 381.085938 423.992188 C 382.90625 408.59375 404.773438 410.253906 434.050781 432.460938 L 434.042969 432.453125 C 398.140625 399.730469 369.535156 394.882812 367.441406 412.589844 C 363.820312 451.035156 363.402344 487.910156 327.851562 508.003906 L 310.160156 426.910156 C 307.5 414.722656 312.746094 403.605469 322.320312 395.613281 L 402.417969 328.710938 C 415.25 317.996094 431.027344 314.988281 445.964844 318.664062 C 426.539062 304.976562 401.785156 304.339844 383.210938 319.851562 L 303.113281 386.753906 C 293.542969 394.746094 288.292969 405.863281 290.953125 418.050781 L 315.25 529.429688 C 316.203125 529.195312 317.140625 528.953125 318.0625 528.703125 L 318.132812 528.6875 C 319.015625 528.449219 319.886719 528.203125 320.746094 527.953125 L 320.96875 527.886719 C 321.773438 527.652344 322.5625 527.410156 323.34375 527.160156 L 323.714844 527.042969 C 324.433594 526.8125 325.140625 526.578125 325.839844 526.339844 L 326.421875 526.136719 C 327.042969 525.921875 327.660156 525.699219 328.269531 525.476562 L 328.960938 525.21875 C 329.53125 525 330.097656 524.78125 330.652344 524.5625 Z M 330.652344 524.5625 " fill-opacity="1" fill-rule="evenodd"/><path fill="#ffda2d" d="M 608.96875 323.917969 L 668.703125 312.011719 C 675.117188 310.734375 681.410156 314.9375 682.6875 321.351562 L 729.105469 554.449219 C 730.382812 560.863281 726.183594 567.160156 719.773438 568.4375 L 660.035156 580.339844 C 653.621094 581.621094 647.328125 577.417969 646.050781 571 L 599.632812 337.902344 C 598.351562 331.488281 602.554688 325.195312 608.96875 323.917969 Z M 608.96875 323.917969 " fill-opacity="1" fill-rule="evenodd"/><path fill="#ffc700" d="M 608.964844 323.917969 L 616.566406 322.402344 L 662.15625 551.316406 C 663.433594 557.730469 669.722656 561.933594 676.136719 560.65625 L 728.273438 550.265625 L 729.105469 554.449219 C 730.382812 560.863281 726.183594 567.160156 719.769531 568.4375 L 660.03125 580.339844 C 653.621094 581.621094 647.328125 577.414062 646.050781 571 L 599.628906 337.902344 C 598.351562 331.488281 602.554688 325.195312 608.964844 323.917969 Z M 608.964844 323.917969 " fill-opacity="1" fill-rule="evenodd"/><path fill="#fc685b" d="M 80.558594 226.589844 C 83.164062 191.878906 112.371094 164.28125 147.707031 164.28125 C 183.042969 164.28125 212.25 191.878906 214.855469 226.589844 C 215.058594 229.332031 212.917969 231.640625 210.167969 231.640625 L 85.242188 231.640625 C 82.496094 231.640625 80.355469 229.332031 80.558594 226.589844 Z M 80.558594 226.589844 " fill-opacity="1" fill-rule="evenodd"/><path fill="#f35244" d="M 142.789062 164.460938 C 144.414062 164.34375 146.054688 164.28125 147.707031 164.28125 C 183.042969 164.28125 212.25 191.878906 214.855469 226.589844 C 215.058594 229.332031 212.917969 231.640625 210.167969 231.640625 L 200.335938 231.640625 C 203.085938 231.640625 205.226562 229.332031 205.019531 226.589844 C 202.539062 193.5 175.882812 166.878906 142.789062 164.460938 Z M 142.789062 164.460938 " fill-opacity="1" fill-rule="evenodd"/><path fill="#ffd6bd" d="M 183.519531 127.878906 C 183.519531 129.070312 183.460938 130.257812 183.34375 131.445312 C 183.226562 132.632812 183.050781 133.808594 182.820312 134.980469 C 182.585938 136.148438 182.296875 137.304688 181.953125 138.445312 C 181.605469 139.585938 181.203125 140.707031 180.75 141.808594 C 180.292969 142.910156 179.785156 143.988281 179.222656 145.039062 C 178.660156 146.089844 178.046875 147.113281 177.386719 148.105469 C 176.722656 149.09375 176.015625 150.050781 175.257812 150.972656 C 174.5 151.894531 173.703125 152.777344 172.859375 153.621094 C 172.015625 154.464844 171.132812 155.261719 170.214844 156.019531 C 169.292969 156.777344 168.335938 157.484375 167.34375 158.148438 C 166.355469 158.808594 165.332031 159.421875 164.28125 159.984375 C 163.230469 160.546875 162.152344 161.054688 161.054688 161.511719 C 159.953125 161.96875 158.832031 162.371094 157.691406 162.714844 C 156.550781 163.0625 155.394531 163.351562 154.226562 163.585938 C 153.058594 163.816406 151.878906 163.992188 150.691406 164.109375 C 149.507812 164.226562 148.316406 164.285156 147.125 164.285156 C 145.933594 164.285156 144.746094 164.226562 143.558594 164.109375 C 142.371094 163.992188 141.195312 163.816406 140.027344 163.585938 C 138.855469 163.351562 137.703125 163.0625 136.5625 162.714844 C 135.421875 162.371094 134.300781 161.96875 133.199219 161.511719 C 132.097656 161.054688 131.023438 160.546875 129.96875 159.984375 C 128.917969 159.421875 127.898438 158.808594 126.90625 158.148438 C 125.917969 157.484375 124.960938 156.777344 124.039062 156.019531 C 123.117188 155.261719 122.234375 154.464844 121.390625 153.621094 C 120.550781 152.777344 119.75 151.894531 118.992188 150.972656 C 118.238281 150.050781 117.527344 149.09375 116.867188 148.105469 C 116.203125 147.113281 115.59375 146.089844 115.03125 145.039062 C 114.46875 143.988281 113.960938 142.910156 113.503906 141.808594 C 113.046875 140.707031 112.644531 139.585938 112.300781 138.445312 C 111.953125 137.304688 111.664062 136.148438 111.433594 134.980469 C 111.199219 133.808594 111.023438 132.632812 110.910156 131.445312 C 110.792969 130.257812 110.734375 129.070312 110.734375 127.878906 C 110.734375 126.683594 110.792969 125.496094 110.910156 124.308594 C 111.023438 123.121094 111.199219 121.945312 111.433594 120.773438 C 111.664062 119.605469 111.953125 118.449219 112.300781 117.308594 C 112.644531 116.167969 113.046875 115.046875 113.503906 113.945312 C 113.960938 112.84375 114.46875 111.765625 115.03125 110.714844 C 115.59375 109.664062 116.203125 108.644531 116.867188 107.652344 C 117.527344 106.660156 118.238281 105.703125 118.992188 104.78125 C 119.75 103.859375 120.550781 102.976562 121.390625 102.132812 C 122.234375 101.292969 123.117188 100.492188 124.039062 99.734375 C 124.960938 98.980469 125.917969 98.269531 126.90625 97.605469 C 127.898438 96.945312 128.917969 96.332031 129.96875 95.769531 C 131.023438 95.207031 132.097656 94.699219 133.199219 94.242188 C 134.300781 93.785156 135.421875 93.386719 136.5625 93.039062 C 137.703125 92.691406 138.855469 92.402344 140.027344 92.171875 C 141.195312 91.9375 142.371094 91.761719 143.558594 91.648438 C 144.746094 91.53125 145.933594 91.472656 147.125 91.472656 C 148.316406 91.472656 149.507812 91.53125 150.691406 91.648438 C 151.878906 91.761719 153.058594 91.9375 154.226562 92.171875 C 155.394531 92.402344 156.550781 92.691406 157.691406 93.039062 C 158.832031 93.386719 159.953125 93.785156 161.054688 94.242188 C 162.152344 94.699219 163.230469 95.207031 164.28125 95.769531 C 165.332031 96.332031 166.355469 96.945312 167.34375 97.605469 C 168.335938 98.269531 169.292969 98.980469 170.214844 99.734375 C 171.132812 100.492188 172.015625 101.292969 172.859375 102.132812 C 173.703125 102.976562 174.5 103.859375 175.257812 104.78125 C 176.015625 105.703125 176.722656 106.660156 177.386719 107.652344 C 178.046875 108.644531 178.660156 109.664062 179.222656 110.714844 C 179.785156 111.765625 180.292969 112.84375 180.75 113.945312 C 181.203125 115.046875 181.605469 116.167969 181.953125 117.308594 C 182.296875 118.449219 182.585938 119.605469 182.820312 120.773438 C 183.050781 121.945312 183.226562 123.121094 183.34375 124.308594 C 183.460938 125.496094 183.519531 126.683594 183.519531 127.878906 Z M 183.519531 127.878906 " fill-opacity="1" fill-rule="nonzero"/><path fill="#f9c6aa" d="M 147.125 91.472656 C 145.636719 91.472656 144.171875 91.5625 142.730469 91.738281 C 160.753906 93.910156 174.726562 109.257812 174.726562 127.878906 C 174.726562 146.496094 160.753906 161.847656 142.730469 164.019531 C 144.167969 164.191406 145.636719 164.285156 147.125 164.285156 C 167.222656 164.285156 183.515625 147.984375 183.515625 127.878906 C 183.519531 107.769531 167.222656 91.472656 147.125 91.472656 Z M 147.125 91.472656 " fill-opacity="1" fill-rule="evenodd"/><path fill="#ffda2d" d="M 252.046875 226.59375 C 254.652344 191.882812 283.859375 164.285156 319.195312 164.285156 C 354.53125 164.285156 383.738281 191.882812 386.34375 226.59375 C 386.546875 229.335938 384.40625 231.644531 381.65625 231.644531 L 256.734375 231.644531 C 253.984375 231.644531 251.84375 229.335938 252.046875 226.59375 Z M 252.046875 226.59375 " fill-opacity="1" fill-rule="evenodd"/><path fill="#ffc700" d="M 314.277344 164.464844 C 315.902344 164.347656 317.542969 164.285156 319.195312 164.285156 C 354.53125 164.285156 383.738281 191.882812 386.339844 226.59375 C 386.546875 229.335938 384.40625 231.644531 381.65625 231.644531 L 371.824219 231.644531 C 374.570312 231.644531 376.714844 229.335938 376.507812 226.59375 C 374.027344 193.503906 347.371094 166.882812 314.277344 164.464844 Z M 314.277344 164.464844 " fill-opacity="1" fill-rule="evenodd"/><path fill="#ffd6bd" d="M 320.996094 91.503906 C 322.1875 91.5625 323.371094 91.683594 324.550781 91.859375 C 325.730469 92.035156 326.894531 92.265625 328.050781 92.558594 C 329.207031 92.847656 330.347656 93.195312 331.46875 93.597656 C 332.589844 94 333.691406 94.457031 334.769531 94.964844 C 335.84375 95.476562 336.894531 96.039062 337.917969 96.652344 C 338.9375 97.265625 339.925781 97.929688 340.882812 98.640625 C 341.839844 99.351562 342.761719 100.105469 343.644531 100.910156 C 344.527344 101.710938 345.367188 102.550781 346.167969 103.4375 C 346.964844 104.320312 347.722656 105.242188 348.429688 106.199219 C 349.140625 107.15625 349.800781 108.148438 350.414062 109.171875 C 351.023438 110.195312 351.585938 111.246094 352.09375 112.324219 C 352.601562 113.402344 353.058594 114.503906 353.457031 115.625 C 353.859375 116.75 354.203125 117.886719 354.492188 119.046875 C 354.78125 120.203125 355.011719 121.371094 355.1875 122.550781 C 355.359375 123.730469 355.476562 124.914062 355.535156 126.105469 C 355.589844 127.296875 355.589844 128.488281 355.53125 129.679688 C 355.472656 130.871094 355.355469 132.054688 355.179688 133.234375 C 355.003906 134.414062 354.769531 135.582031 354.480469 136.738281 C 354.1875 137.894531 353.84375 139.03125 353.441406 140.15625 C 353.039062 141.277344 352.582031 142.378906 352.070312 143.457031 C 351.5625 144.53125 351 145.582031 350.386719 146.605469 C 349.773438 147.628906 349.109375 148.617188 348.398438 149.574219 C 347.6875 150.53125 346.933594 151.453125 346.132812 152.335938 C 345.332031 153.21875 344.488281 154.058594 343.605469 154.859375 C 342.71875 155.660156 341.800781 156.414062 340.84375 157.125 C 339.882812 157.832031 338.894531 158.492188 337.871094 159.105469 C 336.847656 159.71875 335.796875 160.277344 334.71875 160.789062 C 333.640625 161.296875 332.542969 161.75 331.417969 162.152344 C 330.296875 162.554688 329.15625 162.898438 328 163.1875 C 326.84375 163.476562 325.675781 163.707031 324.496094 163.882812 C 323.320312 164.054688 322.132812 164.171875 320.941406 164.230469 C 319.753906 164.285156 318.5625 164.285156 317.371094 164.226562 C 316.179688 164.167969 314.996094 164.050781 313.816406 163.875 C 312.640625 163.699219 311.472656 163.464844 310.316406 163.175781 C 309.160156 162.882812 308.019531 162.539062 306.898438 162.136719 C 305.777344 161.730469 304.675781 161.277344 303.601562 160.765625 C 302.523438 160.253906 301.472656 159.691406 300.453125 159.078125 C 299.429688 158.464844 298.441406 157.800781 297.484375 157.089844 C 296.527344 156.378906 295.605469 155.625 294.722656 154.824219 C 293.84375 154.023438 293 153.179688 292.199219 152.296875 C 291.402344 151.410156 290.648438 150.488281 289.9375 149.53125 C 289.226562 148.574219 288.566406 147.582031 287.957031 146.558594 C 287.34375 145.535156 286.78125 144.484375 286.273438 143.40625 C 285.765625 142.328125 285.308594 141.230469 284.910156 140.105469 C 284.507812 138.984375 284.164062 137.84375 283.875 136.6875 C 283.585938 135.527344 283.355469 134.359375 283.179688 133.179688 C 283.007812 132.003906 282.890625 130.816406 282.832031 129.625 C 282.777344 128.433594 282.777344 127.242188 282.835938 126.054688 C 282.894531 124.863281 283.011719 123.675781 283.1875 122.496094 C 283.363281 121.320312 283.597656 120.152344 283.886719 118.996094 C 284.179688 117.835938 284.523438 116.699219 284.925781 115.574219 C 285.328125 114.453125 285.785156 113.355469 286.296875 112.277344 C 286.808594 111.199219 287.367188 110.148438 287.980469 109.125 C 288.597656 108.105469 289.257812 107.113281 289.96875 106.15625 C 290.679688 105.199219 291.433594 104.28125 292.238281 103.398438 C 293.039062 102.515625 293.878906 101.671875 294.761719 100.871094 C 295.648438 100.074219 296.566406 99.316406 297.527344 98.609375 C 298.484375 97.898438 299.472656 97.238281 300.496094 96.625 C 301.519531 96.011719 302.570312 95.453125 303.648438 94.945312 C 304.726562 94.433594 305.824219 93.980469 306.949219 93.578125 C 308.070312 93.179688 309.210938 92.832031 310.367188 92.542969 C 311.523438 92.253906 312.691406 92.023438 313.871094 91.851562 C 315.050781 91.675781 316.234375 91.558594 317.425781 91.503906 C 318.613281 91.445312 319.804688 91.445312 320.996094 91.503906 Z M 320.996094 91.503906 " fill-opacity="1" fill-rule="nonzero"/><path fill="#f9c6aa" d="M 319.195312 91.472656 C 317.707031 91.472656 316.242188 91.566406 314.800781 91.738281 C 332.824219 93.910156 346.796875 109.261719 346.796875 127.878906 C 346.796875 146.5 332.824219 161.851562 314.800781 164.019531 C 316.238281 164.195312 317.707031 164.285156 319.195312 164.285156 C 339.292969 164.285156 355.585938 147.984375 355.585938 127.878906 C 355.585938 107.773438 339.292969 91.472656 319.195312 91.472656 Z M 319.195312 91.472656 " fill-opacity="1" fill-rule="evenodd"/><path fill="#72d561" d="M 423.535156 226.59375 C 426.140625 191.882812 455.347656 164.285156 490.683594 164.285156 C 526.019531 164.285156 555.226562 191.882812 557.832031 226.59375 C 558.035156 229.335938 555.894531 231.644531 553.144531 231.644531 L 428.222656 231.644531 C 425.472656 231.644531 423.332031 229.335938 423.535156 226.59375 Z M 423.535156 226.59375 " fill-opacity="1" fill-rule="evenodd"/><path fill="#3cbe52" d="M 485.769531 164.464844 C 487.390625 164.347656 489.03125 164.285156 490.683594 164.285156 C 526.019531 164.285156 555.226562 191.882812 557.832031 226.59375 C 558.039062 229.335938 555.894531 231.644531 553.144531 231.644531 L 543.3125 231.644531 C 546.0625 231.644531 548.203125 229.335938 547.996094 226.59375 C 545.515625 193.503906 518.863281 166.882812 485.769531 164.464844 Z M 485.769531 164.464844 " fill-opacity="1" fill-rule="evenodd"/><path fill="#ffd6bd" d="M 492.472656 91.496094 C 493.664062 91.554688 494.847656 91.671875 496.027344 91.847656 C 497.207031 92.023438 498.375 92.257812 499.53125 92.550781 C 500.6875 92.839844 501.824219 93.1875 502.949219 93.589844 C 504.070312 93.992188 505.167969 94.449219 506.246094 94.957031 C 507.324219 95.46875 508.371094 96.03125 509.394531 96.644531 C 510.417969 97.257812 511.40625 97.921875 512.363281 98.632812 C 513.320312 99.34375 514.238281 100.097656 515.121094 100.898438 C 516.003906 101.703125 516.84375 102.542969 517.644531 103.429688 C 518.445312 104.3125 519.199219 105.234375 519.910156 106.191406 C 520.617188 107.148438 521.277344 108.140625 521.890625 109.164062 C 522.503906 110.1875 523.0625 111.238281 523.574219 112.316406 C 524.082031 113.394531 524.535156 114.496094 524.9375 115.617188 C 525.335938 116.742188 525.683594 117.878906 525.972656 119.039062 C 526.257812 120.195312 526.492188 121.363281 526.664062 122.542969 C 526.839844 123.722656 526.953125 124.90625 527.011719 126.097656 C 527.070312 127.289062 527.070312 128.480469 527.011719 129.671875 C 526.949219 130.859375 526.832031 132.046875 526.65625 133.226562 C 526.480469 134.40625 526.25 135.574219 525.957031 136.730469 C 525.667969 137.886719 525.320312 139.023438 524.917969 140.148438 C 524.515625 141.269531 524.058594 142.371094 523.550781 143.445312 C 523.039062 144.523438 522.476562 145.574219 521.863281 146.597656 C 521.25 147.617188 520.589844 148.609375 519.878906 149.566406 C 519.167969 150.523438 518.410156 151.441406 517.609375 152.324219 C 516.808594 153.210938 515.964844 154.050781 515.082031 154.851562 C 514.199219 155.652344 513.277344 156.40625 512.320312 157.113281 C 511.363281 157.824219 510.371094 158.484375 509.347656 159.097656 C 508.328125 159.710938 507.277344 160.269531 506.199219 160.78125 C 505.121094 161.289062 504.019531 161.742188 502.898438 162.144531 C 501.773438 162.546875 500.636719 162.890625 499.480469 163.179688 C 498.324219 163.46875 497.15625 163.699219 495.976562 163.875 C 494.796875 164.046875 493.613281 164.164062 492.421875 164.222656 C 491.230469 164.277344 490.039062 164.277344 488.851562 164.21875 C 487.660156 164.160156 486.476562 164.042969 485.296875 163.867188 C 484.117188 163.691406 482.949219 163.457031 481.792969 163.167969 C 480.636719 162.875 479.5 162.527344 478.378906 162.125 C 477.253906 161.722656 476.15625 161.269531 475.078125 160.757812 C 474 160.246094 472.953125 159.683594 471.929688 159.070312 C 470.910156 158.457031 469.917969 157.792969 468.960938 157.082031 C 468.003906 156.371094 467.085938 155.617188 466.203125 154.816406 C 465.320312 154.015625 464.480469 153.171875 463.679688 152.285156 C 462.878906 151.402344 462.125 150.480469 461.414062 149.523438 C 460.707031 148.566406 460.046875 147.574219 459.433594 146.550781 C 458.820312 145.527344 458.261719 144.476562 457.753906 143.398438 C 457.242188 142.320312 456.789062 141.222656 456.386719 140.097656 C 455.988281 138.976562 455.644531 137.835938 455.355469 136.679688 C 455.066406 135.519531 454.832031 134.351562 454.660156 133.171875 C 454.484375 131.992188 454.371094 130.808594 454.3125 129.617188 C 454.253906 128.425781 454.253906 127.234375 454.316406 126.046875 C 454.375 124.855469 454.492188 123.667969 454.667969 122.488281 C 454.84375 121.308594 455.078125 120.144531 455.367188 118.984375 C 455.65625 117.828125 456.003906 116.691406 456.40625 115.566406 C 456.808594 114.445312 457.265625 113.347656 457.773438 112.269531 C 458.285156 111.191406 458.847656 110.140625 459.460938 109.117188 C 460.074219 108.097656 460.738281 107.105469 461.445312 106.148438 C 462.15625 105.191406 462.914062 104.273438 463.714844 103.390625 C 464.515625 102.507812 465.359375 101.664062 466.242188 100.863281 C 467.125 100.066406 468.046875 99.308594 469.003906 98.601562 C 469.960938 97.890625 470.953125 97.230469 471.976562 96.617188 C 473 96.003906 474.046875 95.445312 475.125 94.9375 C 476.203125 94.425781 477.304688 93.972656 478.425781 93.570312 C 479.550781 93.171875 480.6875 92.824219 481.84375 92.535156 C 483 92.246094 484.167969 92.015625 485.347656 91.84375 C 486.527344 91.667969 487.710938 91.550781 488.902344 91.496094 C 490.09375 91.4375 491.285156 91.4375 492.472656 91.496094 Z M 492.472656 91.496094 " fill-opacity="1" fill-rule="nonzero"/><path fill="#f9c6aa" d="M 490.683594 91.472656 C 489.195312 91.472656 487.730469 91.566406 486.289062 91.738281 C 504.316406 93.910156 518.285156 109.261719 518.285156 127.878906 C 518.285156 146.5 504.316406 161.851562 486.289062 164.019531 C 487.730469 164.195312 489.195312 164.285156 490.683594 164.285156 C 510.78125 164.285156 527.078125 147.984375 527.078125 127.878906 C 527.078125 107.773438 510.78125 91.472656 490.683594 91.472656 Z M 490.683594 91.472656 " fill-opacity="1" fill-rule="evenodd"/><path fill="#64b5f6" d="M 595.023438 226.59375 C 597.628906 191.882812 626.835938 164.285156 662.171875 164.285156 C 697.507812 164.285156 726.714844 191.882812 729.320312 226.59375 C 729.523438 229.335938 727.386719 231.644531 724.636719 231.644531 L 599.710938 231.644531 C 596.960938 231.644531 594.820312 229.335938 595.023438 226.59375 Z M 595.023438 226.59375 " fill-opacity="1" fill-rule="evenodd"/><path fill="#42a5f5" d="M 657.257812 164.464844 C 658.882812 164.347656 660.519531 164.285156 662.171875 164.285156 C 697.507812 164.285156 726.714844 191.882812 729.320312 226.59375 C 729.527344 229.335938 727.386719 231.644531 724.636719 231.644531 L 714.800781 231.644531 C 717.550781 231.644531 719.691406 229.335938 719.488281 226.59375 C 717.003906 193.503906 690.351562 166.882812 657.257812 164.464844 Z M 657.257812 164.464844 " fill-opacity="1" fill-rule="evenodd"/><path fill="#ffd6bd" d="M 698.535156 126.339844 C 698.585938 127.53125 698.574219 128.722656 698.507812 129.914062 C 698.441406 131.105469 698.316406 132.289062 698.132812 133.464844 C 697.949219 134.644531 697.707031 135.8125 697.410156 136.964844 C 697.109375 138.121094 696.757812 139.257812 696.347656 140.375 C 695.9375 141.496094 695.472656 142.59375 694.953125 143.667969 C 694.4375 144.742188 693.867188 145.785156 693.246094 146.804688 C 692.628906 147.824219 691.957031 148.808594 691.242188 149.761719 C 690.523438 150.714844 689.761719 151.628906 688.957031 152.503906 C 688.148438 153.382812 687.300781 154.21875 686.410156 155.011719 C 685.523438 155.808594 684.597656 156.554688 683.632812 157.257812 C 682.671875 157.960938 681.675781 158.617188 680.648438 159.222656 C 679.621094 159.828125 678.566406 160.378906 677.488281 160.882812 C 676.40625 161.382812 675.300781 161.832031 674.175781 162.222656 C 673.050781 162.617188 671.910156 162.953125 670.753906 163.234375 C 669.59375 163.515625 668.425781 163.742188 667.246094 163.90625 C 666.0625 164.074219 664.878906 164.179688 663.6875 164.230469 C 662.496094 164.28125 661.304688 164.269531 660.117188 164.203125 C 658.925781 164.136719 657.742188 164.011719 656.566406 163.828125 C 655.386719 163.644531 654.222656 163.402344 653.066406 163.101562 C 651.914062 162.804688 650.777344 162.449219 649.65625 162.039062 C 648.539062 161.628906 647.441406 161.167969 646.367188 160.648438 C 645.292969 160.132812 644.25 159.5625 643.230469 158.941406 C 642.214844 158.320312 641.226562 157.652344 640.277344 156.933594 C 639.324219 156.214844 638.410156 155.453125 637.53125 154.648438 C 636.65625 153.839844 635.820312 152.992188 635.027344 152.101562 C 634.234375 151.210938 633.484375 150.285156 632.78125 149.324219 C 632.078125 148.359375 631.425781 147.363281 630.820312 146.335938 C 630.214844 145.3125 629.660156 144.257812 629.160156 143.175781 C 628.65625 142.09375 628.210938 140.988281 627.816406 139.863281 C 627.425781 138.738281 627.085938 137.597656 626.804688 136.4375 C 626.523438 135.277344 626.300781 134.109375 626.136719 132.929688 C 625.96875 131.746094 625.863281 130.5625 625.8125 129.371094 C 625.761719 128.179688 625.773438 126.988281 625.839844 125.796875 C 625.90625 124.605469 626.03125 123.421875 626.214844 122.246094 C 626.398438 121.066406 626.640625 119.898438 626.9375 118.746094 C 627.238281 117.589844 627.589844 116.453125 628 115.335938 C 628.410156 114.214844 628.875 113.117188 629.390625 112.042969 C 629.910156 110.96875 630.480469 109.925781 631.097656 108.90625 C 631.71875 107.886719 632.386719 106.902344 633.105469 105.949219 C 633.824219 104.996094 634.585938 104.082031 635.390625 103.207031 C 636.199219 102.328125 637.046875 101.492188 637.9375 100.699219 C 638.824219 99.902344 639.75 99.15625 640.714844 98.453125 C 641.675781 97.75 642.671875 97.09375 643.699219 96.488281 C 644.726562 95.882812 645.777344 95.332031 646.859375 94.828125 C 647.941406 94.328125 649.042969 93.878906 650.167969 93.488281 C 651.296875 93.09375 652.4375 92.757812 653.59375 92.476562 C 654.753906 92.195312 655.921875 91.96875 657.101562 91.804688 C 658.285156 91.636719 659.46875 91.53125 660.660156 91.480469 C 661.851562 91.429688 663.042969 91.441406 664.230469 91.507812 C 665.421875 91.574219 666.605469 91.699219 667.78125 91.882812 C 668.960938 92.066406 670.125 92.308594 671.28125 92.609375 C 672.433594 92.90625 673.570312 93.261719 674.691406 93.671875 C 675.808594 94.082031 676.90625 94.542969 677.980469 95.0625 C 679.050781 95.578125 680.097656 96.148438 681.117188 96.769531 C 682.132812 97.390625 683.117188 98.058594 684.070312 98.777344 C 685.023438 99.496094 685.9375 100.257812 686.8125 101.0625 C 687.691406 101.871094 688.527344 102.71875 689.320312 103.609375 C 690.113281 104.5 690.863281 105.425781 691.566406 106.386719 C 692.269531 107.351562 692.921875 108.347656 693.527344 109.371094 C 694.132812 110.398438 694.6875 111.453125 695.1875 112.535156 C 695.6875 113.617188 696.136719 114.722656 696.53125 115.847656 C 696.921875 116.972656 697.261719 118.113281 697.539062 119.273438 C 697.820312 120.433594 698.046875 121.601562 698.210938 122.78125 C 698.378906 123.964844 698.484375 125.148438 698.535156 126.339844 Z M 698.535156 126.339844 " fill-opacity="1" fill-rule="nonzero"/><path fill="#f9c6aa" d="M 662.171875 91.472656 C 660.683594 91.472656 659.21875 91.566406 657.777344 91.738281 C 675.800781 93.910156 689.773438 109.261719 689.773438 127.878906 C 689.773438 146.5 675.800781 161.851562 657.777344 164.019531 C 659.21875 164.195312 660.683594 164.285156 662.171875 164.285156 C 682.273438 164.285156 698.566406 147.984375 698.566406 127.878906 C 698.566406 107.773438 682.273438 91.472656 662.171875 91.472656 Z M 662.171875 91.472656 " fill-opacity="1" fill-rule="evenodd"/><g clip-path="url(#683a25ffc7)"><path fill="#000000" d="M 662.175781 174.792969 C 689.628906 174.792969 713.042969 194.691406 718.023438 221.136719 L 606.320312 221.136719 C 611.3125 194.691406 634.726562 174.792969 662.175781 174.792969 Z M 662.175781 101.976562 C 676.453125 101.976562 688.0625 113.597656 688.0625 127.875 C 688.0625 142.15625 676.453125 153.769531 662.175781 153.769531 C 647.902344 153.769531 636.289062 142.15625 636.289062 127.875 C 636.289062 113.597656 647.902344 101.976562 662.175781 101.976562 Z M 599.710938 242.15625 L 724.636719 242.15625 C 728.867188 242.15625 732.925781 240.386719 735.785156 237.300781 C 738.648438 234.207031 740.109375 230.023438 739.792969 225.8125 C 739.792969 225.804688 739.792969 225.804688 739.792969 225.804688 C 737.648438 197.113281 719.816406 172.855469 695.152344 161.199219 C 703.742188 152.6875 709.078125 140.894531 709.078125 127.875 C 709.078125 102.003906 688.035156 80.960938 662.171875 80.960938 C 636.3125 80.960938 615.277344 102.003906 615.277344 127.875 C 615.277344 140.894531 620.609375 152.6875 629.195312 161.199219 C 604.53125 172.855469 586.695312 197.117188 584.539062 225.804688 C 584.230469 230.019531 585.6875 234.207031 588.546875 237.292969 C 591.410156 240.386719 595.488281 242.15625 599.710938 242.15625 Z M 490.679688 174.792969 C 518.125 174.792969 541.546875 194.691406 546.539062 221.136719 L 434.839844 221.136719 C 439.824219 194.691406 463.246094 174.792969 490.679688 174.792969 Z M 464.792969 127.875 C 464.792969 113.597656 476.402344 101.976562 490.679688 101.976562 C 504.957031 101.976562 516.566406 113.597656 516.566406 127.875 C 516.566406 142.15625 504.957031 153.769531 490.679688 153.769531 C 476.402344 153.769531 464.792969 142.15625 464.792969 127.875 Z M 428.214844 242.15625 L 553.140625 242.15625 C 557.371094 242.15625 561.441406 240.386719 564.304688 237.292969 C 567.167969 234.207031 568.628906 230.019531 568.3125 225.804688 C 566.15625 197.113281 548.324219 172.855469 523.65625 161.199219 C 532.25 152.6875 537.574219 140.894531 537.574219 127.875 C 537.574219 102.003906 516.539062 80.960938 490.679688 80.960938 C 464.816406 80.960938 443.773438 102.003906 443.773438 127.875 C 443.773438 140.894531 449.109375 152.6875 457.699219 161.199219 C 433.03125 172.855469 415.210938 197.117188 413.058594 225.804688 C 412.742188 230.019531 414.203125 234.207031 417.066406 237.292969 C 419.929688 240.386719 424.003906 242.15625 428.214844 242.15625 Z M 319.195312 174.792969 C 346.644531 174.792969 370.066406 194.691406 375.050781 221.136719 L 263.335938 221.136719 C 268.328125 194.691406 291.75 174.792969 319.195312 174.792969 Z M 293.308594 127.875 C 293.308594 113.597656 304.917969 101.976562 319.195312 101.976562 C 333.476562 101.976562 345.082031 113.597656 345.082031 127.875 C 345.082031 142.15625 333.472656 153.769531 319.195312 153.769531 C 304.917969 153.769531 293.308594 142.15625 293.308594 127.875 Z M 256.734375 242.15625 L 381.660156 242.15625 C 385.882812 242.15625 389.941406 240.386719 392.8125 237.300781 C 395.671875 234.207031 397.144531 230.023438 396.832031 225.8125 C 396.832031 225.804688 396.832031 225.804688 396.832031 225.804688 C 394.675781 197.113281 376.839844 172.855469 352.175781 161.199219 C 360.769531 152.6875 366.09375 140.894531 366.09375 127.875 C 366.09375 102.003906 345.058594 80.960938 319.199219 80.960938 C 293.335938 80.960938 272.300781 102.003906 272.300781 127.875 C 272.300781 140.894531 277.628906 152.6875 286.21875 161.199219 C 261.554688 172.855469 243.722656 197.117188 241.566406 225.804688 C 241.25 230.019531 242.710938 234.207031 245.570312 237.292969 C 248.445312 240.386719 252.503906 242.15625 256.734375 242.15625 Z M 147.714844 174.792969 C 175.148438 174.792969 198.5625 194.691406 203.554688 221.136719 L 91.855469 221.136719 C 96.847656 194.691406 120.261719 174.792969 147.714844 174.792969 Z M 147.714844 101.976562 C 161.992188 101.976562 173.597656 113.597656 173.597656 127.875 C 173.597656 142.15625 161.992188 153.769531 147.714844 153.769531 C 133.4375 153.769531 121.828125 142.15625 121.828125 127.875 C 121.828125 113.597656 133.4375 101.976562 147.714844 101.976562 Z M 85.238281 242.15625 L 210.175781 242.15625 C 214.386719 242.15625 218.457031 240.386719 221.324219 237.300781 C 224.1875 234.207031 225.644531 230.023438 225.328125 225.8125 C 225.328125 225.804688 225.328125 225.804688 225.328125 225.804688 C 223.179688 197.113281 205.34375 172.855469 180.691406 161.199219 C 189.28125 152.6875 194.609375 140.894531 194.609375 127.875 C 194.609375 102.003906 173.574219 80.960938 147.714844 80.960938 C 121.839844 80.960938 100.816406 102.003906 100.816406 127.875 C 100.816406 140.894531 106.132812 152.6875 114.722656 161.199219 C 90.070312 172.855469 72.238281 197.117188 70.082031 225.8125 C 69.765625 230.023438 71.226562 234.207031 74.089844 237.300781 C 76.949219 240.386719 81.019531 242.15625 85.238281 242.15625 Z M 718.585938 557.53125 C 718.441406 557.753906 718.164062 558.039062 717.71875 558.125 L 657.988281 570.03125 C 657.261719 570.171875 656.5 569.671875 656.359375 568.945312 L 609.933594 335.847656 C 609.785156 335.125 610.300781 334.367188 611.023438 334.226562 L 670.753906 322.316406 C 671.472656 322.179688 672.234375 322.679688 672.382812 323.398438 L 718.808594 556.503906 C 718.882812 556.949219 718.730469 557.308594 718.585938 557.53125 Z M 595.488281 578.890625 L 630.027344 544.332031 L 594.039062 363.59375 C 554.890625 376.066406 503.941406 379.902344 443.070312 329.664062 C 426.457031 315.957031 405.121094 315.25 389.941406 327.917969 L 309.84375 394.820312 C 305.667969 398.304688 299 405.667969 301.214844 415.808594 L 323.113281 516.15625 C 363.667969 501.878906 366.410156 470.691406 369.8125 431.964844 C 370.078125 428.988281 370.339844 426.003906 370.628906 423.003906 C 370.628906 422.921875 370.640625 422.835938 370.652344 422.753906 C 371.648438 414.277344 376.585938 407.789062 384.207031 404.953125 C 400.386719 398.917969 426.761719 410.554688 454.757812 436.082031 C 454.90625 436.207031 455.039062 436.34375 455.167969 436.472656 Z M 581.96875 626.46875 C 572.753906 635.679688 557.761719 635.679688 548.558594 626.46875 L 446.929688 524.804688 C 442.835938 520.703125 436.175781 520.699219 432.074219 524.804688 C 427.96875 528.90625 427.96875 535.5625 432.074219 539.664062 L 533.703125 641.332031 L 533.703125 641.339844 C 538.132812 645.777344 540.574219 651.703125 540.574219 658.042969 C 540.574219 664.375 538.132812 670.3125 533.703125 674.75 C 529.261719 679.1875 523.328125 681.636719 517 681.636719 C 510.65625 681.636719 504.714844 679.195312 500.292969 674.757812 L 392.902344 567.332031 C 388.800781 563.226562 382.144531 563.230469 378.046875 567.332031 C 373.949219 571.433594 373.949219 578.089844 378.046875 582.199219 L 459.105469 663.28125 C 468.3125 672.496094 468.3125 687.484375 459.105469 696.699219 C 449.882812 705.917969 434.898438 705.914062 425.695312 696.699219 L 338.882812 609.859375 C 334.789062 605.757812 328.128906 605.753906 324.027344 609.859375 C 319.914062 613.960938 319.914062 620.617188 324.027344 624.726562 L 364.378906 665.089844 C 368.8125 669.527344 371.242188 675.457031 371.242188 681.796875 C 371.242188 688.136719 368.800781 694.074219 364.378906 698.511719 C 359.9375 702.945312 353.996094 705.394531 347.664062 705.386719 C 341.328125 705.386719 335.402344 702.945312 330.964844 698.511719 L 179.347656 546.84375 L 217.949219 352.996094 L 327.144531 352.996094 L 296.382812 378.683594 C 283.066406 389.800781 277.339844 404.972656 280.6875 420.289062 L 304.984375 531.671875 C 305.59375 534.441406 307.285156 536.851562 309.6875 538.351562 C 312.101562 539.851562 315.003906 540.3125 317.765625 539.636719 C 346.945312 532.441406 366.453125 518.375 377.402344 496.625 C 386.867188 477.832031 388.765625 456.445312 390.746094 433.804688 C 391.007812 430.929688 391.257812 428.035156 391.53125 425.132812 C 391.558594 424.886719 391.601562 424.710938 391.636719 424.59375 C 395.261719 423.058594 413.082031 426.601562 440.40625 451.433594 L 586.722656 599.933594 C 590.742188 608.820312 588.890625 619.546875 581.96875 626.46875 Z M 151.902344 570.03125 C 152.613281 570.171875 153.386719 569.671875 153.519531 568.945312 L 199.945312 335.847656 C 200.085938 335.125 199.578125 334.367188 198.851562 334.226562 L 139.121094 322.316406 C 139.042969 322.304688 138.957031 322.289062 138.875 322.289062 C 138.230469 322.289062 137.621094 322.761719 137.492188 323.398438 L 91.078125 556.503906 C 90.992188 556.949219 91.148438 557.308594 91.289062 557.53125 C 91.449219 557.753906 91.710938 558.039062 92.15625 558.125 Z M 739.410156 552.394531 L 692.984375 319.296875 C 690.582031 307.179688 678.761719 299.289062 666.652344 301.707031 L 606.910156 313.609375 C 594.800781 316.019531 586.910156 327.835938 589.324219 339.957031 L 589.898438 342.832031 C 554.105469 354.71875 510.589844 358.132812 456.457031 313.453125 C 431.789062 293.097656 399.65625 292.429688 376.46875 311.78125 L 352.304688 331.96875 L 220.671875 331.96875 C 219.195312 323.027344 212.371094 315.480469 202.96875 313.609375 L 143.238281 301.707031 C 131.125 299.289062 119.308594 307.179688 116.886719 319.296875 L 70.472656 552.394531 C 69.304688 558.25 70.488281 564.21875 73.824219 569.207031 C 77.148438 574.1875 82.203125 577.578125 88.0625 578.742188 L 147.792969 590.652344 C 149.261719 590.945312 150.738281 591.085938 152.179688 591.085938 C 162.628906 591.085938 172.007812 583.699219 174.140625 573.054688 L 174.410156 571.636719 L 316.101562 713.375 C 324.507812 721.785156 335.71875 726.414062 347.667969 726.414062 C 359.621094 726.414062 370.828125 721.785156 379.226562 713.375 C 385.21875 707.375 389.292969 699.96875 391.140625 691.867188 L 410.832031 711.566406 C 428.242188 728.980469 456.554688 728.980469 473.964844 711.566406 C 480.09375 705.433594 484.058594 697.945312 485.875 690.058594 C 494.230469 698.1875 505.257812 702.65625 517 702.65625 C 528.949219 702.65625 540.15625 698.027344 548.5625 689.617188 C 556.964844 681.210938 561.589844 670 561.589844 658.046875 C 561.589844 656.765625 561.539062 655.488281 561.433594 654.230469 C 574.09375 655.308594 587.144531 651.015625 596.828125 641.335938 C 608.609375 629.554688 612.625 611.949219 607.777344 596.328125 L 634.964844 569.128906 L 635.753906 573.054688 C 637.871094 583.703125 647.242188 591.085938 657.710938 591.085938 C 659.15625 591.085938 660.617188 590.945312 662.085938 590.652344 L 721.816406 578.746094 C 727.679688 577.578125 732.730469 574.1875 736.070312 569.207031 C 739.386719 564.21875 740.570312 558.25 739.410156 552.394531 Z M 739.410156 552.394531 " fill-opacity="1" fill-rule="evenodd"/></g></svg>