<svg xmlns="http://www.w3.org/2000/svg" xmlns:xlink="http://www.w3.org/1999/xlink" width="1080" zoomAndPan="magnify" viewBox="0 0 810 809.999993" height="1080" preserveAspectRatio="xMidYMid meet" version="1.0"><defs><clipPath id="f2f5d07cc4"><path d="M 112 334.304688 L 254 334.304688 L 254 476.054688 L 112 476.054688 Z M 112 334.304688 " clip-rule="nonzero"/></clipPath><clipPath id="ce09f4aca6"><path d="M 334 334.304688 L 476 334.304688 L 476 476.054688 L 334 476.054688 Z M 334 334.304688 " clip-rule="nonzero"/></clipPath><clipPath id="428db708d8"><path d="M 556 334.304688 L 697.71875 334.304688 L 697.71875 476.054688 L 556 476.054688 Z M 556 334.304688 " clip-rule="nonzero"/></clipPath></defs><g clip-path="url(#f2f5d07cc4)"><path fill="#000000" d="M 182.78125 334.304688 C 143.828125 334.304688 112.125 366.109375 112.125 405.179688 C 112.125 444.253906 143.828125 476.054688 182.78125 476.054688 C 221.730469 476.054688 253.4375 444.253906 253.4375 405.179688 C 253.4375 366.109375 221.730469 334.304688 182.78125 334.304688 Z M 182.78125 455.804688 C 154.953125 455.804688 132.3125 433.097656 132.3125 405.179688 C 132.3125 377.265625 154.953125 354.554688 182.78125 354.554688 C 210.609375 354.554688 233.25 377.265625 233.25 405.179688 C 233.25 433.097656 210.609375 455.804688 182.78125 455.804688 Z M 182.78125 455.804688 " fill-opacity="1" fill-rule="nonzero"/></g><g clip-path="url(#ce09f4aca6)"><path fill="#000000" d="M 404.84375 334.304688 C 365.890625 334.304688 334.1875 366.109375 334.1875 405.179688 C 334.1875 444.253906 365.890625 476.054688 404.84375 476.054688 C 443.796875 476.054688 475.5 444.253906 475.5 405.179688 C 475.5 366.109375 443.796875 334.304688 404.84375 334.304688 Z M 404.84375 455.804688 C 377.015625 455.804688 354.375 433.097656 354.375 405.179688 C 354.375 377.265625 377.015625 354.554688 404.84375 354.554688 C 432.671875 354.554688 455.3125 377.265625 455.3125 405.179688 C 455.3125 433.097656 432.671875 455.804688 404.84375 455.804688 Z M 404.84375 455.804688 " fill-opacity="1" fill-rule="nonzero"/></g><g clip-path="url(#428db708d8)"><path fill="#000000" d="M 626.90625 334.304688 C 587.957031 334.304688 556.25 366.109375 556.25 405.179688 C 556.25 444.253906 587.957031 476.054688 626.90625 476.054688 C 665.859375 476.054688 697.5625 444.253906 697.5625 405.179688 C 697.5625 366.109375 665.859375 334.304688 626.90625 334.304688 Z M 626.90625 455.804688 C 599.078125 455.804688 576.4375 433.097656 576.4375 405.179688 C 576.4375 377.265625 599.078125 354.554688 626.90625 354.554688 C 654.734375 354.554688 677.375 377.265625 677.375 405.179688 C 677.375 433.097656 654.734375 455.804688 626.90625 455.804688 Z M 626.90625 455.804688 " fill-opacity="1" fill-rule="nonzero"/></g></svg>