<svg width="20" height="16" viewBox="0 0 20 16" fill="none" xmlns="http://www.w3.org/2000/svg">
<path d="M2.46548 0.689067C3.20866 0.251185 4.075 0 5 0H15C15.925 0 16.7913 0.251185 17.5345 0.689067C17.0185 2.13501 16.0953 3.40667 14.8701 4.34683C13.4729 5.4189 11.7611 6 10 6C8.23893 6 6.52706 5.4189 5.12991 4.34683C3.90467 3.40667 2.98151 2.13501 2.46548 0.689067Z" fill="black"/>
<path d="M0.897605 2.14085C0.331843 2.95111 0 3.9368 0 5V11C0 13.7614 2.23858 16 5 16H15C17.7614 16 20 13.7614 20 11V5C20 3.9368 19.6682 2.95111 19.1024 2.14085C18.427 3.62549 17.3948 4.93046 16.0876 5.93353C14.3412 7.27363 12.2013 8 10 8C7.79866 8 5.65883 7.27363 3.91239 5.93353C2.60515 4.93046 1.57301 3.6255 0.897605 2.14085Z" fill="black"/>
</svg>
