<svg width="20" height="20" viewBox="0 0 20 20" fill="none" xmlns="http://www.w3.org/2000/svg">
<path d="M10 0C6.13401 0 3 3.13401 3 7C3 9.35433 4.16228 11.4372 5.94435 12.7061C5.27318 12.9471 4.62228 13.2484 3.99991 13.6077C2.72341 14.3447 1.5984 15.3077 0.677048 16.4446C0.164149 17.0775 0.147868 17.8732 0.479719 18.487C0.803493 19.0858 1.44685 19.5 2.20569 19.5L17.7941 19.5C18.553 19.5 19.1963 19.0858 19.5201 18.487C19.852 17.8732 19.8357 17.0775 19.3228 16.4446C18.4014 15.3077 17.2764 14.3447 15.9999 13.6077C15.3776 13.2484 14.7267 12.9471 14.0556 12.7061C15.8377 11.4372 17 9.35435 17 7C17 3.13401 13.866 0 10 0Z" fill="black"/>
</svg>
