<svg width="20" height="20" viewBox="0 0 20 20" fill="none" xmlns="http://www.w3.org/2000/svg">
<path d="M7.99976 10C7.99976 8.89543 8.89519 8 9.99976 8C11.1043 8 11.9998 8.89543 11.9998 10C11.9998 11.1046 11.1043 12 9.99976 12C8.89519 12 7.99976 11.1046 7.99976 10Z" fill="black"/>
<path fill-rule="evenodd" clip-rule="evenodd" d="M6.41867 2.58114C6.93248 1.03971 8.375 0 9.99981 0C11.6246 0 13.0671 1.03971 13.581 2.58114L13.838 3.35223L14.6344 3.18926C16.2262 2.86352 17.8479 3.59292 18.6603 5.00005C19.4727 6.40718 19.2935 8.17629 18.2155 9.39198L17.6763 10L18.2156 10.6081C19.2936 11.8238 19.4728 13.5929 18.6604 15C17.8479 16.4072 16.2263 17.1366 14.6345 16.8108L13.838 16.6478L13.581 17.4189C13.0671 18.9603 11.6246 20 9.99981 20C8.375 20 6.93248 18.9603 6.41867 17.4189L6.1617 16.6479L5.36566 16.8108C3.77384 17.1366 2.15217 16.4072 1.33976 15C0.527358 13.5929 0.706512 11.8238 1.78453 10.6081L2.32378 10L1.78461 9.39198C0.706592 8.17629 0.527437 6.40718 1.33984 5.00005C2.15225 3.59292 3.77392 2.86352 5.36575 3.18926L6.16168 3.35214L6.41867 2.58114ZM9.99976 6C7.79062 6 5.99976 7.79086 5.99976 10C5.99976 12.2091 7.79062 14 9.99976 14C12.2089 14 13.9998 12.2091 13.9998 10C13.9998 7.79086 12.2089 6 9.99976 6Z" fill="black"/>
</svg>
