<svg xmlns="http://www.w3.org/2000/svg" xmlns:xlink="http://www.w3.org/1999/xlink" width="1080" zoomAndPan="magnify" viewBox="0 0 810 809.999993" height="1080" preserveAspectRatio="xMidYMid meet" version="1.0"><defs><clipPath id="093ba4c6f1"><path d="M 163.214844 81 L 646.964844 81 L 646.964844 729 L 163.214844 729 Z M 163.214844 81 " clip-rule="nonzero"/></clipPath></defs><path fill="#eceff1" d="M 184.957031 91.449219 L 519.566406 91.449219 C 522.675781 91.449219 525.355469 92.558594 527.554688 94.757812 L 588.71875 155.898438 C 590.917969 158.097656 592.027344 160.773438 592.027344 163.886719 L 592.027344 622.195312 C 592.027344 628.414062 586.953125 633.484375 580.730469 633.484375 L 184.957031 633.484375 C 178.734375 633.484375 173.660156 628.414062 173.660156 622.195312 L 173.660156 102.742188 C 173.660156 96.523438 178.734375 91.449219 184.957031 91.449219 Z M 184.957031 91.449219 " fill-opacity="1" fill-rule="evenodd"/><path fill="#d1d1d6" d="M 184.957031 91.449219 L 204.648438 91.449219 L 204.648438 633.488281 L 184.957031 633.488281 C 178.734375 633.488281 173.660156 628.414062 173.660156 622.195312 L 173.660156 102.742188 C 173.660156 96.523438 178.734375 91.449219 184.957031 91.449219 Z M 184.957031 91.449219 " fill-opacity="1" fill-rule="evenodd"/><path fill="#a79ba7" d="M 524.246094 92.429688 L 524.246094 151.304688 C 524.246094 155.65625 527.796875 159.207031 532.152344 159.207031 L 591.050781 159.207031 C 590.503906 158.007812 589.726562 156.90625 588.722656 155.898438 L 527.554688 94.757812 C 526.546875 93.753906 525.445312 92.976562 524.246094 92.429688 Z M 524.246094 92.429688 " fill-opacity="1" fill-rule="evenodd"/><path fill="#8ac9fe" d="M 268.574219 222.777344 L 426.113281 222.777344 C 433.300781 222.777344 439.183594 216.898438 439.183594 209.714844 L 439.183594 187.328125 C 439.183594 180.140625 433.300781 174.261719 426.113281 174.261719 L 268.574219 174.261719 C 261.386719 174.261719 255.503906 180.140625 255.503906 187.328125 L 255.503906 209.714844 C 255.503906 216.898438 261.386719 222.777344 268.574219 222.777344 Z M 268.574219 222.777344 " fill-opacity="1" fill-rule="evenodd"/><path fill="#9facba" d="M 257.523438 584.152344 L 323.222656 584.152344 C 330.410156 584.152344 336.292969 578.273438 336.292969 571.085938 L 336.292969 464.554688 C 336.292969 457.367188 330.410156 451.488281 323.222656 451.488281 L 257.523438 451.488281 C 250.335938 451.488281 244.453125 457.367188 244.453125 464.554688 L 244.453125 571.085938 C 244.453125 578.273438 250.335938 584.152344 257.523438 584.152344 Z M 257.523438 584.152344 " fill-opacity="1" fill-rule="evenodd"/><path fill="#9facba" d="M 524.164062 397.378906 L 530.457031 397.378906 C 564.320312 397.378906 592.027344 425.074219 592.027344 458.921875 L 592.027344 576.808594 C 592.027344 610.660156 564.324219 638.355469 530.457031 638.355469 L 524.164062 638.355469 C 490.300781 638.355469 462.59375 610.660156 462.59375 576.808594 L 462.59375 458.921875 C 462.59375 425.074219 490.300781 397.378906 524.164062 397.378906 Z M 524.164062 397.378906 " fill-opacity="1" fill-rule="evenodd"/><g clip-path="url(#093ba4c6f1)"><path fill="#000000" d="M 617.828125 718.542969 C 617.828125 724.316406 613.144531 728.996094 607.371094 728.996094 L 447.242188 728.996094 C 441.457031 728.996094 436.785156 724.316406 436.785156 718.542969 C 436.785156 712.769531 441.460938 708.089844 447.242188 708.089844 L 516.847656 708.089844 L 516.847656 694.410156 C 491.3125 692.019531 465.863281 681.03125 445.71875 663.433594 C 421.238281 642.039062 407.769531 614.015625 407.769531 584.5 C 407.769531 578.722656 412.445312 574.050781 418.226562 574.050781 C 423.992188 574.050781 428.683594 578.722656 428.683594 584.5 C 428.683594 635.722656 480.75 674.003906 527.304688 674.003906 C 573.867188 674.003906 625.941406 635.742188 625.941406 584.5 C 625.941406 578.738281 630.621094 574.050781 636.394531 574.050781 C 642.171875 574.050781 646.851562 578.742188 646.851562 584.5 C 646.851562 614.015625 633.363281 642.039062 608.882812 663.433594 C 588.746094 681.03125 563.3125 692.019531 537.761719 694.410156 L 537.761719 708.089844 L 607.371094 708.089844 C 613.144531 708.089844 617.828125 712.769531 617.828125 718.542969 Z M 473.039062 574.410156 L 473.039062 576.800781 C 473.039062 604.988281 495.972656 627.902344 524.15625 627.902344 L 530.453125 627.902344 C 558.644531 627.902344 581.570312 604.988281 581.570312 576.800781 L 581.570312 574.410156 L 554.789062 574.410156 C 549.011719 574.410156 544.332031 569.738281 544.332031 563.957031 C 544.332031 558.183594 549.011719 553.511719 554.789062 553.511719 L 581.570312 553.511719 L 581.570312 528.320312 L 554.789062 528.320312 C 549.011719 528.320312 544.332031 523.644531 544.332031 517.871094 C 544.332031 512.097656 549.011719 507.417969 554.789062 507.417969 L 581.570312 507.417969 L 581.570312 482.226562 L 554.789062 482.226562 C 549.011719 482.226562 544.332031 477.554688 544.332031 471.777344 C 544.332031 466.003906 549.011719 461.332031 554.789062 461.332031 L 581.570312 461.332031 L 581.570312 458.925781 C 581.570312 430.753906 558.644531 407.828125 530.453125 407.828125 L 524.15625 407.828125 C 495.972656 407.828125 473.039062 430.753906 473.039062 458.925781 L 473.039062 461.332031 L 499.816406 461.332031 C 505.59375 461.332031 510.273438 466.003906 510.273438 471.777344 C 510.273438 477.554688 505.59375 482.226562 499.816406 482.226562 L 473.039062 482.226562 L 473.039062 507.417969 L 499.816406 507.417969 C 505.59375 507.417969 510.273438 512.097656 510.273438 517.871094 C 510.273438 523.644531 505.59375 528.320312 499.816406 528.320312 L 473.039062 528.320312 L 473.039062 553.511719 L 499.816406 553.511719 C 505.59375 553.511719 510.273438 558.183594 510.273438 563.957031 C 510.273438 569.738281 505.59375 574.410156 499.816406 574.410156 Z M 524.15625 648.800781 L 530.453125 648.800781 C 570.171875 648.800781 602.480469 616.507812 602.480469 576.804688 L 602.480469 458.925781 C 602.480469 419.21875 570.171875 386.929688 530.453125 386.929688 L 524.15625 386.929688 C 484.445312 386.929688 452.125 419.21875 452.125 458.925781 L 452.125 576.804688 C 452.125 616.507812 484.445312 648.800781 524.15625 648.800781 Z M 336.292969 573.691406 L 265.363281 573.691406 L 265.363281 461.9375 L 336.292969 461.9375 Z M 254.90625 441.039062 C 249.128906 441.039062 244.449219 445.710938 244.449219 451.492188 L 244.449219 584.144531 C 244.449219 589.921875 249.128906 594.59375 254.90625 594.59375 L 346.75 594.59375 C 352.523438 594.59375 357.207031 589.921875 357.207031 584.144531 L 357.207031 451.492188 C 357.207031 445.710938 352.527344 441.039062 346.75 441.039062 Z M 430.777344 407.824219 L 254.90625 407.824219 C 249.128906 407.824219 244.449219 403.152344 244.449219 397.378906 C 244.449219 391.597656 249.128906 386.925781 254.90625 386.925781 L 430.773438 386.925781 C 436.550781 386.925781 441.226562 391.597656 441.226562 397.378906 C 441.226562 403.152344 436.550781 407.824219 430.777344 407.824219 Z M 515.003906 353.710938 L 254.90625 353.710938 C 249.128906 353.710938 244.449219 349.035156 244.449219 343.257812 C 244.449219 337.488281 249.128906 332.808594 254.90625 332.808594 L 515.003906 332.808594 C 520.785156 332.808594 525.460938 337.488281 525.460938 343.257812 C 525.460938 349.035156 520.785156 353.710938 515.003906 353.710938 Z M 244.449219 289.148438 C 244.449219 283.375 249.128906 278.695312 254.90625 278.695312 L 515.003906 278.695312 C 520.789062 278.695312 525.460938 283.375 525.460938 289.148438 C 525.460938 294.921875 520.789062 299.601562 515.003906 299.601562 L 254.90625 299.601562 C 249.128906 299.601562 244.449219 294.921875 244.449219 289.148438 Z M 265.363281 182.0625 L 428.128906 182.0625 L 428.128906 209.660156 L 265.363281 209.660156 Z M 254.90625 230.566406 L 438.585938 230.566406 C 444.351562 230.566406 449.042969 225.894531 449.042969 220.113281 L 449.042969 171.609375 C 449.042969 165.835938 444.347656 161.15625 438.585938 161.15625 L 254.90625 161.15625 C 249.128906 161.15625 244.449219 165.835938 244.449219 171.609375 L 244.449219 220.113281 C 244.449219 225.894531 249.128906 230.566406 254.90625 230.566406 Z M 534.699219 116.683594 L 566.789062 148.761719 L 534.699219 148.761719 Z M 394.0625 623.027344 L 184.109375 623.027344 L 184.109375 101.910156 L 513.785156 101.910156 L 513.785156 159.207031 C 513.785156 164.988281 518.46875 169.660156 524.242188 169.660156 L 581.570312 169.660156 L 581.570312 388.53125 C 581.570312 394.304688 586.25 398.984375 592.027344 398.984375 C 597.800781 398.984375 602.484375 394.304688 602.484375 388.53125 L 602.484375 159.207031 C 602.484375 156.441406 601.382812 153.773438 599.425781 151.8125 L 531.628906 84.0625 C 529.667969 82.105469 527.015625 81.003906 524.242188 81.003906 L 173.652344 81.003906 C 167.878906 81.003906 163.195312 85.683594 163.195312 91.457031 L 163.195312 633.480469 C 163.195312 639.253906 167.878906 643.933594 173.652344 643.933594 L 394.0625 643.933594 C 399.835938 643.933594 404.515625 639.253906 404.515625 633.480469 C 404.515625 627.699219 399.835938 623.027344 394.0625 623.027344 Z M 394.0625 623.027344 " fill-opacity="1" fill-rule="evenodd"/></g></svg>