<svg xmlns="http://www.w3.org/2000/svg" xmlns:xlink="http://www.w3.org/1999/xlink" width="1080" zoomAndPan="magnify" viewBox="0 0 810 809.999993" height="1080" preserveAspectRatio="xMidYMid meet" version="1.0"><defs><clipPath id="9ad30775a6"><path d="M 562 147 L 599.375 147 L 599.375 220 L 562 220 Z M 562 147 " clip-rule="nonzero"/></clipPath><clipPath id="d9fe201ba6"><path d="M 210.875 75.464844 L 581 75.464844 L 581 734.714844 L 210.875 734.714844 Z M 210.875 75.464844 " clip-rule="nonzero"/></clipPath></defs><path fill="#ceccbe" d="M 567.386719 208.378906 L 567.386719 158.710938 C 567.386719 154.988281 570.441406 151.9375 574.164062 151.9375 L 587.714844 151.9375 C 591.4375 151.9375 594.488281 154.980469 594.488281 158.710938 L 594.488281 208.378906 C 594.488281 212.109375 591.445312 215.152344 587.714844 215.152344 L 574.164062 215.152344 C 570.433594 215.152344 567.386719 212.101562 567.386719 208.378906 Z M 567.386719 208.378906 " fill-opacity="1" fill-rule="nonzero"/><g clip-path="url(#9ad30775a6)"><path fill="#1f212b" d="M 587.714844 219.667969 L 574.164062 219.667969 C 567.9375 219.667969 562.871094 214.601562 562.871094 208.378906 L 562.871094 158.710938 C 562.871094 152.488281 567.9375 147.421875 574.164062 147.421875 L 587.714844 147.421875 C 593.9375 147.421875 599.007812 152.488281 599.007812 158.710938 L 599.007812 208.378906 C 599.007812 214.601562 593.9375 219.667969 587.714844 219.667969 Z M 574.164062 156.453125 C 572.933594 156.453125 571.90625 157.480469 571.90625 158.710938 L 571.90625 208.378906 C 571.90625 209.609375 572.933594 210.636719 574.164062 210.636719 L 587.714844 210.636719 C 588.941406 210.636719 589.972656 209.609375 589.972656 208.378906 L 589.972656 158.710938 C 589.972656 157.480469 588.941406 156.453125 587.714844 156.453125 Z M 574.164062 156.453125 " fill-opacity="1" fill-rule="nonzero"/></g><path fill="#fefdef" d="M 526.734375 725.394531 L 264.738281 725.394531 C 239.894531 725.394531 219.570312 705.074219 219.570312 680.238281 L 219.570312 129.359375 C 219.570312 104.523438 239.894531 84.207031 264.738281 84.207031 L 526.734375 84.207031 C 551.578125 84.207031 571.90625 104.523438 571.90625 129.359375 L 571.90625 680.238281 C 571.90625 705.074219 551.578125 725.394531 526.734375 725.394531 Z M 526.734375 725.394531 " fill-opacity="1" fill-rule="nonzero"/><g clip-path="url(#d9fe201ba6)"><path fill="#1f212b" d="M 526.734375 734.425781 L 264.738281 734.425781 C 234.84375 734.425781 210.535156 710.121094 210.535156 680.238281 L 210.535156 129.359375 C 210.535156 99.476562 234.84375 75.175781 264.738281 75.175781 L 526.734375 75.175781 C 556.628906 75.175781 580.9375 99.476562 580.9375 129.359375 L 580.9375 680.238281 C 580.9375 710.113281 556.617188 734.425781 526.734375 734.425781 Z M 264.738281 93.238281 C 244.808594 93.238281 228.601562 109.4375 228.601562 129.359375 L 228.601562 680.238281 C 228.601562 700.160156 244.808594 716.363281 264.738281 716.363281 L 526.734375 716.363281 C 546.664062 716.363281 562.871094 700.160156 562.871094 680.238281 L 562.871094 129.359375 C 562.871094 109.4375 546.664062 93.238281 526.734375 93.238281 Z M 264.738281 93.238281 " fill-opacity="1" fill-rule="nonzero"/></g><path fill="#c7dff1" d="M 264.738281 165.484375 L 535.765625 165.484375 L 535.765625 617.023438 L 264.738281 617.023438 Z M 264.738281 165.484375 " fill-opacity="1" fill-rule="nonzero"/><path fill="#1f212b" d="M 260.222656 445.4375 C 257.730469 445.4375 255.707031 443.414062 255.707031 440.921875 L 255.707031 160.96875 C 255.707031 158.476562 257.730469 156.453125 260.222656 156.453125 L 495.113281 156.453125 C 497.605469 156.453125 499.628906 158.476562 499.628906 160.96875 C 499.628906 163.460938 497.605469 165.484375 495.113281 165.484375 L 264.738281 165.484375 L 264.738281 440.921875 C 264.738281 443.414062 262.714844 445.4375 260.222656 445.4375 Z M 531.25 617.023438 L 260.222656 617.023438 C 257.730469 617.023438 255.707031 615 255.707031 612.507812 L 255.707031 531.230469 C 255.707031 528.738281 257.730469 526.714844 260.222656 526.714844 C 262.714844 526.714844 264.738281 528.738281 264.738281 531.230469 L 264.738281 607.992188 L 526.734375 607.992188 L 526.734375 242.246094 C 526.734375 239.753906 528.757812 237.730469 531.25 237.730469 C 533.742188 237.730469 535.765625 239.753906 535.765625 242.246094 L 535.765625 612.507812 C 535.765625 615 533.742188 617.023438 531.25 617.023438 Z M 531.25 617.023438 " fill-opacity="1" fill-rule="nonzero"/><path fill="#ceccbe" d="M 391.21875 639.601562 C 390.480469 639.601562 389.742188 639.636719 389.003906 639.710938 C 388.269531 639.78125 387.539062 639.890625 386.8125 640.035156 C 386.085938 640.179688 385.371094 640.359375 384.664062 640.574219 C 383.957031 640.789062 383.257812 641.035156 382.578125 641.320312 C 381.894531 641.601562 381.226562 641.917969 380.574219 642.265625 C 379.921875 642.617188 379.285156 642.996094 378.671875 643.40625 C 378.054688 643.816406 377.464844 644.257812 376.890625 644.726562 C 376.320312 645.195312 375.773438 645.691406 375.25 646.214844 C 374.726562 646.738281 374.230469 647.285156 373.761719 647.855469 C 373.292969 648.425781 372.851562 649.019531 372.441406 649.636719 C 372.027344 650.25 371.648438 650.882812 371.300781 651.535156 C 370.953125 652.1875 370.636719 652.855469 370.351562 653.539062 C 370.070312 654.222656 369.820312 654.917969 369.605469 655.625 C 369.390625 656.332031 369.210938 657.046875 369.066406 657.773438 C 368.921875 658.5 368.816406 659.230469 368.742188 659.964844 C 368.671875 660.699219 368.632812 661.4375 368.632812 662.179688 C 368.632812 662.917969 368.671875 663.65625 368.742188 664.390625 C 368.816406 665.125 368.921875 665.855469 369.066406 666.582031 C 369.210938 667.308594 369.390625 668.023438 369.605469 668.730469 C 369.820312 669.4375 370.070312 670.136719 370.351562 670.816406 C 370.636719 671.5 370.953125 672.167969 371.300781 672.820312 C 371.648438 673.472656 372.027344 674.105469 372.441406 674.722656 C 372.851562 675.335938 373.292969 675.929688 373.761719 676.5 C 374.230469 677.074219 374.726562 677.621094 375.25 678.140625 C 375.773438 678.664062 376.320312 679.160156 376.890625 679.628906 C 377.464844 680.097656 378.054688 680.539062 378.671875 680.949219 C 379.285156 681.359375 379.921875 681.742188 380.574219 682.089844 C 381.226562 682.4375 381.894531 682.753906 382.578125 683.035156 C 383.257812 683.320312 383.957031 683.570312 384.664062 683.78125 C 385.371094 683.996094 386.085938 684.175781 386.8125 684.320312 C 387.539062 684.464844 388.269531 684.574219 389.003906 684.648438 C 389.742188 684.71875 390.480469 684.753906 391.21875 684.753906 C 391.960938 684.753906 392.695312 684.71875 393.433594 684.648438 C 394.167969 684.574219 394.898438 684.464844 395.625 684.320312 C 396.351562 684.175781 397.066406 683.996094 397.777344 683.78125 C 398.484375 683.570312 399.179688 683.320312 399.863281 683.035156 C 400.546875 682.753906 401.214844 682.4375 401.867188 682.089844 C 402.519531 681.742188 403.152344 681.359375 403.765625 680.949219 C 404.382812 680.539062 404.976562 680.097656 405.546875 679.628906 C 406.121094 679.160156 406.667969 678.664062 407.191406 678.140625 C 407.710938 677.621094 408.210938 677.074219 408.679688 676.5 C 409.148438 675.929688 409.585938 675.335938 410 674.722656 C 410.410156 674.105469 410.789062 673.472656 411.136719 672.820312 C 411.488281 672.167969 411.800781 671.5 412.085938 670.816406 C 412.367188 670.136719 412.617188 669.4375 412.832031 668.730469 C 413.046875 668.023438 413.226562 667.308594 413.371094 666.582031 C 413.515625 665.855469 413.625 665.125 413.695312 664.390625 C 413.769531 663.65625 413.804688 662.917969 413.804688 662.179688 C 413.804688 661.4375 413.769531 660.699219 413.695312 659.964844 C 413.625 659.230469 413.515625 658.5 413.371094 657.773438 C 413.226562 657.046875 413.046875 656.332031 412.832031 655.625 C 412.617188 654.917969 412.367188 654.222656 412.085938 653.539062 C 411.800781 652.855469 411.488281 652.1875 411.136719 651.535156 C 410.789062 650.882812 410.410156 650.25 410 649.636719 C 409.585938 649.019531 409.148438 648.425781 408.679688 647.855469 C 408.210938 647.285156 407.710938 646.738281 407.191406 646.214844 C 406.667969 645.691406 406.121094 645.195312 405.546875 644.726562 C 404.976562 644.257812 404.382812 643.816406 403.765625 643.40625 C 403.152344 642.996094 402.519531 642.617188 401.867188 642.265625 C 401.214844 641.917969 400.546875 641.601562 399.863281 641.320312 C 399.179688 641.035156 398.484375 640.789062 397.777344 640.574219 C 397.066406 640.359375 396.351562 640.179688 395.625 640.035156 C 394.898438 639.890625 394.167969 639.78125 393.433594 639.710938 C 392.695312 639.636719 391.960938 639.601562 391.21875 639.601562 Z M 391.21875 639.601562 " fill-opacity="1" fill-rule="nonzero"/><path fill="#1f212b" d="M 391.21875 689.269531 C 376.277344 689.269531 364.117188 677.113281 364.117188 662.179688 C 364.117188 647.242188 376.277344 635.085938 391.21875 635.085938 C 406.160156 635.085938 418.320312 647.242188 418.320312 662.179688 C 418.320312 677.113281 406.160156 689.269531 391.21875 689.269531 Z M 391.21875 644.117188 C 381.253906 644.117188 373.152344 652.21875 373.152344 662.179688 C 373.152344 672.140625 381.253906 680.238281 391.21875 680.238281 C 401.183594 680.238281 409.289062 672.140625 409.289062 662.179688 C 409.289062 652.21875 401.183594 644.117188 391.21875 644.117188 Z M 432.28125 129.359375 L 359.183594 129.359375 C 356.925781 129.359375 355.082031 127.515625 355.082031 125.257812 L 355.082031 124.4375 C 355.082031 122.179688 356.925781 120.335938 359.183594 120.335938 L 432.28125 120.335938 C 434.539062 120.335938 436.382812 122.179688 436.382812 124.4375 L 436.382812 125.257812 C 436.390625 127.507812 434.539062 129.359375 432.28125 129.359375 Z M 432.28125 129.359375 " fill-opacity="1" fill-rule="nonzero"/><path fill="#a1d3a2" d="M 331.179688 251.277344 L 297.679688 251.277344 C 291.988281 251.277344 287.324219 246.617188 287.324219 240.925781 L 287.324219 207.441406 C 287.324219 201.75 291.988281 197.089844 297.679688 197.089844 L 331.179688 197.089844 C 336.871094 197.089844 341.53125 201.75 341.53125 207.441406 L 341.53125 240.925781 C 341.53125 246.617188 336.871094 251.277344 331.179688 251.277344 Z M 331.179688 251.277344 " fill-opacity="1" fill-rule="nonzero"/><path fill="#1f212b" d="M 331.179688 255.792969 L 297.679688 255.792969 C 289.476562 255.792969 282.808594 249.125 282.808594 240.925781 L 282.808594 207.429688 C 282.808594 199.238281 289.476562 192.566406 297.679688 192.566406 L 331.179688 192.566406 C 339.382812 192.566406 346.046875 199.230469 346.046875 207.429688 L 346.046875 240.925781 C 346.046875 249.117188 339.371094 255.792969 331.179688 255.792969 Z M 297.679688 201.605469 C 294.460938 201.605469 291.84375 204.226562 291.84375 207.441406 L 291.84375 240.933594 C 291.84375 244.140625 294.460938 246.769531 297.679688 246.769531 L 331.179688 246.769531 C 334.394531 246.769531 337.015625 244.152344 337.015625 240.933594 L 337.015625 207.441406 C 337.015625 204.234375 334.394531 201.605469 331.179688 201.605469 Z M 297.679688 201.605469 " fill-opacity="1" fill-rule="nonzero"/><path fill="#78a2d2" d="M 412.484375 251.277344 L 378.988281 251.277344 C 373.296875 251.277344 368.632812 246.617188 368.632812 240.925781 L 368.632812 207.441406 C 368.632812 201.75 373.296875 197.089844 378.988281 197.089844 L 412.484375 197.089844 C 418.175781 197.089844 422.839844 201.75 422.839844 207.441406 L 422.839844 240.925781 C 422.839844 246.617188 418.175781 251.277344 412.484375 251.277344 Z M 412.484375 251.277344 " fill-opacity="1" fill-rule="nonzero"/><path fill="#1f212b" d="M 412.484375 255.792969 L 378.988281 255.792969 C 370.785156 255.792969 364.117188 249.125 364.117188 240.925781 L 364.117188 207.429688 C 364.117188 199.238281 370.785156 192.566406 378.988281 192.566406 L 412.484375 192.566406 C 420.6875 192.566406 427.355469 199.230469 427.355469 207.429688 L 427.355469 240.925781 C 427.355469 249.117188 420.679688 255.792969 412.484375 255.792969 Z M 378.988281 201.605469 C 375.769531 201.605469 373.152344 204.226562 373.152344 207.441406 L 373.152344 240.933594 C 373.152344 244.140625 375.769531 246.769531 378.988281 246.769531 L 412.484375 246.769531 C 415.703125 246.769531 418.320312 244.152344 418.320312 240.933594 L 418.320312 207.441406 C 418.320312 204.234375 415.703125 201.605469 412.484375 201.605469 Z M 378.988281 201.605469 " fill-opacity="1" fill-rule="nonzero"/><path fill="#fef6aa" d="M 493.792969 251.277344 L 460.296875 251.277344 C 454.605469 251.277344 449.941406 246.617188 449.941406 240.925781 L 449.941406 207.441406 C 449.941406 201.75 454.605469 197.089844 460.296875 197.089844 L 493.792969 197.089844 C 499.484375 197.089844 504.148438 201.75 504.148438 207.441406 L 504.148438 240.925781 C 504.148438 246.617188 499.484375 251.277344 493.792969 251.277344 Z M 493.792969 251.277344 " fill-opacity="1" fill-rule="nonzero"/><path fill="#1f212b" d="M 493.792969 255.792969 L 460.296875 255.792969 C 452.09375 255.792969 445.425781 249.125 445.425781 240.925781 L 445.425781 207.429688 C 445.425781 199.238281 452.09375 192.566406 460.296875 192.566406 L 493.792969 192.566406 C 501.996094 192.566406 508.664062 199.230469 508.664062 207.429688 L 508.664062 240.925781 C 508.664062 249.117188 501.988281 255.792969 493.792969 255.792969 Z M 460.296875 201.605469 C 457.078125 201.605469 454.460938 204.226562 454.460938 207.441406 L 454.460938 240.933594 C 454.460938 244.140625 457.078125 246.769531 460.296875 246.769531 L 493.792969 246.769531 C 497.011719 246.769531 499.628906 244.152344 499.628906 240.933594 L 499.628906 207.441406 C 499.628906 204.234375 497.011719 201.605469 493.792969 201.605469 Z M 460.296875 201.605469 " fill-opacity="1" fill-rule="nonzero"/><path fill="#f69272" d="M 331.179688 332.554688 L 297.679688 332.554688 C 291.988281 332.554688 287.324219 327.894531 287.324219 322.203125 L 287.324219 288.71875 C 287.324219 283.027344 291.988281 278.367188 297.679688 278.367188 L 331.179688 278.367188 C 336.871094 278.367188 341.53125 283.027344 341.53125 288.71875 L 341.53125 322.203125 C 341.53125 327.894531 336.871094 332.554688 331.179688 332.554688 Z M 331.179688 332.554688 " fill-opacity="1" fill-rule="nonzero"/><path fill="#1f212b" d="M 331.179688 337.070312 L 297.679688 337.070312 C 289.476562 337.070312 282.808594 330.402344 282.808594 322.203125 L 282.808594 288.707031 C 282.808594 280.515625 289.476562 273.84375 297.679688 273.84375 L 331.179688 273.84375 C 339.382812 273.84375 346.046875 280.507812 346.046875 288.707031 L 346.046875 322.203125 C 346.046875 330.394531 339.371094 337.070312 331.179688 337.070312 Z M 297.679688 282.882812 C 294.460938 282.882812 291.84375 285.503906 291.84375 288.71875 L 291.84375 322.210938 C 291.84375 325.417969 294.460938 328.046875 297.679688 328.046875 L 331.179688 328.046875 C 334.394531 328.046875 337.015625 325.429688 337.015625 322.210938 L 337.015625 288.71875 C 337.015625 285.511719 334.394531 282.882812 331.179688 282.882812 Z M 297.679688 282.882812 " fill-opacity="1" fill-rule="nonzero"/><path fill="#f37e98" d="M 412.484375 332.554688 L 378.988281 332.554688 C 373.296875 332.554688 368.632812 327.894531 368.632812 322.203125 L 368.632812 288.71875 C 368.632812 283.027344 373.296875 278.367188 378.988281 278.367188 L 412.484375 278.367188 C 418.175781 278.367188 422.839844 283.027344 422.839844 288.71875 L 422.839844 322.203125 C 422.839844 327.894531 418.175781 332.554688 412.484375 332.554688 Z M 412.484375 332.554688 " fill-opacity="1" fill-rule="nonzero"/><path fill="#1f212b" d="M 412.484375 337.070312 L 378.988281 337.070312 C 370.785156 337.070312 364.117188 330.402344 364.117188 322.203125 L 364.117188 288.707031 C 364.117188 280.515625 370.785156 273.84375 378.988281 273.84375 L 412.484375 273.84375 C 420.6875 273.84375 427.355469 280.507812 427.355469 288.707031 L 427.355469 322.203125 C 427.355469 330.394531 420.679688 337.070312 412.484375 337.070312 Z M 378.988281 282.882812 C 375.769531 282.882812 373.152344 285.503906 373.152344 288.71875 L 373.152344 322.210938 C 373.152344 325.417969 375.769531 328.046875 378.988281 328.046875 L 412.484375 328.046875 C 415.703125 328.046875 418.320312 325.429688 418.320312 322.210938 L 418.320312 288.71875 C 418.320312 285.511719 415.703125 282.882812 412.484375 282.882812 Z M 378.988281 282.882812 " fill-opacity="1" fill-rule="nonzero"/><path fill="#00a7a7" d="M 493.792969 332.554688 L 460.296875 332.554688 C 454.605469 332.554688 449.941406 327.894531 449.941406 322.203125 L 449.941406 288.71875 C 449.941406 283.027344 454.605469 278.367188 460.296875 278.367188 L 493.792969 278.367188 C 499.484375 278.367188 504.148438 283.027344 504.148438 288.71875 L 504.148438 322.203125 C 504.148438 327.894531 499.484375 332.554688 493.792969 332.554688 Z M 493.792969 332.554688 " fill-opacity="1" fill-rule="nonzero"/><path fill="#1f212b" d="M 493.792969 337.070312 L 460.296875 337.070312 C 452.09375 337.070312 445.425781 330.402344 445.425781 322.203125 L 445.425781 288.707031 C 445.425781 280.515625 452.09375 273.84375 460.296875 273.84375 L 493.792969 273.84375 C 501.996094 273.84375 508.664062 280.507812 508.664062 288.707031 L 508.664062 322.203125 C 508.664062 330.394531 501.988281 337.070312 493.792969 337.070312 Z M 460.296875 282.882812 C 457.078125 282.882812 454.460938 285.503906 454.460938 288.71875 L 454.460938 322.210938 C 454.460938 325.417969 457.078125 328.046875 460.296875 328.046875 L 493.792969 328.046875 C 497.011719 328.046875 499.628906 325.429688 499.628906 322.210938 L 499.628906 288.71875 C 499.628906 285.511719 497.011719 282.882812 493.792969 282.882812 Z M 531.25 192.574219 C 528.757812 192.574219 526.734375 190.550781 526.734375 188.058594 L 526.734375 160.96875 C 526.734375 158.476562 528.757812 156.453125 531.25 156.453125 C 533.742188 156.453125 535.765625 158.476562 535.765625 160.96875 L 535.765625 188.058594 C 535.765625 190.550781 533.742188 192.574219 531.25 192.574219 Z M 531.25 210.636719 C 530.617188 210.636719 530.074219 210.546875 529.535156 210.277344 C 528.992188 210.085938 528.449219 209.726562 528.089844 209.28125 C 527.183594 208.46875 526.734375 207.296875 526.734375 206.121094 C 526.734375 204.949219 527.183594 203.773438 528.089844 202.953125 C 528.449219 202.5 528.992188 202.140625 529.535156 201.96875 C 531.160156 201.246094 533.238281 201.695312 534.414062 202.953125 C 535.316406 203.773438 535.765625 204.949219 535.765625 206.121094 C 535.765625 207.296875 535.316406 208.46875 534.414062 209.28125 C 533.589844 210.183594 532.425781 210.636719 531.25 210.636719 Z M 260.222656 517.683594 C 257.730469 517.683594 255.707031 515.660156 255.707031 513.167969 L 255.707031 495.109375 C 255.707031 492.617188 257.730469 490.59375 260.222656 490.59375 C 262.714844 490.59375 264.738281 492.617188 264.738281 495.109375 L 264.738281 513.167969 C 264.738281 515.660156 262.714844 517.683594 260.222656 517.683594 Z M 260.222656 517.683594 " fill-opacity="1" fill-rule="nonzero"/></svg>