<svg xmlns="http://www.w3.org/2000/svg" xmlns:xlink="http://www.w3.org/1999/xlink" width="1080" zoomAndPan="magnify" viewBox="0 0 810 809.999993" height="1080" preserveAspectRatio="xMidYMid meet" version="1.2"><defs><clipPath id="ba3720f8be"><path d="M 89 91 L 721 91 L 721 722.371094 L 89 722.371094 Z M 89 91 "/></clipPath></defs><g id="57a4b3e825"><g clip-rule="nonzero" clip-path="url(#ba3720f8be)"><path style=" stroke:none;fill-rule:nonzero;fill:#5d4c44;fill-opacity:1;" d="M 472.488281 406.945312 L 706.226562 173.226562 C 707.300781 172.113281 708.320312 170.953125 709.28125 169.742188 C 710.242188 168.53125 711.144531 167.273438 711.984375 165.976562 C 712.824219 164.675781 713.597656 163.339844 714.308594 161.964844 C 715.019531 160.589844 715.660156 159.183594 716.234375 157.75 C 716.808594 156.3125 717.308594 154.851562 717.742188 153.363281 C 718.171875 151.878906 718.53125 150.375 718.816406 148.855469 C 719.101562 147.335938 719.3125 145.804688 719.449219 144.265625 C 719.585938 142.722656 719.644531 141.179688 719.632812 139.632812 C 719.621094 138.085938 719.53125 136.542969 719.367188 135.003906 C 719.203125 133.46875 718.96875 131.941406 718.65625 130.425781 C 718.34375 128.910156 717.960938 127.414062 717.503906 125.9375 C 717.046875 124.457031 716.519531 123.003906 715.917969 121.578125 C 715.320312 120.152344 714.65625 118.757812 713.921875 117.398438 C 713.1875 116.035156 712.390625 114.710938 711.527344 113.425781 C 710.664062 112.144531 709.742188 110.902344 708.761719 109.707031 C 707.777344 108.515625 706.738281 107.371094 705.644531 106.277344 C 704.550781 105.183594 703.40625 104.144531 702.214844 103.160156 C 701.019531 102.179688 699.777344 101.257812 698.496094 100.394531 C 697.210938 99.53125 695.886719 98.734375 694.527344 98 C 693.164062 97.265625 691.769531 96.601562 690.34375 96.003906 C 688.917969 95.40625 687.464844 94.878906 685.988281 94.421875 C 684.507812 93.960938 683.011719 93.578125 681.496094 93.265625 C 679.980469 92.957031 678.457031 92.71875 676.917969 92.554688 C 675.378906 92.390625 673.835938 92.300781 672.289062 92.289062 C 670.742188 92.277344 669.199219 92.335938 667.65625 92.472656 C 666.117188 92.609375 664.585938 92.820312 663.066406 93.105469 C 661.546875 93.390625 660.042969 93.75 658.558594 94.183594 C 657.070312 94.613281 655.609375 95.117188 654.175781 95.6875 C 652.738281 96.261719 651.332031 96.902344 649.957031 97.613281 C 648.582031 98.324219 647.246094 99.097656 645.945312 99.9375 C 644.648438 100.777344 643.394531 101.679688 642.179688 102.640625 C 640.96875 103.601562 639.808594 104.621094 638.695312 105.695312 L 404.957031 339.414062 L 171.238281 105.695312 C 170.132812 104.585938 168.976562 103.539062 167.765625 102.542969 C 166.558594 101.550781 165.304688 100.621094 164.003906 99.75 C 162.703125 98.882812 161.363281 98.078125 159.984375 97.339844 C 158.605469 96.601562 157.195312 95.933594 155.75 95.332031 C 154.304688 94.734375 152.832031 94.207031 151.335938 93.753906 C 149.839844 93.300781 148.324219 92.917969 146.789062 92.613281 C 145.253906 92.308594 143.710938 92.078125 142.152344 91.925781 C 140.597656 91.773438 139.035156 91.695312 137.472656 91.695312 C 135.90625 91.695312 134.347656 91.773438 132.789062 91.925781 C 131.234375 92.078125 129.6875 92.308594 128.152344 92.613281 C 126.621094 92.917969 125.105469 93.300781 123.609375 93.753906 C 122.109375 94.207031 120.640625 94.734375 119.195312 95.332031 C 117.75 95.933594 116.339844 96.601562 114.957031 97.339844 C 113.578125 98.078125 112.238281 98.882812 110.941406 99.75 C 109.640625 100.621094 108.386719 101.550781 107.175781 102.542969 C 105.96875 103.539062 104.8125 104.585938 103.707031 105.695312 C 102.597656 106.800781 101.546875 107.957031 100.554688 109.164062 C 99.5625 110.375 98.632812 111.628906 97.761719 112.929688 C 96.890625 114.230469 96.089844 115.570312 95.351562 116.949219 C 94.613281 118.328125 93.945312 119.738281 93.34375 121.183594 C 92.746094 122.628906 92.21875 124.101562 91.765625 125.597656 C 91.308594 127.09375 90.929688 128.609375 90.625 130.144531 C 90.320312 131.675781 90.089844 133.222656 89.9375 134.78125 C 89.78125 136.335938 89.707031 137.898438 89.707031 139.460938 C 89.707031 141.023438 89.78125 142.585938 89.9375 144.140625 C 90.089844 145.699219 90.320312 147.246094 90.625 148.777344 C 90.929688 150.3125 91.308594 151.828125 91.765625 153.324219 C 92.21875 154.820312 92.746094 156.292969 93.34375 157.738281 C 93.945312 159.183594 94.613281 160.59375 95.351562 161.972656 C 96.089844 163.351562 96.890625 164.691406 97.761719 165.992188 C 98.632812 167.292969 99.5625 168.546875 100.554688 169.757812 C 101.546875 170.964844 102.597656 172.121094 103.707031 173.226562 L 337.425781 406.945312 L 103.171875 641.21875 C 101.507812 642.878906 99.972656 644.652344 98.570312 646.535156 C 97.167969 648.421875 95.914062 650.402344 94.800781 652.472656 C 93.691406 654.542969 92.738281 656.683594 91.945312 658.898438 C 91.152344 661.109375 90.527344 663.367188 90.066406 665.671875 C 89.605469 667.976562 89.316406 670.300781 89.199219 672.648438 C 89.085938 674.996094 89.140625 677.339844 89.371094 679.675781 C 89.601562 682.015625 90 684.324219 90.570312 686.605469 C 91.140625 688.882812 91.878906 691.109375 92.777344 693.28125 C 93.675781 695.453125 94.730469 697.546875 95.941406 699.5625 C 97.148438 701.574219 98.5 703.492188 99.992188 705.308594 C 101.480469 707.125 103.097656 708.820312 104.839844 710.394531 C 106.582031 711.972656 108.433594 713.414062 110.386719 714.71875 C 112.34375 716.019531 114.382812 717.175781 116.507812 718.175781 C 118.632812 719.179688 120.820312 720.019531 123.070312 720.699219 C 125.320312 721.378906 127.609375 721.886719 129.933594 722.230469 C 132.257812 722.570312 134.597656 722.738281 136.945312 722.734375 C 149.171875 722.734375 161.398438 718.074219 170.722656 708.75 L 404.976562 474.480469 L 638.695312 708.199219 C 640.910156 710.417969 643.320312 712.398438 645.929688 714.144531 C 648.535156 715.886719 651.289062 717.359375 654.1875 718.558594 C 657.085938 719.757812 660.074219 720.664062 663.148438 721.273438 C 666.226562 721.882812 669.335938 722.1875 672.472656 722.183594 C 674.820312 722.179688 677.152344 722.007812 679.476562 721.664062 C 681.800781 721.320312 684.082031 720.804688 686.332031 720.125 C 688.578125 719.441406 690.761719 718.597656 692.882812 717.59375 C 695.007812 716.589844 697.042969 715.4375 698.996094 714.132812 C 700.949219 712.828125 702.796875 711.386719 704.535156 709.808594 C 706.273438 708.230469 707.890625 706.535156 709.378906 704.722656 C 710.867188 702.90625 712.21875 700.992188 713.425781 698.976562 C 714.632812 696.964844 715.683594 694.871094 716.582031 692.703125 C 717.480469 690.535156 718.21875 688.3125 718.789062 686.035156 C 719.359375 683.753906 719.757812 681.449219 719.988281 679.113281 C 720.21875 676.777344 720.277344 674.433594 720.164062 672.089844 C 720.050781 669.742188 719.761719 667.421875 719.304688 665.117188 C 718.847656 662.8125 718.222656 660.558594 717.433594 658.347656 C 716.644531 656.136719 715.695312 653.992188 714.589844 651.921875 C 713.484375 649.851562 712.230469 647.871094 710.832031 645.984375 C 709.433594 644.101562 707.90625 642.324219 706.246094 640.664062 Z M 472.488281 406.945312 "/></g></g></svg>