<svg xmlns="http://www.w3.org/2000/svg" xmlns:xlink="http://www.w3.org/1999/xlink" width="1080" zoomAndPan="magnify" viewBox="0 0 810 809.999993" height="1080" preserveAspectRatio="xMidYMid meet" version="1.0"><defs><clipPath id="be66b96a56"><path d="M 252 77.964844 L 558 77.964844 L 558 536 L 252 536 Z M 252 77.964844 " clip-rule="nonzero"/></clipPath><clipPath id="8a42cfdba9"><path d="M 143.371094 361 L 666.871094 361 L 666.871094 731.964844 L 143.371094 731.964844 Z M 143.371094 361 " clip-rule="nonzero"/></clipPath></defs><rect x="-81" width="972" fill="#ffffff" y="-80.999999" height="971.999992" fill-opacity="1"/><rect x="-81" width="972" fill="#ffffff" y="-80.999999" height="971.999992" fill-opacity="1"/><g clip-path="url(#be66b96a56)"><path fill="#000000" d="M 361.496094 535.765625 L 448.746094 535.765625 C 450.53125 535.761719 452.3125 535.714844 454.097656 535.625 C 455.878906 535.535156 457.65625 535.402344 459.433594 535.226562 C 461.207031 535.050781 462.976562 534.832031 464.742188 534.566406 C 466.507812 534.304688 468.265625 533.996094 470.015625 533.648438 C 471.765625 533.296875 473.503906 532.90625 475.234375 532.472656 C 476.964844 532.035156 478.683594 531.558594 480.390625 531.039062 C 482.097656 530.523438 483.792969 529.960938 485.472656 529.359375 C 487.152344 528.757812 488.816406 528.113281 490.460938 527.433594 C 492.109375 526.75 493.742188 526.023438 495.355469 525.261719 C 496.964844 524.5 498.558594 523.695312 500.132812 522.855469 C 501.707031 522.011719 503.257812 521.132812 504.789062 520.214844 C 506.316406 519.300781 507.824219 518.34375 509.308594 517.355469 C 510.789062 516.363281 512.25 515.335938 513.683594 514.273438 C 515.113281 513.210938 516.519531 512.113281 517.898438 510.980469 C 519.277344 509.851562 520.628906 508.6875 521.953125 507.488281 C 523.273438 506.289062 524.566406 505.0625 525.828125 503.800781 C 527.089844 502.539062 528.320312 501.25 529.515625 499.925781 C 530.714844 498.605469 531.878906 497.257812 533.011719 495.878906 C 534.144531 494.5 535.242188 493.09375 536.304688 491.660156 C 537.371094 490.230469 538.398438 488.773438 539.386719 487.289062 C 540.378906 485.808594 541.335938 484.300781 542.253906 482.773438 C 543.171875 481.242188 544.050781 479.691406 544.890625 478.121094 C 545.734375 476.546875 546.535156 474.957031 547.300781 473.34375 C 548.066406 471.734375 548.789062 470.101562 549.472656 468.457031 C 550.15625 466.808594 550.800781 465.144531 551.402344 463.46875 C 552.003906 461.789062 552.5625 460.097656 553.082031 458.390625 C 553.601562 456.683594 554.078125 454.964844 554.515625 453.238281 C 554.949219 451.507812 555.34375 449.769531 555.691406 448.019531 C 556.042969 446.269531 556.347656 444.515625 556.613281 442.75 C 556.875 440.988281 557.09375 439.21875 557.273438 437.445312 C 557.449219 435.667969 557.582031 433.890625 557.671875 432.109375 C 557.761719 430.328125 557.808594 428.546875 557.808594 426.765625 L 448.746094 426.765625 C 448.03125 426.765625 447.320312 426.730469 446.609375 426.660156 C 445.898438 426.589844 445.191406 426.484375 444.492188 426.34375 C 443.789062 426.207031 443.097656 426.03125 442.414062 425.824219 C 441.730469 425.617188 441.058594 425.378906 440.398438 425.105469 C 439.738281 424.832031 439.09375 424.527344 438.464844 424.191406 C 437.835938 423.851562 437.222656 423.488281 436.628906 423.089844 C 436.035156 422.695312 435.460938 422.269531 434.910156 421.816406 C 434.355469 421.363281 433.828125 420.882812 433.324219 420.378906 C 432.816406 419.875 432.339844 419.347656 431.886719 418.792969 C 431.433594 418.242188 431.007812 417.667969 430.609375 417.074219 C 430.214844 416.480469 429.847656 415.871094 429.507812 415.242188 C 429.171875 414.609375 428.867188 413.964844 428.59375 413.308594 C 428.320312 412.648438 428.082031 411.976562 427.875 411.292969 C 427.664062 410.609375 427.492188 409.917969 427.351562 409.21875 C 427.214844 408.515625 427.109375 407.8125 427.039062 407.101562 C 426.96875 406.390625 426.933594 405.679688 426.933594 404.964844 C 426.933594 404.25 426.96875 403.539062 427.039062 402.828125 C 427.109375 402.117188 427.214844 401.410156 427.351562 400.710938 C 427.492188 400.011719 427.664062 399.320312 427.875 398.636719 C 428.082031 397.953125 428.320312 397.28125 428.59375 396.621094 C 428.867188 395.960938 429.171875 395.316406 429.507812 394.6875 C 429.847656 394.058594 430.214844 393.445312 430.609375 392.851562 C 431.007812 392.257812 431.433594 391.6875 431.886719 391.132812 C 432.339844 390.582031 432.816406 390.054688 433.324219 389.550781 C 433.828125 389.042969 434.355469 388.566406 434.910156 388.113281 C 435.460938 387.660156 436.035156 387.234375 436.628906 386.839844 C 437.222656 386.441406 437.835938 386.074219 438.464844 385.738281 C 439.09375 385.402344 439.738281 385.097656 440.398438 384.824219 C 441.058594 384.550781 441.730469 384.308594 442.414062 384.101562 C 443.097656 383.894531 443.789062 383.722656 444.492188 383.582031 C 445.191406 383.445312 445.898438 383.339844 446.609375 383.269531 C 447.320312 383.199219 448.03125 383.164062 448.746094 383.164062 L 557.808594 383.164062 L 557.808594 339.566406 L 448.746094 339.566406 C 448.03125 339.566406 447.320312 339.53125 446.609375 339.460938 C 445.898438 339.390625 445.191406 339.285156 444.492188 339.144531 C 443.789062 339.007812 443.097656 338.832031 442.414062 338.625 C 441.730469 338.417969 441.058594 338.179688 440.398438 337.90625 C 439.738281 337.632812 439.09375 337.328125 438.464844 336.992188 C 437.835938 336.652344 437.222656 336.289062 436.628906 335.890625 C 436.035156 335.492188 435.460938 335.070312 434.910156 334.617188 C 434.355469 334.164062 433.828125 333.683594 433.324219 333.179688 C 432.816406 332.675781 432.339844 332.144531 431.886719 331.59375 C 431.433594 331.042969 431.007812 330.46875 430.609375 329.875 C 430.214844 329.28125 429.847656 328.671875 429.507812 328.042969 C 429.171875 327.410156 428.867188 326.765625 428.59375 326.105469 C 428.320312 325.449219 428.082031 324.777344 427.875 324.09375 C 427.664062 323.410156 427.492188 322.71875 427.351562 322.019531 C 427.214844 321.316406 427.109375 320.613281 427.039062 319.902344 C 426.96875 319.191406 426.933594 318.480469 426.933594 317.765625 C 426.933594 317.050781 426.96875 316.339844 427.039062 315.628906 C 427.109375 314.917969 427.214844 314.210938 427.351562 313.511719 C 427.492188 312.8125 427.664062 312.121094 427.875 311.4375 C 428.082031 310.753906 428.320312 310.082031 428.59375 309.421875 C 428.867188 308.761719 429.171875 308.117188 429.507812 307.488281 C 429.847656 306.859375 430.214844 306.246094 430.609375 305.652344 C 431.007812 305.058594 431.433594 304.488281 431.886719 303.933594 C 432.339844 303.382812 432.816406 302.855469 433.324219 302.351562 C 433.828125 301.84375 434.355469 301.367188 434.910156 300.914062 C 435.460938 300.460938 436.035156 300.035156 436.628906 299.640625 C 437.222656 299.242188 437.835938 298.875 438.464844 298.539062 C 439.09375 298.203125 439.738281 297.898438 440.398438 297.625 C 441.058594 297.351562 441.730469 297.109375 442.414062 296.902344 C 443.097656 296.695312 443.789062 296.523438 444.492188 296.382812 C 445.191406 296.246094 445.898438 296.140625 446.609375 296.070312 C 447.320312 296 448.03125 295.964844 448.746094 295.964844 L 557.808594 295.964844 L 557.808594 252.363281 L 448.746094 252.363281 C 448.03125 252.363281 447.320312 252.328125 446.609375 252.261719 C 445.898438 252.191406 445.191406 252.085938 444.492188 251.945312 C 443.789062 251.808594 443.097656 251.632812 442.414062 251.425781 C 441.730469 251.21875 441.058594 250.980469 440.398438 250.707031 C 439.738281 250.433594 439.09375 250.128906 438.464844 249.789062 C 437.835938 249.453125 437.222656 249.085938 436.628906 248.691406 C 436.035156 248.292969 435.460938 247.871094 434.910156 247.417969 C 434.355469 246.964844 433.828125 246.484375 433.324219 245.980469 C 432.816406 245.476562 432.339844 244.945312 431.886719 244.394531 C 431.433594 243.84375 431.007812 243.269531 430.609375 242.675781 C 430.214844 242.082031 429.847656 241.472656 429.507812 240.839844 C 429.171875 240.210938 428.867188 239.566406 428.59375 238.90625 C 428.320312 238.246094 428.082031 237.578125 427.875 236.894531 C 427.664062 236.210938 427.492188 235.519531 427.351562 234.816406 C 427.214844 234.117188 427.109375 233.414062 427.039062 232.703125 C 426.96875 231.992188 426.933594 231.277344 426.933594 230.566406 C 426.933594 229.851562 426.96875 229.140625 427.039062 228.429688 C 427.109375 227.71875 427.214844 227.011719 427.351562 226.3125 C 427.492188 225.613281 427.664062 224.921875 427.875 224.238281 C 428.082031 223.554688 428.320312 222.882812 428.59375 222.222656 C 428.867188 221.5625 429.171875 220.917969 429.507812 220.289062 C 429.847656 219.660156 430.214844 219.046875 430.609375 218.453125 C 431.007812 217.859375 431.433594 217.289062 431.886719 216.734375 C 432.339844 216.183594 432.816406 215.65625 433.324219 215.148438 C 433.828125 214.644531 434.355469 214.167969 434.910156 213.714844 C 435.460938 213.261719 436.035156 212.835938 436.628906 212.4375 C 437.222656 212.042969 437.835938 211.675781 438.464844 211.339844 C 439.09375 211.003906 439.738281 210.699219 440.398438 210.425781 C 441.058594 210.152344 441.730469 209.910156 442.414062 209.703125 C 443.097656 209.496094 443.789062 209.324219 444.492188 209.183594 C 445.191406 209.042969 445.898438 208.941406 446.609375 208.871094 C 447.320312 208.800781 448.03125 208.765625 448.746094 208.765625 L 557.808594 208.765625 L 557.808594 186.964844 C 557.808594 185.183594 557.761719 183.398438 557.671875 181.617188 C 557.582031 179.835938 557.449219 178.058594 557.273438 176.285156 C 557.09375 174.511719 556.875 172.742188 556.613281 170.976562 C 556.347656 169.214844 556.042969 167.457031 555.691406 165.710938 C 555.34375 163.960938 554.949219 162.222656 554.515625 160.492188 C 554.078125 158.761719 553.601562 157.046875 553.082031 155.339844 C 552.5625 153.632812 552.003906 151.941406 551.402344 150.261719 C 550.800781 148.582031 550.15625 146.921875 549.472656 145.273438 C 548.789062 143.625 548.066406 141.996094 547.300781 140.386719 C 546.535156 138.773438 545.734375 137.179688 544.890625 135.609375 C 544.050781 134.035156 543.171875 132.484375 542.253906 130.957031 C 541.335938 129.425781 540.378906 127.921875 539.386719 126.4375 C 538.398438 124.957031 537.371094 123.5 536.304688 122.066406 C 535.242188 120.636719 534.144531 119.230469 533.011719 117.851562 C 531.878906 116.472656 530.714844 115.125 529.515625 113.800781 C 528.320312 112.480469 527.089844 111.191406 525.828125 109.929688 C 524.566406 108.667969 523.273438 107.4375 521.953125 106.242188 C 520.628906 105.042969 519.277344 103.878906 517.898438 102.746094 C 516.519531 101.617188 515.113281 100.519531 513.683594 99.457031 C 512.25 98.394531 510.789062 97.367188 509.308594 96.375 C 507.824219 95.382812 506.316406 94.429688 504.789062 93.511719 C 503.257812 92.59375 501.707031 91.714844 500.132812 90.875 C 498.558594 90.035156 496.964844 89.230469 495.351562 88.46875 C 493.742188 87.703125 492.109375 86.980469 490.460938 86.296875 C 488.8125 85.613281 487.152344 84.972656 485.472656 84.371094 C 483.792969 83.769531 482.097656 83.207031 480.390625 82.6875 C 478.683594 82.167969 476.964844 81.691406 475.234375 81.257812 C 473.503906 80.824219 471.765625 80.429688 470.015625 80.082031 C 468.265625 79.730469 466.507812 79.425781 464.742188 79.164062 C 462.976562 78.898438 461.207031 78.679688 459.433594 78.503906 C 457.65625 78.324219 455.878906 78.191406 454.097656 78.101562 C 452.3125 78.015625 450.53125 77.96875 448.746094 77.964844 L 361.496094 77.964844 C 359.710938 77.96875 357.929688 78.015625 356.148438 78.101562 C 354.363281 78.191406 352.585938 78.324219 350.808594 78.503906 C 349.035156 78.679688 347.265625 78.898438 345.5 79.164062 C 343.734375 79.425781 341.976562 79.730469 340.226562 80.082031 C 338.480469 80.429688 336.738281 80.824219 335.007812 81.257812 C 333.277344 81.691406 331.558594 82.167969 329.851562 82.6875 C 328.144531 83.207031 326.453125 83.769531 324.773438 84.371094 C 323.09375 84.972656 321.429688 85.613281 319.78125 86.296875 C 318.132812 86.980469 316.5 87.703125 314.890625 88.46875 C 313.277344 89.230469 311.683594 90.035156 310.109375 90.875 C 308.539062 91.714844 306.984375 92.59375 305.457031 93.511719 C 303.925781 94.429688 302.417969 95.382812 300.933594 96.375 C 299.453125 97.367188 297.992188 98.394531 296.5625 99.457031 C 295.128906 100.519531 293.722656 101.617188 292.34375 102.746094 C 290.964844 103.878906 289.613281 105.042969 288.292969 106.242188 C 286.96875 107.4375 285.675781 108.667969 284.414062 109.929688 C 283.152344 111.191406 281.925781 112.480469 280.726562 113.800781 C 279.527344 115.125 278.363281 116.472656 277.230469 117.851562 C 276.097656 119.230469 275 120.636719 273.9375 122.066406 C 272.875 123.5 271.847656 124.957031 270.855469 126.4375 C 269.863281 127.921875 268.90625 129.425781 267.988281 130.957031 C 267.070312 132.484375 266.191406 134.035156 265.351562 135.609375 C 264.507812 137.179688 263.707031 138.773438 262.941406 140.386719 C 262.179688 141.996094 261.453125 143.625 260.769531 145.273438 C 260.085938 146.921875 259.445312 148.582031 258.839844 150.261719 C 258.238281 151.941406 257.679688 153.632812 257.160156 155.339844 C 256.640625 157.046875 256.164062 158.761719 255.726562 160.492188 C 255.292969 162.222656 254.902344 163.960938 254.550781 165.710938 C 254.203125 167.457031 253.894531 169.214844 253.632812 170.976562 C 253.367188 172.742188 253.148438 174.511719 252.972656 176.285156 C 252.792969 178.058594 252.660156 179.835938 252.570312 181.617188 C 252.480469 183.398438 252.4375 185.183594 252.433594 186.964844 L 252.433594 426.765625 C 252.4375 428.546875 252.480469 430.328125 252.570312 432.109375 C 252.660156 433.890625 252.792969 435.667969 252.972656 437.445312 C 253.148438 439.21875 253.367188 440.988281 253.632812 442.75 C 253.894531 444.515625 254.203125 446.269531 254.550781 448.019531 C 254.902344 449.769531 255.292969 451.507812 255.726562 453.238281 C 256.164062 454.964844 256.640625 456.683594 257.160156 458.390625 C 257.679688 460.097656 258.238281 461.789062 258.839844 463.46875 C 259.445312 465.144531 260.085938 466.808594 260.769531 468.457031 C 261.453125 470.101562 262.179688 471.734375 262.941406 473.34375 C 263.707031 474.957031 264.507812 476.546875 265.351562 478.121094 C 266.191406 479.691406 267.070312 481.242188 267.988281 482.773438 C 268.90625 484.300781 269.863281 485.808594 270.855469 487.289062 C 271.847656 488.773438 272.875 490.230469 273.9375 491.660156 C 275 493.09375 276.097656 494.5 277.230469 495.878906 C 278.363281 497.257812 279.527344 498.605469 280.726562 499.925781 C 281.925781 501.25 283.152344 502.539062 284.414062 503.800781 C 285.675781 505.0625 286.96875 506.289062 288.292969 507.488281 C 289.613281 508.6875 290.964844 509.851562 292.34375 510.980469 C 293.722656 512.113281 295.128906 513.210938 296.5625 514.273438 C 297.992188 515.335938 299.453125 516.363281 300.933594 517.355469 C 302.417969 518.34375 303.925781 519.300781 305.457031 520.214844 C 306.984375 521.132812 308.539062 522.011719 310.109375 522.855469 C 311.683594 523.695312 313.277344 524.5 314.890625 525.261719 C 316.5 526.023438 318.132812 526.75 319.78125 527.433594 C 321.429688 528.113281 323.09375 528.757812 324.773438 529.359375 C 326.453125 529.960938 328.144531 530.523438 329.851562 531.039062 C 331.558594 531.558594 333.277344 532.035156 335.007812 532.472656 C 336.738281 532.90625 338.480469 533.296875 340.226562 533.648438 C 341.976562 533.996094 343.734375 534.304688 345.5 534.566406 C 347.265625 534.832031 349.035156 535.050781 350.808594 535.226562 C 352.585938 535.402344 354.363281 535.535156 356.148438 535.625 C 357.929688 535.714844 359.710938 535.761719 361.496094 535.765625 Z M 361.496094 535.765625 " fill-opacity="1" fill-rule="nonzero"/></g><g clip-path="url(#8a42cfdba9)"><path fill="#000000" d="M 666.871094 383.164062 C 666.871094 382.449219 666.835938 381.738281 666.765625 381.027344 C 666.695312 380.316406 666.589844 379.613281 666.453125 378.910156 C 666.3125 378.210938 666.140625 377.519531 665.933594 376.835938 C 665.726562 376.152344 665.484375 375.480469 665.210938 374.820312 C 664.9375 374.164062 664.632812 373.519531 664.296875 372.886719 C 663.957031 372.257812 663.59375 371.648438 663.195312 371.054688 C 662.796875 370.460938 662.375 369.886719 661.921875 369.335938 C 661.46875 368.78125 660.988281 368.253906 660.484375 367.75 C 659.976562 367.246094 659.449219 366.765625 658.898438 366.3125 C 658.34375 365.859375 657.769531 365.433594 657.175781 365.039062 C 656.582031 364.640625 655.972656 364.273438 655.339844 363.9375 C 654.710938 363.601562 654.066406 363.296875 653.40625 363.023438 C 652.746094 362.75 652.074219 362.511719 651.390625 362.304688 C 650.707031 362.097656 650.015625 361.921875 649.3125 361.785156 C 648.613281 361.644531 647.90625 361.539062 647.195312 361.46875 C 646.484375 361.398438 645.773438 361.363281 645.058594 361.363281 C 644.34375 361.363281 643.632812 361.398438 642.921875 361.46875 C 642.210938 361.539062 641.503906 361.644531 640.804688 361.785156 C 640.101562 361.921875 639.410156 362.097656 638.726562 362.304688 C 638.042969 362.511719 637.371094 362.75 636.710938 363.023438 C 636.050781 363.296875 635.40625 363.601562 634.777344 363.9375 C 634.144531 364.273438 633.535156 364.640625 632.941406 365.039062 C 632.347656 365.433594 631.773438 365.859375 631.222656 366.3125 C 630.667969 366.765625 630.140625 367.246094 629.636719 367.75 C 629.128906 368.253906 628.652344 368.78125 628.199219 369.335938 C 627.746094 369.886719 627.320312 370.460938 626.921875 371.054688 C 626.527344 371.648438 626.160156 372.257812 625.820312 372.886719 C 625.484375 373.519531 625.179688 374.164062 624.90625 374.820312 C 624.632812 375.480469 624.394531 376.152344 624.1875 376.835938 C 623.976562 377.519531 623.804688 378.210938 623.664062 378.910156 C 623.527344 379.613281 623.421875 380.316406 623.351562 381.027344 C 623.28125 381.738281 623.246094 382.449219 623.246094 383.164062 C 623.246094 386.730469 623.160156 390.296875 622.984375 393.859375 C 622.808594 397.425781 622.546875 400.980469 622.195312 404.53125 C 621.847656 408.082031 621.410156 411.621094 620.886719 415.152344 C 620.363281 418.679688 619.75 422.195312 619.054688 425.695312 C 618.359375 429.191406 617.578125 432.671875 616.710938 436.132812 C 615.84375 439.59375 614.890625 443.03125 613.855469 446.445312 C 612.816406 449.859375 611.699219 453.246094 610.496094 456.605469 C 609.292969 459.964844 608.007812 463.292969 606.640625 466.589844 C 605.277344 469.886719 603.832031 473.144531 602.304688 476.371094 C 600.777344 479.597656 599.171875 482.78125 597.492188 485.929688 C 595.808594 489.074219 594.046875 492.179688 592.214844 495.238281 C 590.378906 498.296875 588.46875 501.3125 586.484375 504.277344 C 584.503906 507.246094 582.449219 510.160156 580.320312 513.027344 C 578.195312 515.890625 576 518.703125 573.734375 521.460938 C 571.46875 524.21875 569.136719 526.921875 566.742188 529.5625 C 564.34375 532.207031 561.882812 534.789062 559.359375 537.3125 C 556.835938 539.835938 554.25 542.296875 551.605469 544.691406 C 548.960938 547.085938 546.257812 549.417969 543.5 551.679688 C 540.738281 553.941406 537.925781 556.136719 535.058594 558.261719 C 532.191406 560.386719 529.273438 562.441406 526.304688 564.425781 C 523.335938 566.40625 520.320312 568.3125 517.261719 570.148438 C 514.199219 571.984375 511.09375 573.742188 507.945312 575.421875 C 504.796875 577.105469 501.609375 578.707031 498.382812 580.234375 C 495.15625 581.757812 491.890625 583.203125 488.59375 584.570312 C 485.296875 585.933594 481.964844 587.21875 478.605469 588.421875 C 475.246094 589.621094 471.855469 590.742188 468.441406 591.777344 C 465.023438 592.8125 461.585938 593.761719 458.121094 594.628906 C 454.660156 595.496094 451.175781 596.277344 447.675781 596.972656 C 444.175781 597.671875 440.65625 598.28125 437.125 598.804688 C 433.597656 599.328125 430.054688 599.765625 426.5 600.113281 C 422.949219 600.464844 419.390625 600.726562 415.824219 600.902344 C 412.257812 601.074219 408.691406 601.164062 405.121094 601.164062 C 401.550781 601.164062 397.984375 601.074219 394.417969 600.902344 C 390.851562 600.726562 387.292969 600.464844 383.742188 600.113281 C 380.1875 599.765625 376.648438 599.328125 373.117188 598.804688 C 369.585938 598.28125 366.070312 597.671875 362.566406 596.972656 C 359.066406 596.277344 355.585938 595.496094 352.121094 594.628906 C 348.660156 593.761719 345.21875 592.8125 341.804688 591.777344 C 338.386719 590.742188 335 589.621094 331.636719 588.421875 C 328.277344 587.21875 324.945312 585.933594 321.648438 584.570312 C 318.351562 583.203125 315.089844 581.757812 311.859375 580.234375 C 308.632812 578.707031 305.445312 577.105469 302.296875 575.421875 C 299.148438 573.742188 296.042969 571.984375 292.984375 570.148438 C 289.921875 568.3125 286.90625 566.40625 283.9375 564.425781 C 280.96875 562.441406 278.050781 560.386719 275.183594 558.261719 C 272.316406 556.136719 269.503906 553.941406 266.746094 551.679688 C 263.984375 549.417969 261.28125 547.085938 258.636719 544.691406 C 255.992188 542.296875 253.40625 539.835938 250.882812 537.3125 C 248.359375 534.789062 245.898438 532.207031 243.5 529.5625 C 241.105469 526.921875 238.773438 524.21875 236.507812 521.460938 C 234.242188 518.703125 232.046875 515.890625 229.921875 513.027344 C 227.796875 510.160156 225.742188 507.246094 223.757812 504.277344 C 221.773438 501.3125 219.863281 498.296875 218.03125 495.238281 C 216.195312 492.179688 214.433594 489.074219 212.753906 485.929688 C 211.070312 482.78125 209.464844 479.597656 207.9375 476.371094 C 206.414062 473.144531 204.964844 469.886719 203.601562 466.589844 C 202.234375 463.292969 200.949219 459.964844 199.746094 456.605469 C 198.542969 453.246094 197.425781 449.859375 196.390625 446.445312 C 195.351562 443.03125 194.402344 439.59375 193.535156 436.132812 C 192.664062 432.671875 191.882812 429.191406 191.1875 425.695312 C 190.492188 422.195312 189.882812 418.679688 189.355469 415.152344 C 188.832031 411.621094 188.398438 408.082031 188.046875 404.53125 C 187.695312 400.980469 187.433594 397.425781 187.257812 393.859375 C 187.085938 390.296875 186.996094 386.730469 186.996094 383.164062 C 186.996094 382.449219 186.960938 381.738281 186.890625 381.027344 C 186.820312 380.316406 186.714844 379.613281 186.578125 378.910156 C 186.4375 378.210938 186.265625 377.519531 186.058594 376.835938 C 185.851562 376.152344 185.609375 375.480469 185.335938 374.820312 C 185.0625 374.164062 184.757812 373.519531 184.421875 372.886719 C 184.085938 372.257812 183.71875 371.648438 183.320312 371.054688 C 182.921875 370.460938 182.5 369.886719 182.046875 369.335938 C 181.59375 368.78125 181.113281 368.253906 180.609375 367.75 C 180.101562 367.246094 179.574219 366.765625 179.023438 366.3125 C 178.46875 365.859375 177.894531 365.433594 177.300781 365.039062 C 176.707031 364.640625 176.097656 364.273438 175.464844 363.9375 C 174.835938 363.601562 174.191406 363.296875 173.53125 363.023438 C 172.871094 362.75 172.199219 362.511719 171.515625 362.304688 C 170.832031 362.097656 170.140625 361.921875 169.4375 361.785156 C 168.738281 361.644531 168.03125 361.539062 167.320312 361.46875 C 166.609375 361.398438 165.898438 361.363281 165.183594 361.363281 C 164.46875 361.363281 163.757812 361.398438 163.046875 361.46875 C 162.335938 361.539062 161.628906 361.644531 160.929688 361.785156 C 160.226562 361.921875 159.535156 362.097656 158.851562 362.304688 C 158.167969 362.511719 157.496094 362.75 156.835938 363.023438 C 156.175781 363.296875 155.53125 363.601562 154.902344 363.9375 C 154.273438 364.273438 153.660156 364.640625 153.066406 365.039062 C 152.472656 365.433594 151.898438 365.859375 151.347656 366.3125 C 150.792969 366.765625 150.265625 367.246094 149.761719 367.75 C 149.253906 368.253906 148.777344 368.78125 148.324219 369.335938 C 147.871094 369.886719 147.445312 370.460938 147.046875 371.054688 C 146.652344 371.648438 146.285156 372.257812 145.945312 372.886719 C 145.609375 373.519531 145.304688 374.164062 145.03125 374.820312 C 144.757812 375.480469 144.519531 376.152344 144.3125 376.835938 C 144.101562 377.519531 143.929688 378.210938 143.789062 378.910156 C 143.652344 379.613281 143.546875 380.316406 143.476562 381.027344 C 143.40625 381.738281 143.371094 382.449219 143.371094 383.164062 C 143.378906 387.214844 143.476562 391.265625 143.671875 395.308594 C 143.867188 399.355469 144.152344 403.394531 144.535156 407.429688 C 144.917969 411.460938 145.390625 415.484375 145.960938 419.496094 C 146.527344 423.507812 147.1875 427.5 147.941406 431.480469 C 148.699219 435.460938 149.542969 439.421875 150.480469 443.363281 C 151.417969 447.304688 152.449219 451.222656 153.566406 455.113281 C 154.6875 459.007812 155.898438 462.875 157.195312 466.710938 C 158.496094 470.546875 159.882812 474.351562 161.359375 478.125 C 162.835938 481.898438 164.398438 485.636719 166.050781 489.335938 C 167.699219 493.035156 169.433594 496.695312 171.253906 500.316406 C 173.074219 503.933594 174.976562 507.511719 176.960938 511.042969 C 178.949219 514.574219 181.015625 518.058594 183.164062 521.492188 C 185.308594 524.929688 187.535156 528.3125 189.839844 531.644531 C 192.144531 534.976562 194.527344 538.253906 196.984375 541.476562 C 199.441406 544.699219 201.972656 547.859375 204.574219 550.964844 C 207.179688 554.070312 209.851562 557.113281 212.597656 560.09375 C 215.34375 563.074219 218.15625 565.988281 221.039062 568.839844 C 223.917969 571.6875 226.863281 574.46875 229.875 577.183594 C 232.882812 579.894531 235.953125 582.539062 239.085938 585.109375 C 242.21875 587.679688 245.410156 590.175781 248.660156 592.597656 C 251.90625 595.019531 255.210938 597.367188 258.566406 599.636719 C 261.925781 601.90625 265.332031 604.097656 268.792969 606.207031 C 272.253906 608.320312 275.757812 610.347656 279.3125 612.296875 C 282.867188 614.246094 286.460938 616.113281 290.101562 617.894531 C 293.742188 619.675781 297.421875 621.371094 301.140625 622.984375 C 304.859375 624.59375 308.613281 626.117188 312.402344 627.554688 C 316.195312 628.992188 320.015625 630.339844 323.867188 631.601562 C 327.71875 632.859375 331.597656 634.027344 335.507812 635.109375 C 339.414062 636.1875 343.34375 637.175781 347.296875 638.074219 C 351.246094 638.972656 355.21875 639.777344 359.210938 640.488281 C 363.199219 641.203125 367.203125 641.824219 371.222656 642.351562 C 375.242188 642.878906 379.269531 643.3125 383.308594 643.652344 L 383.308594 688.363281 L 317.871094 688.363281 C 317.15625 688.363281 316.445312 688.398438 315.734375 688.46875 C 315.023438 688.539062 314.316406 688.644531 313.617188 688.78125 C 312.914062 688.921875 312.222656 689.09375 311.539062 689.300781 C 310.855469 689.507812 310.183594 689.75 309.523438 690.023438 C 308.863281 690.296875 308.21875 690.601562 307.589844 690.9375 C 306.960938 691.273438 306.347656 691.640625 305.753906 692.035156 C 305.160156 692.433594 304.585938 692.859375 304.035156 693.3125 C 303.480469 693.765625 302.953125 694.242188 302.449219 694.746094 C 301.941406 695.253906 301.464844 695.78125 301.011719 696.332031 C 300.558594 696.886719 300.132812 697.457031 299.734375 698.050781 C 299.339844 698.644531 298.972656 699.257812 298.632812 699.886719 C 298.296875 700.515625 297.992188 701.160156 297.71875 701.820312 C 297.445312 702.480469 297.207031 703.152344 297 703.835938 C 296.789062 704.519531 296.617188 705.210938 296.476562 705.910156 C 296.339844 706.609375 296.234375 707.316406 296.164062 708.027344 C 296.09375 708.738281 296.058594 709.449219 296.058594 710.164062 C 296.058594 710.875 296.09375 711.589844 296.164062 712.300781 C 296.234375 713.011719 296.339844 713.714844 296.476562 714.414062 C 296.617188 715.117188 296.789062 715.808594 297 716.492188 C 297.207031 717.175781 297.445312 717.847656 297.71875 718.503906 C 297.992188 719.164062 298.296875 719.808594 298.632812 720.4375 C 298.972656 721.070312 299.339844 721.679688 299.734375 722.273438 C 300.132812 722.867188 300.558594 723.441406 301.011719 723.992188 C 301.464844 724.542969 301.941406 725.074219 302.449219 725.578125 C 302.953125 726.082031 303.480469 726.5625 304.035156 727.015625 C 304.585938 727.46875 305.160156 727.890625 305.753906 728.289062 C 306.347656 728.683594 306.960938 729.050781 307.589844 729.386719 C 308.21875 729.726562 308.863281 730.03125 309.523438 730.304688 C 310.183594 730.578125 310.855469 730.816406 311.539062 731.023438 C 312.222656 731.230469 312.914062 731.40625 313.617188 731.542969 C 314.316406 731.683594 315.023438 731.789062 315.734375 731.859375 C 316.445312 731.929688 317.15625 731.960938 317.871094 731.960938 L 492.371094 731.960938 C 493.085938 731.960938 493.796875 731.929688 494.507812 731.859375 C 495.21875 731.789062 495.925781 731.683594 496.625 731.542969 C 497.328125 731.40625 498.019531 731.230469 498.703125 731.023438 C 499.386719 730.816406 500.058594 730.578125 500.71875 730.304688 C 501.378906 730.03125 502.023438 729.726562 502.652344 729.390625 C 503.285156 729.050781 503.894531 728.683594 504.488281 728.289062 C 505.082031 727.890625 505.65625 727.46875 506.210938 727.015625 C 506.761719 726.5625 507.289062 726.082031 507.796875 725.578125 C 508.300781 725.074219 508.78125 724.542969 509.234375 723.992188 C 509.6875 723.441406 510.109375 722.867188 510.507812 722.273438 C 510.90625 721.679688 511.273438 721.070312 511.609375 720.4375 C 511.945312 719.808594 512.25 719.164062 512.523438 718.503906 C 512.796875 717.847656 513.039062 717.175781 513.246094 716.492188 C 513.453125 715.808594 513.625 715.117188 513.765625 714.414062 C 513.902344 713.714844 514.007812 713.011719 514.078125 712.300781 C 514.148438 711.589844 514.183594 710.875 514.183594 710.164062 C 514.183594 709.449219 514.148438 708.738281 514.078125 708.027344 C 514.007812 707.316406 513.902344 706.609375 513.765625 705.910156 C 513.625 705.210938 513.453125 704.519531 513.246094 703.835938 C 513.039062 703.152344 512.796875 702.480469 512.523438 701.820312 C 512.25 701.160156 511.945312 700.515625 511.609375 699.886719 C 511.273438 699.257812 510.90625 698.644531 510.507812 698.050781 C 510.109375 697.457031 509.6875 696.886719 509.234375 696.332031 C 508.78125 695.78125 508.300781 695.253906 507.796875 694.746094 C 507.289062 694.242188 506.761719 693.765625 506.210938 693.3125 C 505.65625 692.859375 505.082031 692.433594 504.488281 692.035156 C 503.894531 691.640625 503.285156 691.273438 502.652344 690.9375 C 502.023438 690.601562 501.378906 690.296875 500.71875 690.023438 C 500.058594 689.75 499.386719 689.507812 498.703125 689.300781 C 498.019531 689.09375 497.328125 688.921875 496.625 688.78125 C 495.925781 688.644531 495.21875 688.539062 494.507812 688.46875 C 493.796875 688.398438 493.085938 688.363281 492.371094 688.363281 L 426.933594 688.363281 L 426.933594 643.652344 C 430.972656 643.3125 435 642.878906 439.019531 642.351562 C 443.039062 641.824219 447.042969 641.203125 451.035156 640.488281 C 455.023438 639.777344 458.996094 638.972656 462.949219 638.074219 C 466.902344 637.175781 470.832031 636.1875 474.738281 635.109375 C 478.644531 634.027344 482.523438 632.859375 486.375 631.601562 C 490.226562 630.339844 494.050781 628.992188 497.839844 627.554688 C 501.628906 626.117188 505.382812 624.59375 509.101562 622.984375 C 512.820312 621.371094 516.5 619.675781 520.140625 617.894531 C 523.78125 616.113281 527.378906 614.246094 530.929688 612.296875 C 534.484375 610.347656 537.992188 608.320312 541.449219 606.207031 C 544.910156 604.097656 548.316406 601.90625 551.675781 599.636719 C 555.03125 597.367188 558.335938 595.019531 561.585938 592.597656 C 564.832031 590.175781 568.023438 587.679688 571.15625 585.109375 C 574.289062 582.539062 577.359375 579.894531 580.371094 577.183594 C 583.378906 574.46875 586.324219 571.6875 589.207031 568.835938 C 592.085938 565.988281 594.898438 563.074219 597.644531 560.09375 C 600.390625 557.113281 603.0625 554.070312 605.667969 550.964844 C 608.273438 547.859375 610.800781 544.699219 613.257812 541.476562 C 615.714844 538.253906 618.097656 534.976562 620.402344 531.644531 C 622.707031 528.3125 624.933594 524.929688 627.082031 521.492188 C 629.226562 518.058594 631.296875 514.574219 633.28125 511.042969 C 635.265625 507.511719 637.167969 503.933594 638.988281 500.316406 C 640.808594 496.695312 642.542969 493.035156 644.195312 489.335938 C 645.84375 485.636719 647.40625 481.898438 648.882812 478.125 C 650.359375 474.351562 651.746094 470.546875 653.046875 466.710938 C 654.34375 462.875 655.554688 459.007812 656.675781 455.113281 C 657.792969 451.222656 658.824219 447.304688 659.761719 443.363281 C 660.699219 439.421875 661.546875 435.460938 662.300781 431.480469 C 663.054688 427.5 663.714844 423.507812 664.28125 419.496094 C 664.851562 415.484375 665.328125 411.460938 665.707031 407.429688 C 666.089844 403.394531 666.378906 399.355469 666.570312 395.308594 C 666.765625 391.265625 666.867188 387.214844 666.871094 383.164062 Z M 666.871094 383.164062 " fill-opacity="1" fill-rule="nonzero"/></g></svg>