<svg width="21" height="14" viewBox="0 0 21 14" fill="none" xmlns="http://www.w3.org/2000/svg">
<path d="M20.7071 1.41421L10.2426 11.8787C9.40353 12.7178 8.33443 13.2892 7.17054 13.5208C6.00665 13.7523 4.80025 13.6334 3.7039 13.1793C2.60754 12.7252 1.67047 11.9562 1.01118 10.9695C0.351894 9.98277 -1.19209e-07 8.82273 0 7.63604H2C2 8.42716 2.2346 9.20052 2.67412 9.85832C3.11365 10.5161 3.73836 11.0288 4.46927 11.3316C5.20017 11.6343 6.00444 11.7135 6.78036 11.5592C7.55628 11.4048 8.26902 11.0239 8.82843 10.4645L19.2929 0L20.7071 1.41421Z" fill="white"/>
</svg>
