<svg width="19" height="20" viewBox="0 0 19 20" fill="none" xmlns="http://www.w3.org/2000/svg">
<path d="M16.4075 0.88739C16.9 0.39489 17.6964 0.387988 18.1975 0.871788C18.7015 1.35829 18.7192 2.15999 18.2376 2.66859L11.2952 9.99969L18.2112 17.362C18.6758 17.8566 18.6636 18.631 18.1839 19.111C17.6931 19.6018 16.8973 19.6018 16.4065 19.111L9.29422 11.9997L2.18392 19.111C1.69312 19.6018 0.89732 19.6018 0.40652 19.111C-0.0732802 18.631 -0.0854802 17.8567 0.37922 17.362L7.29522 9.99969L0.351821 2.66859C-0.129679 2.16009 -0.111681 1.35829 0.391919 0.871788C0.893019 0.387988 1.68942 0.39489 2.18192 0.88739L9.29422 7.99969L16.4075 0.88739Z" fill="#473C33"/>
</svg>
