<svg width="35" height="35" viewBox="0 0 35 35" fill="none" xmlns="http://www.w3.org/2000/svg">
<path fill-rule="evenodd" clip-rule="evenodd" d="M35 17.5C35 7.83502 27.165 0 17.5 0C7.83502 0 0 7.83502 0 17.5C0 27.165 7.83502 35 17.5 35C27.165 35 35 27.165 35 17.5ZM20.0324 7.35778C17.7997 7.95601 15.8269 9.27424 14.4198 11.108C13.0127 12.9418 12.25 15.1886 12.25 17.5C12.25 19.8114 13.0127 22.0582 14.4198 23.892C15.8269 25.7258 17.7997 27.044 20.0324 27.6422L20.9383 24.2615C19.4498 23.8627 18.1346 22.9838 17.1965 21.7613C16.2585 20.5388 15.75 19.0409 15.75 17.5C15.75 15.9591 16.2585 14.4612 17.1965 13.2387C18.1346 12.0162 19.4498 11.1373 20.9383 10.7385L20.0324 7.35778Z" fill="#473C33"/>
</svg>
