<svg xmlns="http://www.w3.org/2000/svg" width="24" height="24" fill="none" id="home">
  <g clip-path="url(#a)">
    <path fill="#000" fill-rule="evenodd" d="M12.94.785a3 3 0 0 0-1.88 0 3 3 0 0 0-.865.473c-.245.182-.521.419-.839.691L.849 9.241A1 1 0 0 0 1.5 11H2v6.935c0 .483 0 .9.026 1.244.027.362.087.724.25 1.077a3 3 0 0 0 1.468 1.468c.353.163.715.223 1.077.25.344.026.76.026 1.244.026H9.5a1 1 0 0 0 1-1v-4.95c0-.272 0-.42.009-.527v-.013l.014-.001c.107-.008.255-.009.527-.009h1.9c.272 0 .42 0 .527.009h.013l.001.014c.008.107.009.255.009.527V21a1 1 0 0 0 1 1h3.435c.483 0 .9 0 1.244-.026.362-.027.724-.087 1.077-.25a3 3 0 0 0 1.468-1.468c.163-.353.223-.715.25-1.077.026-.344.026-.76.026-1.244V11h.5a1 1 0 0 0 .65-1.76l-8.506-7.29c-.318-.273-.594-.51-.839-.692a3 3 0 0 0-.864-.473M20 9.175V17.9c0 .528 0 .869-.02 1.13-.019.25-.05.343-.072.389a1 1 0 0 1-.49.49c-.045.02-.139.052-.389.07-.26.02-.601.021-1.129.021h-2.4v-3.98c0-.23 0-.456-.014-.647a2 2 0 0 0-.17-.71 2 2 0 0 0-.979-.98 2 2 0 0 0-.71-.169c-.191-.014-.417-.014-.648-.014h-1.958c-.231 0-.457 0-.648.014-.21.016-.457.053-.71.17a2 2 0 0 0-.98.979 2 2 0 0 0-.169.71c-.014.191-.014.417-.014.648V20H6.1c-.528 0-.869 0-1.13-.02-.25-.019-.343-.05-.389-.072a1 1 0 0 1-.49-.49c-.02-.045-.052-.139-.07-.389C4 18.77 4 18.428 4 17.9V9.174l6.633-5.686c.35-.299.573-.49.754-.624.173-.129.254-.164.3-.18a1 1 0 0 1 .627 0c.045.016.126.051.299.18.181.134.405.325.754.624z" clip-rule="evenodd"></path>
  </g>
  <defs>
    <clipPath id="a">
      <path fill="#fff" d="M0 0h24v24H0z"></path>
    </clipPath>
  </defs>
</svg>
