<svg xmlns="http://www.w3.org/2000/svg" xmlns:xlink="http://www.w3.org/1999/xlink" width="1080" zoomAndPan="magnify" viewBox="0 0 810 809.999993" height="1080" preserveAspectRatio="xMidYMid meet" version="1.0"><path fill="#1f1f23" d="M 594.121094 201.542969 C 587.113281 201.496094 580.117188 201.828125 573.144531 202.546875 C 566.167969 203.261719 559.253906 204.355469 552.398438 205.824219 C 545.542969 207.292969 538.785156 209.128906 532.132812 211.335938 C 525.476562 213.539062 518.957031 216.101562 512.582031 219.015625 C 506.203125 221.929688 500.003906 225.183594 493.980469 228.773438 C 487.957031 232.367188 482.144531 236.273438 476.546875 240.5 C 470.945312 244.722656 465.59375 249.238281 460.484375 254.046875 C 455.378906 258.855469 450.546875 263.925781 445.992188 269.257812 L 417.308594 302.332031 L 481.328125 376.347656 L 519.089844 332.738281 C 521.398438 330.035156 523.847656 327.46875 526.433594 325.039062 C 529.023438 322.605469 531.734375 320.320312 534.574219 318.179688 C 537.410156 316.042969 540.351562 314.066406 543.40625 312.25 C 546.457031 310.429688 549.597656 308.785156 552.828125 307.308594 C 556.054688 305.832031 559.355469 304.535156 562.726562 303.417969 C 566.097656 302.300781 569.519531 301.371094 572.992188 300.628906 C 576.464844 299.882812 579.964844 299.328125 583.5 298.964844 C 587.03125 298.601562 590.570312 298.433594 594.121094 298.453125 C 595.710938 298.433594 597.300781 298.449219 598.890625 298.507812 C 600.480469 298.5625 602.066406 298.660156 603.652344 298.796875 C 605.238281 298.933594 606.816406 299.105469 608.394531 299.320312 C 609.96875 299.535156 611.539062 299.789062 613.101562 300.078125 C 614.667969 300.371094 616.222656 300.703125 617.769531 301.070312 C 619.316406 301.441406 620.851562 301.847656 622.378906 302.292969 C 623.90625 302.738281 625.421875 303.222656 626.925781 303.742188 C 628.429688 304.261719 629.917969 304.820312 631.394531 305.414062 C 632.867188 306.007812 634.328125 306.636719 635.773438 307.304688 C 637.214844 307.96875 638.644531 308.671875 640.054688 309.410156 C 641.464844 310.148438 642.851562 310.917969 644.226562 311.722656 C 645.597656 312.53125 646.945312 313.371094 648.277344 314.242188 C 649.605469 315.117188 650.914062 316.023438 652.199219 316.960938 C 653.484375 317.898438 654.746094 318.867188 655.984375 319.867188 C 657.21875 320.867188 658.429688 321.898438 659.617188 322.960938 C 660.804688 324.019531 661.960938 325.109375 663.09375 326.226562 C 664.226562 327.34375 665.332031 328.492188 666.40625 329.664062 C 667.480469 330.835938 668.527344 332.035156 669.542969 333.257812 C 670.5625 334.484375 671.546875 335.734375 672.5 337.007812 C 673.453125 338.277344 674.378906 339.574219 675.269531 340.894531 C 676.15625 342.214844 677.015625 343.554688 677.839844 344.914062 C 678.664062 346.277344 679.453125 347.660156 680.207031 349.058594 C 680.964844 350.460938 681.683594 351.878906 682.371094 353.316406 C 683.054688 354.75 683.707031 356.203125 684.320312 357.671875 C 684.933594 359.140625 685.511719 360.625 686.050781 362.121094 C 686.589844 363.621094 687.09375 365.128906 687.558594 366.652344 C 688.023438 368.171875 688.453125 369.707031 688.839844 371.25 C 689.230469 372.792969 689.582031 374.34375 689.894531 375.90625 C 690.207031 377.46875 690.484375 379.035156 690.71875 380.609375 C 690.953125 382.183594 691.148438 383.761719 691.308594 385.347656 C 691.464844 386.929688 691.582031 388.519531 691.660156 390.109375 C 691.738281 391.699219 691.777344 393.289062 691.777344 394.882812 C 691.777344 396.472656 691.738281 398.0625 691.660156 399.652344 C 691.582031 401.246094 691.464844 402.832031 691.308594 404.414062 C 691.148438 406 690.953125 407.578125 690.71875 409.152344 C 690.484375 410.726562 690.207031 412.296875 689.894531 413.855469 C 689.582031 415.417969 689.230469 416.96875 688.839844 418.511719 C 688.453125 420.054688 688.023438 421.589844 687.558594 423.109375 C 687.09375 424.632812 686.589844 426.144531 686.050781 427.640625 C 685.511719 429.136719 684.933594 430.621094 684.320312 432.089844 C 683.707031 433.558594 683.054688 435.011719 682.371094 436.449219 C 681.683594 437.882812 680.964844 439.300781 680.207031 440.703125 C 679.453125 442.105469 678.664062 443.484375 677.839844 444.847656 C 677.015625 446.207031 676.15625 447.546875 675.269531 448.867188 C 674.378906 450.1875 673.453125 451.484375 672.5 452.757812 C 671.546875 454.03125 670.5625 455.277344 669.542969 456.503906 C 668.527344 457.726562 667.480469 458.925781 666.40625 460.101562 C 665.332031 461.273438 664.226562 462.417969 663.09375 463.535156 C 661.960938 464.652344 660.804688 465.742188 659.617188 466.804688 C 658.429688 467.863281 657.21875 468.894531 655.984375 469.894531 C 654.746094 470.894531 653.484375 471.863281 652.199219 472.800781 C 650.914062 473.742188 649.605469 474.644531 648.277344 475.519531 C 646.945312 476.390625 645.597656 477.230469 644.226562 478.039062 C 642.851562 478.84375 641.464844 479.617188 640.054688 480.351562 C 638.644531 481.089844 637.21875 481.792969 635.773438 482.457031 C 634.328125 483.125 632.867188 483.753906 631.394531 484.351562 C 629.917969 484.945312 628.429688 485.5 626.925781 486.023438 C 625.421875 486.542969 623.90625 487.023438 622.378906 487.46875 C 620.851562 487.914062 619.316406 488.320312 617.769531 488.691406 C 616.222656 489.058594 614.667969 489.390625 613.101562 489.683594 C 611.539062 489.976562 609.96875 490.226562 608.394531 490.441406 C 606.816406 490.65625 605.238281 490.832031 603.652344 490.964844 C 602.066406 491.101562 600.480469 491.199219 598.890625 491.253906 C 597.300781 491.3125 595.710938 491.332031 594.121094 491.308594 C 590.582031 491.332031 587.054688 491.164062 583.53125 490.804688 C 580.011719 490.441406 576.519531 489.890625 573.058594 489.148438 C 569.597656 488.410156 566.1875 487.480469 562.828125 486.371094 C 559.46875 485.257812 556.175781 483.964844 552.957031 482.496094 C 549.738281 481.023438 546.605469 479.382812 543.566406 477.570312 C 540.523438 475.761719 537.589844 473.789062 534.761719 471.65625 C 531.933594 469.527344 529.230469 467.246094 526.652344 464.824219 C 524.074219 462.398438 521.632812 459.839844 519.332031 457.148438 C 379.117188 295.082031 445.734375 372.296875 356.675781 269.136719 C 352.113281 263.8125 347.277344 258.75 342.164062 253.953125 C 337.054688 249.152344 331.699219 244.644531 326.097656 240.429688 C 320.496094 236.214844 314.683594 232.3125 308.660156 228.730469 C 302.632812 225.144531 296.433594 221.898438 290.058594 218.988281 C 283.679688 216.078125 277.164062 213.523438 270.511719 211.320312 C 263.855469 209.121094 257.105469 207.285156 250.25 205.820312 C 243.398438 204.351562 236.484375 203.261719 229.511719 202.546875 C 222.542969 201.832031 215.550781 201.496094 208.542969 201.542969 C 205.371094 201.519531 202.195312 201.578125 199.023438 201.710938 C 195.851562 201.847656 192.683594 202.058594 189.523438 202.351562 C 186.363281 202.640625 183.210938 203.011719 180.066406 203.457031 C 176.921875 203.90625 173.792969 204.429688 170.675781 205.03125 C 167.558594 205.632812 164.457031 206.308594 161.371094 207.0625 C 158.289062 207.820312 155.226562 208.648438 152.179688 209.554688 C 149.136719 210.460938 146.117188 211.441406 143.125 212.496094 C 140.128906 213.550781 137.160156 214.675781 134.222656 215.878906 C 131.285156 217.078125 128.375 218.351562 125.5 219.695312 C 122.621094 221.042969 119.78125 222.457031 116.972656 223.941406 C 114.167969 225.425781 111.398438 226.980469 108.667969 228.601562 C 105.9375 230.222656 103.246094 231.910156 100.601562 233.664062 C 97.953125 235.417969 95.351562 237.238281 92.792969 239.121094 C 90.234375 241.003906 87.726562 242.949219 85.261719 244.953125 C 82.800781 246.960938 80.390625 249.027344 78.03125 251.152344 C 75.671875 253.277344 73.363281 255.460938 71.109375 257.699219 C 68.859375 259.941406 66.664062 262.234375 64.523438 264.582031 C 62.382812 266.929688 60.300781 269.328125 58.28125 271.78125 C 56.257812 274.230469 54.300781 276.730469 52.402344 279.277344 C 50.503906 281.824219 48.667969 284.417969 46.898438 287.054688 C 45.128906 289.691406 43.421875 292.371094 41.785156 295.09375 C 40.144531 297.816406 38.574219 300.578125 37.074219 303.375 C 35.570312 306.175781 34.136719 309.011719 32.773438 311.882812 C 31.410156 314.75 30.121094 317.652344 28.898438 320.585938 C 27.679688 323.519531 26.53125 326.484375 25.457031 329.472656 C 24.382812 332.464844 23.386719 335.480469 22.460938 338.519531 C 21.535156 341.558594 20.683594 344.621094 19.910156 347.703125 C 19.132812 350.785156 18.4375 353.882812 17.8125 357 C 17.191406 360.117188 16.648438 363.246094 16.179688 366.390625 C 15.710938 369.53125 15.320312 372.6875 15.007812 375.847656 C 14.695312 379.011719 14.460938 382.179688 14.304688 385.351562 C 14.148438 388.527344 14.070312 391.703125 14.070312 394.882812 C 14.070312 398.058594 14.148438 401.234375 14.304688 404.410156 C 14.460938 407.582031 14.695312 410.75 15.007812 413.914062 C 15.320312 417.078125 15.710938 420.230469 16.179688 423.371094 C 16.648438 426.515625 17.191406 429.644531 17.8125 432.761719 C 18.4375 435.878906 19.132812 438.976562 19.910156 442.058594 C 20.683594 445.140625 21.535156 448.203125 22.460938 451.242188 C 23.386719 454.28125 24.382812 457.296875 25.457031 460.289062 C 26.53125 463.277344 27.679688 466.242188 28.898438 469.175781 C 30.121094 472.109375 31.410156 475.011719 32.773438 477.882812 C 34.136719 480.75 35.570312 483.585938 37.074219 486.386719 C 38.574219 489.1875 40.144531 491.945312 41.785156 494.667969 C 43.421875 497.390625 45.128906 500.070312 46.898438 502.707031 C 48.667969 505.347656 50.503906 507.9375 52.402344 510.484375 C 54.300781 513.035156 56.257812 515.53125 58.28125 517.984375 C 60.300781 520.433594 62.382812 522.832031 64.523438 525.179688 C 66.664062 527.527344 68.859375 529.820312 71.109375 532.0625 C 73.363281 534.300781 75.671875 536.484375 78.03125 538.609375 C 80.390625 540.734375 82.800781 542.800781 85.261719 544.808594 C 87.726562 546.816406 90.234375 548.757812 92.792969 550.640625 C 95.351562 552.523438 97.953125 554.34375 100.601562 556.097656 C 103.246094 557.851562 105.9375 559.539062 108.667969 561.160156 C 111.398438 562.78125 114.167969 564.335938 116.972656 565.820312 C 119.78125 567.304688 122.621094 568.722656 125.5 570.066406 C 128.375 571.410156 131.285156 572.683594 134.222656 573.882812 C 137.160156 575.085938 140.128906 576.214844 143.125 577.269531 C 146.121094 578.324219 149.136719 579.304688 152.179688 580.207031 C 155.226562 581.113281 158.289062 581.945312 161.371094 582.699219 C 164.457031 583.453125 167.558594 584.132812 170.675781 584.730469 C 173.792969 585.332031 176.921875 585.859375 180.066406 586.304688 C 183.210938 586.75 186.363281 587.121094 189.523438 587.410156 C 192.683594 587.703125 195.851562 587.917969 199.023438 588.050781 C 202.195312 588.1875 205.371094 588.242188 208.542969 588.222656 C 215.554688 588.265625 222.546875 587.933594 229.523438 587.21875 C 236.496094 586.5 243.410156 585.410156 250.269531 583.941406 C 257.125 582.46875 263.878906 580.632812 270.535156 578.429688 C 277.191406 576.222656 283.707031 573.664062 290.085938 570.746094 C 296.464844 567.832031 302.664062 564.578125 308.6875 560.988281 C 314.710938 557.394531 320.523438 553.488281 326.121094 549.265625 C 331.71875 545.039062 337.074219 540.523438 342.179688 535.714844 C 347.289062 530.910156 352.121094 525.839844 356.675781 520.503906 L 385.359375 487.433594 L 321.335938 413.414062 L 283.578125 457.027344 C 281.269531 459.726562 278.820312 462.292969 276.230469 464.726562 C 273.644531 467.15625 270.929688 469.441406 268.09375 471.582031 C 265.257812 473.71875 262.3125 475.695312 259.261719 477.515625 C 256.210938 479.332031 253.070312 480.980469 249.839844 482.453125 C 246.609375 483.929688 243.308594 485.226562 239.9375 486.34375 C 236.566406 487.460938 233.144531 488.390625 229.675781 489.136719 C 226.203125 489.878906 222.699219 490.433594 219.167969 490.796875 C 215.636719 491.160156 212.09375 491.332031 208.542969 491.308594 C 206.953125 491.332031 205.363281 491.3125 203.773438 491.253906 C 202.183594 491.199219 200.597656 491.101562 199.011719 490.964844 C 197.429688 490.832031 195.847656 490.65625 194.273438 490.441406 C 192.695312 490.226562 191.128906 489.972656 189.5625 489.683594 C 188 489.390625 186.445312 489.058594 184.898438 488.691406 C 183.351562 488.320312 181.8125 487.914062 180.285156 487.46875 C 178.761719 487.023438 177.246094 486.542969 175.742188 486.019531 C 174.238281 485.5 172.75 484.945312 171.273438 484.351562 C 169.796875 483.753906 168.339844 483.125 166.894531 482.457031 C 165.449219 481.792969 164.023438 481.089844 162.613281 480.351562 C 161.203125 479.617188 159.8125 478.84375 158.441406 478.039062 C 157.070312 477.230469 155.71875 476.390625 154.390625 475.519531 C 153.058594 474.644531 151.753906 473.738281 150.46875 472.800781 C 149.183594 471.863281 147.921875 470.894531 146.683594 469.894531 C 145.449219 468.894531 144.234375 467.863281 143.050781 466.804688 C 141.863281 465.742188 140.703125 464.652344 139.570312 463.535156 C 138.441406 462.417969 137.335938 461.273438 136.261719 460.097656 C 135.183594 458.925781 134.140625 457.726562 133.121094 456.503906 C 132.105469 455.277344 131.121094 454.03125 130.167969 452.757812 C 129.210938 451.484375 128.289062 450.1875 127.398438 448.867188 C 126.507812 447.546875 125.652344 446.207031 124.828125 444.847656 C 124.003906 443.484375 123.214844 442.105469 122.457031 440.703125 C 121.703125 439.300781 120.980469 437.882812 120.296875 436.445312 C 119.609375 435.011719 118.960938 433.558594 118.347656 432.089844 C 117.734375 430.621094 117.15625 429.136719 116.617188 427.640625 C 116.078125 426.144531 115.574219 424.632812 115.109375 423.109375 C 114.644531 421.589844 114.214844 420.054688 113.824219 418.511719 C 113.4375 416.96875 113.085938 415.417969 112.769531 413.855469 C 112.457031 412.296875 112.183594 410.726562 111.949219 409.152344 C 111.714844 407.578125 111.515625 406 111.359375 404.414062 C 111.203125 402.832031 111.085938 401.246094 111.007812 399.652344 C 110.925781 398.0625 110.886719 396.472656 110.886719 394.882812 C 110.886719 393.289062 110.925781 391.699219 111.007812 390.109375 C 111.085938 388.519531 111.203125 386.929688 111.359375 385.347656 C 111.515625 383.761719 111.714844 382.183594 111.949219 380.609375 C 112.183594 379.035156 112.457031 377.46875 112.769531 375.90625 C 113.085938 374.34375 113.4375 372.792969 113.824219 371.25 C 114.214844 369.707031 114.644531 368.171875 115.109375 366.652344 C 115.574219 365.128906 116.078125 363.621094 116.617188 362.121094 C 117.15625 360.625 117.734375 359.140625 118.347656 357.671875 C 118.960938 356.203125 119.609375 354.75 120.296875 353.316406 C 120.980469 351.878906 121.703125 350.460938 122.457031 349.058594 C 123.214844 347.660156 124.003906 346.277344 124.828125 344.914062 C 125.652344 343.554688 126.507812 342.214844 127.398438 340.894531 C 128.289062 339.574219 129.210938 338.28125 130.167969 337.007812 C 131.121094 335.734375 132.105469 334.484375 133.121094 333.257812 C 134.140625 332.035156 135.183594 330.835938 136.261719 329.664062 C 137.335938 328.492188 138.441406 327.34375 139.570312 326.226562 C 140.703125 325.109375 141.863281 324.019531 143.050781 322.960938 C 144.234375 321.898438 145.449219 320.867188 146.683594 319.867188 C 147.921875 318.867188 149.183594 317.898438 150.46875 316.960938 C 151.753906 316.023438 153.058594 315.117188 154.390625 314.242188 C 155.71875 313.371094 157.070312 312.53125 158.441406 311.726562 C 159.8125 310.917969 161.203125 310.148438 162.613281 309.410156 C 164.023438 308.671875 165.449219 307.96875 166.894531 307.304688 C 168.339844 306.636719 169.796875 306.007812 171.273438 305.414062 C 172.75 304.820312 174.238281 304.261719 175.742188 303.742188 C 177.246094 303.222656 178.761719 302.738281 180.285156 302.292969 C 181.8125 301.847656 183.351562 301.441406 184.898438 301.070312 C 186.445312 300.703125 188 300.371094 189.5625 300.082031 C 191.128906 299.789062 192.695312 299.535156 194.273438 299.320312 C 195.847656 299.105469 197.429688 298.933594 199.011719 298.796875 C 200.597656 298.660156 202.183594 298.5625 203.773438 298.507812 C 205.363281 298.449219 206.953125 298.433594 208.542969 298.453125 C 212.082031 298.429688 215.613281 298.597656 219.132812 298.960938 C 222.65625 299.320312 226.144531 299.871094 229.605469 300.613281 C 233.066406 301.355469 236.476562 302.28125 239.839844 303.394531 C 243.199219 304.503906 246.488281 305.796875 249.707031 307.265625 C 252.929688 308.738281 256.058594 310.378906 259.101562 312.191406 C 262.140625 314.003906 265.078125 315.972656 267.902344 318.105469 C 270.730469 320.234375 273.433594 322.515625 276.015625 324.941406 C 278.59375 327.367188 281.035156 329.925781 283.335938 332.617188 C 423.550781 494.679688 356.933594 417.46875 445.992188 520.625 C 448.601562 523.738281 451.304688 526.765625 454.105469 529.707031 C 456.90625 532.648438 459.796875 535.5 462.777344 538.261719 C 465.753906 541.023438 468.820312 543.6875 471.964844 546.257812 C 475.109375 548.824219 478.335938 551.292969 481.636719 553.65625 C 484.9375 556.023438 488.308594 558.285156 491.753906 560.4375 C 495.195312 562.589844 498.703125 564.636719 502.273438 566.570312 C 505.84375 568.503906 509.472656 570.320312 513.15625 572.027344 C 516.84375 573.734375 520.578125 575.320312 524.363281 576.792969 C 528.144531 578.261719 531.972656 579.613281 535.84375 580.84375 C 539.710938 582.074219 543.617188 583.183594 547.554688 584.167969 C 551.496094 585.152344 555.460938 586.011719 559.453125 586.75 C 563.445312 587.484375 567.457031 588.09375 571.488281 588.578125 C 575.519531 589.0625 579.5625 589.417969 583.617188 589.648438 C 587.667969 589.878906 591.726562 589.980469 595.785156 589.957031 C 599.847656 589.929688 603.902344 589.777344 607.953125 589.5 C 612.003906 589.21875 616.039062 588.8125 620.0625 588.277344 C 624.089844 587.746094 628.09375 587.085938 632.078125 586.300781 C 636.058594 585.515625 640.015625 584.605469 643.941406 583.570312 C 647.867188 582.539062 651.757812 581.382812 655.613281 580.101562 C 659.464844 578.824219 663.277344 577.425781 667.042969 575.910156 C 670.808594 574.390625 674.523438 572.757812 678.1875 571.007812 C 681.851562 569.253906 685.457031 567.390625 689.003906 565.414062 C 692.550781 563.4375 696.03125 561.347656 699.449219 559.152344 C 702.863281 556.957031 706.207031 554.65625 709.480469 552.246094 C 712.75 549.839844 715.945312 547.335938 719.058594 544.726562 C 722.171875 542.121094 725.203125 539.417969 728.148438 536.621094 C 731.09375 533.824219 733.945312 530.9375 736.710938 527.957031 C 739.472656 524.980469 742.140625 521.921875 744.714844 518.777344 C 747.285156 515.632812 749.757812 512.410156 752.125 509.109375 C 754.496094 505.808594 756.761719 502.4375 758.917969 498.996094 C 761.078125 495.554688 763.125 492.046875 765.0625 488.476562 C 767.003906 484.90625 768.828125 481.277344 770.539062 477.59375 C 772.25 473.90625 773.84375 470.171875 775.320312 466.386719 C 776.796875 462.601562 778.152344 458.773438 779.390625 454.902344 C 780.625 451.03125 781.742188 447.125 782.730469 443.183594 C 783.722656 439.242188 784.589844 435.277344 785.332031 431.28125 C 786.078125 427.285156 786.691406 423.269531 787.183594 419.234375 C 787.675781 415.203125 788.039062 411.15625 788.277344 407.097656 C 788.515625 403.042969 788.625 398.980469 788.605469 394.917969 C 788.589844 390.855469 788.445312 386.792969 788.171875 382.738281 C 787.898438 378.683594 787.5 374.644531 786.976562 370.613281 C 786.449219 366.582031 785.800781 362.574219 785.023438 358.585938 C 784.246094 354.597656 783.34375 350.636719 782.320312 346.703125 C 781.292969 342.769531 780.144531 338.875 778.875 335.015625 C 777.605469 331.15625 776.21875 327.339844 774.707031 323.566406 C 773.199219 319.792969 771.574219 316.070312 769.832031 312.402344 C 768.089844 308.730469 766.234375 305.117188 764.265625 301.5625 C 762.292969 298.007812 760.214844 294.519531 758.027344 291.097656 C 755.839844 287.671875 753.546875 284.324219 751.148438 281.042969 C 748.75 277.765625 746.253906 274.5625 743.65625 271.441406 C 741.054688 268.316406 738.363281 265.28125 735.574219 262.328125 C 732.785156 259.375 729.90625 256.511719 726.9375 253.738281 C 723.96875 250.96875 720.914062 248.292969 717.777344 245.710938 C 714.640625 243.128906 711.425781 240.652344 708.132812 238.273438 C 704.84375 235.894531 701.480469 233.621094 698.042969 231.453125 C 694.609375 229.289062 691.109375 227.230469 687.546875 225.285156 C 683.984375 223.335938 680.363281 221.503906 676.683594 219.785156 C 673.003906 218.0625 669.277344 216.460938 665.496094 214.976562 C 661.71875 213.492188 657.894531 212.125 654.03125 210.878906 C 650.167969 209.636719 646.265625 208.511719 642.332031 207.511719 C 638.394531 206.511719 634.433594 205.636719 630.441406 204.886719 C 626.453125 204.136719 622.445312 203.511719 618.414062 203.011719 C 614.386719 202.511719 610.34375 202.140625 606.292969 201.894531 C 602.238281 201.648438 598.183594 201.53125 594.121094 201.542969 Z M 594.121094 201.542969 " fill-opacity="1" fill-rule="nonzero"/></svg>