<svg width="55" height="20" viewBox="0 0 55 20" fill="none" xmlns="http://www.w3.org/2000/svg">
<path d="M0 5C0 2.23858 2.23858 0 5 0H55V15C55 17.7614 52.7614 20 50 20H0V5Z" fill="#FCFCFE"/>
<path d="M6.052 15.117C5.662 15.117 5.38467 15.0607 5.22 14.948C5.05533 14.8267 4.95567 14.675 4.921 14.493C4.88633 14.3023 4.869 14.1117 4.869 13.921V7.2C4.869 6.74933 4.95567 6.44167 5.129 6.277C5.311 6.10367 5.63167 6.017 6.091 6.017H10.849C11.0483 6.017 11.2347 6.03433 11.408 6.069C11.59 6.10367 11.7373 6.20333 11.85 6.368C11.9713 6.53267 12.032 6.81433 12.032 7.213C12.032 7.603 11.9713 7.88033 11.85 8.045C11.7373 8.20967 11.59 8.30933 11.408 8.344C11.226 8.37867 11.0353 8.396 10.836 8.396H7.248V9.553H9.653C9.85233 9.553 10.03 9.57033 10.186 9.605C10.342 9.631 10.4677 9.71333 10.563 9.852C10.6583 9.99067 10.706 10.2333 10.706 10.58C10.706 10.9093 10.6583 11.1477 10.563 11.295C10.4677 11.4337 10.3377 11.516 10.173 11.542C10.0083 11.568 9.82633 11.581 9.627 11.581H7.248V12.738H10.849C11.0483 12.738 11.2347 12.7553 11.408 12.79C11.59 12.8247 11.7373 12.9243 11.85 13.089C11.9713 13.2537 12.032 13.5353 12.032 13.934C12.032 14.324 11.9713 14.6013 11.85 14.766C11.7373 14.9307 11.59 15.0303 11.408 15.065C11.226 15.0997 11.0353 15.117 10.836 15.117H6.052ZM14.742 15.117C14.3607 15.117 14.0877 15.0607 13.923 14.948C13.7583 14.8267 13.6587 14.675 13.624 14.493C13.5893 14.311 13.572 14.1203 13.572 13.921V7.174C13.572 6.98333 13.5893 6.80133 13.624 6.628C13.6587 6.45467 13.7583 6.31167 13.923 6.199C14.0963 6.08633 14.378 6.03 14.768 6.03C15.1493 6.03 15.4093 6.07767 15.548 6.173C15.6867 6.26833 15.8123 6.38967 15.925 6.537L19.175 10.905V7.174C19.175 6.98333 19.1923 6.80133 19.227 6.628C19.2703 6.45467 19.3743 6.31167 19.539 6.199C19.7037 6.08633 19.981 6.03 20.371 6.03C20.7697 6.03 21.047 6.09067 21.203 6.212C21.3677 6.32467 21.4673 6.472 21.502 6.654C21.5367 6.836 21.554 7.02667 21.554 7.226V13.934C21.554 14.1247 21.5367 14.311 21.502 14.493C21.4673 14.675 21.3677 14.8267 21.203 14.948C21.0383 15.0607 20.7567 15.117 20.358 15.117C20.0633 15.117 19.838 15.091 19.682 15.039C19.5347 14.9957 19.409 14.9047 19.305 14.766L15.938 10.32V13.934C15.938 14.1247 15.9207 14.311 15.886 14.493C15.8513 14.675 15.7517 14.8267 15.587 14.948C15.4223 15.0607 15.1407 15.117 14.742 15.117ZM27.675 15.104C27.389 15.104 27.1463 15.052 26.947 14.948C26.7477 14.8353 26.6003 14.6707 26.505 14.454L23.424 7.681C23.2593 7.29967 23.216 7.00067 23.294 6.784C23.3807 6.55867 23.6233 6.35067 24.022 6.16C24.2993 6.004 24.5333 5.926 24.724 5.926C24.9233 5.91733 25.0923 5.978 25.231 6.108C25.3697 6.238 25.491 6.43733 25.595 6.706L27.649 11.763L29.703 6.706C29.8157 6.43733 29.9413 6.238 30.08 6.108C30.2187 5.978 30.3877 5.91733 30.587 5.926C30.7863 5.93467 31.016 6.01267 31.276 6.16C31.7093 6.368 31.9607 6.58033 32.03 6.797C32.0993 7.005 32.0473 7.29967 31.874 7.681L28.793 14.454C28.7063 14.6447 28.559 14.8007 28.351 14.922C28.1517 15.0433 27.9263 15.104 27.675 15.104ZM37.5995 15.26C36.9668 15.26 36.3732 15.143 35.8185 14.909C35.2725 14.6663 34.7915 14.3327 34.3755 13.908C33.9595 13.4833 33.6302 12.9937 33.3875 12.439C33.1535 11.8757 33.0365 11.2777 33.0365 10.645C33.0365 9.98633 33.1492 9.371 33.3745 8.799C33.6085 8.227 33.9292 7.72433 34.3365 7.291C34.7438 6.85767 35.2162 6.51967 35.7535 6.277C36.2995 6.03433 36.8802 5.913 37.4955 5.913C38.1282 5.913 38.7175 6.03433 39.2635 6.277C39.8182 6.511 40.3035 6.84033 40.7195 7.265C41.1355 7.68967 41.4605 8.188 41.6945 8.76C41.9285 9.32333 42.0455 9.93433 42.0455 10.593C42.0455 11.2343 41.9285 11.8367 41.6945 12.4C41.4692 12.9633 41.1485 13.4617 40.7325 13.895C40.3252 14.3197 39.8528 14.6533 39.3155 14.896C38.7868 15.1387 38.2148 15.26 37.5995 15.26ZM37.5345 12.881C37.8292 12.881 38.1065 12.8247 38.3665 12.712C38.6265 12.5907 38.8518 12.4303 39.0425 12.231C39.2418 12.023 39.3935 11.7803 39.4975 11.503C39.6102 11.217 39.6665 10.9137 39.6665 10.593C39.6665 10.2723 39.6102 9.97333 39.4975 9.696C39.3848 9.41867 39.2288 9.176 39.0295 8.968C38.8388 8.75133 38.6135 8.58667 38.3535 8.474C38.1022 8.35267 37.8335 8.292 37.5475 8.292C37.2528 8.292 36.9755 8.35267 36.7155 8.474C36.4642 8.58667 36.2388 8.75133 36.0395 8.968C35.8488 9.176 35.6972 9.41867 35.5845 9.696C35.4718 9.97333 35.4155 10.2723 35.4155 10.593C35.4155 10.905 35.4718 11.1997 35.5845 11.477C35.6972 11.7543 35.8488 12.0013 36.0395 12.218C36.2388 12.426 36.4642 12.5907 36.7155 12.712C36.9755 12.8247 37.2485 12.881 37.5345 12.881ZM45.0566 15.117C44.6666 15.117 44.3893 15.0607 44.2246 14.948C44.06 14.8267 43.9603 14.675 43.9256 14.493C43.891 14.3023 43.8736 14.1117 43.8736 13.921V7.2C43.8736 7.00933 43.891 6.823 43.9256 6.641C43.9603 6.459 44.06 6.31167 44.2246 6.199C44.3893 6.07767 44.671 6.017 45.0696 6.017C45.4683 6.017 45.7456 6.07767 45.9016 6.199C46.0663 6.31167 46.166 6.459 46.2006 6.641C46.2353 6.823 46.2526 7.01367 46.2526 7.213V13.089H49.4246C49.5893 13.089 49.7453 13.102 49.8926 13.128C50.0486 13.154 50.1743 13.2407 50.2696 13.388C50.3736 13.5267 50.4256 13.765 50.4256 14.103C50.4256 14.4323 50.3736 14.6707 50.2696 14.818C50.1656 14.9567 50.0356 15.039 49.8796 15.065C49.7323 15.0997 49.5763 15.117 49.4116 15.117H45.0566Z" fill="url(#paint0_linear_2583_2240)"/>
<defs>
<linearGradient id="paint0_linear_2583_2240" x1="2" y1="4.5" x2="51" y2="18" gradientUnits="userSpaceOnUse">
<stop stop-color="#FF940E"/>
<stop offset="1" stop-color="#FFD539"/>
</linearGradient>
</defs>
</svg>
